<?xml version="1.0" encoding="UTF-8" standalone="no"?>
<svg width="178px" height="221px" viewBox="0 0 178 221" version="1.1" xmlns="http://www.w3.org/2000/svg" xmlns:xlink="http://www.w3.org/1999/xlink" xmlns:sketch="http://www.bohemiancoding.com/sketch/ns">
    <!-- Generator: Sketch 3.3.3 (12081) - http://www.bohemiancoding.com/sketch -->
    <title>Slice 1</title>
    <desc>Created with Sketch.</desc>
    <defs></defs>
    <g id="Page-1" stroke="none" stroke-width="1" fill="none" fill-rule="evenodd" sketch:type="MSPage">
        <g id="box_logo" sketch:type="MSLayerGroup" transform="translate(1.000000, 0.000000)">
            <g id="Page-1" sketch:type="MSShapeGroup">
                <g id="temp_box_logo-01">
                    <path d="M64.387,91.507 C76.962,75.335 96.602,64.928 118.674,64.928 C142.347,64.928 163.224,76.897 175.586,95.114 L175.586,81.576 C175.586,66.629 163.357,54.4 148.41,54.4 L27.379,54.4 C12.432,54.4 0.203,66.629 0.203,81.576 L0.203,96.477 C9.36,87.788 21.734,82.456 35.355,82.456 C46.14,82.455 56.143,85.801 64.387,91.507 L64.387,91.507 L64.387,91.507 Z" id="Shape" stroke="#0CB8E8" fill="#0CB8E8"></path>
                    <path d="M118.674,64.928 C96.602,64.928 76.962,75.335 64.387,91.507 C56.143,85.801 46.14,82.455 35.355,82.455 C21.735,82.455 9.36,87.787 0.203,96.476 L0.203,170.589 L0.203,193.128 C0.203,208.075 12.432,220.304 27.379,220.304 L148.41,220.304 C163.357,220.304 175.586,208.075 175.586,193.128 L175.586,172.204 L175.586,95.113 C163.224,76.898 142.348,64.928 118.674,64.928 L118.674,64.928 L118.674,64.928 Z" id="Shape" stroke="#0CB8E8"></path>
                    <g id="Group" transform="translate(20.000000, 107.000000)" fill="#0CB8E8">
                        <path d="M73.949,23.514 C63.941,23.514 55.206,28.968 50.556,37.067 C45.906,28.969 37.172,23.514 27.163,23.514 C20.997,23.514 15.316,25.586 10.775,29.069 L10.775,6.279 C10.775,3.361 8.409,0.995 5.491,0.995 C2.573,0.995 0.207,3.361 0.207,6.279 L0.207,51.332 L0.222,51.332 C0.677,65.821 12.564,77.427 27.163,77.427 C37.171,77.427 45.906,71.973 50.556,63.874 C55.206,71.972 63.94,77.427 73.949,77.427 C88.837,77.427 100.905,65.358 100.905,50.471 C100.905,35.583 88.836,23.514 73.949,23.514 L73.949,23.514 L73.949,23.514 Z M27.163,66.297 C18.283,66.297 11.085,59.098 11.085,50.219 C11.085,41.34 18.283,34.141 27.163,34.141 C36.043,34.141 43.241,41.339 43.241,50.219 C43.241,59.099 36.043,66.297 27.163,66.297 L27.163,66.297 L27.163,66.297 Z M73.949,66.297 C65.069,66.297 57.871,59.098 57.871,50.219 C57.871,41.34 65.069,34.141 73.949,34.141 C82.829,34.141 90.027,41.339 90.027,50.219 C90.027,59.099 82.829,66.297 73.949,66.297 L73.949,66.297 L73.949,66.297 Z" id="Shape"></path>
                        <path d="M135.204,67.604 L122.066,49.814 L135.368,31.819 C135.482,31.679 135.591,31.534 135.691,31.382 C136.238,30.55 136.556,29.554 136.556,28.484 C136.556,25.566 134.19,23.2 131.272,23.2 C129.524,23.2 127.978,24.053 127.017,25.361 L127.013,25.358 L115.51,40.935 L104.007,25.358 L104.003,25.361 C103.041,24.053 101.496,23.2 99.748,23.2 C96.83,23.2 94.464,25.566 94.464,28.484 C94.464,29.554 94.782,30.55 95.329,31.382 C95.429,31.534 95.538,31.679 95.652,31.819 L108.953,49.814 L95.815,67.604 L95.819,67.607 C94.979,68.543 94.463,69.776 94.463,71.132 C94.463,74.05 96.829,76.416 99.747,76.416 C101.397,76.416 102.869,75.659 103.838,74.474 L103.838,74.474 L103.898,74.393 C103.982,74.286 104.064,74.179 104.14,74.066 L115.509,58.685 L126.878,74.066 C126.954,74.179 127.036,74.287 127.12,74.393 L127.18,74.474 C128.149,75.659 129.621,76.416 131.271,76.416 C134.189,76.416 136.555,74.05 136.555,71.132 C136.555,69.776 136.039,68.542 135.199,67.607 L135.204,67.604 L135.204,67.604 Z" id="Shape"></path>
                    </g>
                    <g id="Group" transform="translate(1.000000, 0.000000)" fill="#0CB8E8">
                        <path d="M14.148,0.708 C16.451,0.708 18.707,0.896 20.633,2.353 C22.795,3.998 23.923,6.301 23.923,8.98 C23.923,12.128 22.09,14.949 19.27,16.311 C23.171,17.721 25.52,21.058 25.52,25.194 C25.52,27.732 24.486,30.269 22.606,32.008 C20.398,34.029 17.907,34.264 14.993,34.264 L0.33,34.264 L0.33,31.162 L4.607,31.162 L4.607,3.809 L0.33,3.809 L0.33,0.707 L14.148,0.707 L14.148,0.708 L14.148,0.708 Z M13.161,15.182 C15.229,15.182 16.874,15.229 18.566,13.82 C19.929,12.692 20.54,11.141 20.54,9.355 C20.54,7.522 19.835,5.83 18.331,4.749 C16.827,3.669 15.088,3.81 13.302,3.81 L7.991,3.81 L7.991,15.183 L13.161,15.183 L13.161,15.182 L13.161,15.182 Z M13.772,31.162 C15.934,31.162 18.095,31.162 19.834,30.034 C21.526,28.953 22.137,26.697 22.137,24.77 C22.137,22.655 21.197,20.587 19.458,19.365 C17.625,18.096 15.557,18.096 13.396,18.096 L7.991,18.096 L7.991,31.161 L13.772,31.161 L13.772,31.162 L13.772,31.162 Z" id="Shape"></path>
                        <path d="M48.927,30.127 C47.329,33.135 44.228,34.921 40.703,34.921 C37.084,34.921 33.794,32.618 32.29,30.127 C31.491,28.811 31.021,26.979 31.021,24.065 L31.021,12.503 L26.885,12.503 L26.885,9.589 L34.123,9.589 L34.123,22.89 C34.123,25.193 34.17,27.402 35.674,29.375 C37.131,31.302 39.152,32.195 41.596,32.007 C44.039,31.819 45.919,30.785 47.141,29.328 C48.833,27.307 48.927,25.521 48.927,22.983 L48.927,12.503 L44.791,12.503 L44.791,9.589 L52.029,9.589 L52.029,31.349 L56.212,31.349 L56.212,34.263 L48.927,34.263 L48.927,30.127 L48.927,30.127 Z" id="Shape"></path>
                        <path d="M64.579,31.349 L68.715,31.349 L68.715,34.263 L57.248,34.263 L57.248,31.349 L61.477,31.349 L61.477,12.503 L57.341,12.503 L57.341,9.589 L64.579,9.589 L64.579,31.349 L64.579,31.349 Z M64.579,5.548 L61.477,5.548 L61.477,0.707 L64.579,0.707 L64.579,5.548 L64.579,5.548 Z" id="Shape"></path>
                        <path d="M76.987,31.349 L81.075,31.349 L81.075,34.263 L69.467,34.263 L69.467,31.349 L73.884,31.349 L73.884,3.621 L69.748,3.621 L69.748,0.707 L76.986,0.707 L76.986,31.349 L76.987,31.349 L76.987,31.349 Z" id="Shape"></path>
                        <path d="M90.382,31.349 L96.21,31.349 L96.21,34.263 L87.281,34.263 L87.281,12.503 L82.534,12.503 L82.534,9.589 L87.281,9.589 L87.281,0.707 L90.383,0.707 L90.383,9.589 L95.835,9.589 L95.835,12.503 L90.383,12.503 L90.383,31.349 L90.382,31.349 L90.382,31.349 Z" id="Shape"></path>
                        <path d="M111.672,22.091 C111.672,14.901 117.5,9.166 124.691,9.166 C131.693,9.166 137.521,14.9 137.521,21.855 C137.521,29.045 131.834,34.92 124.597,34.92 C117.453,34.921 111.672,29.14 111.672,22.091 L111.672,22.091 L111.672,22.091 Z M134.418,22.043 C134.418,16.686 130.094,12.221 124.643,12.221 C119.192,12.221 114.774,16.592 114.774,21.996 C114.774,27.354 119.098,31.866 124.596,31.866 C130.048,31.867 134.418,27.449 134.418,22.043 L134.418,22.043 L134.418,22.043 Z" id="Shape"></path>
                        <path d="M146.263,13.914 C147.814,10.859 151.151,9.167 154.535,9.167 C157.307,9.167 161.443,10.671 163.041,13.914 C163.652,15.136 164.404,17.345 164.404,20.352 L164.404,31.349 L168.54,31.349 L168.54,34.263 L157.167,34.263 L157.167,31.349 L161.303,31.349 L161.303,21.48 C161.303,19.271 161.256,17.157 160.128,15.229 C158.812,12.926 156.039,12.221 153.69,12.221 C151.527,12.221 149.319,13.161 147.909,14.806 C146.311,16.686 146.264,18.801 146.264,21.104 L146.264,31.349 L150.4,31.349 L150.4,34.263 L139.027,34.263 L139.027,31.349 L143.163,31.349 L143.163,12.503 L139.027,12.503 L139.027,9.589 L146.264,9.589 L146.264,13.914 L146.263,13.914 L146.263,13.914 Z" id="Shape"></path>
                    </g>
                </g>
            </g>
        </g>
    </g>
</svg>