<?xml version="1.0" encoding="UTF-8" standalone="no"?>
<svg width="376px" height="360px" viewBox="0 0 376 360" version="1.1" xmlns="http://www.w3.org/2000/svg" xmlns:xlink="http://www.w3.org/1999/xlink" xmlns:sketch="http://www.bohemiancoding.com/sketch/ns">
    <!-- Generator: Sketch 3.3.3 (12081) - http://www.bohemiancoding.com/sketch -->
    <title>Sumati_Services_RELEASE Copy</title>
    <desc>Created with Sketch.</desc>
    <defs></defs>
    <g id="Page-1" stroke="none" stroke-width="1" fill="none" fill-rule="evenodd" sketch:type="MSPage">
        <g id="Sumati_Services_RELEASE" sketch:type="MSLayerGroup">
            <g id="Contract_Risk_Management_Screens" sketch:type="MSShapeGroup">
                <g id="Circles_Group">
                    <g id="Group" transform="translate(5.000000, 0.000000)" fill="#011414" fill-opacity="0.4">
                        <circle id="Oval" cx="185" cy="45.815" r="45.815"></circle>
                        <circle id="Oval" cx="76.469" cy="98.01" r="45.815"></circle>
                        <circle id="Oval" cx="45.875" cy="215.425" r="45.815"></circle>
                        <circle id="Oval" cx="120.372" cy="311.905" r="45.815"></circle>
                        <circle id="Oval" cx="243.343" cy="313.461" r="45.815"></circle>
                        <circle id="Oval" cx="319.23" cy="214.425" r="45.815"></circle>
                        <circle id="Oval" cx="292.159" cy="99.813" r="45.815"></circle>
                    </g>
                    <path d="M258.275,66.643 L255.265,52.483 L251.459,58.344 L243.515,53.185 L240.41,57.966 L248.354,63.125 L244.115,69.653 L258.275,66.643 Z" id="Shape" fill="#FFFFFF"></path>
                    <path d="M56.974,142.821 L43.838,148.906 L50.399,151.313 L47.137,160.206 L52.49,162.169 L55.752,153.276 L63.059,155.957 L56.974,142.821 Z" id="Shape" fill="#FFFFFF"></path>
                    <path d="M73.329,261.141 L69.896,275.205 L75.869,271.576 L80.788,279.671 L85.66,276.71 L80.741,268.615 L87.392,264.574 L73.329,261.141 Z" id="Shape" fill="#FFFFFF"></path>
                    <path d="M176.032,322.127 L184.887,333.579 L185.774,326.647 L195.169,327.848 L195.892,322.193 L186.497,320.992 L187.484,313.272 L176.032,322.127 Z" id="Shape" fill="#FFFFFF"></path>
                    <path d="M287.747,279.855 L302.222,280.072 L297.355,275.057 L304.152,268.461 L300.182,264.369 L293.385,270.966 L287.964,265.38 L287.747,279.855 Z" id="Shape" fill="#FFFFFF"></path>
                    <path d="M324.002,163.763 L333.001,152.423 L326.058,153.222 L324.974,143.812 L319.311,144.464 L320.394,153.874 L312.662,154.764 L324.002,163.763 Z" id="Shape" fill="#FFFFFF"></path>
                    <rect id="Rectangle-path" x="28.846" y="90.143" width="101.595" height="48.136"></rect>
                    <rect id="Rectangle-path" x="248.846" y="90.143" width="101.595" height="48.136"></rect>
                    <rect id="Rectangle-path" x="74.574" y="305.143" width="101.595" height="48.136"></rect>
                    <rect id="Rectangle-path" x="197.238" y="305.143" width="101.595" height="48.136"></rect>
                    <rect id="Rectangle-path" x="0.077" y="208" width="101.595" height="48.136"></rect>
                    <rect id="Rectangle-path" x="273.432" y="209" width="101.595" height="48.136"></rect>
                    <rect id="Rectangle-path" x="139.202" y="38" width="101.595" height="48.136"></rect>
                    <g id="Texts-Glyphs" transform="translate(13.000000, 38.000000)" fill="#FFFFFF">
                        <path d="M49.2611,65.0117 L48.8531,64.0257 C48.4111,64.2977 47.9351,64.4847 47.2211,64.4847 C45.0791,64.4847 44.2121,62.1727 44.2121,59.6397 C44.2121,57.1577 44.9941,54.7267 47.2381,54.7267 C47.9691,54.7267 48.5131,54.9647 48.8701,55.1857 L49.2441,54.2677 C48.7341,53.8937 48.0031,53.6217 46.9661,53.6217 C44.1441,53.6217 42.5801,56.3927 42.5801,59.6397 C42.5801,62.9547 44.1611,65.6577 46.9661,65.6577 C47.9181,65.6577 48.7511,65.4027 49.2611,65.0117 L49.2611,65.0117 Z M57.7951,60.9147 C57.7951,58.1777 56.7241,56.1547 54.2081,56.1547 C51.7431,56.1547 50.6381,58.1777 50.6381,60.9147 C50.6381,63.6007 51.7261,65.6577 54.2251,65.6577 C56.7071,65.6577 57.7951,63.6007 57.7951,60.9147 L57.7951,60.9147 Z M56.2991,60.9147 C56.2991,62.7507 55.9761,64.6207 54.2251,64.6207 C52.5081,64.6207 52.1341,62.7677 52.1341,60.9147 C52.1341,59.0617 52.4741,57.1067 54.2251,57.1067 C55.9761,57.1067 56.2991,59.0787 56.2991,60.9147 L56.2991,60.9147 Z M66.4991,65.4877 L66.4991,58.8747 C66.4991,57.5657 65.7511,56.1547 63.2011,56.1547 C61.7391,56.1547 60.6681,56.4097 59.8521,56.8007 L59.8521,65.4877 L61.3481,65.4877 L61.3481,57.4467 C61.8241,57.2427 62.2321,57.1237 63.0821,57.1237 C64.6461,57.1237 65.0031,58.0587 65.0031,58.9087 L65.0031,65.4877 L66.4991,65.4877 Z M72.5171,65.4367 L72.5171,64.4847 C72.3641,64.5187 72.2281,64.5527 72.0751,64.5527 C71.2421,64.5527 70.9191,63.9577 70.9191,63.2267 L70.9191,57.2597 L72.5171,57.2597 L72.5171,56.3247 L70.9191,56.3247 L70.9191,53.7577 L69.4231,54.2167 L69.4231,56.3247 L68.3691,56.3247 L68.3691,57.2597 L69.4231,57.2597 L69.4231,63.2607 C69.4231,64.3827 70.0351,65.5727 71.7011,65.5727 C72.0751,65.5727 72.3471,65.4877 72.5171,65.4367 L72.5171,65.4367 Z M78.3141,56.1717 C76.1381,56.1207 75.2711,56.3587 74.3701,56.8177 L74.3701,65.4877 L75.8661,65.4877 L75.8661,57.4807 C76.3591,57.1577 77.2091,57.0897 77.9571,57.3107 L78.3141,56.1717 Z M86.6441,60.9147 C86.6441,58.1777 85.5731,56.1547 83.0571,56.1547 C80.5921,56.1547 79.4871,58.1777 79.4871,60.9147 C79.4871,63.6007 80.5751,65.6577 83.0741,65.6577 C85.5561,65.6577 86.6441,63.6007 86.6441,60.9147 L86.6441,60.9147 Z M85.1481,60.9147 C85.1481,62.7507 84.8251,64.6207 83.0741,64.6207 C81.3571,64.6207 80.9831,62.7677 80.9831,60.9147 C80.9831,59.0617 81.3231,57.1067 83.0741,57.1067 C84.8251,57.1067 85.1481,59.0787 85.1481,60.9147 L85.1481,60.9147 Z M90.2991,65.4877 L90.2991,52.1427 L88.8031,52.1427 L88.8031,65.4877 L90.2991,65.4877 Z" id="Control"></path>
                        <path d="M264.8587,59.6397 C264.8587,56.3247 263.6687,53.6217 260.6427,53.6217 C257.5997,53.6217 256.4097,56.3247 256.4097,59.6397 C256.4097,62.9887 257.5997,65.6577 260.6427,65.6577 C263.6687,65.6577 264.8587,62.9887 264.8587,59.6397 L264.8587,59.6397 Z M263.2777,59.5887 C263.2777,61.9517 262.8527,64.5017 260.6427,64.5017 C258.4327,64.5017 257.9907,61.9517 257.9907,59.5887 C257.9907,57.2257 258.5007,54.6587 260.6427,54.6587 C262.7677,54.6587 263.2777,57.2257 263.2777,59.5887 L263.2777,59.5887 Z M270.9277,56.1717 C268.7517,56.1207 267.8847,56.3587 266.9837,56.8177 L266.9837,65.4877 L268.4797,65.4877 L268.4797,57.4807 C268.9727,57.1577 269.8227,57.0897 270.5707,57.3107 L270.9277,56.1717 Z M278.9857,65.6747 L278.9857,56.8007 C278.4587,56.4607 277.5407,56.1547 276.2657,56.1547 C273.5117,56.1547 272.1007,58.1607 272.1007,61.0677 C272.1007,63.8557 273.5117,65.5897 275.7047,65.5897 C276.5037,65.5897 277.1327,65.4367 277.5407,65.1987 L277.5407,65.8447 C277.5407,67.2217 276.8947,68.2417 275.2117,68.2417 C274.3957,68.2417 273.5967,67.9867 273.0867,67.6977 L272.6277,68.7007 C273.2397,69.0747 274.2597,69.3297 275.4667,69.3297 C277.6597,69.3297 278.9857,67.9867 278.9857,65.6747 L278.9857,65.6747 Z M277.5407,64.3317 C277.1837,64.5527 276.6737,64.7057 276.0957,64.7057 C274.3447,64.7057 273.5797,63.3797 273.5797,61.0167 C273.5797,58.6027 274.3787,57.0557 276.2317,57.0557 C276.7587,57.0557 277.2007,57.1237 277.5407,57.3107 L277.5407,64.3317 Z M287.4687,65.0117 L287.4687,59.1297 C287.4687,56.8857 285.9727,56.1547 284.2727,56.1547 C283.0147,56.1547 281.9947,56.5457 281.4677,56.8347 L281.8247,57.7187 C282.3347,57.4637 283.1507,57.1407 284.0347,57.1407 C285.2077,57.1407 286.0577,57.5487 286.0577,58.9597 L286.0577,59.5207 C283.2187,59.8097 280.9407,60.5237 280.9407,62.9547 C280.9407,64.6207 282.0457,65.6577 284.4257,65.6577 C285.7007,65.6577 286.7717,65.4027 287.4687,65.0117 L287.4687,65.0117 Z M286.0577,64.4847 C285.6837,64.6887 285.1227,64.7907 284.5447,64.7907 C283.1847,64.7907 282.3687,64.2467 282.3687,62.9207 C282.3687,61.0677 283.7457,60.5747 286.0577,60.2857 L286.0577,64.4847 Z M296.5297,65.4877 L296.5297,58.8747 C296.5297,57.5657 295.7817,56.1547 293.2317,56.1547 C291.7697,56.1547 290.6987,56.4097 289.8827,56.8007 L289.8827,65.4877 L291.3787,65.4877 L291.3787,57.4467 C291.8547,57.2427 292.2627,57.1237 293.1127,57.1237 C294.6767,57.1237 295.0337,58.0587 295.0337,58.9087 L295.0337,65.4877 L296.5297,65.4877 Z M300.6607,53.7407 C300.6607,53.2817 300.2697,52.9077 299.7937,52.9077 C299.3007,52.9077 298.9097,53.2817 298.9097,53.7407 C298.9097,54.1827 299.3007,54.5567 299.7937,54.5567 C300.2697,54.5567 300.6607,54.1827 300.6607,53.7407 L300.6607,53.7407 Z M300.5417,65.4877 L300.5417,56.3247 L299.0457,56.3247 L299.0457,65.4877 L300.5417,65.4877 Z M308.2427,65.4877 L308.2427,64.5527 L304.3327,64.5527 L308.1067,56.3247 L302.6327,56.3247 L302.6327,57.2597 L306.2027,57.2597 L302.3437,65.4877 L308.2427,65.4877 Z M316.9467,60.6427 C316.9807,57.5827 315.6547,56.1547 313.4617,56.1547 C311.3027,56.1547 309.7727,57.7697 309.7727,60.8807 C309.7727,64.1447 311.4557,65.6577 313.8527,65.6577 C315.0937,65.6577 316.0627,65.3687 316.6237,65.0287 L316.2327,64.0427 C315.7567,64.3147 315.0087,64.5697 313.9717,64.5697 C312.3227,64.5697 311.3537,63.5497 311.1837,61.4757 L316.9467,60.6427 Z M315.5187,60.0137 L311.1327,60.6767 C311.0987,58.1947 312.0847,57.1237 313.4107,57.1237 C314.7197,57.1237 315.5187,57.9397 315.5187,60.0137 L315.5187,60.0137 Z" id="Organize"></path>
                        <path d="M94.0548,280.4877 L90.1108,268.7917 L88.7168,268.7917 L84.7558,280.4877 L86.1838,280.4877 L87.3228,276.9857 L91.3348,276.9857 L92.4398,280.4877 L94.0548,280.4877 Z M91.0798,276.0507 L87.5948,276.0507 L88.9888,271.6137 C89.2778,270.6957 89.3458,270.2027 89.3458,270.2027 L89.3798,270.2027 C89.3798,270.2027 89.4308,270.6957 89.7198,271.6137 L91.0798,276.0507 Z M102.2318,280.4877 L102.2318,273.8747 C102.2318,272.5657 101.4838,271.1547 98.9338,271.1547 C97.4718,271.1547 96.4008,271.4097 95.5848,271.8007 L95.5848,280.4877 L97.0808,280.4877 L97.0808,272.4467 C97.5568,272.2427 97.9648,272.1237 98.8148,272.1237 C100.3788,272.1237 100.7358,273.0587 100.7358,273.9087 L100.7358,280.4877 L102.2318,280.4877 Z M110.7148,280.0117 L110.7148,274.1297 C110.7148,271.8857 109.2188,271.1547 107.5188,271.1547 C106.2608,271.1547 105.2408,271.5457 104.7138,271.8347 L105.0708,272.7187 C105.5808,272.4637 106.3968,272.1407 107.2808,272.1407 C108.4538,272.1407 109.3038,272.5487 109.3038,273.9597 L109.3038,274.5207 C106.4648,274.8097 104.1868,275.5237 104.1868,277.9547 C104.1868,279.6207 105.2918,280.6577 107.6718,280.6577 C108.9468,280.6577 110.0178,280.4027 110.7148,280.0117 L110.7148,280.0117 Z M109.3038,279.4847 C108.9298,279.6887 108.3688,279.7907 107.7908,279.7907 C106.4308,279.7907 105.6148,279.2467 105.6148,277.9207 C105.6148,276.0677 106.9918,275.5747 109.3038,275.2857 L109.3038,279.4847 Z M114.7268,280.4877 L114.7268,267.1427 L113.2308,267.1427 L113.2308,280.4877 L114.7268,280.4877 Z M123.9068,271.3247 L122.5128,271.3247 L120.5238,277.9037 C120.3368,278.5327 120.2858,279.0767 120.2858,279.0767 L120.2518,279.0767 C120.2518,279.0767 120.2178,278.5327 120.0308,277.9037 L118.1438,271.3247 L116.5458,271.3247 L119.6058,280.4877 L118.0758,284.1427 L119.6908,284.1427 L123.9068,271.3247 Z M130.7578,280.4877 L130.7578,279.5527 L126.8478,279.5527 L130.6218,271.3247 L125.1478,271.3247 L125.1478,272.2597 L128.7178,272.2597 L124.8588,280.4877 L130.7578,280.4877 Z M139.4618,275.6427 C139.4958,272.5827 138.1698,271.1547 135.9768,271.1547 C133.8178,271.1547 132.2878,272.7697 132.2878,275.8807 C132.2878,279.1447 133.9708,280.6577 136.3678,280.6577 C137.6088,280.6577 138.5778,280.3687 139.1388,280.0287 L138.7478,279.0427 C138.2718,279.3147 137.5238,279.5697 136.4868,279.5697 C134.8378,279.5697 133.8688,278.5497 133.6988,276.4757 L139.4618,275.6427 Z M138.0338,275.0137 L133.6478,275.6767 C133.6138,273.1947 134.5998,272.1237 135.9258,272.1237 C137.2348,272.1237 138.0338,272.9397 138.0338,275.0137 L138.0338,275.0137 Z" id="Analyze"></path>
                        <path d="M218.8613,280.4877 L217.4673,268.7917 L215.8183,268.7917 L213.4043,277.2577 C213.1833,278.0227 213.0983,278.5667 213.0983,278.5667 L213.0643,278.5667 C213.0643,278.5667 212.9793,278.0227 212.7583,277.2407 L210.4123,268.7917 L208.7633,268.7917 L207.3693,280.4877 L208.7123,280.4877 C208.7293,280.3177 209.6303,271.7157 209.6303,271.7157 C209.6983,271.0187 209.7153,270.3557 209.7153,270.3557 L209.7493,270.3557 C209.7493,270.3557 209.8853,271.0187 210.0723,271.7157 C210.0723,271.7157 212.4693,280.3177 212.5203,280.4877 L213.5573,280.4877 C213.6253,280.2837 216.0393,271.7327 216.0393,271.7327 C216.2433,271.0017 216.3623,270.3557 216.3623,270.3557 L216.3963,270.3557 C216.3963,270.3557 216.4133,271.0017 216.4813,271.7327 C216.4813,271.7327 217.3653,280.3347 217.3823,280.4877 L218.8613,280.4877 Z M227.0383,280.0117 L227.0383,274.1297 C227.0383,271.8857 225.5423,271.1547 223.8423,271.1547 C222.5843,271.1547 221.5643,271.5457 221.0373,271.8347 L221.3943,272.7187 C221.9043,272.4637 222.7203,272.1407 223.6043,272.1407 C224.7773,272.1407 225.6273,272.5487 225.6273,273.9597 L225.6273,274.5207 C222.7883,274.8097 220.5103,275.5237 220.5103,277.9547 C220.5103,279.6207 221.6153,280.6577 223.9953,280.6577 C225.2703,280.6577 226.3413,280.4027 227.0383,280.0117 L227.0383,280.0117 Z M225.6273,279.4847 C225.2533,279.6887 224.6923,279.7907 224.1143,279.7907 C222.7543,279.7907 221.9383,279.2467 221.9383,277.9207 C221.9383,276.0677 223.3153,275.5747 225.6273,275.2857 L225.6273,279.4847 Z M236.0993,280.4877 L236.0993,273.8747 C236.0993,272.5657 235.3513,271.1547 232.8013,271.1547 C231.3393,271.1547 230.2683,271.4097 229.4523,271.8007 L229.4523,280.4877 L230.9483,280.4877 L230.9483,272.4467 C231.4243,272.2427 231.8323,272.1237 232.6823,272.1237 C234.2463,272.1237 234.6033,273.0587 234.6033,273.9087 L234.6033,280.4877 L236.0993,280.4877 Z M244.5823,280.0117 L244.5823,274.1297 C244.5823,271.8857 243.0863,271.1547 241.3863,271.1547 C240.1283,271.1547 239.1083,271.5457 238.5813,271.8347 L238.9383,272.7187 C239.4483,272.4637 240.2643,272.1407 241.1483,272.1407 C242.3213,272.1407 243.1713,272.5487 243.1713,273.9597 L243.1713,274.5207 C240.3323,274.8097 238.0543,275.5237 238.0543,277.9547 C238.0543,279.6207 239.1593,280.6577 241.5393,280.6577 C242.8143,280.6577 243.8853,280.4027 244.5823,280.0117 L244.5823,280.0117 Z M243.1713,279.4847 C242.7973,279.6887 242.2363,279.7907 241.6583,279.7907 C240.2983,279.7907 239.4823,279.2467 239.4823,277.9207 C239.4823,276.0677 240.8593,275.5747 243.1713,275.2857 L243.1713,279.4847 Z M253.5243,280.6747 L253.5243,271.8007 C252.9973,271.4607 252.0793,271.1547 250.8043,271.1547 C248.0503,271.1547 246.6393,273.1607 246.6393,276.0677 C246.6393,278.8557 248.0503,280.5897 250.2433,280.5897 C251.0423,280.5897 251.6713,280.4367 252.0793,280.1987 L252.0793,280.8447 C252.0793,282.2217 251.4333,283.2417 249.7503,283.2417 C248.9343,283.2417 248.1353,282.9867 247.6253,282.6977 L247.1663,283.7007 C247.7783,284.0747 248.7983,284.3297 250.0053,284.3297 C252.1983,284.3297 253.5243,282.9867 253.5243,280.6747 L253.5243,280.6747 Z M252.0793,279.3317 C251.7223,279.5527 251.2123,279.7057 250.6343,279.7057 C248.8833,279.7057 248.1183,278.3797 248.1183,276.0167 C248.1183,273.6027 248.9173,272.0557 250.7703,272.0557 C251.2973,272.0557 251.7393,272.1237 252.0793,272.3107 L252.0793,279.3317 Z M262.7553,275.6427 C262.7893,272.5827 261.4633,271.1547 259.2703,271.1547 C257.1113,271.1547 255.5813,272.7697 255.5813,275.8807 C255.5813,279.1447 257.2643,280.6577 259.6613,280.6577 C260.9023,280.6577 261.8713,280.3687 262.4323,280.0287 L262.0413,279.0427 C261.5653,279.3147 260.8173,279.5697 259.7803,279.5697 C258.1313,279.5697 257.1623,278.5497 256.9923,276.4757 L262.7553,275.6427 Z M261.3273,275.0137 L256.9413,275.6767 C256.9073,273.1947 257.8933,272.1237 259.2193,272.1237 C260.5283,272.1237 261.3273,272.9397 261.3273,275.0137 L261.3273,275.0137 Z" id="Manage"></path>
                        <path d="M7.8873,183.3448 L4.0623,178.1938 L4.0623,178.1598 C6.2043,178.1258 7.6153,176.9358 7.6153,174.9468 C7.6153,172.7708 6.2553,171.4788 3.6033,171.4788 C2.3453,171.4788 1.3083,171.7678 0.6963,172.1078 L0.6963,183.3448 L2.2433,183.3448 L2.2433,177.8878 L2.2773,177.8878 L6.1193,183.3448 L7.8873,183.3448 Z M6.0683,175.0148 C6.0683,176.6978 5.1503,177.6498 3.2463,177.6498 C2.8383,177.6498 2.4133,177.5988 2.2433,177.5478 L2.2433,172.6518 C2.5493,172.4818 2.9913,172.3968 3.5693,172.3968 C5.2863,172.3968 6.0683,173.2298 6.0683,175.0148 L6.0683,175.0148 Z M16.5913,178.4998 C16.6253,175.4398 15.2993,174.0118 13.1063,174.0118 C10.9473,174.0118 9.4173,175.6268 9.4173,178.7378 C9.4173,182.0018 11.1003,183.5148 13.4973,183.5148 C14.7383,183.5148 15.7073,183.2258 16.2683,182.8858 L15.8773,181.8998 C15.4013,182.1718 14.6533,182.4268 13.6163,182.4268 C11.9673,182.4268 10.9983,181.4068 10.8283,179.3328 L16.5913,178.4998 Z M15.1633,177.8708 L10.7773,178.5338 C10.7433,176.0518 11.7293,174.9808 13.0553,174.9808 C14.3643,174.9808 15.1633,175.7968 15.1633,177.8708 L15.1633,177.8708 Z M30.4463,183.3448 L30.4463,176.7148 C30.4463,175.4398 29.6643,174.0118 27.4713,174.0118 C26.1963,174.0118 25.2613,174.4538 24.6323,175.1168 C24.0883,174.4368 23.2383,174.0118 21.8273,174.0118 C20.3653,174.0118 19.4813,174.2498 18.6483,174.6578 L18.6483,183.3448 L20.1443,183.3448 L20.1443,175.2868 C20.6373,175.0828 21.0453,174.9808 21.7933,174.9808 C23.1193,174.9808 23.7993,175.6608 23.7993,176.6808 L23.7993,183.3448 L25.2953,183.3448 L25.2953,175.8138 C25.8223,175.2528 26.4173,174.9978 27.1823,174.9978 C28.5083,174.9978 28.9503,175.8308 28.9503,176.7488 L28.9503,183.3448 L30.4463,183.3448 Z M39.6773,178.4998 C39.7113,175.4398 38.3853,174.0118 36.1923,174.0118 C34.0333,174.0118 32.5033,175.6268 32.5033,178.7378 C32.5033,182.0018 34.1863,183.5148 36.5833,183.5148 C37.8243,183.5148 38.7933,183.2258 39.3543,182.8858 L38.9633,181.8998 C38.4873,182.1718 37.7393,182.4268 36.7023,182.4268 C35.0533,182.4268 34.0843,181.4068 33.9143,179.3328 L39.6773,178.4998 Z M38.2493,177.8708 L33.8633,178.5338 C33.8293,176.0518 34.8153,174.9808 36.1413,174.9808 C37.4503,174.9808 38.2493,175.7968 38.2493,177.8708 L38.2493,177.8708 Z M48.2793,182.8688 L48.2793,169.9998 L46.8003,169.9998 L46.8003,174.3008 C46.3073,174.1648 45.8653,174.0968 45.3553,174.0968 C42.9923,174.0968 41.3773,175.8648 41.3773,178.9078 C41.3773,181.6788 42.7883,183.5148 45.4063,183.5148 C46.6813,183.5148 47.6673,183.2428 48.2793,182.8688 L48.2793,182.8688 Z M46.8003,182.2738 C46.5113,182.4608 46.0863,182.5288 45.4743,182.5288 C43.6043,182.5288 42.8563,180.9478 42.8563,178.7888 C42.8563,176.7998 43.5363,174.9638 45.6613,174.9638 C46.0523,174.9638 46.4263,175.0318 46.8003,175.1338 L46.8003,182.2738 Z M52.4103,171.5978 C52.4103,171.1388 52.0193,170.7648 51.5433,170.7648 C51.0503,170.7648 50.6593,171.1388 50.6593,171.5978 C50.6593,172.0398 51.0503,172.4138 51.5433,172.4138 C52.0193,172.4138 52.4103,172.0398 52.4103,171.5978 L52.4103,171.5978 Z M52.2913,183.3448 L52.2913,174.1818 L50.7953,174.1818 L50.7953,183.3448 L52.2913,183.3448 Z M60.8593,182.8688 L60.8593,176.9868 C60.8593,174.7428 59.3633,174.0118 57.6633,174.0118 C56.4053,174.0118 55.3853,174.4028 54.8583,174.6918 L55.2153,175.5758 C55.7253,175.3208 56.5413,174.9978 57.4253,174.9978 C58.5983,174.9978 59.4483,175.4058 59.4483,176.8168 L59.4483,177.3778 C56.6093,177.6668 54.3313,178.3808 54.3313,180.8118 C54.3313,182.4778 55.4363,183.5148 57.8163,183.5148 C59.0913,183.5148 60.1623,183.2598 60.8593,182.8688 L60.8593,182.8688 Z M59.4483,182.3418 C59.0743,182.5458 58.5133,182.6478 57.9353,182.6478 C56.5753,182.6478 55.7593,182.1038 55.7593,180.7778 C55.7593,178.9248 57.1363,178.4318 59.4483,178.1428 L59.4483,182.3418 Z M66.8773,183.2938 L66.8773,182.3418 C66.7243,182.3758 66.5883,182.4098 66.4353,182.4098 C65.6023,182.4098 65.2793,181.8148 65.2793,181.0838 L65.2793,175.1168 L66.8773,175.1168 L66.8773,174.1818 L65.2793,174.1818 L65.2793,171.6148 L63.7833,172.0738 L63.7833,174.1818 L62.7293,174.1818 L62.7293,175.1168 L63.7833,175.1168 L63.7833,181.1178 C63.7833,182.2398 64.3953,183.4298 66.0613,183.4298 C66.4353,183.4298 66.7073,183.3448 66.8773,183.2938 L66.8773,183.2938 Z M75.5473,178.4998 C75.5813,175.4398 74.2553,174.0118 72.0623,174.0118 C69.9033,174.0118 68.3733,175.6268 68.3733,178.7378 C68.3733,182.0018 70.0563,183.5148 72.4533,183.5148 C73.6943,183.5148 74.6633,183.2258 75.2243,182.8858 L74.8333,181.8998 C74.3573,182.1718 73.6093,182.4268 72.5723,182.4268 C70.9233,182.4268 69.9543,181.4068 69.7843,179.3328 L75.5473,178.4998 Z M74.1193,177.8708 L69.7333,178.5338 C69.6993,176.0518 70.6853,174.9808 72.0113,174.9808 C73.3203,174.9808 74.1193,175.7968 74.1193,177.8708 L74.1193,177.8708 Z" id="Remediate"></path>
                        <path d="M296.8653,184.3448 L296.8653,183.2908 L293.0063,183.2908 L293.0063,178.8198 L296.4743,178.8198 L296.4743,177.7828 L293.0063,177.7828 L293.0063,173.7028 L296.8653,173.7028 L296.8653,172.6488 L291.4423,172.6488 L291.4423,184.3448 L296.8653,184.3448 Z M305.5013,184.3448 L305.5013,177.7318 C305.5013,176.4228 304.7533,175.0118 302.2033,175.0118 C300.7413,175.0118 299.6703,175.2668 298.8543,175.6578 L298.8543,184.3448 L300.3503,184.3448 L300.3503,176.3038 C300.8263,176.0998 301.2343,175.9808 302.0843,175.9808 C303.6483,175.9808 304.0053,176.9158 304.0053,177.7658 L304.0053,184.3448 L305.5013,184.3448 Z M311.8593,175.0288 C309.6833,174.9778 308.8163,175.2158 307.9153,175.6748 L307.9153,184.3448 L309.4113,184.3448 L309.4113,176.3378 C309.9043,176.0148 310.7543,175.9468 311.5023,176.1678 L311.8593,175.0288 Z M315.1063,172.5978 C315.1063,172.1388 314.7153,171.7648 314.2393,171.7648 C313.7463,171.7648 313.3553,172.1388 313.3553,172.5978 C313.3553,173.0398 313.7463,173.4138 314.2393,173.4138 C314.7153,173.4138 315.1063,173.0398 315.1063,172.5978 L315.1063,172.5978 Z M314.9873,184.3448 L314.9873,175.1818 L313.4913,175.1818 L313.4913,184.3448 L314.9873,184.3448 Z M322.6713,183.9028 L322.2973,182.9678 C321.9573,183.2058 321.5323,183.4098 320.9033,183.4098 C319.4243,183.4098 318.6423,181.8968 318.6423,179.7038 C318.6423,177.5618 319.2883,176.0488 320.9543,176.0488 C321.6343,176.0488 322.0423,176.2868 322.3143,176.4908 L322.6713,175.6238 C322.3823,175.3688 321.7703,175.0118 320.6483,175.0118 C318.6083,175.0118 317.1293,176.7458 317.1293,179.7548 C317.1293,182.7128 318.6083,184.5148 320.6143,184.5148 C321.6343,184.5148 322.3143,184.2258 322.6713,183.9028 L322.6713,183.9028 Z M331.1203,184.3448 L331.1203,177.7998 C331.1203,176.5078 330.4063,175.0968 328.0773,175.0968 C327.3973,175.0968 326.7343,175.2668 325.9693,175.6578 L325.9693,170.9998 L324.4733,170.9998 L324.4733,184.3448 L325.9693,184.3448 L325.9693,176.5078 C326.5303,176.1678 327.0743,176.0488 327.7543,176.0488 C329.2163,176.0488 329.6243,176.8988 329.6243,177.8508 L329.6243,184.3448 L331.1203,184.3448 Z" id="Enrich"></path>
                        <path d="M156.4135,7.3778 C156.4135,3.7568 154.7815,1.4788 151.5515,1.4788 C150.2765,1.4788 149.2055,1.7508 148.5255,2.1248 L148.5255,12.8858 C149.1375,13.2428 150.2765,13.5148 151.6195,13.5148 C154.9345,13.5148 156.4135,10.9818 156.4135,7.3778 L156.4135,7.3778 Z M154.7985,7.3608 C154.7985,10.6588 153.8975,12.4098 151.5345,12.4098 C150.9395,12.4098 150.4125,12.3248 150.0725,12.1888 L150.0725,2.7198 C150.4805,2.5498 150.9055,2.4818 151.5175,2.4818 C153.7445,2.4818 154.7985,4.1478 154.7985,7.3608 L154.7985,7.3608 Z M160.2555,1.5978 C160.2555,1.1388 159.8645,0.7648 159.3885,0.7648 C158.8955,0.7648 158.5045,1.1388 158.5045,1.5978 C158.5045,2.0398 158.8955,2.4138 159.3885,2.4138 C159.8645,2.4138 160.2555,2.0398 160.2555,1.5978 L160.2555,1.5978 Z M160.1365,13.3448 L160.1365,4.1818 L158.6405,4.1818 L158.6405,13.3448 L160.1365,13.3448 Z M167.4975,10.7948 C167.4975,9.7408 167.0555,8.7888 165.2705,8.1088 C164.3865,7.7688 163.7405,7.3438 163.7405,6.4598 C163.7405,5.6778 164.2675,5.0148 165.2705,5.0148 C165.9845,5.0148 166.5285,5.3208 166.8005,5.5248 L167.1915,4.6238 C166.7155,4.3008 165.9845,3.9948 165.0495,3.9948 C163.3835,3.9948 162.3125,5.1508 162.3125,6.5108 C162.3125,7.4628 162.6695,8.4148 164.4545,9.0778 C165.4575,9.4518 165.9675,9.8768 165.9675,10.8288 C165.9675,11.7128 165.2875,12.4098 164.2675,12.4098 C163.4515,12.4098 162.8055,12.1378 162.4825,11.8658 L162.0745,12.8518 C162.5675,13.2258 163.4345,13.4808 164.4205,13.4808 C166.2905,13.4808 167.4975,12.1888 167.4975,10.7948 L167.4975,10.7948 Z M174.6885,12.9028 L174.3145,11.9678 C173.9745,12.2058 173.5495,12.4098 172.9205,12.4098 C171.4415,12.4098 170.6595,10.8968 170.6595,8.7038 C170.6595,6.5618 171.3055,5.0488 172.9715,5.0488 C173.6515,5.0488 174.0595,5.2868 174.3315,5.4908 L174.6885,4.6238 C174.3995,4.3688 173.7875,4.0118 172.6655,4.0118 C170.6255,4.0118 169.1465,5.7458 169.1465,8.7548 C169.1465,11.7128 170.6255,13.5148 172.6315,13.5148 C173.6515,13.5148 174.3315,13.2258 174.6885,12.9028 L174.6885,12.9028 Z M183.2905,8.7718 C183.2905,6.0348 182.2195,4.0118 179.7035,4.0118 C177.2385,4.0118 176.1335,6.0348 176.1335,8.7718 C176.1335,11.4578 177.2215,13.5148 179.7205,13.5148 C182.2025,13.5148 183.2905,11.4578 183.2905,8.7718 L183.2905,8.7718 Z M181.7945,8.7718 C181.7945,10.6078 181.4715,12.4778 179.7205,12.4778 C178.0035,12.4778 177.6295,10.6248 177.6295,8.7718 C177.6295,6.9188 177.9695,4.9638 179.7205,4.9638 C181.4715,4.9638 181.7945,6.9358 181.7945,8.7718 L181.7945,8.7718 Z M191.9945,4.1818 L190.6005,4.1818 L188.6455,10.7438 C188.4585,11.3728 188.4245,11.8658 188.4245,11.8658 L188.3905,11.8658 C188.3905,11.8658 188.3395,11.3558 188.1525,10.7438 L186.2315,4.1818 L184.6335,4.1818 L187.6765,13.3448 L189.0195,13.3448 L191.9945,4.1818 Z M200.4605,8.4998 C200.4945,5.4398 199.1685,4.0118 196.9755,4.0118 C194.8165,4.0118 193.2865,5.6268 193.2865,8.7378 C193.2865,12.0018 194.9695,13.5148 197.3665,13.5148 C198.6075,13.5148 199.5765,13.2258 200.1375,12.8858 L199.7465,11.8998 C199.2705,12.1718 198.5225,12.4268 197.4855,12.4268 C195.8365,12.4268 194.8675,11.4068 194.6975,9.3328 L200.4605,8.4998 Z M199.0325,7.8708 L194.6465,8.5338 C194.6125,6.0518 195.5985,4.9808 196.9245,4.9808 C198.2335,4.9808 199.0325,5.7968 199.0325,7.8708 L199.0325,7.8708 Z M206.4615,4.0288 C204.2855,3.9778 203.4185,4.2158 202.5175,4.6748 L202.5175,13.3448 L204.0135,13.3448 L204.0135,5.3378 C204.5065,5.0148 205.3565,4.9468 206.1045,5.1678 L206.4615,4.0288 Z" id="Discover"></path>
                    </g>
                    <path d="M139.282,56.262 L126.334,49.786 L128.544,56.417 L119.557,59.411 L121.36,64.819 L130.346,61.825 L132.806,69.209 L139.282,56.262 Z" id="Shape" fill="#FFFFFF"></path>
                </g>
            </g>
        </g>
    </g>
</svg>