<?xml version="1.0" encoding="UTF-8" standalone="no"?>
<svg width="279px" height="50px" viewBox="0 0 279 50" version="1.1" xmlns="http://www.w3.org/2000/svg" xmlns:xlink="http://www.w3.org/1999/xlink" xmlns:sketch="http://www.bohemiancoding.com/sketch/ns">
    <!-- Generator: Sketch 3.3.3 (12081) - http://www.bohemiancoding.com/sketch -->
    <title>Slice 1</title>
    <desc>Created with Sketch.</desc>
    <defs></defs>
    <g id="Page-1" stroke="none" stroke-width="1" fill="none" fill-rule="evenodd" sketch:type="MSPage">
        <g id="icons" sketch:type="MSLayerGroup">
            <g id="Group" sketch:type="MSShapeGroup">
                <g transform="translate(114.000000, 0.000000)" id="Shape">
                    <g transform="translate(0.000000, 11.000000)">
                        <path d="M29.139,24.142 C28.493,24.729 25.923,26.669 25.456,27.022 C25.229,27.223 24.686,27.601 23.813,27.601 C23.273,27.601 22.701,27.455 22.11,27.166 C20.402,26.35 18.283,24.777 16.964,23.347 L15.707,22.086 C14.325,20.82 12.752,18.701 11.919,16.967 C11.109,15.331 11.596,14.143 12.074,13.624 C12.449,13.127 14.369,10.587 14.945,9.945 C14.976,9.911 14.992,9.882 15.001,9.857 L8.267,2.745 C7.864,3.024 7.174,3.489 6.409,4.007 C5.075,4.907 3.414,6.028 2.976,6.363 C2.736,6.547 2.006,7.319 2.632,9.606 C3.283,11.988 7.668,20.239 13.214,25.412 L13.643,25.838 C18.803,31.381 27.083,35.8 29.487,36.472 C30.068,36.63 30.607,36.711 31.081,36.711 C32.114,36.711 32.555,36.338 32.726,36.115 C33.041,35.696 34.122,34.097 34.991,32.813 C35.555,31.98 36.07,31.219 36.345,30.825 L29.236,24.092 C29.198,24.098 29.174,24.11 29.139,24.142 L29.139,24.142 Z"></path>
                        <path d="M38.609,30.399 C38.48,29.762 38.051,29.367 37.822,29.196 L30.537,22.297 C30.455,22.219 30.36,22.153 30.257,22.105 C30.152,22.054 29.77,21.89 29.254,21.89 C28.659,21.89 28.106,22.106 27.658,22.514 C27.154,22.971 24.909,24.678 24.087,25.297 C24.058,25.319 24.029,25.343 24.002,25.368 C23.953,25.39 23.722,25.506 23.067,25.185 C21.623,24.495 19.694,23.063 18.552,21.825 L17.23,20.499 C15.853,19.237 14.514,17.287 13.895,16.002 C13.601,15.407 13.69,15.143 13.714,15.092 C13.74,15.064 13.764,15.034 13.787,15.004 C14.409,14.178 16.123,11.924 16.57,11.425 C17.443,10.478 17.234,9.337 16.973,8.813 C16.924,8.715 16.862,8.625 16.787,8.547 L9.898,1.272 C9.602,0.866 9.046,0.443 8.33,0.443 C7.908,0.443 7.499,0.585 7.123,0.858 C6.817,1.075 6.046,1.595 5.175,2.183 C3.745,3.148 2.124,4.242 1.635,4.617 C0.976,5.122 -0.455,6.675 0.507,10.187 C1.301,13.095 5.976,21.672 11.685,26.998 L12.059,27.368 C17.363,33.067 25.96,37.771 28.898,38.594 C29.675,38.805 30.408,38.912 31.078,38.912 C33.055,38.912 34.051,38 34.475,37.446 C34.829,36.975 35.836,35.487 36.81,34.048 C37.438,33.12 38.003,32.284 38.23,31.965 C38.679,31.341 38.684,30.769 38.609,30.399 L38.609,30.399 Z M34.989,32.813 C34.12,34.097 33.038,35.696 32.724,36.115 C32.553,36.338 32.112,36.711 31.079,36.711 C30.605,36.711 30.066,36.63 29.485,36.472 C27.081,35.8 18.801,31.381 13.641,25.838 L13.212,25.412 C7.666,20.239 3.281,11.988 2.63,9.606 C2.005,7.319 2.734,6.546 2.974,6.363 C3.412,6.027 5.072,4.907 6.407,4.007 C7.173,3.489 7.862,3.025 8.265,2.745 L15,9.857 C14.992,9.881 14.976,9.911 14.944,9.945 C14.368,10.587 12.448,13.127 12.073,13.624 C11.596,14.143 11.108,15.331 11.918,16.967 C12.751,18.701 14.324,20.821 15.706,22.086 L16.963,23.347 C18.281,24.778 20.401,26.35 22.109,27.166 C22.699,27.455 23.272,27.601 23.812,27.601 C24.685,27.601 25.228,27.223 25.455,27.022 C25.922,26.669 28.492,24.729 29.138,24.142 C29.173,24.111 29.197,24.098 29.233,24.092 L34.989,32.813 Z" fill="#0CB8E8"></path>
                    </g>
                    <path d="M28.195,15.457 L30.371,15.133 C29.806,11.344 28.072,7.905 25.356,5.19 C22.638,2.471 19.199,0.737 15.411,0.174 L15.088,2.35 C18.406,2.843 21.419,4.363 23.8,6.744 C26.18,9.125 27.699,12.138 28.195,15.457 L28.195,15.457 Z" fill="#0CB8E8"></path>
                    <path d="M23.552,16.153 L25.728,15.83 C25.314,13.041 24.038,10.509 22.036,8.505 C20.035,6.504 17.502,5.227 14.714,4.811 L14.389,6.987 C16.709,7.333 18.815,8.396 20.48,10.061 C22.146,11.727 23.208,13.834 23.552,16.153 L23.552,16.153 Z" fill="#0CB8E8"></path>
                    <path d="M18.914,16.85 L21.09,16.526 C20.822,14.734 20.003,13.108 18.719,11.825 C17.435,10.542 15.81,9.722 14.019,9.452 L13.692,11.628 C15.014,11.826 16.215,12.433 17.163,13.382 C18.111,14.328 18.717,15.527 18.914,16.85 L18.914,16.85 Z" fill="#0CB8E8"></path>
                </g>
                <g transform="translate(223.000000, 4.000000)" fill="#0CB8E8">
                    <circle id="Oval" cx="12.461" cy="20.204" r="1.792"></circle>
                    <circle id="Oval" cx="19.149" cy="20.204" r="1.792"></circle>
                    <circle id="Oval" cx="25.837" cy="20.204" r="1.792"></circle>
                    <path d="M19.151,4.725 C8.847,4.725 0.465,11.668 0.465,20.204 C0.465,25.563 3.825,30.535 9.294,33.351 C8.828,35.687 7.837,37.709 6.343,39.372 C6.022,39.728 5.969,40.251 6.212,40.665 C6.412,41.006 6.776,41.207 7.16,41.207 C7.241,41.207 7.323,41.198 7.405,41.18 C7.666,41.12 13.577,39.727 16.666,35.534 C17.533,35.634 18.352,35.682 19.15,35.682 C29.454,35.682 37.836,28.739 37.836,20.203 C37.836,11.668 29.454,4.725 19.151,4.725 L19.151,4.725 Z M19.151,33.483 C18.25,33.483 17.315,33.413 16.294,33.268 C15.858,33.204 15.44,33.404 15.21,33.769 C13.947,35.765 11.803,37.097 10.01,37.923 C10.806,36.402 11.34,34.718 11.608,32.882 C11.677,32.401 11.422,31.93 10.981,31.726 C5.852,29.355 2.666,24.94 2.666,20.204 C2.666,12.882 10.062,6.925 19.152,6.925 C28.242,6.925 35.638,12.882 35.638,20.204 C35.637,27.526 28.241,33.483 19.151,33.483 L19.151,33.483 Z" id="Shape"></path>
                    <path d="M55.506,16.346 C55.506,7.811 47.124,0.867 36.82,0.867 C33.818,0.867 30.832,1.47 28.185,2.613 C27.627,2.853 27.37,3.501 27.611,4.058 C27.851,4.615 28.498,4.874 29.056,4.632 C31.43,3.608 34.115,3.066 36.82,3.066 C45.911,3.066 53.306,9.024 53.306,16.346 C53.306,21.082 50.118,25.497 44.99,27.867 C44.548,28.072 44.292,28.543 44.362,29.024 C44.63,30.862 45.167,32.549 45.965,34.071 C44.174,33.248 42.029,31.916 40.762,29.912 C40.532,29.547 40.108,29.344 39.678,29.411 C38.891,29.522 38.158,29.589 37.438,29.614 C36.831,29.635 36.356,30.145 36.378,30.753 C36.399,31.36 36.901,31.808 37.517,31.814 C38.102,31.792 38.693,31.747 39.306,31.677 C42.395,35.869 48.306,37.263 48.567,37.323 C48.649,37.342 48.731,37.35 48.812,37.35 C49.196,37.35 49.56,37.149 49.76,36.808 C50.003,36.394 49.95,35.871 49.629,35.515 C48.134,33.853 47.143,31.83 46.676,29.494 C52.144,26.677 55.506,21.705 55.506,16.346 L55.506,16.346 Z" id="Shape"></path>
                </g>
                <g transform="translate(0.000000, 3.000000)" id="Shape">
                    <g transform="translate(0.000000, 12.000000)">
                        <path d="M21.69,24.148 L2.892,5.349 L2.892,2.495 L2.861,2.495 L2.861,30.261 L12.459,30.261 L15.195,30.261 L43.984,30.261 L43.984,5.384 L25.22,24.147 C24.245,25.122 22.665,25.123 21.69,24.148 L21.69,24.148 Z"></path>
                        <path d="M2.892,5.349 L21.69,24.148 C22.665,25.123 24.245,25.122 25.22,24.147 L43.983,5.384 L43.983,2.495 L43.383,2.495 L25.22,20.658 C24.245,21.633 22.665,21.634 21.69,20.659 L3.526,2.495 L2.891,2.495 L2.891,5.349 L2.892,5.349 Z" fill="#0CB8E8"></path>
                        <path d="M45.083,0.296 L34.913,0.296 L34.913,2.495 L43.384,2.495 L44.019,1.86 L44.019,5.349 L43.984,5.384 L43.984,30.261 L15.194,30.261 L12.458,30.261 L2.86,30.261 L2.86,2.495 L2.891,2.495 L2.891,1.86 L3.526,2.495 L12.3,2.495 L12.3,0.296 L12.083,0.296 L1.761,0.296 C1.154,0.296 0.661,0.788 0.661,1.396 L0.661,31.36 C0.661,31.967 1.154,32.46 1.761,32.46 L14.094,32.46 L45.083,32.46 C45.69,32.46 46.183,31.968 46.183,31.36 L46.183,1.395 C46.184,0.788 45.691,0.296 45.083,0.296 L45.083,0.296 Z" fill="#0CB8E8"></path>
                        <path d="M2.892,2.495 L3.526,2.495 L2.892,1.86 L2.892,2.495 Z" fill="#0CB8E8"></path>
                        <path d="M43.983,5.384 L44.018,5.349 L44.018,1.86 L43.383,2.495 L43.983,2.495 L43.983,5.384 Z" fill="#0CB8E8"></path>
                    </g>
                    <g transform="translate(14.000000, 0.000000)" fill="#0CB8E8">
                        <path d="M14.076,6.837 C14.147,6.581 13.996,6.317 13.741,6.246 C13.484,6.175 13.221,6.326 13.15,6.581 L12.894,7.507 C12.769,7.206 12.621,6.956 12.469,6.764 C11.915,6.064 11.06,5.678 10.055,5.677 C7.734,5.677 5.724,7.611 5.051,10.489 C4.56,12.591 5.065,13.799 5.575,14.443 C6.129,15.143 6.985,15.529 7.982,15.53 L7.989,15.53 C9.202,15.53 10.328,14.998 11.224,14.082 C11.258,14.387 11.362,14.77 11.652,15.065 C11.866,15.283 12.264,15.529 12.935,15.457 C13.915,15.353 17.183,14.69 18.06,10.556 C18.541,8.289 18.039,6.093 16.645,4.372 C15.085,2.446 12.536,1.295 9.828,1.295 C4.777,1.295 0.668,5.404 0.668,10.455 C0.668,15.506 4.777,19.615 9.828,19.615 C13.16,19.615 15.521,18.526 17.722,15.974 C17.895,15.773 17.873,15.47 17.672,15.297 C17.471,15.124 17.168,15.146 16.995,15.347 C14.969,17.696 12.893,18.655 9.828,18.655 C5.306,18.655 1.628,14.976 1.628,10.455 C1.628,5.933 5.307,2.255 9.828,2.255 C12.249,2.255 14.519,3.272 15.899,4.976 C17.107,6.467 17.541,8.378 17.121,10.356 C16.398,13.763 13.882,14.391 12.833,14.502 C12.601,14.527 12.434,14.49 12.338,14.393 C12.172,14.226 12.159,13.875 12.169,13.731 L14.076,6.837 L14.076,6.837 Z M7.99,14.571 L7.99,15.051 L7.984,14.571 C7.275,14.57 6.702,14.32 6.328,13.848 C5.793,13.173 5.671,12.058 5.986,10.708 C6.643,7.896 8.503,6.638 10.061,6.638 C10.77,6.639 11.342,6.889 11.717,7.361 C12.252,8.037 12.374,9.152 12.059,10.501 C11.402,13.312 9.542,14.571 7.99,14.571 L7.99,14.571 Z"></path>
                        <path d="M9.83,20.118 C4.503,20.118 0.169,15.784 0.169,10.457 C0.169,5.131 4.503,0.797 9.83,0.797 C12.687,0.797 15.38,2.016 17.036,4.059 C18.526,5.899 19.064,8.244 18.551,10.662 C17.604,15.126 14.055,15.844 12.99,15.957 C12.106,16.053 11.576,15.703 11.297,15.417 C11.17,15.289 11.063,15.141 10.976,14.975 C10.084,15.662 9.047,16.033 7.991,16.033 C6.829,16.032 5.835,15.579 5.184,14.757 C4.606,14.028 4.029,12.676 4.565,10.379 C5.292,7.269 7.498,5.18 10.056,5.18 C11.137,5.182 12.077,5.576 12.726,6.296 C12.923,5.879 13.417,5.641 13.873,5.766 C14.395,5.912 14.701,6.453 14.558,6.972 L12.669,13.813 C12.669,13.917 12.688,14.027 12.709,14.062 C13.723,13.91 15.979,13.344 16.634,10.256 C17.022,8.428 16.624,6.666 15.512,5.294 C14.226,3.707 12.102,2.759 9.83,2.759 C5.584,2.759 2.13,6.213 2.13,10.459 C2.13,14.705 5.584,18.16 9.83,18.16 C12.731,18.16 14.698,17.252 16.619,15.026 C16.955,14.634 17.606,14.583 18,14.922 C18.199,15.093 18.318,15.331 18.338,15.593 C18.357,15.855 18.273,16.108 18.102,16.305 C15.798,18.977 13.324,20.118 9.83,20.118 L9.83,20.118 Z M7.985,14.071 L7.99,14.071 C9.344,14.071 10.977,12.932 11.571,10.387 C11.847,9.206 11.757,8.217 11.324,7.671 C11.044,7.317 10.619,7.138 10.06,7.138 C8.703,7.138 7.066,8.277 6.472,10.821 C6.197,12.003 6.286,12.992 6.719,13.537 C7,13.89 7.426,14.07 7.985,14.071 L7.985,14.071 Z M11.605,12.982 L11.679,13.637 L12.221,11.673 C11.991,12.27 11.702,12.782 11.375,13.216 L11.605,12.982 L11.605,12.982 Z M12.624,8.165 C12.759,8.746 12.764,9.429 12.634,10.18 L12.964,8.987 L12.624,8.165 L12.624,8.165 Z"></path>
                    </g>
                </g>
            </g>
        </g>
    </g>
</svg>