<?xml version="1.0" encoding="UTF-8" standalone="no"?>
<svg width="181px" height="40px" viewBox="0 0 181 40" version="1.1" xmlns="http://www.w3.org/2000/svg" xmlns:xlink="http://www.w3.org/1999/xlink" xmlns:sketch="http://www.bohemiancoding.com/sketch/ns">
    <!-- Generator: Sketch 3.3.3 (12081) - http://www.bohemiancoding.com/sketch -->
    <title>Slice 1</title>
    <desc>Created with Sketch.</desc>
    <defs></defs>
    <g id="Page-1" stroke="none" stroke-width="1" fill="none" fill-rule="evenodd" sketch:type="MSPage">
        <g id="Sumati_Services_RELEASE" sketch:type="MSLayerGroup" fill="#FFFFFF">
            <g id="Contract_Risk_Management_Screens" sketch:type="MSShapeGroup">
                <g id="SumatiLogo">
                    <path d="M8.203,39.815 C4.844,39.815 1.842,38.951 0.161,37.83 L2.198,32.791 C3.215,33.605 5.099,34.37 7.084,34.37 C9.119,34.37 10.493,33.098 10.493,31.367 C10.493,29.533 9.527,28.516 6.983,27.498 C1.944,25.513 0.823,22.713 0.823,19.864 C0.823,15.181 4.489,11.414 9.986,11.414 C13.395,11.414 15.736,12.075 17.875,13.399 L15.942,17.929 C15.128,17.268 13.549,16.503 11.767,16.503 C9.68,16.503 8.613,17.777 8.613,19.354 C8.613,21.186 9.987,22.203 12.123,23.121 C17.417,25.359 18.638,27.955 18.638,31.161 C18.636,35.947 14.718,39.815 8.203,39.815 L8.203,39.815 Z" id="Shape"></path>
                    <path d="M35.037,39.867 C27.302,39.867 23.535,36.966 23.535,30.348 L23.535,11.925 L31.475,11.925 L31.475,30.91 C31.475,32.895 32.544,34.524 35.242,34.524 C36.666,34.524 37.685,34.319 38.549,33.861 L38.549,11.925 L46.489,11.925 L46.489,37.729 C43.945,39.001 40.178,39.867 35.037,39.867 L35.037,39.867 Z" id="Shape"></path>
                    <path d="M83.301,39.358 L83.301,20.118 C83.301,18.031 82.081,16.403 79.333,16.403 C77.957,16.403 76.786,16.811 75.87,17.727 L75.87,39.358 L67.932,39.358 L67.932,20.016 C67.932,17.828 66.405,16.402 63.655,16.402 C62.231,16.402 61.417,16.555 60.449,16.912 L60.449,39.357 L52.509,39.357 L52.509,13.452 C55.563,12.076 58.821,11.415 63.605,11.415 C68.135,11.415 70.731,12.638 72.308,14.165 C74.038,12.688 76.838,11.415 81.367,11.415 C87.882,11.415 91.241,15.284 91.241,20.118 L91.241,39.358 L83.301,39.358 L83.301,39.358 Z" id="Shape"></path>
                    <path d="M108.012,39.867 C100.072,39.867 96,36.914 96,31.214 C96,24.14 103.074,22.053 111.319,21.288 L111.319,20.016 C111.319,17.167 109.386,16.352 106.485,16.352 C103.839,16.352 101.141,17.216 99.359,18.03 L97.629,13.5 C99.564,12.686 103.126,11.413 107.961,11.413 C114.171,11.413 118.753,14.009 118.753,21.44 L118.753,37.83 C116.46,39.053 112.744,39.867 108.012,39.867 L108.012,39.867 Z M111.319,24.954 C106.537,25.412 103.43,26.531 103.43,30.909 C103.43,34.115 105.262,35.488 108.418,35.488 C109.589,35.488 110.608,35.285 111.319,34.929 L111.319,24.954 L111.319,24.954 Z" id="Shape"></path>
                    <path d="M134.235,39.764 C128.485,39.764 125.99,36.049 125.99,31.826 L125.99,17.066 L122.987,17.066 L122.987,11.925 L125.99,11.925 L125.99,6.071 L133.93,4.036 L133.93,11.925 L138.155,11.925 L138.155,17.066 L133.93,17.066 L133.93,31.215 C133.93,33.302 134.693,34.421 136.475,34.421 C137.136,34.421 137.492,34.319 138.156,34.116 L138.156,39.002 C137.492,39.306 136.068,39.764 134.235,39.764 L134.235,39.764 Z" id="Shape"></path>
                    <path d="M147.022,7.751 C144.68,7.751 142.797,6.122 142.797,4.036 C142.797,1.999 144.681,0.321 147.022,0.321 C149.363,0.321 151.245,1.999 151.245,4.036 C151.245,6.123 149.363,7.751 147.022,7.751 L147.022,7.751 Z M143.051,39.358 L143.051,11.925 L150.991,11.925 L150.991,39.358 L143.051,39.358 L143.051,39.358 Z" id="Shape"></path>
                </g>
                <path d="M164.95,6.59 L164.95,15.073 L162.756,15.073 L162.756,6.59 L159.998,6.59 L159.998,4.93 L167.677,4.93 L167.677,6.59 L164.95,6.59 L164.95,6.59 Z M170.88,7.392 L170.02,15.073 L167.855,15.073 L169.339,4.93 L172.097,4.93 L174.233,12.551 L176.249,4.93 L179.036,4.93 L180.52,15.073 L178.384,15.073 L177.466,7.363 L175.183,15.073 L170.88,7.392 Z" id="Shape"></path>
            </g>
        </g>
    </g>
</svg>