<?xml version="1.0" encoding="UTF-8"?>
<svg xmlns="http://www.w3.org/2000/svg" xmlns:xlink="http://www.w3.org/1999/xlink" version="1.2" >
<font id="Dax-Medium">
<font-face  font-family="Dax" units-per-em="1000" ascent="750" descent="-250" font-style="normal" font-weight="500" font-stretch="normal" cap-height="750" x-height="500" underline-position="-75" underline-thickness="50" />
<missing-glyph  horiz-adv-x="1000" d="" />
<glyph glyph-name="NULL" d="" />
<glyph glyph-name="CR" unicode="&#xd;" horiz-adv-x="250" d="" />
<glyph glyph-name="space" unicode="&#x20;" horiz-adv-x="272" d="" />
<glyph glyph-name="exclam" unicode="&#x21;" horiz-adv-x="311" d="M238 688 L93 688 L119 236 L212 236 L238 688 Z M239 67 C239 107 206 140 166 140 C125 140 93 107 93 67 C93 26 125 -7 166 -7 C206 -7 239 26 239 67 L239 67 Z " />
<glyph glyph-name="quotedbl" unicode="&#x22;" horiz-adv-x="413" d="M350 672 C336 689 318 698 295 698 C271 698 254 689 240 672 L263 406 L326 406 L350 672 Z M173 671 C159 689 141 698 118 698 C94 698 76 689 63 671 L86 406 L149 406 L173 671 Z " />
<glyph glyph-name="numbersign" unicode="&#x23;" horiz-adv-x="546" d="M514 423 L514 484 L418 484 L454 688 L385 688 L350 483 L241 483 L277 688 L208 688 L172 483 L67 483 L67 423 L162 423 L137 282 L32 282 L32 222 L126 222 L88 0 L156 0 L196 222 L303 222 L265 0 L334 0 L372 222 L478 222 L478 282 L382 282 L408 423 L514 423 Z M339 423 L313 282 L206 282 L231 423 L339 423 Z " />
<glyph glyph-name="dollar" unicode="&#x24;" horiz-adv-x="546" d="M458 200 C458 281 419 348 307 396 C245 423 200 449 200 513 C200 575 240 616 302 616 C345 616 382 601 406 587 L432 659 C404 677 362 692 305 695 L315 811 L244 811 L254 693 C146 679 82 594 82 496 C82 413 130 349 222 312 C300 281 332 248 332 193 C332 126 288 83 221 83 C170 83 132 98 106 114 L76 30 C110 8 155 -5 228 -7 L218 -130 L292 -130 L281 -4 C387 13 458 93 458 200 L458 200 Z " />
<glyph glyph-name="percent" unicode="&#x25;" horiz-adv-x="871" d="M808 226 C808 331 783 462 664 462 C545 462 521 331 521 226 C521 120 545 -10 664 -10 C783 -10 808 120 808 226 L808 226 Z M582 680 L521 696 L287 7 L348 -9 L582 680 Z M350 462 C350 568 325 698 206 698 C87 698 63 568 63 462 C63 357 87 227 206 227 C325 227 350 357 350 462 L350 462 Z M728 229 C728 145 722 50 664 50 C607 50 601 145 601 229 C601 312 607 409 664 409 C722 409 728 312 728 229 L728 229 Z M270 465 C270 381 264 287 206 287 C149 287 143 381 143 465 C143 549 149 646 206 646 C264 646 270 549 270 465 L270 465 Z " />
<glyph glyph-name="ampersand" unicode="&#x26;" horiz-adv-x="634" d="M625 435 L589 510 C509 468 412 432 329 432 C264 432 213 467 213 526 C213 580 245 614 315 614 C354 614 388 602 410 589 L446 660 C414 680 356 698 290 698 C168 698 91 630 91 537 C91 465 135 414 213 388 L213 386 C120 357 47 292 47 190 C47 62 150 -10 314 -10 C409 -10 477 6 515 30 L515 396 C551 405 599 423 625 435 L625 435 Z M396 80 C378 72 354 68 320 68 C223 68 178 116 178 197 C178 296 246 338 396 373 L396 80 Z " />
<glyph glyph-name="quotesingle" unicode="&#x27;" horiz-adv-x="237" d="M174 671 C160 689 142 698 118 698 C95 698 76 689 63 671 L87 406 L149 406 L174 671 Z " />
<glyph glyph-name="parenleft" unicode="&#x28;" horiz-adv-x="381" d="M353 -194 C255 -56 190 103 190 286 C190 468 255 628 353 764 L294 798 C131 613 61 458 61 286 C61 114 131 -42 295 -227 L353 -194 Z " />
<glyph glyph-name="parenright" unicode="&#x29;" horiz-adv-x="381" d="M320 286 C320 458 250 613 86 798 L28 764 C125 628 191 468 191 286 C191 103 125 -56 28 -194 L86 -227 C250 -42 320 114 320 286 L320 286 Z " />
<glyph glyph-name="asterisk" unicode="&#x2a;" horiz-adv-x="442" d="M393 667 C393 695 370 717 344 717 C318 717 296 695 296 667 C296 639 318 618 344 618 C370 618 393 639 393 667 L393 667 Z M269 756 C269 784 247 806 221 806 C195 806 173 784 173 756 C173 729 195 708 221 708 C247 708 269 729 269 756 L269 756 Z M261 628 C261 651 243 668 221 668 C199 668 181 651 181 628 C181 605 199 587 221 587 C243 587 261 604 261 628 L261 628 Z M349 524 C349 552 327 573 301 573 C274 573 252 552 252 524 C252 497 274 475 300 475 C327 475 349 496 349 524 L349 524 Z M146 668 C146 695 124 717 98 717 C71 717 49 695 49 668 C49 640 71 619 97 619 C124 619 146 640 146 668 L146 668 Z M188 524 C188 552 167 574 140 574 C114 574 91 552 91 524 C91 497 114 475 140 475 C166 475 188 497 188 524 L188 524 Z " />
<glyph glyph-name="plus" unicode="&#x2b;" horiz-adv-x="546" d="M470 293 L470 373 L313 373 L313 539 L233 539 L233 373 L76 373 L76 293 L233 293 L233 126 L313 126 L313 293 L470 293 Z " />
<glyph glyph-name="comma" unicode="&#x2c;" horiz-adv-x="282" d="M223 99 C219 118 205 134 171 134 C135 134 111 119 95 99 L6 -169 L78 -169 L223 99 Z " />
<glyph glyph-name="hyphen" unicode="&#x2d;" horiz-adv-x="350" d="M297 290 L297 383 L53 383 L53 290 L297 290 Z " />
<glyph glyph-name="period" unicode="&#x2e;" horiz-adv-x="265" d="M206 67 C206 108 173 141 133 141 C92 141 59 108 59 67 C59 27 92 -6 133 -6 C173 -6 206 27 206 67 L206 67 Z " />
<glyph glyph-name="slash" unicode="&#x2f;" horiz-adv-x="572" d="M560 760 L484 797 L12 -192 L88 -229 L560 760 Z " />
<glyph glyph-name="zero" unicode="0" horiz-adv-x="546" d="M495 344 C495 498 451 698 273 698 C95 698 51 498 51 344 C51 190 95 -10 273 -10 C451 -10 495 190 495 344 L495 344 Z M378 345 C378 218 364 71 273 71 C182 71 168 218 168 345 C168 472 182 622 273 622 C364 622 378 472 378 345 L378 345 Z " />
<glyph glyph-name="one" unicode="1" horiz-adv-x="546" d="M387 0 L387 688 L300 688 C275 647 205 599 79 583 L94 510 C158 515 229 532 263 551 L263 0 L387 0 Z " />
<glyph glyph-name="two" unicode="2" horiz-adv-x="546" d="M470 0 L470 101 L213 101 L375 315 C437 397 464 456 464 510 C464 610 393 698 240 698 C153 698 96 680 55 659 L85 581 C114 596 150 609 209 609 C294 609 335 569 335 497 C335 456 325 416 273 342 L35 0 L470 0 Z " />
<glyph glyph-name="three" unicode="3" horiz-adv-x="546" d="M473 204 C473 314 399 363 327 385 L326 387 C371 404 445 451 445 536 C445 638 357 698 235 698 C154 698 92 679 56 660 L87 584 C116 599 164 611 216 611 C275 611 322 585 322 522 C322 453 259 407 159 398 L159 332 C236 334 342 315 342 204 C342 126 288 81 205 81 C145 81 99 95 71 110 L38 28 C81 4 139 -10 227 -10 C370 -10 473 75 473 204 L473 204 Z " />
<glyph glyph-name="four" unicode="4" horiz-adv-x="546" d="M496 146 L496 215 L443 215 L443 688 L324 688 L51 221 L51 146 L328 146 L328 0 L443 0 L443 146 L496 146 Z M331 569 C331 569 329 523 329 468 L328 215 L131 215 L280 472 C311 526 330 569 331 569 L331 569 Z " />
<glyph glyph-name="five" unicode="5" horiz-adv-x="546" d="M481 204 C481 333 391 425 188 408 L202 587 L457 587 L457 688 L117 688 L83 332 C287 363 350 294 350 204 C350 123 285 80 215 80 C155 80 109 95 80 111 L48 28 C92 3 152 -10 234 -10 C381 -10 481 85 481 204 L481 204 Z " />
<glyph glyph-name="six" unicode="6" horiz-adv-x="546" d="M496 206 C496 357 388 416 273 416 C242 416 216 411 192 402 C246 538 357 591 432 614 L401 694 C304 676 54 558 54 253 C54 105 121 -10 277 -10 C418 -10 496 86 496 206 L496 206 Z M381 212 C381 141 353 71 279 71 C198 71 167 150 167 250 C167 285 169 308 175 339 C190 345 215 353 249 353 C337 353 381 304 381 212 L381 212 Z " />
<glyph glyph-name="seven" unicode="7" horiz-adv-x="546" d="M514 688 L59 688 L59 587 L366 587 L106 0 L256 0 C279 98 346 291 424 475 L514 688 Z " />
<glyph glyph-name="eight" unicode="8" horiz-adv-x="546" d="M495 168 C495 246 452 301 351 362 C439 413 475 460 475 531 C475 631 386 698 273 698 C160 698 71 630 71 530 C71 458 108 411 195 358 C94 299 51 247 51 167 C51 53 152 -10 273 -10 C403 -10 495 61 495 168 L495 168 Z M375 531 C375 480 353 449 276 403 C199 450 176 478 176 532 C176 588 215 628 275 628 C334 628 375 587 375 531 L375 531 Z M383 169 C383 110 337 67 271 67 C209 67 158 110 158 170 C158 226 176 262 270 316 C365 261 383 225 383 169 L383 169 Z " />
<glyph glyph-name="nine" unicode="9" horiz-adv-x="546" d="M492 431 C492 579 427 694 271 694 C130 694 50 598 50 478 C50 327 158 268 273 268 C304 268 330 274 354 282 C300 146 189 93 114 71 L145 -10 C242 9 492 126 492 431 L492 431 Z M378 438 C378 406 376 378 370 350 C355 344 330 335 296 335 C207 335 164 384 164 476 C164 548 191 618 266 618 C347 618 378 538 378 438 L378 438 Z " />
<glyph glyph-name="colon" unicode="&#x3a;" horiz-adv-x="265" d="M206 379 C206 419 173 452 133 452 C92 452 59 419 59 379 C59 338 92 305 133 305 C173 305 206 338 206 379 L206 379 Z M206 67 C206 108 173 141 133 141 C92 141 59 108 59 67 C59 27 92 -6 133 -6 C173 -6 206 27 206 67 L206 67 Z " />
<glyph glyph-name="semicolon" unicode="&#x3b;" horiz-adv-x="282" d="M223 379 C223 419 190 452 149 452 C109 452 76 419 76 379 C76 338 109 305 149 305 C190 305 223 338 223 379 L223 379 Z M223 99 C220 118 204 136 170 136 C135 136 111 120 95 99 L6 -169 L78 -169 L223 99 Z " />
<glyph glyph-name="less" unicode="&#x3c;" horiz-adv-x="546" d="M470 128 L470 215 L173 335 L470 455 L470 542 L76 372 L76 298 L470 128 Z " />
<glyph glyph-name="equal" unicode="&#x3d;" horiz-adv-x="546" d="M470 389 L470 469 L76 469 L76 389 L470 389 Z M470 196 L470 276 L76 276 L76 196 L470 196 Z " />
<glyph glyph-name="greater" unicode="&#x3e;" horiz-adv-x="546" d="M470 298 L470 372 L76 542 L76 455 L373 335 L76 215 L76 128 L470 298 Z " />
<glyph glyph-name="question" unicode="&#x3f;" horiz-adv-x="422" d="M409 530 C409 631 328 696 197 696 C131 696 76 679 39 658 L72 586 C93 597 129 611 174 611 C249 611 281 571 281 519 C281 455 211 416 145 402 L160 236 L252 236 L263 365 C320 383 409 437 409 530 L409 530 Z M280 67 C280 107 247 140 207 140 C166 140 134 107 134 67 C134 26 166 -6 207 -6 C247 -6 280 26 280 67 L280 67 Z " />
<glyph glyph-name="at" unicode="&#x40;" horiz-adv-x="869" d="M809 414 C809 591 687 699 514 699 C259 699 58 479 58 225 C58 -3 211 -131 435 -131 C600 -131 704 -74 796 25 L768 60 C683 -30 591 -88 436 -88 C247 -88 112 21 112 223 C112 444 278 657 509 657 C654 657 755 564 755 413 C755 299 686 117 603 117 C576 117 567 133 567 176 C567 214 579 260 589 306 L627 482 L566 482 L552 415 C531 464 497 499 438 499 C306 499 232 334 232 225 C232 143 269 67 355 67 C418 67 466 93 506 153 C512 90 535 65 582 65 C731 65 809 281 809 414 L809 414 Z M529 338 C527 263 479 119 382 119 C329 119 299 167 299 226 C299 303 345 449 443 449 C490 449 530 408 529 338 L529 338 Z " />
<glyph glyph-name="A" unicode="A" horiz-adv-x="599" d="M587 0 L360 688 L240 688 L12 0 L126 0 L181 177 L403 177 L456 0 L587 0 Z M385 251 L201 251 L275 493 C291 544 294 576 294 576 L296 576 C296 576 299 544 314 493 L385 251 Z " />
<glyph glyph-name="B" unicode="B" horiz-adv-x="581" d="M538 188 C538 288 450 348 387 362 L387 364 C445 377 515 426 515 520 C515 622 433 698 267 698 C184 698 113 682 71 659 L71 29 C118 4 188 -10 275 -10 C432 -10 538 51 538 188 L538 188 Z M393 512 C393 429 352 387 230 390 L191 391 L191 614 C214 622 237 626 267 626 C350 626 393 588 393 512 L393 512 Z M411 190 C411 101 353 68 271 68 C237 68 213 72 191 81 L191 328 L230 329 C360 332 411 285 411 190 L411 190 Z " />
<glyph glyph-name="C" unicode="C" horiz-adv-x="485" d="M456 29 L426 111 C402 96 379 87 339 87 C226 87 181 212 181 345 C181 477 221 607 339 607 C380 607 408 595 428 583 L456 659 C423 683 378 698 314 698 C139 698 49 531 49 344 C49 153 138 -10 313 -10 C375 -10 424 4 456 29 L456 29 Z " />
<glyph glyph-name="D" unicode="D" horiz-adv-x="606" d="M557 349 C557 555 467 698 259 698 C180 698 116 682 71 659 L71 29 C113 5 181 -10 266 -10 C474 -10 557 144 557 349 L557 349 Z M428 351 C428 164 382 78 264 78 C237 78 212 83 197 88 L197 605 C215 612 235 615 262 615 C377 615 428 530 428 351 L428 351 Z " />
<glyph glyph-name="E" unicode="E" horiz-adv-x="451" d="M406 0 L406 85 L198 85 L198 311 L383 311 L383 395 L198 395 L198 603 L406 603 L406 688 L71 688 L71 0 L406 0 Z " />
<glyph glyph-name="F" unicode="F" horiz-adv-x="443" d="M405 603 L405 688 L71 688 L71 0 L198 0 L198 311 L382 311 L382 395 L198 395 L198 603 L405 603 Z " />
<glyph glyph-name="G" unicode="G" horiz-adv-x="599" d="M533 29 L533 395 L314 395 L314 317 L413 317 L413 91 C402 85 381 78 344 78 C248 78 178 168 178 342 C178 526 248 608 367 608 C426 608 464 595 486 582 L524 660 C485 683 430 698 352 698 C174 698 49 567 49 348 C49 117 165 -10 349 -10 C440 -10 490 4 533 29 L533 29 Z " />
<glyph glyph-name="H" unicode="H" horiz-adv-x="613" d="M542 0 L542 688 L415 688 L415 395 L198 395 L198 688 L71 688 L71 0 L198 0 L198 311 L415 311 L415 0 L542 0 Z " />
<glyph glyph-name="I" unicode="I" horiz-adv-x="274" d="M201 0 L201 688 L73 688 L73 0 L201 0 Z " />
<glyph glyph-name="J" unicode="J" horiz-adv-x="274" d="M201 37 L201 688 L73 688 L73 26 C73 -64 22 -117 -41 -131 L-41 -220 C93 -208 201 -123 201 37 L201 37 Z " />
<glyph glyph-name="K" unicode="K" horiz-adv-x="555" d="M541 0 L314 370 L529 688 L399 688 L202 374 L200 374 L200 688 L73 688 L73 0 L200 0 L200 348 L202 348 L399 0 L541 0 Z " />
<glyph glyph-name="L" unicode="L" horiz-adv-x="422" d="M391 0 L391 85 L201 85 L201 688 L73 688 L73 0 L391 0 Z " />
<glyph glyph-name="M" unicode="M" horiz-adv-x="790" d="M744 0 L667 688 L539 688 L412 247 C399 203 394 170 394 170 L392 170 C392 170 386 203 374 247 L251 688 L123 688 L46 0 L153 0 C154 20 197 456 197 456 C201 499 200 538 200 538 L202 538 C202 538 210 499 222 456 C222 456 345 20 352 0 L424 0 C432 23 555 455 555 455 C568 499 575 538 575 538 L577 538 C577 538 576 498 580 455 C580 455 623 17 624 0 L744 0 Z " />
<glyph glyph-name="N" unicode="N" horiz-adv-x="650" d="M579 0 L579 688 L473 688 L473 273 C473 233 476 200 476 200 L474 200 C474 200 460 231 437 270 L191 688 L71 688 L71 0 L178 0 L178 441 C178 482 174 521 174 521 L176 521 C176 521 193 483 216 444 L477 0 L579 0 Z " />
<glyph glyph-name="O" unicode="O" horiz-adv-x="615" d="M566 344 C566 539 493 698 308 698 C123 698 49 539 49 344 C49 148 123 -10 308 -10 C493 -10 566 148 566 344 L566 344 Z M437 348 C437 220 417 84 308 84 C199 84 178 220 178 348 C178 477 202 614 308 614 C414 614 437 477 437 348 L437 348 Z " />
<glyph glyph-name="P" unicode="P" horiz-adv-x="549" d="M512 484 C512 606 438 698 261 698 C182 698 115 682 71 659 L71 0 L195 0 L195 272 L222 270 C427 255 512 359 512 484 L512 484 Z M390 485 C390 390 345 335 221 345 L195 347 L195 614 C207 619 229 625 259 625 C353 625 390 578 390 485 L390 485 Z " />
<glyph glyph-name="Q" unicode="Q" horiz-adv-x="615" d="M566 345 C566 539 494 698 308 698 C123 698 49 539 49 345 C49 150 123 -8 308 -8 C327 -8 343 -6 364 -1 L461 -196 L554 -113 L440 28 C531 92 566 210 566 345 L566 345 Z M438 350 C438 223 418 85 308 85 C197 85 178 223 178 350 C178 478 200 614 308 614 C417 614 438 478 438 350 L438 350 Z " />
<glyph glyph-name="R" unicode="R" horiz-adv-x="566" d="M536 0 L331 305 L331 307 C440 314 515 385 515 489 C515 618 432 698 261 698 C182 698 116 681 73 659 L73 0 L198 0 L198 312 L200 312 L395 0 L536 0 Z M391 483 C391 391 343 338 245 338 C226 338 206 340 198 343 L198 613 C213 620 234 625 261 625 C354 625 391 579 391 483 L391 483 Z " />
<glyph glyph-name="S" unicode="S" horiz-adv-x="474" d="M427 200 C427 266 407 342 272 399 C212 424 168 452 168 512 C168 573 204 612 267 612 C311 612 349 596 373 581 L401 659 C370 681 319 698 250 698 C123 698 44 605 44 496 C44 429 74 355 186 308 C263 276 293 244 293 192 C293 128 251 86 183 86 C131 86 92 102 68 118 L37 29 C74 5 125 -10 207 -10 C335 -10 427 78 427 200 L427 200 Z " />
<glyph glyph-name="T" unicode="T" horiz-adv-x="445" d="M415 603 L415 688 L31 688 L31 603 L159 603 L159 0 L286 0 L286 603 L415 603 Z " />
<glyph glyph-name="U" unicode="U" horiz-adv-x="596" d="M525 200 L525 688 L407 688 L407 201 C407 127 361 87 303 87 C246 87 198 127 198 201 L198 688 L71 688 L71 200 C71 75 163 -11 298 -11 C433 -11 525 75 525 200 L525 200 Z " />
<glyph glyph-name="V" unicode="V" horiz-adv-x="549" d="M535 688 L414 688 L300 246 C290 206 282 159 282 159 L280 159 C280 159 272 206 262 246 L150 688 L15 688 L222 0 L332 0 L535 688 Z " />
<glyph glyph-name="W" unicode="W" horiz-adv-x="829" d="M802 688 L685 688 L596 238 C589 201 585 160 585 160 L583 160 C583 160 578 201 570 238 L467 688 L373 688 L269 238 C260 199 255 160 255 160 L253 160 C253 160 248 199 241 238 L156 688 L29 688 L187 0 L299 0 L401 421 C411 461 414 496 414 496 L416 496 C416 496 419 460 429 421 L532 0 L644 0 L802 688 Z " />
<glyph glyph-name="X" unicode="X" horiz-adv-x="538" d="M523 0 L336 367 L507 688 L386 688 L273 455 L271 455 L171 688 L34 688 L201 352 L15 0 L145 0 L264 254 L266 254 L381 0 L523 0 Z " />
<glyph glyph-name="Y" unicode="Y" horiz-adv-x="515" d="M508 688 L387 688 L264 403 L262 403 L144 688 L9 688 L194 297 L194 0 L321 0 L321 297 L508 688 Z " />
<glyph glyph-name="Z" unicode="Z" horiz-adv-x="452" d="M419 0 L419 85 L185 85 L413 688 L40 688 L40 603 L255 603 L21 0 L419 0 Z " />
<glyph glyph-name="bracketleft" unicode="&#x5b;" horiz-adv-x="354" d="M311 -215 L311 -144 L179 -144 L179 715 L311 715 L311 785 L71 785 L71 -215 L311 -215 Z " />
<glyph glyph-name="backslash" unicode="&#x5c;" horiz-adv-x="576" d="M564 -191 L89 797 L12 759 L487 -229 L564 -191 Z " />
<glyph glyph-name="bracketright" unicode="&#x5d;" horiz-adv-x="354" d="M283 -215 L283 785 L43 785 L43 715 L175 715 L175 -144 L43 -144 L43 -215 L283 -215 Z " />
<glyph glyph-name="asciicircum" unicode="&#x5e;" horiz-adv-x="595" d="M507 466 L354 667 C339 687 317 696 298 696 C278 696 257 687 241 667 L88 466 L135 420 L298 603 L460 420 L507 466 Z " />
<glyph glyph-name="underscore" unicode="&#x5f;" horiz-adv-x="546" d="M556 -209 L556 -133 L-10 -133 L-10 -209 L556 -209 Z " />
<glyph glyph-name="grave" unicode="&#x60;" horiz-adv-x="222" d="M182 596 L113 737 C72 761 5 763 -7 734 L115 596 L182 596 Z " />
<glyph glyph-name="a" unicode="a" horiz-adv-x="519" d="M454 29 L454 363 C454 502 366 549 255 549 C170 549 105 525 70 508 L98 438 C131 454 181 471 233 471 C296 471 340 452 340 382 L340 353 C176 337 39 296 39 154 C39 50 112 -10 259 -10 C343 -10 411 6 454 29 L454 29 Z M340 73 C322 64 295 58 267 58 C196 58 154 88 154 158 C154 256 225 281 340 295 L340 73 Z " />
<glyph glyph-name="b" unicode="b" horiz-adv-x="549" d="M504 282 C504 443 417 546 292 546 C241 546 212 536 186 524 L186 785 L65 785 L65 29 C99 7 160 -10 243 -10 C411 -10 504 101 504 282 L504 282 Z M383 275 C383 147 344 65 248 65 C225 65 202 69 186 76 L186 459 C206 470 226 475 259 475 C351 475 383 387 383 275 L383 275 Z " />
<glyph glyph-name="c" unicode="c" horiz-adv-x="416" d="M385 27 L357 102 C340 88 317 78 284 78 C209 78 168 154 168 273 C168 391 203 466 286 466 C321 466 343 455 358 443 L384 512 C364 529 325 549 259 549 C139 549 45 450 45 271 C45 93 135 -10 258 -10 C323 -10 363 7 385 27 L385 27 Z " />
<glyph glyph-name="d" unicode="d" horiz-adv-x="549" d="M484 29 L484 785 L362 785 L362 534 C338 541 311 544 281 544 C141 544 45 439 45 263 C45 92 137 -10 296 -10 C380 -10 441 5 484 29 L484 29 Z M362 80 C348 71 328 68 299 68 C205 68 166 148 166 270 C166 384 202 475 308 475 C327 475 345 473 362 468 L362 80 Z " />
<glyph glyph-name="e" unicode="e" horiz-adv-x="537" d="M491 273 C496 454 418 549 275 549 C134 549 45 447 45 271 C45 89 142 -10 295 -10 C377 -10 435 7 473 28 L444 105 C415 90 370 75 308 75 C219 75 171 125 161 225 L491 273 Z M377 321 L154 287 C151 416 200 474 271 474 C338 474 377 430 377 321 L377 321 Z " />
<glyph glyph-name="f" unicode="f" horiz-adv-x="332" d="M306 461 L306 539 L218 539 L218 616 C218 685 254 706 306 707 L306 785 C175 795 96 725 96 604 L96 539 L36 539 L36 461 L96 461 L96 0 L218 0 L218 461 L306 461 Z " />
<glyph glyph-name="g" unicode="g" horiz-adv-x="546" d="M481 -8 L481 510 C447 532 385 549 306 549 C132 549 45 433 45 258 C45 95 133 -5 262 -5 C308 -5 342 3 363 15 L363 -19 C363 -91 329 -140 239 -140 C189 -140 141 -125 110 -108 L76 -188 C115 -211 183 -226 260 -226 C394 -226 481 -152 481 -8 L481 -8 Z M363 83 C346 73 322 66 294 66 C204 66 166 133 166 264 C166 399 205 477 300 477 C326 477 347 474 363 465 L363 83 Z " />
<glyph glyph-name="h" unicode="h" horiz-adv-x="555" d="M490 0 L490 382 C490 465 443 545 307 545 C266 545 228 536 187 516 L187 785 L65 785 L65 0 L187 0 L187 448 C214 464 240 470 273 470 C346 470 368 427 368 379 L368 0 L490 0 Z " />
<glyph glyph-name="i" unicode="i" horiz-adv-x="260" d="M197 692 C197 726 168 753 130 753 C93 753 63 726 63 692 C63 659 93 632 130 632 C168 632 197 659 197 692 L197 692 Z M191 0 L191 539 L69 539 L69 0 L191 0 Z " />
<glyph glyph-name="j" unicode="j" horiz-adv-x="262" d="M199 692 C199 726 169 753 132 753 C95 753 65 726 65 692 C65 659 95 632 132 632 C170 632 199 659 199 692 L199 692 Z M193 46 L193 539 L71 539 L71 33 C71 -80 35 -123 -23 -143 L-23 -224 C96 -215 193 -120 193 46 L193 46 Z " />
<glyph glyph-name="k" unicode="k" horiz-adv-x="511" d="M509 0 L301 292 L487 539 L363 539 L192 295 L190 295 L190 785 L69 785 L69 0 L190 0 L190 275 L192 275 L372 0 L509 0 Z " />
<glyph glyph-name="l" unicode="l" horiz-adv-x="262" d="M192 0 L192 785 L70 785 L70 0 L192 0 Z " />
<glyph glyph-name="m" unicode="m" horiz-adv-x="858" d="M793 0 L793 384 C793 469 736 549 608 549 C526 549 471 523 435 490 C404 524 354 549 267 549 C177 549 119 536 65 510 L65 0 L187 0 L187 457 C211 467 231 472 267 472 C333 472 368 438 368 386 L368 0 L490 0 L490 434 C515 459 543 471 580 471 C645 471 671 430 671 383 L671 0 L793 0 Z " />
<glyph glyph-name="n" unicode="n" horiz-adv-x="555" d="M490 0 L490 384 C490 471 437 549 276 549 C185 549 116 534 65 510 L65 0 L187 0 L187 457 C210 466 231 472 271 472 C348 472 368 426 368 382 L368 0 L490 0 Z " />
<glyph glyph-name="o" unicode="o" horiz-adv-x="538" d="M493 269 C493 430 421 549 269 549 C118 549 45 430 45 269 C45 110 118 -10 269 -10 C420 -10 493 110 493 269 L493 269 Z M372 270 C372 168 356 73 269 73 C185 73 166 168 166 270 C166 373 183 472 269 472 C356 472 372 373 372 270 L372 270 Z " />
<glyph glyph-name="p" unicode="p" horiz-adv-x="549" d="M504 276 C504 448 409 549 252 549 C166 549 106 532 65 510 L65 -215 L186 -215 L186 4 C204 -3 236 -7 267 -7 C408 -7 504 100 504 276 L504 276 Z M383 272 C383 141 336 66 240 66 C218 66 200 69 186 75 L186 465 C203 472 222 476 249 476 C348 476 383 401 383 272 L383 272 Z " />
<glyph glyph-name="q" unicode="q" horiz-adv-x="549" d="M484 -215 L484 510 C448 531 388 549 306 549 C123 549 45 423 45 256 C45 94 132 -8 260 -8 C304 -8 338 1 363 14 L363 -215 L484 -215 Z M363 83 C346 73 322 66 293 66 C204 66 166 138 166 264 C166 399 208 477 300 477 C326 477 347 474 363 466 L363 83 Z " />
<glyph glyph-name="r" unicode="r" horiz-adv-x="340" d="M325 548 C189 552 121 537 65 510 L65 0 L187 0 L187 455 C215 471 260 473 301 459 L325 548 Z " />
<glyph glyph-name="s" unicode="s" horiz-adv-x="415" d="M373 155 C373 218 349 272 244 314 C197 333 164 355 164 399 C164 437 191 470 241 470 C279 470 311 453 327 440 L357 511 C322 534 277 549 217 549 C114 549 46 479 46 393 C46 337 67 281 169 242 C224 221 248 199 248 153 C248 109 215 77 165 77 C121 77 84 92 64 108 L32 30 C64 8 118 -9 181 -9 C299 -9 373 67 373 155 L373 155 Z " />
<glyph glyph-name="t" unicode="t" horiz-adv-x="343" d="M306 5 L306 81 C296 78 288 76 277 76 C235 76 218 104 218 146 L218 461 L306 461 L306 539 L218 539 L218 692 L96 658 L96 539 L36 539 L36 461 L96 461 L96 140 C96 65 138 -6 244 -6 C273 -6 295 0 306 5 L306 5 Z " />
<glyph glyph-name="u" unicode="u" horiz-adv-x="546" d="M481 32 L481 539 L359 539 L359 91 C338 79 313 73 278 73 C215 73 187 113 187 164 L187 539 L65 539 L65 171 C65 52 130 -11 274 -11 C368 -11 436 8 481 32 L481 32 Z " />
<glyph glyph-name="v" unicode="v" horiz-adv-x="505" d="M486 539 L372 539 L275 191 C264 151 261 117 261 117 L259 117 C259 117 257 152 246 191 L151 539 L21 539 L197 0 L313 0 L486 539 Z " />
<glyph glyph-name="w" unicode="w" horiz-adv-x="787" d="M761 539 L653 539 L570 191 C562 156 559 119 559 119 L557 119 C557 119 553 156 544 190 L453 539 L351 539 L256 190 C245 149 242 119 242 119 L240 119 C240 119 239 149 230 190 L151 539 L28 539 L178 0 L288 0 L383 338 C393 373 395 407 395 407 L397 407 C397 407 398 373 408 338 L501 0 L611 0 L761 539 Z " />
<glyph glyph-name="x" unicode="x" horiz-adv-x="496" d="M480 0 L311 287 L464 539 L349 539 L254 363 L252 363 L161 539 L33 539 L183 279 L16 0 L140 0 L243 196 L245 196 L346 0 L480 0 Z " />
<glyph glyph-name="y" unicode="y" horiz-adv-x="505" d="M486 539 L372 539 L272 190 C260 148 257 113 257 113 L255 113 C255 113 255 148 244 190 L151 539 L21 539 L199 0 L111 -215 L240 -215 L486 539 Z " />
<glyph glyph-name="z" unicode="z" horiz-adv-x="428" d="M391 0 L391 78 L187 78 L385 539 L45 539 L45 461 L233 461 L28 0 L391 0 Z " />
<glyph glyph-name="braceleft" unicode="&#x7b;" horiz-adv-x="387" d="M337 -127 L337 -63 C266 -63 232 -35 232 33 L232 207 C232 282 196 319 143 330 C143 330 144 331 143 332 C196 343 232 379 232 452 L232 626 C232 694 266 722 337 722 L337 785 C223 785 126 745 126 620 L126 472 C126 390 94 365 44 363 L44 299 C94 297 126 272 126 188 L126 38 C126 -88 224 -127 337 -127 L337 -127 Z " />
<glyph glyph-name="bar" unicode="&#x7c;" horiz-adv-x="239" d="M168 -215 L168 785 L71 785 L71 -215 L168 -215 Z " />
<glyph glyph-name="braceright" unicode="&#x7d;" horiz-adv-x="387" d="M343 299 L343 363 C293 365 261 390 261 472 L261 620 C261 745 164 785 50 785 L50 722 C121 722 156 694 156 626 L156 452 C156 379 191 343 244 332 C244 331 244 330 244 330 C191 319 156 282 156 207 L156 33 C156 -35 121 -63 50 -63 L50 -127 C164 -127 261 -88 261 38 L261 188 C261 272 294 297 343 299 L343 299 Z " />
<glyph glyph-name="asciitilde" unicode="&#x7e;" horiz-adv-x="595" d="M516 354 L477 429 C463 396 438 366 390 360 C317 351 272 432 186 423 C126 417 99 383 79 339 L116 265 C129 296 155 330 202 335 C277 344 326 263 406 273 C467 281 501 309 516 354 L516 354 Z " />
<glyph glyph-name="nbspace" unicode="&#xa0;" horiz-adv-x="272" d="" />
<glyph glyph-name="exclamdown" unicode="&#xa1;" horiz-adv-x="311" d="M239 406 C239 447 206 479 166 479 C125 479 93 447 93 406 C93 366 125 333 166 333 C206 333 239 366 239 406 L239 406 Z M238 -215 L212 237 L119 237 L93 -215 L238 -215 Z " />
<glyph glyph-name="cent" unicode="&#xa2;" horiz-adv-x="546" d="M419 136 L393 202 C375 191 352 183 321 183 C245 183 204 245 204 348 C204 446 240 513 322 513 C354 513 376 504 393 493 L418 554 C396 571 364 582 314 585 L322 687 L246 687 L256 582 C156 565 86 481 86 346 C86 207 152 125 255 108 L244 1 L321 1 L312 105 C365 108 399 121 419 136 L419 136 Z " />
<glyph glyph-name="sterling" unicode="&#xa3;" horiz-adv-x="546" d="M495 0 L495 101 L223 101 C237 120 266 188 266 243 C266 270 265 293 259 322 L383 322 L383 393 L247 393 C237 428 233 455 233 484 C233 558 268 611 352 611 C400 611 437 597 458 586 L486 661 C459 678 403 698 326 698 C189 698 117 612 117 516 C117 472 126 429 136 393 L59 393 L59 322 L155 322 C164 291 168 269 168 237 C168 156 127 72 65 0 L495 0 Z " />
<glyph glyph-name="currency" unicode="&#xa4;" horiz-adv-x="546" d="M501 157 L431 227 C454 260 468 299 468 342 C468 385 454 425 431 457 L501 527 L458 570 L388 500 C356 523 316 537 273 537 C230 537 191 523 159 500 L88 570 L45 527 L115 457 C92 425 78 385 78 342 C78 299 92 260 115 228 L45 157 L88 114 L159 185 C191 161 230 147 273 147 C316 147 356 161 388 184 L458 114 L501 157 Z M392 342 C392 276 339 223 273 223 C207 223 154 276 154 342 C154 408 207 461 273 461 C339 461 392 408 392 342 L392 342 Z " />
<glyph glyph-name="yen" unicode="&#xa5;" horiz-adv-x="546" d="M517 688 L405 688 L278 395 L277 395 L156 688 L29 688 L149 439 L45 446 L45 391 L168 399 L212 308 L45 315 L45 259 L215 267 L215 0 L332 0 L331 267 L500 259 L500 315 L334 308 L379 399 L500 391 L500 446 L397 439 L517 688 Z " />
<glyph glyph-name="brokenbar" unicode="&#xa6;" horiz-adv-x="239" d="M168 388 L168 785 L71 785 L71 388 L168 388 Z M168 -215 L168 182 L71 182 L71 -215 L168 -215 Z " />
<glyph glyph-name="section" unicode="&#xa7;" horiz-adv-x="546" d="M476 218 C476 283 454 327 386 384 L297 459 C248 501 237 524 237 555 C237 597 267 620 312 620 C351 620 382 605 400 594 L428 659 C399 678 356 695 290 695 C192 695 129 631 129 558 C129 510 145 476 184 439 C129 404 71 350 71 270 C71 203 90 156 158 99 L265 9 C308 -27 313 -49 313 -76 C313 -118 276 -142 230 -142 C191 -142 155 -125 136 -111 L107 -184 C138 -205 181 -223 252 -223 C356 -223 426 -159 426 -78 C426 -36 413 5 361 53 C422 91 476 146 476 218 L476 218 Z M379 206 C379 159 346 127 306 101 L219 175 C178 210 161 240 161 286 C161 337 198 371 232 393 L323 315 C368 277 379 248 379 206 L379 206 Z " />
<glyph glyph-name="dieresis" unicode="&#xa8;" horiz-adv-x="222" d="M257 661 C257 690 231 712 200 712 C169 712 143 690 143 661 C143 632 169 609 200 609 C231 609 257 632 257 661 L257 661 Z M78 661 C78 690 52 712 21 712 C-10 712 -36 690 -36 661 C-36 632 -10 609 21 609 C52 609 78 632 78 661 L78 661 Z " />
<glyph glyph-name="copyright" unicode="&#xa9;" horiz-adv-x="814" d="M761 343 C761 539 602 698 407 698 C211 698 53 539 53 343 C53 147 211 -10 407 -10 C602 -10 761 147 761 343 L761 343 Z M708 343 C708 177 574 42 407 42 C239 42 105 177 105 343 C105 510 239 646 407 646 C574 646 708 510 708 343 L708 343 Z M570 211 L526 246 C496 212 455 191 410 191 C325 191 256 261 256 345 C256 431 325 500 410 500 C456 500 496 479 526 445 L569 481 C529 527 477 555 410 555 C294 555 200 462 200 345 C200 230 294 136 410 136 C474 136 528 163 570 211 L570 211 Z " />
<glyph glyph-name="ordfeminine" unicode="&#xaa;" horiz-adv-x="366" d="M317 370 L317 578 C317 666 260 695 185 695 C130 695 88 682 64 670 L83 621 C105 632 139 642 170 642 C212 642 238 629 238 589 L238 573 C132 563 40 542 40 448 C40 383 89 344 188 344 C244 344 288 354 317 370 L317 370 Z M238 400 C227 395 210 392 192 392 C146 392 117 407 117 450 C117 509 164 522 238 530 L238 400 Z " />
<glyph glyph-name="guillemotleft" unicode="&#xab;" horiz-adv-x="531" d="M467 147 L344 334 L467 521 L400 561 L250 334 L400 107 L467 147 Z M266 147 L143 334 L266 521 L200 561 L50 334 L200 107 L266 147 Z " />
<glyph glyph-name="logicalnot" unicode="&#xac;" horiz-adv-x="546" d="M470 139 L470 374 L76 374 L76 294 L387 294 L387 139 L470 139 Z " />
<glyph glyph-name="registered" unicode="&#xae;" horiz-adv-x="814" d="M761 343 C761 539 602 698 407 698 C211 698 53 539 53 343 C53 147 211 -10 407 -10 C602 -10 761 147 761 343 L761 343 Z M708 343 C708 177 574 42 407 42 C239 42 105 177 105 343 C105 510 239 647 407 647 C574 647 708 510 708 343 L708 343 Z M556 143 L421 331 C487 338 536 377 536 446 C536 517 477 564 393 564 C355 564 318 556 291 543 L291 143 L348 143 L348 327 L360 327 L487 143 L556 143 Z M477 446 C477 385 434 365 379 365 L348 365 L348 511 C359 514 373 517 388 517 C428 517 477 503 477 446 L477 446 Z " />
<glyph glyph-name="macron" unicode="&#xaf;" horiz-adv-x="222" d="M263 627 L263 693 L-41 693 L-41 627 L263 627 Z " />
<glyph glyph-name="degree" unicode="&#xb0;" horiz-adv-x="418" d="M363 546 C363 631 294 700 209 700 C124 700 55 631 55 546 C55 461 124 392 209 392 C294 392 363 461 363 546 L363 546 Z M303 546 C303 494 261 452 209 452 C157 452 115 494 115 546 C115 598 157 639 209 639 C261 639 303 598 303 546 L303 546 Z " />
<glyph glyph-name="plusminus" unicode="&#xb1;" horiz-adv-x="546" d="M470 363 L470 438 L313 438 L313 598 L233 598 L233 438 L76 438 L76 363 L233 363 L233 202 L313 202 L313 363 L470 363 Z M470 69 L470 144 L76 144 L76 69 L470 69 Z " />
<glyph glyph-name="twosuperior" unicode="&#xb2;" horiz-adv-x="376" d="M321 266 L321 337 L170 337 L262 455 C300 504 317 541 317 575 C317 639 273 694 175 694 C131 694 88 684 60 669 L83 612 C101 621 124 628 153 628 C205 628 228 600 228 565 C228 538 221 519 191 477 L41 266 L321 266 Z " />
<glyph glyph-name="threesuperior" unicode="&#xb3;" horiz-adv-x="376" d="M320 394 C320 457 281 488 239 504 C267 517 302 546 302 593 C302 658 247 695 172 695 C123 695 90 686 60 670 L83 616 C105 627 131 633 155 633 C191 633 218 616 218 583 C218 547 184 521 120 515 L120 465 C172 466 229 454 229 393 C229 352 202 326 152 326 C117 326 90 334 70 345 L46 286 C77 269 113 260 166 260 C254 260 320 313 320 394 L320 394 Z " />
<glyph glyph-name="acute" unicode="&#xb4;" horiz-adv-x="222" d="M229 734 C217 763 150 761 109 737 L40 596 L107 596 L229 734 Z " />
<glyph glyph-name="mu" unicode="&#xb5;" horiz-adv-x="555" d="M490 33 L490 539 L368 539 L368 86 C345 74 322 68 278 68 C241 68 213 77 187 91 L187 539 L65 539 L65 -215 L187 -215 L187 22 C222 4 266 -8 310 -8 C391 -8 440 6 490 33 L490 33 Z " />
<glyph glyph-name="paragraph" unicode="&#xb6;" horiz-adv-x="546" d="M505 631 L505 688 L259 688 C134 688 25 634 25 495 C25 395 92 325 195 311 L195 -215 L274 -215 L274 631 L394 631 L394 -215 L473 -215 L473 631 L505 631 Z " />
<glyph glyph-name="periodcentered" unicode="&#xb7;" horiz-adv-x="262" d="M205 344 C205 385 172 418 131 418 C90 418 57 385 57 344 C57 303 90 270 131 270 C172 270 205 303 205 344 L205 344 Z " />
<glyph glyph-name="cedilla" unicode="&#xb8;" horiz-adv-x="222" d="M245 -124 C245 -77 201 -47 62 -59 L39 -97 C127 -90 162 -98 162 -125 C162 -155 89 -167 1 -159 L-23 -200 C143 -215 245 -189 245 -124 L245 -124 Z " />
<glyph glyph-name="onesuperior" unicode="&#xb9;" horiz-adv-x="376" d="M265 266 L265 688 L204 688 C187 661 145 633 68 624 L77 574 C118 577 151 582 179 592 L179 266 L265 266 Z " />
<glyph glyph-name="ordmasculine" unicode="&#xba;" horiz-adv-x="366" d="M333 521 C333 621 285 696 183 696 C82 696 33 621 33 521 C33 422 82 345 183 345 C284 345 333 422 333 521 L333 521 Z M249 522 C249 458 238 403 183 403 C129 403 117 457 117 522 C117 587 128 644 183 644 C238 644 249 587 249 522 L249 522 Z " />
<glyph glyph-name="guillemotright" unicode="&#xbb;" horiz-adv-x="531" d="M481 334 L331 561 L265 521 L388 334 L265 147 L331 107 L481 334 Z M280 334 L131 561 L64 521 L187 334 L64 147 L131 107 L280 334 Z " />
<glyph glyph-name="onequarter" unicode="&#xbc;" horiz-adv-x="824" d="M757 87 L757 139 L725 139 L725 422 L644 422 L476 140 L476 87 L643 87 L643 0 L725 0 L725 87 L757 87 Z M600 680 L532 708 L211 8 L279 -21 L600 680 Z M239 266 L239 688 L179 688 C161 661 113 633 41 624 L50 574 C91 577 125 582 153 592 L153 266 L239 266 Z M644 337 C644 337 643 308 643 279 L643 139 L531 139 L614 280 C630 308 642 337 642 337 L644 337 Z " />
<glyph glyph-name="onehalf" unicode="&#xbd;" horiz-adv-x="824" d="M757 0 L757 71 L607 71 L699 186 C738 235 754 274 754 308 C754 371 710 428 612 428 C559 428 527 415 503 403 L526 347 C544 356 563 363 590 363 C643 363 665 338 665 299 C665 274 661 253 629 208 L479 0 L757 0 Z M584 680 L516 708 L195 8 L263 -21 L584 680 Z M239 266 L239 688 L179 688 C161 661 113 633 41 624 L50 574 C91 577 125 582 153 592 L153 266 L239 266 Z " />
<glyph glyph-name="threequarters" unicode="&#xbe;" horiz-adv-x="824" d="M762 87 L762 139 L730 139 L730 422 L649 422 L481 140 L481 87 L648 87 L648 0 L730 0 L730 87 L762 87 Z M631 680 L563 708 L242 8 L309 -21 L631 680 Z M320 394 C320 457 281 488 239 504 C267 517 302 546 302 593 C302 658 247 695 172 695 C124 695 90 686 60 670 L83 616 C105 627 131 633 155 633 C191 633 218 616 218 583 C218 547 184 521 120 515 L120 465 C172 466 229 454 229 393 C229 352 202 326 153 326 C117 326 90 334 70 345 L46 286 C77 269 113 260 166 260 C254 260 320 313 320 394 L320 394 Z M649 337 C649 337 648 307 648 279 L648 139 L536 139 L619 280 C636 309 648 337 649 337 L649 337 Z " />
<glyph glyph-name="questiondown" unicode="&#xbf;" horiz-adv-x="422" d="M314 407 C314 447 282 480 241 480 C201 480 168 447 168 407 C168 366 201 334 241 334 C282 334 314 366 314 407 L314 407 Z M409 -184 L376 -112 C355 -123 319 -138 274 -138 C199 -138 167 -97 167 -46 C167 19 237 58 303 72 L288 237 L196 237 L185 108 C128 91 39 36 39 -56 C39 -157 120 -223 251 -223 C317 -223 372 -205 409 -184 L409 -184 Z " />
<glyph glyph-name="Agrave" unicode="&#xc0;" horiz-adv-x="599" d="M338 740 L269 880 C228 905 160 907 149 878 L270 740 L338 740 Z M587 0 L360 688 L240 688 L12 0 L126 0 L181 177 L403 177 L456 0 L587 0 Z M385 251 L201 251 L275 493 C291 544 294 574 294 574 L296 574 C296 574 299 544 314 493 L385 251 Z " />
<glyph glyph-name="Aacute" unicode="&#xc1;" horiz-adv-x="599" d="M442 878 C430 907 362 905 322 880 L253 740 L320 740 L442 878 Z M587 0 L360 688 L240 688 L12 0 L126 0 L181 177 L403 177 L456 0 L587 0 Z M385 251 L201 251 L275 493 C291 544 294 574 294 574 L296 574 C296 574 299 544 314 493 L385 251 Z " />
<glyph glyph-name="Acircumflex" unicode="&#xc2;" horiz-adv-x="599" d="M440 765 L339 868 C328 879 313 885 299 885 C285 885 272 879 261 868 L159 765 L193 735 L300 812 L407 735 L440 765 Z M587 0 L360 688 L240 688 L12 0 L126 0 L181 177 L403 177 L456 0 L587 0 Z M385 251 L201 251 L275 493 C291 544 294 574 294 574 L296 574 C296 574 299 544 314 493 L385 251 Z " />
<glyph glyph-name="Atilde" unicode="&#xc3;" horiz-adv-x="599" d="M448 804 L418 859 C409 837 393 817 360 813 C312 808 282 858 223 853 C181 849 161 826 148 796 L177 742 C186 763 201 785 234 789 C284 794 317 743 375 750 C417 755 438 775 448 804 L448 804 Z M587 0 L360 688 L240 688 L12 0 L126 0 L181 177 L403 177 L456 0 L587 0 Z M385 251 L201 251 L275 493 C291 544 294 574 294 574 L296 574 C296 574 299 544 314 493 L385 251 Z " />
<glyph glyph-name="Adieresis" unicode="&#xc4;" horiz-adv-x="599" d="M447 802 C447 831 421 854 390 854 C359 854 333 831 333 802 C333 773 359 751 390 751 C421 751 447 773 447 802 L447 802 Z M267 802 C267 831 241 854 210 854 C179 854 153 831 153 802 C153 773 179 751 210 751 C241 751 267 773 267 802 L267 802 Z M587 0 L360 688 L240 688 L12 0 L126 0 L181 177 L403 177 L456 0 L587 0 Z M385 251 L201 251 L275 493 C291 544 294 574 294 574 L296 574 C296 574 299 544 314 493 L385 251 Z " />
<glyph glyph-name="Aring" unicode="&#xc5;" horiz-adv-x="599" d="M384 820 C384 867 346 905 300 905 C253 905 216 867 216 820 C216 774 253 736 300 736 C346 736 384 774 384 820 L384 820 Z M587 0 L360 688 L240 688 L12 0 L126 0 L181 177 L403 177 L456 0 L587 0 Z M344 820 C344 796 324 776 300 776 C275 776 256 796 256 820 C256 845 275 864 300 864 C324 864 344 845 344 820 L344 820 Z M385 251 L201 251 L275 493 C291 544 294 574 294 574 L296 574 C296 574 299 544 314 493 L385 251 Z " />
<glyph glyph-name="AE" unicode="&#xc6;" horiz-adv-x="751" d="M727 0 L727 85 L550 85 L494 311 L659 311 L659 395 L475 395 L423 603 L659 603 L659 688 L285 688 L-3 0 L113 0 L183 176 L406 176 L445 0 L727 0 Z M396 252 L212 252 L312 511 C326 546 332 577 332 577 L334 577 C334 577 335 545 342 511 L396 252 Z " />
<glyph glyph-name="Ccedilla" unicode="&#xc7;" horiz-adv-x="485" d="M456 29 L426 111 C402 96 379 87 339 87 C226 87 181 212 181 345 C181 477 221 607 339 607 C380 607 408 595 428 583 L456 659 C423 683 378 698 314 698 C139 698 49 531 49 344 C49 153 138 -10 313 -10 C375 -10 424 4 456 29 L456 29 Z M404 -124 C404 -77 360 -47 221 -59 L198 -97 C286 -90 321 -98 321 -125 C321 -155 248 -167 160 -159 L136 -200 C301 -215 404 -189 404 -124 L404 -124 Z " />
<glyph glyph-name="Egrave" unicode="&#xc8;" horiz-adv-x="449" d="M294 740 L225 880 C184 905 116 907 105 878 L226 740 L294 740 Z M406 0 L406 85 L198 85 L198 311 L383 311 L383 395 L198 395 L198 603 L406 603 L406 688 L71 688 L71 0 L406 0 Z " />
<glyph glyph-name="Eacute" unicode="&#xc9;" horiz-adv-x="449" d="M371 878 C359 907 292 905 251 880 L182 740 L250 740 L371 878 Z M406 0 L406 85 L198 85 L198 311 L383 311 L383 395 L198 395 L198 603 L406 603 L406 688 L71 688 L71 0 L406 0 Z " />
<glyph glyph-name="Ecircumflex" unicode="&#xca;" horiz-adv-x="449" d="M373 765 L271 868 C260 879 246 885 232 885 C218 885 204 879 193 868 L91 765 L125 735 L233 812 L339 735 L373 765 Z M406 0 L406 85 L198 85 L198 311 L383 311 L383 395 L198 395 L198 603 L406 603 L406 688 L71 688 L71 0 L406 0 Z " />
<glyph glyph-name="Edieresis" unicode="&#xcb;" horiz-adv-x="449" d="M382 802 C382 831 356 854 325 854 C294 854 268 831 268 802 C268 773 294 751 325 751 C356 751 382 773 382 802 L382 802 Z M203 802 C203 831 177 854 146 854 C115 854 89 831 89 802 C89 773 115 751 146 751 C177 751 203 773 203 802 L203 802 Z M407 0 L407 85 L199 85 L199 311 L383 311 L383 395 L199 395 L199 603 L407 603 L407 688 L71 688 L71 0 L407 0 Z " />
<glyph glyph-name="Igrave" unicode="&#xcc;" horiz-adv-x="274" d="M199 740 L130 880 C89 905 21 907 10 878 L131 740 L199 740 Z M201 0 L201 688 L74 688 L74 0 L201 0 Z " />
<glyph glyph-name="Iacute" unicode="&#xcd;" horiz-adv-x="274" d="M264 878 C253 907 185 905 144 880 L75 740 L143 740 L264 878 Z M201 0 L201 688 L73 688 L73 0 L201 0 Z " />
<glyph glyph-name="Icircumflex" unicode="&#xce;" horiz-adv-x="274" d="M277 765 L176 868 C165 879 151 885 137 885 C123 885 109 879 98 868 L-3 765 L30 735 L137 812 L244 735 L277 765 Z M201 0 L201 688 L73 688 L73 0 L201 0 Z " />
<glyph glyph-name="Idieresis" unicode="&#xcf;" horiz-adv-x="274" d="M284 802 C284 831 258 854 227 854 C196 854 170 831 170 802 C170 773 196 751 227 751 C258 751 284 773 284 802 L284 802 Z M104 802 C104 831 78 854 47 854 C16 854 -10 831 -10 802 C-10 773 16 751 47 751 C78 751 104 773 104 802 L104 802 Z M200 0 L200 688 L73 688 L73 0 L200 0 Z " />
<glyph glyph-name="Eth" unicode="&#xd0;" horiz-adv-x="631" d="M582 349 C582 555 490 698 283 698 C204 698 138 682 93 659 L93 406 L38 406 L38 333 L93 333 L93 29 C134 5 203 -10 288 -10 C497 -10 582 144 582 349 L582 349 Z M454 351 C454 164 405 77 285 77 C258 77 233 81 217 87 L217 333 L315 333 L315 406 L217 406 L217 606 C235 613 256 617 283 617 C400 617 454 530 454 351 L454 351 Z " />
<glyph glyph-name="Ntilde" unicode="&#xd1;" horiz-adv-x="650" d="M474 804 L443 859 C435 837 419 817 386 813 C337 808 307 858 249 853 C206 849 186 826 174 796 L202 742 C211 763 227 785 260 789 C309 794 342 743 400 750 C442 755 463 775 474 804 L474 804 Z M579 0 L579 688 L473 688 L473 273 C473 233 476 200 476 200 L474 200 C474 200 460 231 437 270 L191 688 L71 688 L71 0 L178 0 L178 441 C178 482 174 521 174 521 L176 521 C176 521 193 483 216 444 L477 0 L579 0 Z " />
<glyph glyph-name="Ograve" unicode="&#xd2;" horiz-adv-x="615" d="M365 740 L296 880 C256 905 188 907 176 878 L298 740 L365 740 Z M566 344 C566 539 493 698 308 698 C123 698 49 539 49 344 C49 148 123 -10 308 -10 C493 -10 566 148 566 344 L566 344 Z M437 348 C437 220 417 84 308 84 C199 84 178 220 178 348 C178 477 202 614 308 614 C414 614 437 477 437 348 L437 348 Z " />
<glyph glyph-name="Oacute" unicode="&#xd3;" horiz-adv-x="615" d="M435 878 C424 907 356 905 316 880 L246 740 L314 740 L435 878 Z M566 344 C566 539 493 698 308 698 C123 698 49 539 49 344 C49 148 123 -10 308 -10 C493 -10 566 148 566 344 L566 344 Z M437 348 C437 220 417 84 308 84 C199 84 178 220 178 348 C178 477 202 614 308 614 C414 614 437 477 437 348 L437 348 Z " />
<glyph glyph-name="Ocircumflex" unicode="&#xd4;" horiz-adv-x="615" d="M449 765 L347 868 C336 879 322 885 308 885 C294 885 280 879 269 868 L167 765 L201 735 L309 812 L415 735 L449 765 Z M566 344 C566 539 493 698 308 698 C123 698 49 539 49 344 C49 148 123 -10 308 -10 C493 -10 566 148 566 344 L566 344 Z M437 348 C437 220 417 84 308 84 C199 84 178 220 178 348 C178 477 202 614 308 614 C414 614 437 477 437 348 L437 348 Z " />
<glyph glyph-name="Otilde" unicode="&#xd5;" horiz-adv-x="615" d="M456 804 L426 859 C417 837 402 817 368 813 C320 808 290 858 232 853 C189 849 169 826 156 796 L185 742 C194 763 209 785 242 789 C292 794 325 743 383 750 C425 755 446 775 456 804 L456 804 Z M566 344 C566 539 493 698 308 698 C123 698 49 539 49 344 C49 148 123 -10 308 -10 C493 -10 566 148 566 344 L566 344 Z M437 348 C437 220 417 84 308 84 C199 84 178 220 178 348 C178 477 202 614 308 614 C414 614 437 477 437 348 L437 348 Z " />
<glyph glyph-name="Odieresis" unicode="&#xd6;" horiz-adv-x="615" d="M455 802 C455 831 429 854 398 854 C367 854 341 831 341 802 C341 773 367 751 398 751 C429 751 455 773 455 802 L455 802 Z M275 802 C275 831 249 854 218 854 C187 854 161 831 161 802 C161 773 187 751 218 751 C249 751 275 773 275 802 L275 802 Z M566 344 C566 539 493 698 308 698 C123 698 49 539 49 344 C49 148 123 -10 308 -10 C493 -10 566 148 566 344 L566 344 Z M437 348 C437 220 417 84 308 84 C199 84 178 220 178 348 C178 477 202 614 308 614 C414 614 437 477 437 348 L437 348 Z " />
<glyph glyph-name="multiply" unicode="&#xd7;" horiz-adv-x="546" d="M475 169 L326 332 L475 494 L420 548 L273 388 L125 548 L71 495 L220 332 L71 170 L126 117 L273 277 L421 116 L475 169 Z " />
<glyph glyph-name="Oslash" unicode="&#xd8;" horiz-adv-x="619" d="M568 344 C568 448 547 542 499 606 L558 699 L521 722 L468 638 C429 676 377 698 310 698 C125 698 51 539 51 344 C51 242 71 151 116 86 L56 -9 L93 -32 L147 53 C186 13 240 -10 310 -10 C495 -10 568 148 568 344 L568 344 Z M412 551 L192 206 C176 247 171 299 171 348 C171 485 200 622 310 622 C359 622 391 594 412 551 L412 551 Z M448 348 C448 212 423 75 310 75 C260 75 227 103 206 146 L426 492 C442 450 448 398 448 348 L448 348 Z " />
<glyph glyph-name="Ugrave" unicode="&#xd9;" horiz-adv-x="596" d="M369 740 L300 880 C259 905 192 907 180 878 L302 740 L369 740 Z M525 200 L525 688 L407 688 L407 201 C407 127 361 87 303 87 C246 87 198 127 198 201 L198 688 L71 688 L71 200 C71 75 163 -11 298 -11 C433 -11 525 75 525 200 L525 200 Z " />
<glyph glyph-name="Uacute" unicode="&#xda;" horiz-adv-x="596" d="M430 878 C418 907 350 905 310 880 L241 740 L308 740 L430 878 Z M525 200 L525 688 L407 688 L407 201 C407 127 361 87 303 87 C246 87 198 127 198 201 L198 688 L71 688 L71 200 C71 75 163 -11 298 -11 C433 -11 525 75 525 200 L525 200 Z " />
<glyph glyph-name="Ucircumflex" unicode="&#xdb;" horiz-adv-x="596" d="M443 765 L341 868 C330 879 315 885 301 885 C287 885 274 879 263 868 L161 765 L195 735 L302 812 L409 735 L443 765 Z M525 200 L525 688 L407 688 L407 201 C407 127 361 87 303 87 C246 87 198 127 198 201 L198 688 L71 688 L71 200 C71 75 163 -11 298 -11 C433 -11 525 75 525 200 L525 200 Z " />
<glyph glyph-name="Udieresis" unicode="&#xdc;" horiz-adv-x="596" d="M451 802 C451 831 425 854 394 854 C362 854 337 831 337 802 C337 773 362 751 394 751 C425 751 451 773 451 802 L451 802 Z M271 802 C271 831 245 854 214 854 C183 854 157 831 157 802 C157 773 183 751 214 751 C245 751 271 773 271 802 L271 802 Z M525 200 L525 688 L407 688 L407 201 C407 127 361 87 303 87 C246 87 198 127 198 201 L198 688 L71 688 L71 200 C71 75 163 -11 298 -11 C433 -11 525 75 525 200 L525 200 Z " />
<glyph glyph-name="Yacute" unicode="&#xdd;" horiz-adv-x="515" d="M401 878 C389 907 321 905 281 880 L212 740 L279 740 L401 878 Z M508 688 L388 688 L266 403 L264 403 L146 688 L9 688 L194 297 L194 0 L321 0 L321 297 L508 688 Z " />
<glyph glyph-name="Thorn" unicode="&#xde;" horiz-adv-x="551" d="M509 365 C509 489 435 581 265 581 C243 581 217 577 196 571 L196 688 L71 688 L71 0 L196 0 L196 155 L223 153 C424 138 509 241 509 365 L509 365 Z M387 362 C387 280 339 220 219 230 L196 232 L196 500 C215 506 234 509 255 509 C336 509 387 459 387 362 L387 362 Z " />
<glyph glyph-name="germandbls" unicode="&#xdf;" horiz-adv-x="576" d="M536 156 C536 220 508 261 453 298 C403 332 389 354 389 386 C389 437 423 462 484 471 C492 494 497 532 497 563 C497 688 425 794 287 794 C127 794 67 659 67 518 L67 0 L189 0 L189 527 C189 640 214 712 287 712 C353 712 379 655 379 560 C379 540 378 521 372 501 C316 483 276 441 276 377 C276 320 302 282 353 249 C398 220 416 198 416 159 C416 112 382 82 337 82 C308 82 289 89 273 99 L251 19 C273 3 309 -7 358 -7 C456 -7 536 57 536 156 L536 156 Z " />
<glyph glyph-name="agrave" unicode="&#xe0;" horiz-adv-x="519" d="M325 596 L256 737 C215 761 148 763 136 734 L258 596 L325 596 Z M454 29 L454 363 C454 502 366 549 255 549 C170 549 105 525 70 508 L98 438 C131 454 181 471 233 471 C296 471 340 452 340 382 L340 353 C176 337 39 296 39 154 C39 50 112 -10 259 -10 C343 -10 411 6 454 29 L454 29 Z M340 73 C322 64 295 58 267 58 C196 58 154 88 154 158 C154 256 225 281 340 295 L340 73 Z " />
<glyph glyph-name="aacute" unicode="&#xe1;" horiz-adv-x="519" d="M409 734 C398 763 330 761 290 737 L220 596 L288 596 L409 734 Z M454 29 L454 363 C454 502 366 549 255 549 C170 549 105 525 70 508 L98 438 C131 454 181 471 233 471 C296 471 340 452 340 382 L340 353 C176 337 39 296 39 154 C39 50 112 -10 259 -10 C343 -10 411 6 454 29 L454 29 Z M340 73 C322 64 295 58 267 58 C196 58 154 88 154 158 C154 256 225 281 340 295 L340 73 Z " />
<glyph glyph-name="acircumflex" unicode="&#xe2;" horiz-adv-x="519" d="M404 621 L302 724 C291 736 277 741 263 741 C249 741 235 736 224 724 L122 621 L156 591 L264 669 L370 591 L404 621 Z M454 29 L454 363 C454 502 366 549 255 549 C170 549 105 525 70 508 L98 438 C131 454 181 471 233 471 C296 471 340 452 340 382 L340 353 C176 337 39 296 39 154 C39 50 112 -10 259 -10 C343 -10 411 6 454 29 L454 29 Z M340 73 C322 64 295 58 267 58 C196 58 154 88 154 158 C154 256 225 281 340 295 L340 73 Z " />
<glyph glyph-name="atilde" unicode="&#xe3;" horiz-adv-x="519" d="M410 660 L380 716 C371 694 355 673 322 670 C273 665 244 715 185 709 C143 705 123 682 110 653 L139 598 C147 619 163 642 196 645 C245 650 279 600 336 607 C379 612 399 632 410 660 L410 660 Z M454 29 L454 363 C454 502 366 549 255 549 C170 549 105 525 70 508 L98 438 C131 454 181 471 233 471 C296 471 340 452 340 382 L340 353 C176 337 39 296 39 154 C39 50 112 -10 259 -10 C343 -10 411 6 454 29 L454 29 Z M340 73 C322 64 295 58 267 58 C196 58 154 88 154 158 C154 256 225 281 340 295 L340 73 Z " />
<glyph glyph-name="adieresis" unicode="&#xe4;" horiz-adv-x="519" d="M413 661 C413 690 387 712 356 712 C325 712 300 690 300 661 C300 632 325 609 356 609 C387 609 413 632 413 661 L413 661 Z M234 661 C234 690 207 712 176 712 C145 712 120 690 120 661 C120 632 145 609 176 609 C207 609 234 632 234 661 L234 661 Z M454 29 L454 363 C454 502 366 549 255 549 C170 549 105 525 70 508 L98 438 C131 454 181 471 233 471 C296 471 340 452 340 382 L340 353 C176 337 39 296 39 154 C39 50 112 -10 259 -10 C343 -10 411 6 454 29 L454 29 Z M340 73 C322 64 295 58 267 58 C196 58 154 88 154 158 C154 256 225 281 340 295 L340 73 Z " />
<glyph glyph-name="aring" unicode="&#xe5;" horiz-adv-x="519" d="M350 677 C350 723 312 761 266 761 C219 761 181 723 181 677 C181 630 219 592 266 592 C312 592 350 630 350 677 L350 677 Z M454 29 L454 363 C454 502 366 549 255 549 C170 549 105 525 70 508 L98 438 C131 454 181 471 233 471 C296 471 340 452 340 382 L340 353 C176 337 39 296 39 154 C39 50 112 -10 259 -10 C343 -10 411 6 454 29 L454 29 Z M310 677 C310 652 290 633 266 633 C241 633 222 652 222 677 C222 701 241 721 266 721 C290 721 310 701 310 677 L310 677 Z M340 73 C322 64 295 58 267 58 C196 58 154 88 154 158 C154 256 225 281 340 295 L340 73 Z " />
<glyph glyph-name="ae" unicode="&#xe6;" horiz-adv-x="817" d="M771 272 C775 454 698 549 556 549 C499 549 435 522 400 464 C373 525 315 549 250 549 C167 549 106 528 71 509 L97 440 C129 455 179 472 227 472 C289 472 337 450 337 382 L337 353 C173 336 39 289 39 154 C39 50 106 -10 239 -10 C324 -10 374 24 402 79 C438 25 497 -10 574 -10 C658 -10 714 7 753 28 L723 102 C696 88 649 74 589 74 C506 74 451 121 443 225 L771 272 Z M657 321 L436 288 C435 417 483 475 550 475 C617 475 656 433 657 321 L657 321 Z M337 149 C337 93 296 59 245 59 C187 59 149 88 149 157 C149 254 222 279 337 292 L337 149 Z " />
<glyph glyph-name="ccedilla" unicode="&#xe7;" horiz-adv-x="416" d="M385 27 L357 102 C340 88 317 78 284 78 C209 78 168 154 168 273 C168 391 203 466 286 466 C321 466 343 455 358 443 L384 512 C364 529 325 549 259 549 C139 549 45 450 45 271 C45 93 135 -10 258 -10 C323 -10 363 7 385 27 L385 27 Z M348 -124 C348 -77 304 -47 165 -59 L142 -97 C230 -90 265 -98 265 -125 C265 -155 192 -167 104 -159 L80 -200 C246 -215 348 -189 348 -124 L348 -124 Z " />
<glyph glyph-name="egrave" unicode="&#xe8;" horiz-adv-x="537" d="M327 596 L258 737 C217 761 150 763 138 734 L260 596 L327 596 Z M491 273 C496 454 418 549 275 549 C134 549 45 447 45 271 C45 89 142 -10 295 -10 C377 -10 435 7 473 28 L444 105 C415 90 370 75 308 75 C219 75 171 125 161 225 L491 273 Z M377 321 L154 287 C151 416 200 474 271 474 C338 474 377 430 377 321 L377 321 Z " />
<glyph glyph-name="eacute" unicode="&#xe9;" horiz-adv-x="537" d="M415 734 C404 763 336 761 296 737 L226 596 L294 596 L415 734 Z M491 273 C496 454 418 549 275 549 C134 549 45 447 45 271 C45 89 142 -10 295 -10 C377 -10 435 7 473 28 L444 105 C415 90 370 75 308 75 C219 75 171 125 161 225 L491 273 Z M377 321 L154 287 C151 416 200 474 271 474 C338 474 377 430 377 321 L377 321 Z " />
<glyph glyph-name="ecircumflex" unicode="&#xea;" horiz-adv-x="537" d="M414 621 L312 724 C301 736 287 741 273 741 C259 741 245 736 234 724 L132 621 L166 591 L273 669 L380 591 L414 621 Z M491 273 C496 454 418 549 275 549 C134 549 45 447 45 271 C45 89 142 -10 295 -10 C377 -10 435 7 473 28 L444 105 C415 90 370 75 308 75 C219 75 171 125 161 225 L491 273 Z M377 321 L154 287 C151 416 200 474 271 474 C338 474 377 430 377 321 L377 321 Z " />
<glyph glyph-name="edieresis" unicode="&#xeb;" horiz-adv-x="537" d="M422 661 C422 690 396 712 365 712 C333 712 308 690 308 661 C308 632 333 609 365 609 C396 609 422 632 422 661 L422 661 Z M242 661 C242 690 216 712 185 712 C154 712 128 690 128 661 C128 632 154 609 185 609 C216 609 242 632 242 661 L242 661 Z M491 273 C496 454 418 549 275 549 C134 549 45 447 45 271 C45 89 142 -10 295 -10 C377 -10 435 7 473 28 L444 105 C415 90 370 75 308 75 C219 75 171 125 161 225 L491 273 Z M377 321 L154 287 C151 416 200 474 271 474 C338 474 377 430 377 321 L377 321 Z " />
<glyph glyph-name="igrave" unicode="&#xec;" horiz-adv-x="260" d="M192 596 L122 737 C82 761 14 763 3 734 L124 596 L192 596 Z M191 0 L191 539 L69 539 L69 0 L191 0 Z " />
<glyph glyph-name="iacute" unicode="&#xed;" horiz-adv-x="260" d="M258 734 C246 763 179 761 138 737 L69 596 L136 596 L258 734 Z M191 0 L191 539 L69 539 L69 0 L191 0 Z " />
<glyph glyph-name="icircumflex" unicode="&#xee;" horiz-adv-x="260" d="M271 621 L169 724 C158 736 144 741 130 741 C116 741 102 736 91 724 L-11 621 L23 591 L131 669 L237 591 L271 621 Z M191 0 L191 539 L70 539 L70 0 L191 0 Z " />
<glyph glyph-name="idieresis" unicode="&#xef;" horiz-adv-x="260" d="M277 661 C277 690 251 712 220 712 C188 712 163 690 163 661 C163 632 188 609 220 609 C251 609 277 632 277 661 L277 661 Z M98 661 C98 690 71 712 40 712 C9 712 -16 690 -16 661 C-16 632 9 609 40 609 C71 609 98 632 98 661 L98 661 Z M191 0 L191 539 L69 539 L69 0 L191 0 Z " />
<glyph glyph-name="eth" unicode="&#xf0;" horiz-adv-x="542" d="M493 270 C493 426 435 573 360 692 L440 718 C433 729 415 755 407 764 L327 739 C308 766 298 775 280 794 L178 762 C196 743 206 732 225 705 L137 678 C147 667 164 641 169 631 L259 659 C284 621 301 584 321 536 C303 541 287 544 261 544 C114 544 45 411 45 266 C45 99 129 -11 272 -11 C422 -11 493 106 493 270 L493 270 Z M372 272 C372 163 353 73 272 73 C190 73 166 157 166 269 C166 393 194 473 283 473 C304 473 321 470 340 465 C358 418 372 337 372 272 L372 272 Z " />
<glyph glyph-name="ntilde" unicode="&#xf1;" horiz-adv-x="555" d="M424 660 L394 716 C385 694 370 673 336 670 C288 665 258 715 200 709 C157 705 137 682 124 653 L153 598 C162 619 177 642 210 645 C260 650 293 600 351 607 C393 612 414 632 424 660 L424 660 Z M490 0 L490 386 C490 500 414 549 278 549 C187 549 116 534 65 510 L65 0 L187 0 L187 457 C210 466 231 472 271 472 C333 472 368 445 368 386 L368 0 L490 0 Z " />
<glyph glyph-name="ograve" unicode="&#xf2;" horiz-adv-x="538" d="M321 596 L252 737 C211 761 143 763 132 734 L253 596 L321 596 Z M493 269 C493 430 421 549 269 549 C118 549 45 430 45 269 C45 110 118 -10 269 -10 C420 -10 493 110 493 269 L493 269 Z M372 270 C372 168 356 73 269 73 C185 73 166 168 166 270 C166 373 183 472 269 472 C356 472 372 373 372 270 L372 270 Z " />
<glyph glyph-name="oacute" unicode="&#xf3;" horiz-adv-x="538" d="M409 734 C398 763 330 761 290 737 L220 596 L288 596 L409 734 Z M493 269 C493 430 421 549 269 549 C118 549 45 430 45 269 C45 110 118 -10 269 -10 C420 -10 493 110 493 269 L493 269 Z M372 270 C372 168 356 73 269 73 C185 73 166 168 166 270 C166 373 183 472 269 472 C356 472 372 373 372 270 L372 270 Z " />
<glyph glyph-name="ocircumflex" unicode="&#xf4;" horiz-adv-x="538" d="M410 621 L308 724 C297 736 283 741 269 741 C255 741 241 736 230 724 L128 621 L162 591 L269 669 L376 591 L410 621 Z M493 269 C493 430 421 549 269 549 C118 549 45 430 45 269 C45 110 118 -10 269 -10 C420 -10 493 110 493 269 L493 269 Z M372 270 C372 168 356 73 269 73 C185 73 166 168 166 270 C166 373 183 472 269 472 C356 472 372 373 372 270 L372 270 Z " />
<glyph glyph-name="otilde" unicode="&#xf5;" horiz-adv-x="538" d="M418 660 L387 716 C379 694 363 673 330 670 C281 665 251 715 193 709 C150 705 130 682 118 653 L146 598 C155 619 171 642 204 645 C253 650 286 600 344 607 C386 612 407 632 418 660 L418 660 Z M493 269 C493 430 421 549 269 549 C118 549 45 430 45 269 C45 110 118 -10 269 -10 C420 -10 493 110 493 269 L493 269 Z M372 270 C372 168 356 73 269 73 C185 73 166 168 166 270 C166 373 183 472 269 472 C356 472 372 373 372 270 L372 270 Z " />
<glyph glyph-name="odieresis" unicode="&#xf6;" horiz-adv-x="538" d="M416 661 C416 690 389 712 358 712 C327 712 302 690 302 661 C302 632 327 609 358 609 C389 609 416 632 416 661 L416 661 Z M236 661 C236 690 210 712 179 712 C148 712 122 690 122 661 C122 632 148 609 179 609 C210 609 236 632 236 661 L236 661 Z M493 269 C493 430 421 549 269 549 C118 549 45 430 45 269 C45 110 118 -10 269 -10 C420 -10 493 110 493 269 L493 269 Z M372 270 C372 168 356 73 269 73 C185 73 166 168 166 270 C166 373 183 472 269 472 C356 472 372 373 372 270 L372 270 Z " />
<glyph glyph-name="divide" unicode="&#xf7;" horiz-adv-x="546" d="M330 492 C330 524 304 550 273 550 C241 550 215 524 215 492 C215 460 241 435 273 435 C304 435 330 460 330 492 L330 492 Z M470 300 L470 363 L76 363 L76 300 L470 300 Z M330 171 C330 203 304 229 273 229 C241 229 215 203 215 171 C215 139 241 114 273 114 C304 114 330 139 330 171 L330 171 Z " />
<glyph glyph-name="oslash" unicode="&#xf8;" horiz-adv-x="542" d="M497 269 C497 363 470 443 418 493 L465 573 L434 591 L390 514 C358 536 319 549 270 549 C120 549 45 430 45 269 C45 178 70 99 121 49 L72 -35 L103 -52 L149 27 C181 3 222 -10 271 -10 C422 -10 497 110 497 269 L497 269 Z M348 441 L177 147 C162 182 157 228 157 271 C157 375 181 482 271 482 C306 482 330 466 348 441 L348 441 Z M384 271 C384 167 362 65 271 65 C237 65 212 81 194 106 L364 400 C380 363 384 315 384 271 L384 271 Z " />
<glyph glyph-name="ugrave" unicode="&#xf9;" horiz-adv-x="546" d="M335 596 L266 737 C225 761 157 763 146 734 L267 596 L335 596 Z M481 32 L481 539 L359 539 L359 91 C338 79 313 73 278 73 C215 73 187 113 187 164 L187 539 L65 539 L65 171 C65 52 130 -11 274 -11 C368 -11 436 8 481 32 L481 32 Z " />
<glyph glyph-name="uacute" unicode="&#xfa;" horiz-adv-x="546" d="M414 734 C403 763 335 761 294 737 L225 596 L293 596 L414 734 Z M481 32 L481 539 L359 539 L359 91 C338 79 313 73 278 73 C215 73 187 113 187 164 L187 539 L65 539 L65 171 C65 52 130 -11 274 -11 C368 -11 436 8 481 32 L481 32 Z " />
<glyph glyph-name="ucircumflex" unicode="&#xfb;" horiz-adv-x="546" d="M414 621 L312 724 C301 736 287 741 273 741 C259 741 245 736 234 724 L133 621 L166 591 L274 669 L380 591 L414 621 Z M481 32 L481 539 L359 539 L359 91 C338 79 313 73 278 73 C215 73 187 113 187 164 L187 539 L65 539 L65 171 C65 52 130 -11 274 -11 C368 -11 436 8 481 32 L481 32 Z " />
<glyph glyph-name="udieresis" unicode="&#xfc;" horiz-adv-x="546" d="M420 661 C420 690 394 712 363 712 C331 712 306 690 306 661 C306 632 331 609 363 609 C394 609 420 632 420 661 L420 661 Z M240 661 C240 690 214 712 183 712 C152 712 126 690 126 661 C126 632 152 609 183 609 C214 609 240 632 240 661 L240 661 Z M481 32 L481 539 L359 539 L359 91 C338 79 313 73 278 73 C215 73 187 113 187 164 L187 539 L65 539 L65 171 C65 52 130 -11 274 -11 C368 -11 436 8 481 32 L481 32 Z " />
<glyph glyph-name="yacute" unicode="&#xfd;" horiz-adv-x="505" d="M397 734 C386 763 318 761 277 737 L208 596 L276 596 L397 734 Z M486 539 L371 539 L260 136 L258 136 L151 539 L21 539 L200 0 L110 -215 L240 -215 L486 539 Z " />
<glyph glyph-name="thorn" unicode="&#xfe;" horiz-adv-x="550" d="M505 282 C505 450 416 547 280 547 C247 547 211 538 186 525 L186 785 L65 785 L65 -215 L187 -215 L187 4 C211 -3 234 -6 264 -6 C400 -6 505 99 505 282 L505 282 Z M384 272 C384 160 347 66 240 66 C221 66 202 70 187 74 L187 461 C206 470 229 475 250 475 C346 475 384 400 384 272 L384 272 Z " />
<glyph glyph-name="ydieresis" unicode="&#xff;" horiz-adv-x="505" d="M407 661 C407 690 380 712 349 712 C318 712 293 690 293 661 C293 632 318 609 349 609 C380 609 407 632 407 661 L407 661 Z M227 661 C227 690 201 712 170 712 C139 712 113 690 113 661 C113 632 139 609 170 609 C201 609 227 632 227 661 L227 661 Z M486 539 L371 539 L260 136 L258 136 L151 539 L21 539 L200 0 L110 -215 L240 -215 L486 539 Z " />
<glyph glyph-name="dotlessi" unicode="&#x131;" horiz-adv-x="251" d="M186 0 L186 539 L65 539 L65 0 L186 0 Z " />
<glyph glyph-name="Lslash" unicode="&#x141;" horiz-adv-x="431" d="M403 0 L403 85 L213 85 L213 433 L285 467 L285 536 L213 501 L213 688 L85 688 L85 456 L28 428 L28 358 L85 387 L85 0 L403 0 Z " />
<glyph glyph-name="lslash" unicode="&#x142;" horiz-adv-x="312" d="M288 468 L288 539 L217 503 L217 785 L95 785 L95 460 L31 428 L31 356 L95 390 L95 0 L217 0 L217 433 L288 468 Z " />
<glyph glyph-name="OE" unicode="&#x152;" horiz-adv-x="766" d="M723 0 L723 86 L515 86 L515 311 L700 311 L700 395 L515 395 L515 603 L723 603 L723 688 L413 688 C394 693 362 698 329 698 C138 698 49 553 49 344 C49 136 139 -10 330 -10 C365 -10 396 -5 413 0 L723 0 Z M396 81 C384 78 362 75 335 75 C207 75 179 219 179 346 C179 471 205 619 335 619 C359 619 382 615 396 611 L396 81 Z " />
<glyph glyph-name="oe" unicode="&#x153;" horiz-adv-x="849" d="M803 269 C806 456 731 549 588 549 C523 549 460 518 424 451 C388 517 339 549 267 549 C119 549 45 430 45 269 C45 110 118 -10 267 -10 C342 -10 396 30 427 98 C464 24 529 -10 607 -10 C702 -10 746 7 785 28 L756 104 C725 87 686 74 622 74 C562 74 490 95 477 230 L803 269 Z M689 319 L470 293 C466 420 515 478 582 478 C648 478 689 430 689 319 L689 319 Z M370 271 C370 183 359 73 267 73 C178 73 163 182 163 271 C163 361 176 472 267 472 C361 472 370 362 370 271 L370 271 Z " />
<glyph glyph-name="Scaron" unicode="&#x160;" horiz-adv-x="474" d="M380 856 L347 886 L239 807 L129 886 L96 856 L198 753 C209 742 223 736 238 736 C252 736 267 742 278 753 L380 856 Z M427 200 C427 266 407 342 272 399 C212 424 168 452 168 512 C168 573 204 612 267 612 C311 612 349 596 373 581 L401 659 C370 681 319 698 250 698 C123 698 44 605 44 496 C44 429 74 355 186 308 C263 276 293 244 293 192 C293 128 251 86 183 86 C131 86 92 102 68 118 L37 29 C74 5 125 -10 207 -10 C335 -10 427 78 427 200 L427 200 Z " />
<glyph glyph-name="scaron" unicode="&#x161;" horiz-adv-x="415" d="M351 713 L317 742 L209 664 L100 742 L66 713 L168 610 C179 598 194 593 208 593 C222 593 237 599 248 610 L351 713 Z M373 155 C373 218 349 272 244 314 C197 333 164 355 164 399 C164 437 191 470 241 470 C279 470 311 453 327 440 L357 511 C322 534 277 549 217 549 C114 549 46 479 46 393 C46 337 67 281 169 242 C224 221 248 199 248 153 C248 109 215 77 165 77 C121 77 84 92 64 108 L32 30 C64 8 118 -9 181 -9 C299 -9 373 67 373 155 L373 155 Z " />
<glyph glyph-name="Ydieresis" unicode="&#x178;" horiz-adv-x="515" d="M410 802 C410 831 384 854 353 854 C322 854 297 831 297 802 C297 773 322 751 353 751 C384 751 410 773 410 802 L410 802 Z M231 802 C231 831 204 854 173 854 C142 854 117 831 117 802 C117 773 142 751 173 751 C204 751 231 773 231 802 L231 802 Z M508 688 L388 688 L266 403 L264 403 L146 688 L9 688 L194 297 L194 0 L321 0 L321 297 L508 688 Z " />
<glyph glyph-name="Zcaron" unicode="&#x17d;" horiz-adv-x="452" d="M368 856 L334 886 L226 807 L117 886 L83 856 L186 753 C197 742 211 736 225 736 C239 736 254 742 265 753 L368 856 Z M419 0 L419 85 L185 85 L413 688 L40 688 L40 603 L255 603 L21 0 L419 0 Z " />
<glyph glyph-name="zcaron" unicode="&#x17e;" horiz-adv-x="428" d="M355 713 L321 742 L213 664 L104 742 L70 713 L173 610 C184 599 198 593 212 593 C226 593 241 599 252 610 L355 713 Z M391 0 L391 78 L187 78 L385 539 L45 539 L45 461 L233 461 L28 0 L391 0 Z " />
<glyph glyph-name="florin" unicode="&#x192;" horiz-adv-x="585" d="M545 682 C523 690 491 698 452 698 C322 698 286 608 263 490 C263 490 250 424 248 413 L125 413 L125 336 L232 336 L172 21 C152 -85 126 -131 69 -131 C52 -131 37 -127 23 -119 L7 -204 C26 -213 57 -221 90 -221 C209 -221 268 -113 289 -3 L354 336 L478 336 L478 413 L370 413 L384 485 C395 543 415 614 476 614 C497 614 513 610 529 604 L545 682 Z " />
<glyph glyph-name="circumflex" unicode="&#x2c6;" horiz-adv-x="222" d="M252 621 L150 724 C139 736 125 741 111 741 C97 741 83 736 72 724 L-30 621 L4 591 L111 669 L218 591 L252 621 Z " />
<glyph glyph-name="caron" unicode="&#x2c7;" horiz-adv-x="222" d="M253 713 L220 742 L111 664 L2 742 L-31 713 L71 610 C82 598 96 593 111 593 C125 593 140 598 151 610 L253 713 Z " />
<glyph glyph-name="breve" unicode="&#x2d8;" horiz-adv-x="222" d="M247 725 L207 738 C191 686 159 660 110 660 C62 660 29 686 16 738 L-25 725 C-25 674 8 595 111 595 C213 595 247 674 247 725 L247 725 Z " />
<glyph glyph-name="dotaccent" unicode="&#x2d9;" horiz-adv-x="222" d="M172 691 C172 725 145 752 111 752 C77 752 50 725 50 691 C50 658 77 630 111 630 C145 630 172 658 172 691 L172 691 Z " />
<glyph glyph-name="ring" unicode="&#x2da;" horiz-adv-x="222" d="M195 677 C195 723 157 761 111 761 C64 761 26 723 26 677 C26 630 64 592 111 592 C157 592 195 630 195 677 L195 677 Z M155 677 C155 652 135 633 111 633 C86 633 67 652 67 677 C67 701 86 721 111 721 C135 721 155 701 155 677 L155 677 Z " />
<glyph glyph-name="ogonek" unicode="&#x2db;" horiz-adv-x="222" d="M266 -154 L253 -115 C183 -142 143 -128 143 -103 C143 -73 156 -45 244 6 L170 6 C87 -38 61 -74 61 -123 C61 -191 174 -198 266 -154 L266 -154 Z " />
<glyph glyph-name="tilde" unicode="&#x2dc;" horiz-adv-x="222" d="M261 660 L231 716 C222 694 206 673 173 670 C124 665 95 715 36 709 C-6 705 -26 682 -39 653 L-10 598 C-2 619 14 642 47 645 C96 650 130 600 187 607 C230 612 251 632 261 660 L261 660 Z " />
<glyph glyph-name="hungarumlaut" unicode="&#x2dd;" horiz-adv-x="222" d="M277 724 C276 736 269 743 245 743 C220 743 201 734 188 723 L111 596 L158 596 L277 724 Z M139 724 C138 736 131 743 107 743 C82 743 63 734 50 723 L-27 596 L20 596 L139 724 Z " />
<glyph glyph-name="pi" unicode="&#x3c0;" horiz-adv-x="663" d="M611 0 L611 79 C547 77 543 119 543 162 L543 462 L611 462 L611 539 L49 539 L49 462 L118 462 L118 0 L240 0 L240 462 L421 462 L421 155 C421 92 427 -18 611 0 L611 0 Z " />
<glyph glyph-name="endash" unicode="&#x2013;" horiz-adv-x="410" d="M410 297 L410 374 L0 374 L0 297 L410 297 Z " />
<glyph glyph-name="emdash" unicode="&#x2014;" horiz-adv-x="820" d="M820 302 L820 368 L0 368 L0 302 L820 302 Z " />
<glyph glyph-name="quoteleft" unicode="&#x2018;" horiz-adv-x="287" d="M252 785 L189 785 L50 517 C53 501 64 482 96 482 C132 482 154 499 167 517 L252 785 Z " />
<glyph glyph-name="quoteright" unicode="&#x2019;" horiz-adv-x="287" d="M237 755 C233 772 222 790 190 790 C155 790 133 773 120 755 L35 487 L98 487 L237 755 Z " />
<glyph glyph-name="quotesinglbase" unicode="&#x201a;" horiz-adv-x="287" d="M237 99 C233 115 222 134 191 134 C155 134 133 117 120 99 L35 -169 L98 -169 L237 99 Z " />
<glyph glyph-name="quotedblleft" unicode="&#x201c;" horiz-adv-x="482" d="M447 785 L384 785 L246 517 C249 501 260 482 292 482 C327 482 350 499 363 517 L447 785 Z M252 785 L189 785 L50 517 C53 501 64 482 96 482 C132 482 154 499 167 517 L252 785 Z " />
<glyph glyph-name="quotedblright" unicode="&#x201d;" horiz-adv-x="482" d="M432 755 C429 772 418 790 386 790 C351 790 328 773 315 755 L231 487 L293 487 L432 755 Z M237 755 C233 772 222 790 190 790 C155 790 133 773 120 755 L35 487 L98 487 L237 755 Z " />
<glyph glyph-name="quotedblbase" unicode="&#x201e;" horiz-adv-x="482" d="M432 99 C429 115 418 134 386 134 C351 134 328 117 315 99 L231 -169 L293 -169 L432 99 Z M237 99 C233 115 222 134 190 134 C155 134 133 117 120 99 L35 -169 L98 -169 L237 99 Z " />
<glyph glyph-name="dagger" unicode="&#x2020;" horiz-adv-x="578" d="M533 423 L533 544 L340 534 L351 785 L226 785 L237 534 L45 544 L45 423 L237 433 L226 -215 L351 -215 L340 433 L533 423 Z " />
<glyph glyph-name="daggerdbl" unicode="&#x2021;" horiz-adv-x="578" d="M533 51 L533 151 L339 144 L341 295 L339 449 L533 442 L533 543 L339 536 L349 785 L229 785 L239 536 L45 543 L45 442 L239 449 L237 295 L239 144 L45 151 L45 51 L239 58 L229 -215 L349 -215 L339 58 L533 51 Z " />
<glyph glyph-name="bullet" unicode="&#x2022;" horiz-adv-x="358" d="M297 359 C297 425 244 477 179 477 C114 477 61 425 61 359 C61 294 114 241 179 241 C244 241 297 294 297 359 L297 359 Z " />
<glyph glyph-name="ellipsis" unicode="&#x2026;" horiz-adv-x="883" d="M809 67 C809 108 776 140 736 140 C696 140 663 108 663 67 C663 27 696 -6 736 -6 C776 -6 809 27 809 67 L809 67 Z M515 67 C515 108 482 140 442 140 C401 140 368 108 368 67 C368 27 401 -6 442 -6 C482 -6 515 27 515 67 L515 67 Z M220 67 C220 108 188 140 147 140 C107 140 74 108 74 67 C74 27 107 -6 147 -6 C188 -6 220 27 220 67 L220 67 Z " />
<glyph glyph-name="perthousand" unicode="&#x2030;" horiz-adv-x="1220" d="M1157 226 C1157 331 1132 461 1014 461 C894 461 870 331 870 226 C869 120 895 -11 1014 -11 C1132 -11 1158 120 1157 226 L1157 226 Z M808 226 C808 331 783 462 665 462 C546 462 521 331 521 226 C520 120 546 -10 665 -10 C783 -10 809 120 808 226 L808 226 Z M582 680 L521 696 L287 7 L348 -9 L582 680 Z M350 462 C350 568 325 698 206 698 C87 698 63 568 63 462 C63 357 87 227 206 227 C325 227 350 357 350 462 L350 462 Z M1077 228 C1077 145 1071 50 1014 50 C956 50 950 145 950 228 C950 312 956 409 1014 409 C1071 409 1078 312 1077 228 L1077 228 Z M728 229 C727 145 722 50 665 50 C607 50 601 145 601 229 C601 312 607 409 665 409 C722 409 728 312 728 229 L728 229 Z M270 465 C270 381 264 287 206 287 C149 287 143 381 143 465 C143 549 149 646 206 646 C264 646 270 549 270 465 L270 465 Z " />
<glyph glyph-name="guilsinglleft" unicode="&#x2039;" horiz-adv-x="330" d="M266 147 L143 334 L266 521 L200 561 L50 334 L200 107 L266 147 Z " />
<glyph glyph-name="guilsinglright" unicode="&#x203a;" horiz-adv-x="330" d="M280 334 L130 561 L64 521 L186 334 L64 147 L130 107 L280 334 Z " />
<glyph glyph-name="fraction" unicode="&#x2044;" horiz-adv-x="171" d="M280 680 L212 708 L-109 8 L-41 -21 L280 680 Z " />
<glyph glyph-name="trademark" unicode="&#x2122;" horiz-adv-x="782" d="M721 343 L674 688 L591 688 L515 411 L437 688 L355 688 L307 343 L368 343 L400 625 L485 343 L543 343 L627 625 L660 343 L721 343 Z M292 641 L292 688 L41 688 L41 641 L136 641 L136 343 L198 343 L198 641 L292 641 Z " />
<glyph glyph-name="Omega" unicode="&#x2126;" horiz-adv-x="670" d="M628 0 L628 86 L503 86 C556 156 607 282 607 388 C607 568 517 698 335 698 C153 698 63 568 63 388 C63 280 114 155 168 86 L42 86 L42 0 L300 0 C231 88 187 231 187 384 C187 516 227 614 335 614 C443 614 483 516 483 384 C483 232 439 88 369 0 L628 0 Z " />
<glyph glyph-name="partialdiff" unicode="&#x2202;" horiz-adv-x="546" d="M498 336 C498 556 337 667 212 694 L176 614 C252 592 353 527 374 408 C199 457 45 339 45 165 C45 64 110 -9 226 -9 C428 -9 498 172 498 336 L498 336 Z M384 345 C384 197 337 71 239 71 C183 71 159 110 159 176 C159 297 242 386 384 345 L384 345 Z " />
<glyph glyph-name="Delta" unicode="&#x2206;" horiz-adv-x="592" d="M584 0 L357 688 L235 688 L8 0 C295 0 255 0 584 0 L584 0 Z M435 77 L145 77 L272 493 C280 518 291 566 291 566 L293 566 C293 566 304 518 311 493 L435 77 Z " />
<glyph glyph-name="product" unicode="&#x220f;" horiz-adv-x="814" d="M761 343 C761 539 602 698 407 698 C211 698 53 539 53 343 C53 147 211 -10 407 -10 C602 -10 761 147 761 343 L761 343 Z M708 343 C708 177 574 42 407 42 C239 42 105 177 105 343 C105 510 239 647 407 647 C574 647 708 510 708 343 L708 343 Z M556 436 C556 529 485 567 412 567 C372 567 335 560 306 545 L306 128 L364 128 L364 309 C478 297 556 342 556 436 L556 436 Z M497 436 C497 374 444 346 364 356 L364 513 C376 517 391 520 406 520 C449 520 497 504 497 436 L497 436 Z " />
<glyph glyph-name="summation" unicode="&#x2211;" horiz-adv-x="546" d="M501 -215 L501 -117 L213 -117 L415 285 L229 603 L491 603 L491 688 L48 688 L287 268 L45 -215 L501 -215 Z " />
<glyph glyph-name="minus" unicode="&#x2212;" horiz-adv-x="546" d="M470 292 L470 372 L76 372 L76 292 L470 292 Z " />
<glyph glyph-name="radical" unicode="&#x221a;" horiz-adv-x="546" d="M524 785 L418 785 L288 146 L286 146 L195 500 L22 500 L22 430 L102 430 L236 0 L346 0 L524 785 Z " />
<glyph glyph-name="infinity" unicode="&#x221e;" horiz-adv-x="850" d="M786 339 C786 437 716 515 613 515 C527 515 488 477 425 401 C359 479 314 515 237 515 C134 515 64 437 64 339 C64 238 134 164 237 164 C317 164 361 197 424 276 C485 198 536 164 615 164 C717 164 786 241 786 339 L786 339 Z M708 340 C708 287 668 248 614 248 C561 248 529 276 477 341 C533 413 561 434 613 434 C667 434 708 393 708 340 L708 340 Z M372 337 C319 270 287 244 235 244 C181 244 141 286 141 337 C141 389 181 430 235 430 C285 430 318 401 372 337 L372 337 Z " />
<glyph glyph-name="integral" unicode="&#x222b;" horiz-adv-x="546" d="M454 705 L454 784 C321 795 233 721 233 600 L233 -46 C233 -115 185 -138 132 -135 L132 -215 C265 -225 354 -151 354 -31 L354 616 C354 685 401 707 454 705 L454 705 Z " />
<glyph glyph-name="approxequal" unicode="&#x2248;" horiz-adv-x="546" d="M470 406 L470 485 C447 459 411 435 358 435 C294 435 250 497 182 497 C128 497 95 474 76 454 L76 374 C98 397 130 419 182 419 C250 419 292 357 359 357 C417 357 450 382 470 406 L470 406 Z M470 210 L470 289 C447 264 411 240 358 240 C294 240 250 302 182 302 C128 302 95 279 76 258 L76 178 C98 201 130 223 182 223 C250 223 292 161 359 161 C417 161 450 187 470 210 L470 210 Z " />
<glyph glyph-name="notequal" unicode="&#x2260;" horiz-adv-x="546" d="M470 203 L470 278 L274 278 L339 387 L470 387 L470 461 L381 461 L430 543 L379 572 L314 461 L76 461 L76 387 L273 387 L208 278 L76 278 L76 203 L166 203 L114 117 L164 88 L232 203 L470 203 Z " />
<glyph glyph-name="lessequal" unicode="&#x2264;" horiz-adv-x="546" d="M470 223 L470 300 L173 402 L470 504 L470 581 L76 435 L76 369 L470 223 Z M470 93 L470 163 L76 163 L76 93 L470 93 Z " />
<glyph glyph-name="greaterequal" unicode="&#x2265;" horiz-adv-x="546" d="M470 369 L470 435 L76 581 L76 504 L373 402 L76 300 L76 223 L470 369 Z M470 93 L470 163 L76 163 L76 93 L470 93 Z " />
<glyph glyph-name="lozenge" unicode="&#x25ca;" horiz-adv-x="637" d="M592 344 L318 686 L45 344 L318 2 L592 344 Z M493 336 L326 125 L144 352 L311 563 L493 336 Z " />
<glyph glyph-name="fi" unicode="&#xfb01;" horiz-adv-x="567" d="M503 692 C503 725 473 752 436 752 C398 752 368 725 368 692 C368 660 398 633 436 633 C473 633 503 660 503 692 L503 692 Z M497 0 L497 539 L375 539 L376 0 L497 0 Z M307 461 L307 539 L218 539 L218 616 C218 685 254 706 307 707 L307 785 C175 795 96 725 96 604 L96 539 L36 539 L36 461 L96 461 L96 0 L218 0 L218 461 L307 461 Z " />
<glyph glyph-name="fl" unicode="&#xfb02;" horiz-adv-x="572" d="M502 0 L502 785 L380 785 L380 0 L502 0 Z M307 461 L307 539 L218 539 L218 616 C218 685 254 706 307 707 L307 785 C175 795 96 725 96 604 L96 539 L36 539 L36 461 L96 461 L96 0 L218 0 L218 461 L307 461 Z " />
</font>
</svg>
