<svg width="376" height="152" xmlns="http://www.w3.org/2000/svg"><defs><linearGradient x1="98.28%" y1="60.55%" x2="7%" y2="70%" id="gradient">
    <stop stop-color="#42EA84" offset="9%"/>
    <stop stop-color="#8AFFB8" offset="20%"/>
    <stop stop-color="#FF9000" offset="49.49%"/>
    <stop stop-color="#BF0C61" offset="58.16%"/>
    <stop stop-color="#452BA8" offset="80.1%"/>
    <stop stop-color="#1287F2" offset="100%"/></linearGradient></defs><path id="logo" d="M159.84 117.75c-3.87 5.88-8.66 8.8-14.36 8.8-5.7 0-9.56-2.72-11.56-8.2-.72-1.96-1.08-4.2-1.08-6.72 0-2.5.22-5.03.66-7.54.44-2.6 1.1-5.1 2.02-7.6 2-5.5 4.85-10.1 8.57-13.7 3.7-3.6 8.2-5.4 13.4-5.4 2.7 0 4.7.4 5.9 1.4 1.2.9 1.8 2.1 1.8 3.5v.3l4.7-22 14.2-2-11.1 51.8c-.3 1.1-.5 2.2-.5 3.4 0 2.2 1.3 3.2 3.9 3.2 3.6 0 6.2-2.8 7.8-8.5h4c-4 11.4-10.5 17.2-19.3 17.2-5.6 0-8.7-2.8-9.5-8.3zm-12.8-7.45c0 4.65 1.6 6.98 4.8 6.98 1.33 0 2.82-.65 4.46-1.94 1.65-1.3 2.8-3.3 3.45-6.03v-.5l4.7-22c-.6-2.2-1.92-3.3-3.95-3.3-2.03 0-3.9 1-5.58 2.9-4.06 4.6-6.6 11.2-7.64 19.8-.16 1.3-.23 2.7-.23 4.2zm77.6-1.5c-7.2 11.84-16 17.76-26.4 17.76-4.57 0-8.2-1.18-10.93-3.54-2.7-2.36-4-6.25-4-11.7 0-7.3 1.9-14.38 5.6-21.23 2.9-5.3 6.8-9 11.7-11.2 2.6-1.2 5.2-1.8 7.9-1.8 4.5 0 7.5.8 9.1 2.5 1.6 1.7 2.4 3.9 2.4 6.7 0 5.4-2.2 10.1-6.6 13.9-4.4 3.8-9.5 5.9-15.4 6.3-.1 1.8-.2 3.1-.2 3.8 0 3.3.6 5.4 1.8 6.5 1.2 1 2.8 1.5 4.9 1.5 3.7 0 6.8-.8 9.3-2.5 2.5-1.6 5.2-4.1 8-7.2h3.2zm-12.3-23.1c0-2.33-.8-3.48-2.4-3.48-2.33.06-4.6 2.13-6.78 6.2-2.2 4.1-3.77 8.6-4.74 13.58 3.7-.25 6.93-1.97 9.73-5.16 2.8-3.18 4.2-6.9 4.2-11.15zm49.7 23.1c-3.98 4.62-8.87 8.62-14.68 12-3.63 3.84-8.66 5.76-15.1 5.76-4.5 0-7.96-1.22-10.38-3.68-2.42-2.45-3.63-5.06-3.63-7.83 0-2.76.53-4.9 1.6-6.44 1.06-1.5 2.23-2.6 3.5-3.2 4.5-8 8.45-17.5 11.82-28.4l14.2-1.8c.26 6 .5 11 .75 15.1l1.18 15.3c.12 1.5.18 3 .18 4.5s-.12 2.8-.37 3.8c2.9-1.6 5.2-3.2 6.9-4.8h4.1zm-33.67 10.17c6.13 0 9.2-2.97 9.2-8.9 0-1.66-.13-3.62-.38-5.87l-.6-5.48c-.4-3.5-.7-7.3-.9-11.4-1.6 5.26-4.2 11.3-7.8 18.15 1.4.7 2.2 1.7 2.2 3.07 0 1.36-.4 2.53-1.2 3.5-.8 1-1.8 1.5-3.1 1.5s-2.2-.43-2.6-1.27c0 4.46 1.6 6.7 5 6.7zm53.35-53.72c0 2.13-.76 3.9-2.27 5.37-1.52 1.45-3.33 2.18-5.44 2.18-2.1 0-3.9-.74-5.3-2.2-1.4-1.48-2.2-3.26-2.2-5.35 0-2.1.7-3.9 2.2-5.4 1.5-1.53 3.3-2.3 5.4-2.3 2.2 0 4 .76 5.5 2.26 1.5 1.5 2.3 3.4 2.3 5.5zm5.95 43.55c-4.12 11.84-11 17.76-20.67 17.76-2.53 0-4.8-.9-6.8-2.72-1.97-1.8-2.95-4.73-2.95-8.76 0-1.8.25-3.9.75-6.28l6.52-30.8h13.82l-6.9 32.63c-.24 1.15-.36 2.3-.36 3.42 0 2.15 1.3 3.23 3.9 3.23 1.86 0 3.6-.8 5.22-2.44 1.6-1.62 2.75-3.64 3.44-6.04h4.03zm19.03 12.5c-3.34 3.5-7.18 5.26-11.53 5.26-5.8 0-9.72-2.73-11.72-8.2-.72-1.97-1.07-4.2-1.07-6.73 0-2.5.2-5.03.65-7.54.44-2.6 1.1-5.1 2.02-7.6 2-5.5 4.86-10.1 8.57-13.7 3.72-3.6 8.2-5.4 13.46-5.4 2.75 0 4.73.4 5.95 1.4 1.22.9 1.83 2.1 1.83 3.5v.5l1.04-4.9h13.82l-9.52 44.5c2.9-1 5.3-2.5 7.2-4.5 1.9-2 3.52-5.1 4.9-9.3h4.03c-2.44 8.2-6.56 13.6-12.38 16.3-1.6.7-3.12 1.2-4.6 1.6l-1.44 6.9c-1.2 6.1-3.6 10.5-7.3 13.3-2.7 2-5.7 3-9.2 3-3.4 0-6.2-.8-8.3-2.3-2.1-1.6-3.1-4-3.1-7.4 0-5.9 5.2-10.5 15.7-14l1.2-5.1zm7.27-34.25c0-1.44-.67-2.5-2.02-3.14-.5-.2-1.14-.4-1.92-.4-2.03 0-3.9 1-5.58 2.9-4.06 4.6-6.6 11.2-7.64 19.8-.1 1.3-.2 2.7-.2 4.2 0 2.9.6 4.9 1.8 6 .7.7 1.6 1.1 2.6 1.1 1.8 0 3.5-.7 5-2 1.6-1.3 2.6-3.2 3.3-5.4l4.8-22.8zm-9.42 44.15c-6.25 2.25-9.38 4.97-9.38 8.16 0 1.28.6 2.23 1.83 2.86.4.2 1 .28 1.78.28s1.7-.7 2.72-2.1c1.03-1.38 1.86-3.52 2.48-6.43l.57-2.77zm47.06-48.23c3.2-3.56 6.9-5.34 11.2-5.34 3.1 0 5.7.84 7.7 2.53 2.1 1.68 3.1 4.18 3.1 7.5 0 3.3-.5 7.06-1.6 11.25l-2.3 9.3c-.5 2.1-.7 3.7-.7 5 0 1.3.3 2.3.8 3 .6.8 1.6 1.1 3.1 1.1s2.6-.2 3.2-.6c-.4 3.5-1.7 6-3.7 7.6-2 1.6-4.1 2.4-6.3 2.4-3.8 0-6.5-1.1-8.1-3.3-1.3-1.9-2-4.2-2-7.1 0-2.8.7-7.1 2.2-12.9 1.5-5.7 2.2-9.7 2.2-11.9 0-3.3-1.2-4.9-3.5-4.9s-4.4 1.9-6.2 5.5c-.53 1-1 2.2-1.3 3.4l-6.5 30.8H329l10.13-48h13.8l-1.04 4.9zM75.9 152c41.9 0 75.87-33.8 75.87-75.5C151.77 34.78 117.8.98 75.9.98 33.98.98 0 34.78 0 76.48S33.97 152 75.87 152zM19.18 26.58H59.9l15.74 60.68L91.3 26.58h40.6v99.72h-25.3V50.25L87 126.3H64.1L44.53 50.25v76.05H19.18V26.58z" fill="url(#gradient)" fill-rule="evenodd"/></svg>