<svg width="944" height="96" xmlns="http://www.w3.org/2000/svg"><defs><linearGradient x1="50%" y1="2.551%" x2="50%" y2="100%" id="a"><stop stop-color="#C0ECFF" offset="0%"/><stop stop-color="#5599B8" offset="100%"/></linearGradient><linearGradient x1="50%" y1="0%" x2="50%" y2="97.959%" id="b"><stop stop-color="#C0EBFF" offset="0%"/><stop stop-color="#5599B8" offset="100%"/></linearGradient><linearGradient x1="50%" y1="0%" x2="50%" y2="100%" id="c"><stop stop-color="#C0EBFF" offset="0%"/><stop stop-color="#5599B8" offset="100%"/></linearGradient><linearGradient x1="50%" y1="0%" x2="50%" y2="100%" id="d"><stop stop-color="#C0EBFF" offset="1.531%"/><stop stop-color="#5599B8" offset="100%"/></linearGradient><linearGradient x1="50%" y1="-3.127%" x2="50%" y2="100%" id="e"><stop stop-color="#C0EBFF" offset="0%"/><stop stop-color="#5599B8" offset="100%"/></linearGradient></defs><g fill="none" fill-rule="evenodd"><path d="M0 0h96v96H0V0zm25.242 80.225l7.346-4.446c1.418 2.51 2.707 4.63 5.8 4.63 2.964 0 4.833-1.16 4.833-5.67V44.07h9.03v30.8c0 9.346-5.48 13.6-13.47 13.6-7.21 0-11.4-3.738-13.53-8.248zm31.9-.967l7.347-4.253c1.93 3.158 4.44 5.477 8.89 5.477 3.74 0 6.12-1.87 6.12-4.446 0-3.093-2.45-4.19-6.57-5.993l-2.26-.967c-6.51-2.77-10.83-6.25-10.83-13.597 0-6.77 5.15-11.93 13.21-11.93 5.73 0 9.86 2 12.82 7.22l-7.03 4.51c-1.55-2.77-3.23-3.87-5.8-3.87-2.64 0-4.32 1.67-4.32 3.86 0 2.7 1.67 3.8 5.54 5.48l2.25.96C84.18 65 88.5 68.35 88.5 75.89c0 8.12-6.38 12.565-14.95 12.565-8.376 0-13.79-4-16.43-9.22z" transform="translate(106)" fill="url(#a)"/><path d="M0 0h96v96H0V0zm18.102 36.556h4.31V56.61c-2.21.42-3.834.59-5.598.59-5.263 0-8.006-2.39-8.006-6.977 0-4.417 2.91-7.286 7.418-7.286.7 0 1.232.056 1.876.225v-6.606zm0 10.094c-.504-.17-.924-.225-1.456-.225-2.183 0-3.443 1.35-3.443 3.713 0 2.307 1.204 3.573 3.415 3.573.476 0 .868-.02 1.484-.11v-6.95zm11.17-3.404V53.29c0 3.46-.253 5.12-1.01 6.554-.7 1.378-1.622 2.25-3.526 3.207l-4.003-1.91c1.903-.9 2.827-1.69 3.415-2.9.616-1.23.812-2.67.812-6.44v-8.55h4.31zM24.96 36.58h4.31v4.444h-4.31V36.58zm6.915 7.65c1.904-.9 3.723-1.293 5.71-1.293 2.213 0 3.668.59 4.312 1.744.364.65.476 1.49.476 3.3v8.81c-1.932.28-4.367.48-6.16.48-3.61 0-5.234-1.27-5.234-4.08 0-3.04 2.15-4.44 7.44-4.89v-.95c0-.79-.39-1.07-1.49-1.07-1.6 0-3.39.45-5.07 1.33v-3.35zm6.747 6.893c-2.856.28-3.78.73-3.78 1.857 0 .843.532 1.237 1.708 1.237.644 0 1.232-.056 2.072-.196v-2.89zm5.85-7.202c2.548-.67 4.648-.98 6.775-.98 2.212 0 3.807.51 4.76 1.49.895.93 1.175 1.94 1.175 4.11v8.5h-4.31v-8.33c0-1.66-.56-2.28-2.1-2.28-.588 0-1.12.06-1.988.31v10.29h-4.31V43.92zM58.86 59.4c1.512.787 3.023 1.153 4.62 1.153 2.826 0 4.03-1.153 4.03-3.91v-.085c-.84.422-1.68.59-2.8.59-3.78 0-6.186-2.503-6.186-6.47 0-4.922 3.555-7.707 9.854-7.707 1.847 0 3.555.2 5.627.62l-1.477 3.13c-1.147-.22-.09-.03-.96-.11v.45l.057 1.83.028 2.36c.03.59.03 1.19.057 1.78v1.18c0 3.72-.308 5.46-1.232 6.89-1.344 2.11-3.667 3.16-6.97 3.16-1.68 0-3.135-.25-4.647-.84v-4zm8.566-12.94h-.448c-.84-.03-1.82.196-2.49.618-1.037.59-1.57 1.66-1.57 3.18 0 2.165 1.065 3.403 2.97 3.403.586 0 1.062-.11 1.622-.28v-1.49c0-.5-.028-1.07-.028-1.66l-.027-2-.03-1.43v-.33zm13.27-3.574c4.312 0 6.944 2.73 6.944 7.147 0 4.53-2.743 7.37-7.11 7.37-4.312 0-6.97-2.73-6.97-7.117 0-4.56 2.742-7.4 7.137-7.4zm-.083 11.03c1.653 0 2.633-1.38 2.633-3.77 0-2.364-.952-3.77-2.604-3.77-1.708 0-2.688 1.38-2.688 3.77s.98 3.77 2.66 3.77z" fill="url(#b)"/><path d="M0 0h96v96H0V0zm39.002 48.48c0-2.69-.754-4.07-2.26-4.144-.6-.03-1.186.068-1.756.293-.455.16-.76.32-.922.49v6.41c.964.61 1.82.9 2.567.85 1.58-.11 2.38-1.41 2.38-3.92zm1.86.112c0 1.366-.315 2.5-.95 3.4-.705 1.02-1.683 1.547-2.934 1.575-.943.03-1.914-.27-2.914-.9V58.5l-1.617-.587V44.967c.266-.33.607-.615 1.02-.856.963-.57 2.133-.86 3.51-.87l.022.03c1.25-.01 2.22.51 2.9 1.58.63.98.95 2.23.95 3.77zm9.882 3.827c0 1.83-.18 3.1-.54 3.8-.364.7-1.054 1.27-2.073 1.69-.82.33-1.71.51-2.67.54l-.26-1.04c.98-.14 1.66-.27 2.06-.41.79-.27 1.32-.69 1.62-1.24.24-.45.36-1.32.36-2.59v-.43c-1.11.51-2.26.76-3.48.76-.79 0-1.5-.26-2.1-.77-.68-.56-1.02-1.26-1.02-2.12v-6.84l1.62-.57v6.89c0 .73.24 1.3.7 1.7.47.39 1.07.59 1.82.57.74-.02 1.54-.31 2.38-.88v-8.04h1.62v8.94zm6.313 1.05c-.193.01-.37.02-.533.02-.914 0-1.627-.22-2.137-.67-.508-.45-.762-1.06-.762-1.84V44.5h-1.108v-1.03h1.108v-2.74l1.615-.584v3.33h1.817v1.034H55.24v6.433c0 .616.163 1.054.488 1.31.28.21.724.33 1.33.36v.86zm9.79-.14H65.23v-6.35c0-.65-.147-1.2-.442-1.67-.342-.53-.816-.79-1.425-.79-.74 0-1.668.39-2.78 1.19v7.61h-1.618V38.16l1.617-.52v6.915c1.035-.765 2.163-1.15 3.39-1.15.856 0 1.55.295 2.08.88.532.584.798 1.313.798 2.184v6.86zm8.596-5.12c0-1.04-.193-1.89-.577-2.56-.457-.83-1.166-1.26-2.125-1.3-1.77.1-2.65 1.39-2.65 3.87 0 1.13.19 2.08.56 2.84.48.97 1.19 1.45 2.14 1.43 1.78-.02 2.67-1.45 2.67-4.29zm1.77.01c0 1.47-.37 2.69-1.107 3.67-.812 1.09-1.934 1.64-3.365 1.64-1.41 0-2.52-.55-3.32-1.65-.72-.98-1.08-2.2-1.08-3.67 0-1.39.39-2.55 1.18-3.5.83-1.01 1.92-1.51 3.26-1.51 1.35 0 2.44.5 3.28 1.51.78.94 1.17 2.11 1.17 3.49zm9.27 5.11h-1.616v-6.7c0-.74-.217-1.31-.652-1.73-.436-.42-1.016-.62-1.74-.6-.767.01-1.498.27-2.192.76v8.26h-1.617v-8.47c.93-.69 1.787-1.14 2.57-1.35.737-.2 1.388-.3 1.95-.3.383 0 .744.04 1.083.11.63.15 1.15.42 1.55.83.44.45.66.99.66 1.62v7.54zm-70.006-15.1c-.832 0-1.627.07-2.326.2-2.06.37-2.43 1.14-2.43 2.57v1.88h4.87v.63h-6.7c-1.41 0-2.65.87-3.04 2.51-.44 1.89-.46 3.06 0 5.03.35 1.47 1.18 2.51 2.59 2.51h1.68V51.3c0-1.63 1.39-3.07 3.04-3.07h4.86c1.36 0 2.44-1.13 2.44-2.514v-4.71c0-1.344-1.11-2.35-2.43-2.576-.83-.14-1.7-.206-2.53-.202zm-2.632 1.51c.503 0 .913.42.913.94s-.41.94-.913.94c-.505 0-.913-.42-.913-.94s.41-.95.914-.95zm8.208 3.77v2.2c0 1.71-1.42 3.14-3.04 3.14H14.15c-1.33 0-2.433 1.16-2.433 2.52v4.71c0 1.34 1.147 2.13 2.433 2.51 1.54.46 3.018.54 4.86 0 1.227-.36 2.435-1.09 2.435-2.52V54.2h-4.86v-.63h7.293c1.415 0 1.942-1.003 2.434-2.51.508-1.55.486-3.04 0-5.03-.35-1.432-1.018-2.51-2.434-2.51h-1.826zM19.32 55.46c.503 0 .912.42.912.94 0 .522-.408.946-.912.946-.503 0-.914-.423-.914-.945 0-.52.41-.94.914-.94zm70.314-13.442h.284V40.21h.672v-.216h-1.63v.217h.67v1.81zm1.207 0h.25V40.36l.53 1.653h.27l.55-1.646v1.645h.27V39.99h-.35l-.6 1.734-.51-1.734h-.39v2.024zm-67.68 19.79c0 .46-1.24.885-3.26 1.114-2.01.23-4.5.23-6.52 0-2.02-.23-3.26-.656-3.26-1.116 0-.46 1.24-.884 3.26-1.114 2.02-.23 4.51-.23 6.52 0 2.02.23 3.26.654 3.26 1.113z" transform="translate(212)" fill="url(#c)"/><path d="M0 0h96v96H0V0zm60.693 58.12c0 .77-.638 1.41-1.404 1.41-.77 0-1.41-.622-1.41-1.41 0-.804.65-1.408 1.4-1.408.76 0 1.4.622 1.4 1.41zm-2.59 0c0 .66.53 1.19 1.168 1.19.66 0 1.19-.548 1.19-1.19 0-.658-.53-1.17-1.18-1.17-.62 0-1.16.512-1.16 1.17zm.657-.786h.547c.182 0 .547 0 .547.42 0 .294-.182.35-.292.386.22.018.238.164.256.366.018.128.036.347.073.42h-.32c0-.073-.05-.475-.05-.494-.02-.09-.05-.128-.16-.128h-.27v.64h-.31v-1.61zm.292.696h.237c.2 0 .23-.147.23-.22 0-.22-.15-.22-.24-.22h-.26v.44h.02zM47.944 72.782c-.274 0-.53-.074-.766-.202l-2.426-1.446c-.365-.2-.182-.274-.073-.31.49-.165.58-.202 1.09-.495.05-.04.12-.02.18.01l1.86 1.11c.07.03.16.03.22 0l7.27-4.23c.07-.04.11-.11.11-.2v-8.44c0-.09-.04-.17-.11-.2l-7.28-4.21c-.08-.04-.17-.04-.22 0l-7.28 4.21c-.08.03-.11.12-.11.2v8.44c0 .07.03.16.11.2l1.98 1.15c1.07.54 1.75-.1 1.75-.74v-8.32c0-.11.09-.22.22-.22h.93c.11 0 .22.09.22.22v8.32c0 1.44-.79 2.28-2.15 2.28-.42 0-.75 0-1.68-.46l-1.9-1.08c-.48-.28-.77-.79-.77-1.34V58.6c0-.55.29-1.06.76-1.334l7.27-4.23c.45-.26 1.07-.26 1.53 0l7.27 4.22c.47.27.76.78.76 1.33v8.44c0 .55-.3 1.06-.77 1.33L48.71 72.6c-.237.11-.51.164-.766.164zm2.243-5.802c-3.19 0-3.848-1.464-3.848-2.71 0-.11.09-.22.21-.22h.95c.11 0 .2.075.2.184.14.97.56 1.446 2.5 1.446 1.53 0 2.19-.347 2.19-1.17 0-.477-.18-.825-2.57-1.063-1.99-.2-3.23-.64-3.23-2.233 0-1.482 1.24-2.36 3.32-2.36 2.33 0 3.48.805 3.63 2.562 0 .055-.02.11-.06.165-.04.04-.09.08-.15.08h-.95c-.09 0-.18-.07-.2-.16-.22-1-.79-1.33-2.28-1.33-1.68 0-1.88.59-1.88 1.03 0 .53.24.7 2.5.99 2.24.3 3.3.72 3.3 2.29-.02 1.61-1.33 2.52-3.65 2.52zM25.364 39.782c0-.33-.183-.64-.474-.805l-7.734-4.466c-.128-.07-.273-.11-.42-.12h-.072c-.146 0-.292.06-.42.13L8.51 38.98c-.29.165-.474.476-.474.805l.02 12.007c0 .164.09.33.236.4.146.094.328.094.456 0l4.596-2.633c.292-.17.474-.48.474-.81v-5.62c0-.33.183-.64.475-.81l1.95-1.14c.147-.09.31-.12.475-.12.165 0 .33.03.456.13l1.952 1.13c.292.16.474.47.474.8v5.62c0 .33.183.64.474.8l4.596 2.64c.15.09.33.09.48 0 .15-.07.24-.24.24-.4l-.02-12.01zm37.17-16.527c-.144-.073-.327-.073-.455 0-.15.09-.24.238-.24.403v11.896c0 .11-.06.22-.17.293-.11.055-.22.055-.33 0l-1.93-1.117c-.29-.16-.64-.16-.93 0l-7.73 4.49c-.3.165-.48.477-.48.806v8.95c0 .33.18.64.47.806l7.73 4.484c.29.164.64.164.93 0l7.73-4.485c.29-.16.47-.47.47-.8V26.66c0-.35-.18-.66-.48-.824l-4.62-2.58zm-33.15 26.162l-.008.01c-.145-.164-.218-.365-.218-.585v-8.877c0-.33.182-.64.474-.805l7.68-4.448c.215-.126.448-.163.683-.094l.01-.015c.072.018.163.054.236.09l7.63 4.45c.11.053.18.127.24.2l-.01.024c.13.164.2.38.2.598v8.877c0 .33-.12.64-.42.805l-7.64 4.448c-.05.036-.12.055-.18.073l4.4-8.09-4.39 8.072c-.23.09-.49.055-.73-.074l-7.68-4.446c-.09-.06-.17-.13-.25-.218zm8.4 4.8zm24.04-8.194c0 .092-.036.165-.11.202l-2.644 1.537c-.073.037-.164.037-.237 0l-2.645-1.537c-.073-.037-.11-.128-.11-.202v-3.075c0-.09.037-.164.11-.2l2.645-1.538c.073-.037.164-.037.237 0l2.645 1.537c.073.037.11.128.11.2v3.076zm26.447-3.148c.3-.164.46-.476.46-.805v-2.178c0-.33-.18-.64-.45-.805L80.6 34.62c-.293-.16-.64-.16-.93 0l-7.734 4.49c-.292.166-.475.477-.475.806v8.95c0 .33.19.64.48.807l7.68 4.39c.29.166.64.166.91 0l4.65-2.6c.15-.07.24-.236.24-.4 0-.165-.09-.33-.24-.403l-7.78-4.49c-.14-.092-.23-.238-.23-.403v-2.8c0-.165.09-.33.24-.403l2.43-1.39c.15-.092.33-.092.48 0l2.43 1.39c.15.092.24.238.24.403v2.196c0 .165.1.33.24.403.15.09.33.09.48 0l4.6-2.69zm-8.26-.42c.06-.037.13-.037.18 0l1.48.86c.06.036.09.09.09.164v1.72c0 .07-.03.12-.09.16l-1.47.86c-.05.03-.12.03-.18 0l-1.48-.86c-.05-.04-.09-.09-.09-.17v-1.72c0-.08.04-.13.09-.17l1.48-.86z" transform="translate(318)" fill="url(#d)"/><path d="M0 0h96v96H0V0zm71.79 55.618c-.782-1.545-1.562-2.895-1.692-3.903-.146-1.17-.325-1.886-.146-3.284.178-1.39.99-3.38.99-3.54-.015-.14-.177-.86-1.852-.88-1.675-.01-3.122.33-3.285.77-.163.44-.488 1.45-.7 2.49-.292 1.53-3.35 6.95-5.09 9.79-.568-1.1-1.056-2.08-1.153-2.86-.147-1.17-.325-1.88-.147-3.28.18-1.4.992-3.38.992-3.54-.016-.15-.18-.86-1.853-.88-1.675-.01-3.122.33-3.285.77-.17.44-.35 1.48-.7 2.49s-4.41 10.04-5.47 12.4c-.54 1.2-1.01 2.16-1.35 2.81-.34.67-.51.98-.51.98-.23.43-.47.82-.59.82-.08 0-.25-1.09.03-2.58.6-3.14 2.06-8.03 2.04-8.21 0-.08.27-.94-.95-1.38-1.19-.44-1.61.3-1.71.3-.1 0-.18.26-.18.26s1.32-5.51-2.52-5.51c-2.4 0-5.72 2.62-7.36 5.01-1.04.57-3.25 1.77-5.6 3.06-.89.49-1.82 1.01-2.7 1.48l-.18-.19C22.21 54 13.6 50.49 13.96 43.82c.13-2.424.974-8.814 16.52-16.554 12.73-6.34 22.926-4.6 24.7-.73 2.52 5.527-5.45 15.803-18.685 17.283-5.04.57-7.69-1.39-8.358-2.12-.7-.77-.797-.8-1.058-.65-.43.22-.17.91 0 1.31.39 1.02 2.01 2.84 4.78 3.75 2.42.79 8.34 1.23 15.49-1.53 8.01-3.11 14.27-11.72 12.44-18.93-1.87-7.33-14.04-9.74-25.53-5.66-6.85 2.44-14.26 6.24-19.6 11.24-6.34 5.92-7.35 11.09-6.92 13.23C9.22 52.12 19.78 57.11 24 60.8c-.21.11-.4.23-.58.32-2.11 1.04-10.16 5.25-12.18 9.71-2.27 5.04.36 8.66 2.12 9.15 5.43 1.51 11-1.2 14-5.68 2.99-4.46 2.63-10.26 1.25-12.91l1.61-1.08c1.08-.634 2.13-1.22 3.06-1.724-.52 1.41-.89 3.09-1.09 5.524-.23 2.867.94 6.57 2.49 8.037.69.637 1.5.65 2 .65 1.79 0 2.61-1.48 3.5-3.25 1.11-2.16 2.08-4.67 2.08-4.67s-1.22 6.78 2.12 6.78c1.22 0 2.44-1.572 2.997-2.39.23-.34.294-.45.294-.45.49-.88 1.58-2.81 3.2-6.015 2.1-4.13 4.12-9.3 4.12-9.3s.2 1.27.8 3.35c.36 1.24 1.14 2.59 1.74 3.91-.49.68-.78 1.07-.78 1.07-.37.54-.81 1.09-1.27 1.65-1.65 1.982-3.64 4.242-3.9 4.893-.31.76-.24 1.33.36 1.78.44.322 1.22.39 2.05.322 1.5-.097 2.54-.47 3.06-.7.81-.29 1.74-.73 2.63-1.38 1.63-1.204 2.62-2.91 2.52-5.188-.05-1.26-.45-2.49-.96-3.66.15-.22.29-.43.44-.66 2.57-3.76 4.55-7.89 4.55-7.89s.2 1.27.8 3.35c.31 1.06.93 2.21 1.48 3.35-2.4 1.97-3.92 4.25-4.44 5.74-.96 2.77-.21 4.02 1.21 4.31.63.13 1.54-.16 2.23-.45.85-.28 1.87-.75 2.82-1.45 1.63-1.2 3.19-2.88 3.11-5.14-.05-1.04-.32-2.06-.7-3.04 2.05-.84 4.7-1.33 8.07-.92 7.24.84 8.67 5.36 8.39 7.25-.27 1.89-1.78 2.93-2.29 3.25-.5.31-.66.42-.61.65.07.34.29.32.73.26.61-.1 3.81-1.55 3.94-5.03.19-4.47-4.05-9.35-11.58-9.3-2.91.01-5.43.71-7.54 1.75zM23.526 72.674c-2.39 2.618-5.756 3.61-7.187 2.765-1.55-.9-.95-4.75 2-7.53 1.79-1.69 4.11-3.26 5.64-4.21.34-.22.86-.52 1.48-.9.09-.07.16-.1.16-.1l.37-.23c1.09 3.96.05 7.44-2.48 10.19zm17.48-11.886c-.83 2.033-2.585 7.252-3.642 6.96-.91-.244-1.463-4.195-.18-8.098.652-1.967 2.034-4.31 2.847-5.22 1.32-1.463 2.75-1.95 3.11-1.35.42.782-1.61 6.44-2.13 7.708zm14.424 6.895c-.357.178-.682.308-.83.21-.112-.064.148-.308.148-.308s1.805-1.935 2.52-2.83c.407-.52.895-1.12 1.415-1.804v.2c0 2.34-2.244 3.9-3.252 4.54zm11.123-2.537c-.26-.195-.228-.797.65-2.683.342-.748 1.122-2 2.472-3.187.163.488.26.96.244 1.398-.02 2.927-2.1 4.017-3.37 4.472z" transform="translate(424)" fill="url(#c)"/><path d="M0 0h96v96H0V0zm68.933 18.204c2.567 0 4.993 1.006 6.825 2.838 1.832 1.832 2.838 4.258 2.838 6.825v41.066c0 2.567-1.006 4.993-2.838 6.825-1.832 1.832-4.258 2.838-6.825 2.838H27.867c-2.567 0-4.993-1.006-6.825-2.838-1.832-1.832-2.838-4.258-2.838-6.825V27.867c0-2.567 1.006-4.993 2.838-6.825 1.832-1.832 4.258-2.838 6.825-2.838h41.066zM34.34 30.987H51.8c3.22 0 5.808.735 7.75 2.214 1.943 1.48 2.92 3.71 2.92 6.7 0 1.81-.444 3.36-1.33 4.65-.885 1.29-2.153 2.3-3.804 3v.1c2.214.48 3.895 1.52 5.033 3.14 1.13 1.63 1.71 3.67 1.71 6.12 0 1.41-.25 2.73-.76 3.95-.51 1.23-1.29 2.29-2.37 3.17-1.08.89-2.45 1.59-4.13 2.12-1.68.53-3.68.79-5.99.79h-16.5V30.99zm6.29 15.048h10.266c1.51 0 2.768-.423 3.775-1.29 1.01-.864 1.51-2.092 1.51-3.703 0-1.812-.45-3.09-1.35-3.825-.9-.734-2.21-1.107-3.92-1.107H40.63v9.925zm0 15.752h11.122c1.912 0 3.402-.493 4.45-1.49 1.056-.986 1.59-2.395 1.59-4.207 0-1.782-.524-3.14-1.59-4.107-1.068-.966-2.538-1.43-4.45-1.43H40.63v11.234z" transform="translate(530)" fill="url(#c)"/><path d="M59.573 41.417h-2.797c-.164 0-.31.126-.346.27l-1 4.532-.998 4.53c-.036.14-.182.27-.345.27h-1.962c-1.963 0-1.726-1.33-1.327-3.17 0-.02 0-.04.018-.06l.037-.24v-.04l.09-.47.092-.51c.036-.14.072-.38.11-.52l.453-2.18.454-2.18c.036-.14-.073-.27-.218-.27h-2.87c-.164 0-.31.13-.346.27L48 44.58l-.617 2.896-.055.27c-.708 3.2-.527 6.258 3.325 6.348h6.16c.162 0 .308-.126.344-.27l1.308-6.078 1.308-6.08c.055-.125-.054-.25-.2-.25zm-29.886-.036h-3.07c-.164 0-.31.13-.345.27l-.29 1.28-.292 1.28c-.036.15.073.27.218.27h3.09c.162 0 .308-.12.344-.27l.273-1.27.272-1.27c.055-.14-.036-.27-.2-.27zm-.89 3.96h-3.09c-.162 0-.307.13-.344.27l-.436 1.91-.436 1.91c-.03.15-.09.4-.12.54l-.42 1.95-.4 1.93c-.03.15-.09.4-.14.54 0 0-.58 1.69-1.54 1.67h-.12c-.47 0-.83-.02-.83-.02-.16 0-.31.13-.34.27l-.33 1.33-.32 1.34c-.04.15.05.27.22.27.55 0 1.78.02 2.53.02 2.42 0 3.71-1.33 4.53-5.14l.96-4.39.89-4.12c.04-.14-.05-.25-.22-.25zm56.866-1.04l-.128-.52-.127-.54-.072-.27c-.255-.97-.98-1.53-2.58-1.53h-7.358c-.164 0-.31.13-.345.27l-.11.54-.127.63-.036.18-1.163 5.38-1.108 5.11c-.04.14-.04.34-.02.41.02.07.31.15.47.15h2.32c.16 0 .34-.03.43-.05.09-.03.22-.34.23-.48l.42-2.03.41-2.03.05-.27.51-2.32.43-2.05c.03-.14.18-.27.34-.27h7.33c.13-.01.24-.12.2-.28zm9.43-4.73h-2.91c-.164 0-.345.11-.436.24l-5.18 7.52c-.09.13-.18.11-.217-.03l-.382-1.65c-.035-.14-.18-.27-.344-.27H82.3c-.164 0-.255.13-.2.27l1.49 5.18c.036.15.054.4 0 .54l-.655 2.5c-.036.14.055.27.218.27h3.29c.162 0 .308-.13.344-.27l.653-2.5c.036-.14.145-.38.236-.48l8.41-11.06c.092-.13.037-.22-.108-.22l-.89-.02zM68.62 46.06c-.017.163-.18.29-.326.29H64.08c-.146 0-.22-.09-.2-.217v-.037s0-.036.017-.072c.4-1.06 1.218-1.76 2.762-1.76 1.74 0 2.07.845 1.96 1.798zm-1.234-4.837c-5.414 0-6.704 3.254-7.43 6.546-.728 3.34-.655 6.49 4.96 6.49h1.576c1.49 0 2.962-.02 3.56-.02.147 0 .31-.13.347-.27l.21-1.1.03-.22.27-1.32c.03-.15-.08-.27-.22-.27h-5.05c-2 0-2.6-.52-2.38-2.09h8.06c.13 0 .25-.09.29-.2 0-.02.02-.06.02-.07 1.2-4.48.85-7.5-4.27-7.5zM41.75 46.04l-.072.27-.618 2.12-.6 2.14c-.036.145-.2.27-.363.27h-3.215c-2.453 0-3.034-1.887-2.453-4.675.6-2.86 1.76-4.622 4.16-4.802 3.3-.252 3.96 2.032 3.16 4.676zm2.217 4.64s1.526-3.652 1.87-5.756C46.294 42.1 44.877 38 39.354 38c-5.487 0-7.867 3.903-8.776 8.165-.908 4.28.29 8.04 5.74 8.003l4.307-.018 4.015-.018c.163 0 .308-.126.345-.27l.708-2.643c.036-.15-.054-.27-.218-.27H44.13c-.126 0-.2-.09-.2-.2.02-.04.02-.06.037-.07zM2.09 43.484c-1.508 2.16-1.326 4.966-.163 7.25.036.053.054.107.09.16.02.037.037.073.055.11.018.017.018.035.036.053l.055.108c.036.054.072.126.11.18l.053.107c.037.072.09.126.127.198.02.036.037.054.055.09.054.09.127.18.182.27.018.018.018.036.036.036.054.072.11.144.163.216.01.018.03.054.07.072.05.072.11.126.16.197.02.02.03.06.05.08.07.09.14.16.21.25v.02c.07.07.14.16.22.24l.07.07.18.18.07.07c.07.08.16.15.23.22.02.02.03.02.03.04.07.06.14.13.21.18.03.02.05.06.09.07.05.06.13.09.18.15.03.02.07.06.09.07.07.06.14.09.2.15.02.02.05.04.07.05l.02.02c.07.04.12.09.2.13.03.02.05.04.09.06l.31.2c.03.02.05.03.09.05l.23.13c.04.02.09.04.13.08.05.04.11.05.16.09.02 0 .02.02.03.02.02.02.05.02.07.04.09.04.18.09.27.13.01 0 .03.02.05.02.11.04.2.09.31.13.02.02.05.02.07.04.09.04.2.07.29.11.02 0 .02 0 .03.02l.32.11c.02 0 .05.02.07.02.1.04.21.07.34.09 7.32 1.33 9.44-4.35 9.44-4.35-1.75 2.28-4.91 2.89-7.92 2.21-.11-.02-.22-.06-.33-.09-.04 0-.06-.02-.09-.02l-.33-.11c-.02 0-.04-.02-.04-.02-.09-.04-.18-.07-.29-.11-.02-.02-.04-.02-.07-.03-.11-.04-.2-.09-.31-.13-.02 0-.04-.02-.06-.02-.09-.032-.18-.07-.25-.122-.02-.02-.05-.02-.07-.04l-.2-.11c-.03-.02-.09-.05-.12-.07-.07-.04-.167-.09-.24-.13-.02-.02-.05-.036-.07-.036-.11-.057-.22-.13-.31-.2-.037-.02-.05-.036-.09-.05-.07-.06-.147-.09-.22-.15-.02-.015-.058-.033-.077-.05-.074-.053-.15-.11-.22-.143-.036-.01-.054-.05-.09-.07-.073-.05-.13-.09-.18-.14-.04-.02-.06-.04-.093-.076-.07-.072-.16-.13-.23-.2l-.02-.02c-.09-.07-.165-.142-.256-.213-.02-.02-.05-.035-.07-.07-.06-.055-.13-.11-.18-.18l-.05-.1c-.07-.07-.145-.142-.22-.232l-.01-.012c-.07-.09-.144-.16-.217-.25-.02-.014-.04-.05-.058-.07-.057-.07-.11-.124-.166-.2-.02-.014-.04-.05-.06-.07-.05-.07-.125-.16-.18-.25-1.67-2.25-2.27-5.36-.925-7.912l-1.21 1.51zm4.706-1.816c-1.09 1.563-1.036 3.65-.182 5.304.145.27.31.54.49.81.164.233.346.503.564.7.072.09.163.163.254.253l.073.072c.09.07.163.16.254.232h.01c.09.09.2.16.29.23.02.02.03.03.07.05.11.07.2.14.31.21.05.03.09.05.14.09.02.02.03.03.07.03.07.05.14.09.23.14.02 0 .02.02.03.02.07.03.12.07.2.11.01.01.05.01.07.03.05.01.09.05.14.07 0 0 .01 0 .01.02.09.05.2.09.29.14.02.02.04.02.07.02.07.03.16.07.23.09.03.01.07.01.11.03.07.02.14.05.21.07.03.02.07.02.09.04.11.03.22.07.32.09 5.6.93 6.89-3.38 6.89-3.38-1.18 1.67-3.45 2.48-5.89 1.85-.11-.04-.22-.05-.33-.09-.04-.02-.08-.02-.09-.04-.08-.02-.15-.06-.22-.08-.04-.02-.07-.02-.11-.04-.07-.04-.16-.06-.24-.09-.02-.02-.04-.02-.08-.04-.09-.04-.2-.09-.29-.15-.06-.02-.09-.06-.15-.07-.04-.02-.06-.04-.09-.04-.06-.04-.13-.07-.18-.11-.02 0-.04-.02-.04-.02-.07-.04-.15-.09-.22-.15-.02-.02-.04-.04-.07-.06-.05-.04-.09-.08-.14-.09-.11-.08-.2-.15-.31-.22-.02-.02-.05-.04-.07-.05-1.07-.83-1.91-1.96-2.31-3.26-.42-1.33-.33-2.84.4-4.06l-.89 1.26zm3.942-1.35c-.654.935-.71 2.104-.254 3.147.472 1.097 1.435 1.96 2.56 2.374l.147.05c.02 0 .04.02.06.02l.2.05c3.13.59 3.96-1.59 4.2-1.91-.74 1.06-1.98 1.31-3.52.93-.12-.04-.25-.07-.36-.11-.14-.06-.29-.11-.43-.18-.27-.13-.52-.29-.76-.47-1.38-1.03-2.21-2.99-1.32-4.59l-.49.66zm35.172 18.31l-.907 2.032h-1l.073-1.852-.727 1.852h-.97l-.02-2.032.11-.503h.69l-.13 1.996.76-1.99h.94l-.07 2.03.74-2.03h.6l-.11.51zm1.564.612c.09-.396.054-.468-.146-.468h-.31l-.198.935-.31.97h-.58l.472-2.193.072-.323H47l.074.15s.31-.18.6-.18c.635 0 .58.47.454 1.14l-.654-.02zm1.89-1.42c-.255 0-.42-.073-.364-.38.072-.304.272-.376.527-.376.254 0 .417.072.345.377-.055.29-.255.38-.51.38zm-.273 2.84h-.58l.11-.99.2-.916-.4-.09.11-.54h1.09l-.52 2.536zm2.49-1.996l-.72.09-.2.97c-.05.27-.05.343.18.343h.47l-.11.504s-.43.13-.61.13c-.74 0-.72-.39-.6-1l.2-.95-.4-.09.13-.54h.42l.24-.63h.57l-.14.63h.71l-.11.56zm1.49.036c-.34 0-.51.18-.58.486l.97-.072c.04-.216 0-.414-.38-.414zm-.67.935c-.03.306.08.414.47.414h1l-.09.46s-.6.16-1.05.16c-1.12 0-1.12-.63-.98-1.3.15-.65.4-1.32 1.49-1.32 1.04 0 1.09.63.84 1.54l-1.67.02zm3.95 1.025h-.58l.11-.99.4-1.887-.4-.09.13-.54h1.09l-.74 3.507zm2.09-1.96c-.34 0-.51.18-.58.486l.97-.072c.04-.216 0-.414-.38-.414zm-.69.935c-.03.306.07.414.47.414h1l-.11.46s-.6.16-1.05.16c-1.12 0-1.12-.63-.98-1.3.15-.65.4-1.32 1.49-1.32 1.04 0 1.09.63.84 1.54l-1.65.02zm4.31-.9h-.92c-.42 0-.47.127-.51.27l-.01.127 1.35.108s0 .43-.05.665c-.07.396-.51.81-1.25.81-.38 0-.98-.144-.98-.144l.11-.48h.93c.42 0 .47-.11.49-.21l.04-.16-1.33-.1s-.05-.32.02-.65c.11-.45.51-.82 1.27-.82.38 0 .98.15.98.15l-.11.47zm2.51 0h-.92c-.42 0-.47.127-.51.27l-.01.127 1.35.108s0 .43-.05.665c-.07.396-.51.81-1.25.81-.38 0-.98-.144-.98-.144l.11-.48h.93c.42 0 .47-.11.49-.21l.04-.16-1.32-.1s-.05-.32.02-.65c.11-.45.51-.82 1.27-.82.39 0 .99.15.99.15l-.11.47zm.79 2.32h-.51l.02-.377c-.18-.018-.27-.143-.24-.36.08-.305.26-.377.53-.377.26 0 .42.08.35.38l-.14.74zm3.34-2.3c-.38 0-.51.215-.6.63-.09.412-.05.646.31.646h.53l.29-1.27h-.53zm.86 1.582l-.07.323h-.52l-.07-.16s-.45.196-.78.196c-.8 0-.84-.647-.69-1.312.14-.666.45-1.295 1.25-1.295.29 0 .67.14.67.14l.33-1.06h.58l-.69 3.16zm2.07-1.6c-.49 0-.63.27-.72.665-.07.395-.03.683.44.683.51 0 .66-.27.75-.683.09-.378.06-.666-.45-.666zm-.41 1.96c-1.04 0-1.11-.63-.98-1.295.14-.666.51-1.295 1.54-1.295 1.02 0 1.13.63.98 1.295-.14.665-.5 1.294-1.54 1.294zm5.85-.037l.11-.97.05-.27c.08-.378.13-.648-.25-.648h-.31c.02.198-.02.414-.07.63l-.27 1.258h-.58l.11-.97.06-.27c.08-.378.13-.648-.25-.648h-.26l-.42 1.888h-.67l.55-2.535h.53l.08.162s.36-.18.64-.18c.22 0 .38.108.44.215.13-.07.47-.215.74-.215.8 0 .78.647.64 1.295l-.28 1.258h-.56zm2.65-1.924c-.49 0-.63.27-.72.666-.07.395-.04.683.44.683.51 0 .65-.27.75-.683.07-.378.06-.666-.45-.666zm-.42 1.96c-1.03 0-1.1-.63-.98-1.294.15-.666.51-1.295 1.55-1.295 1.02 0 1.13.63.98 1.295-.16.665-.53 1.294-1.54 1.294zm3.27-1.456c.1-.396.06-.468-.14-.468h-.31l-.2.935-.31.97H81l.472-2.193.072-.323h.526l.073.15s.31-.18.6-.18c.636 0 .58.47.455 1.14l-.654-.02zm2.24-.54c-.34 0-.51.18-.58.486l.96-.072c.05-.216 0-.414-.38-.414zM.2.4h96v96H.2V.4zm83.9 59.235c-.036.306.073.414.473.414h1l-.092.46s-.6.16-1.05.16c-1.12 0-1.12-.63-.98-1.3.15-.65.4-1.32 1.49-1.32 1.04 0 1.09.63.84 1.54l-1.67.02zm2.217 1.06c-.255 0-.418-.07-.364-.376.055-.31.255-.38.527-.38.236 0 .418.07.345.38-.072.3-.272.37-.508.37z" transform="translate(635.8 -.4)" fill="url(#c)"/><path d="M16.443 39.518l-6.182 13.8 2.31-.04 1.24-3.113h2.64l.01-.003 2.9.003 1.36 3.155 2.21.04-6.46-13.842zm.017 4.425l-1.84 4.38h1.823l.1.004h2.005l-2.088-4.384zm11.655 8.972v-8.592h1.107l5.24 6.92v-6.92h1.047v8.592H34.4l-5.24-6.982v6.982h-1.047zm15.896-.337c-.69.265-1.43.397-2.23.397-3.1 0-4.65-1.492-4.65-4.476 0-2.83 1.5-4.24 4.49-4.24.86 0 1.66.12 2.4.36v.96c-.73-.28-1.49-.42-2.27-.42-2.33 0-3.5 1.11-3.5 3.33 0 2.38 1.15 3.57 3.45 3.57.37 0 .78-.05 1.22-.15V49h1.11v3.57zm1.77-2.98v-5.276h1.11v5.276c0 1.65.82 2.475 2.46 2.475s2.46-.825 2.46-2.475v-5.276h1.11v5.276c0 2.25-1.18 3.376-3.56 3.376s-3.56-1.124-3.56-3.376zm10.21-5.276v7.69h4.48v.902h-5.59v-8.592h1.11zm6.08 8.592h-1.15l4.26-9.725 4.26 9.72H68.2l-1.108-2.71H64.26l.306-.9h2.155l-1.59-3.9-3.06 7.5zm8.53 0v-8.59h3.65c1.63 0 2.45.686 2.45 2.06 0 1.117-.79 1.945-2.39 2.48l2.94 4.05h-1.46l-2.73-3.864v-.724c1.64-.26 2.46-.89 2.46-1.893 0-.79-.45-1.188-1.36-1.188H71.7v7.673h-1.1zm10.8-8.592v6.117c0 1.65-.96 2.47-2.9 2.47v-.9c1.2 0 1.8-.53 1.8-1.58v-6.11h1.11zm1.98 8.292v-1.022c.9.32 1.87.48 2.91.48 1.48 0 2.21-.54 2.21-1.62 0-.922-.54-1.383-1.63-1.383h-1.1c-1.79 0-2.69-.79-2.69-2.35 0-1.64 1.15-2.47 3.45-2.47 1 0 1.93.12 2.79.36v1.02c-.86-.32-1.78-.48-2.78-.48-1.56 0-2.33.52-2.33 1.56 0 .92.53 1.38 1.58 1.38h1.1c1.82 0 2.74.78 2.74 2.34 0 1.68-1.1 2.52-3.31 2.52-1.04 0-2.01-.12-2.91-.36zM73.14 57.5l-.408-1.24h-.29l.56 1.567-.067.157-.05.116c-.016.023-.034.042-.057.058-.023.015-.057.023-.104.023h-.053c-.02 0-.05-.01-.1-.02v.24l.07.02c.02.01.05.01.09.01.15 0 .25-.04.31-.13.06-.08.16-.32.31-.71.06-.16.14-.38.23-.64.12-.35.2-.57.24-.67h-.29l-.41 1.24zm-1.51.105c-.186 0-.31-.084-.378-.252-.04-.09-.06-.205-.06-.348 0-.198.046-.34.13-.427.09-.086.19-.13.31-.13.135 0 .236.054.305.16.07.104.103.237.103.397 0 .18-.04.325-.11.435-.07.11-.17.165-.31.165zm-.666.178h.24v-.195c.054.073.105.126.15.16.08.055.178.083.294.083.208 0 .37-.07.486-.23.12-.16.18-.36.18-.6 0-.25-.06-.44-.175-.57-.12-.13-.28-.19-.46-.19-.1 0-.18.02-.26.06-.08.04-.15.1-.2.17v-.76h-.25v2.09zM16.47 37.706l-10 3.53 1.58 13.148 8.43 4.65 8.474-4.713 1.58-13.14-10.063-3.47zM85.39 55.66c.112.095.342.288.342.654 0 .356-.202.525-.404.684-.063.062-.135.13-.135.236 0 .106.074.164.127.207l.173.14c.21.18.402.34.402.68 0 .45-.437.91-1.262.91-.696 0-1.032-.33-1.032-.69 0-.17.09-.42.37-.59.3-.18.7-.2.92-.22-.06-.08-.14-.18-.14-.32 0-.08.03-.13.05-.19-.05.01-.1.01-.15.01-.51 0-.79-.38-.79-.75 0-.22.1-.46.31-.64.28-.23.6-.26.86-.26H86l-.308.18h-.3zm-.34 2.14c-.038-.002-.062-.002-.11-.002-.043 0-.303.01-.504.077-.106.038-.413.154-.413.496 0 .34.33.59.846.59.46 0 .7-.22.7-.52 0-.24-.16-.37-.53-.63zm.14-.913c.11-.11.12-.265.12-.352 0-.347-.207-.886-.605-.886-.125 0-.26.06-.336.16-.09.1-.11.23-.11.35 0 .32.19.85.6.85.12 0 .25-.06.33-.14zm-2.82.838c-.763 0-1.17-.596-1.17-1.135 0-.63.513-1.17 1.24-1.17.706 0 1.147.553 1.147 1.136 0 .567-.436 1.168-1.218 1.168zm.598-.39c.115-.153.144-.345.144-.533 0-.422-.202-1.23-.797-1.23-.158 0-.316.06-.43.163-.188.17-.222.38-.222.587 0 .475.237 1.26.817 1.26.187 0 .38-.092.49-.246zm-3.197.39c-.76 0-1.17-.596-1.17-1.135 0-.63.52-1.17 1.24-1.17.71 0 1.15.553 1.15 1.136 0 .567-.43 1.168-1.22 1.168zm.6-.39c.12-.153.15-.345.15-.533 0-.422-.2-1.23-.79-1.23-.16 0-.31.06-.43.163-.19.17-.22.38-.22.587 0 .475.24 1.26.82 1.26.19 0 .38-.092.49-.246zm-2.13.315v-.59c0-.05.01-.19.01-.233.01-.04.02-.05.05-.077l.13-.122H77.4l-.387.208.726-.04v.78c-.15.058-.31.12-.62.12-1.05 0-1.71-.856-1.71-1.764 0-.847.57-1.427 1.33-1.427.57 0 .86.295 1.03.454l-.12.19.17-.04.4-.38c-.11-.08-.28-.2-.64-.3-.23-.07-.48-.1-.74-.1-1.23 0-1.95.87-1.95 1.81 0 .76.51 1.75 1.84 1.75.26 0 .51-.04.79-.09l.69-.16zm8.68-.14c-.16-.015-.19-.044-.19-.23v-2.74c0-.01 0-.02.01-.03.02-.17.07-.2.22-.287h-.69l-.36.174h.37v.003-.002 2.985c0 .097-.02.11-.13.256H87l.175-.11-.244-.03zm1.96.044c-.05.03-.1.063-.15.087-.16.08-.32.09-.46.09-.15 0-.39-.01-.63-.18-.34-.24-.49-.65-.49-1.01 0-.74.6-1.11 1.1-1.11.18 0 .35.05.5.14.24.16.3.37.33.48l-1.12.46-.37.03c.12.61.53.97.99.97.25 0 .42-.08.59-.16l-.26.24zM0 0h96v96H0V0zm88.423 56.122c.09-.034.138-.062.138-.13 0-.19-.21-.413-.47-.413-.19 0-.55.14-.55.66 0 .08.01.17.02.25l.87-.38z" transform="translate(742)" fill="url(#c)"/><path d="M0 0h96v96H0V0zm26.4 56.394c1.082 0 1.902-.164 2.427-.394l-.59-3.575c-.263.065-.394.065-.59.065-.394 0-.853-.328-.853-1.344v-18.14h-4.822V50.95c0 3.28 1.115 5.444 4.428 5.444zm11.434 0c1.936 0 4.1-.69 5.773-1.837L42 51.637c-1.18.722-2.296 1.083-3.51 1.083-2.164 0-3.804-1.082-4.23-3.444H44c.1-.394.198-1.28.198-2.132 0-4.428-2.296-7.806-6.92-7.806-3.904 0-7.676 3.247-7.676 8.528 0 5.38 3.575 8.528 8.232 8.528zm-3.608-10.3c.328-2.066 1.64-3.083 3.15-3.083 1.934 0 2.722 1.28 2.722 3.09h-5.872zm17.306 10.3c4.362 0 6.69-2.296 6.69-5.248 0-2.985-2.328-4.133-4.394-4.888-1.673-.623-3.182-1.016-3.182-2.066 0-.82.59-1.28 1.837-1.28 1.148 0 2.263.526 3.444 1.378l2.165-2.886c-1.41-1.05-3.247-2.066-5.74-2.066-3.772 0-6.232 2.066-6.232 5.084 0 2.69 2.33 4.034 4.297 4.788 1.673.656 3.313 1.148 3.313 2.23 0 .854-.624 1.378-2.067 1.378-1.377 0-2.722-.59-4.198-1.705L45.3 54.13c1.64 1.345 4.1 2.264 6.232 2.264zm13.73 0c4.363 0 6.692-2.296 6.692-5.248 0-2.985-2.33-4.133-4.396-4.888-1.672-.623-3.18-1.016-3.18-2.066 0-.82.59-1.28 1.836-1.28 1.148 0 2.263.526 3.444 1.378l2.164-2.886c-1.41-1.05-3.247-2.066-5.74-2.066-3.772 0-6.232 2.066-6.232 5.084 0 2.69 2.33 4.034 4.297 4.788 1.673.656 3.313 1.148 3.313 2.23 0 .854-.623 1.378-2.066 1.378-1.378 0-2.723-.59-4.2-1.705L59.03 54.13c1.64 1.345 4.1 2.264 6.232 2.264zm-43.25 5.513v-2.62h-.638c-1.377 0-1.78-.505-1.78-2.353 0-1.814.134-3.427.134-5.476 0-2.554-.806-3.528-2.486-3.932v-.134c1.68-.403 2.486-1.378 2.486-3.93 0-2.05-.134-3.664-.134-5.478 0-1.848.403-2.352 1.78-2.352h.64v-2.62h-2.118c-2.957 0-4.3 1.142-4.3 4.77v5.68c0 1.175-1.112 2.57-3.296 2.638v2.2c2.184.067 3.295 1.982 3.295 3.158v5.678c0 3.63 1.344 4.77 4.3 4.77h2.118zm49.934 0h2.116c2.957 0 4.3-1.142 4.3-4.77 0-2.387.438-3.563.438-5.68 0-1.175.616-3.09 2.8-3.157v-2c-2.184-.067-3.237-1.5-3.237-2.84v-5.678c0-3.628-1.344-4.77-4.3-4.77h-2.117v2.62h.638c1.41 0 1.78.504 1.78 2.352 0 1.814-.134 3.427-.134 5.477 0 2.56.807 3.53 2.487 3.94v.14c-1.68.41-2.487 1.38-2.487 3.93 0 2.05.135 3.66.135 5.48 0 1.85-.37 2.35-1.78 2.35h-.64v2.62z" transform="translate(848)" fill="url(#e)"/></g></svg>