<?xml version="1.0" encoding="utf-8"?>
<!-- Generator: Adobe Illustrator 18.1.1, SVG Export Plug-In . SVG Version: 6.00 Build 0)  -->
<svg version="1.1" id="Layer_1" xmlns="http://www.w3.org/2000/svg" xmlns:xlink="http://www.w3.org/1999/xlink" x="0px" y="0px"
	 viewBox="0 0 494 43" enable-background="new 0 0 494 43" xml:space="preserve">
<g>
	<defs>
		<rect id="SVGID_1_" x="0.1" y="0.2" width="493.3" height="42.7"/>
	</defs>
	<clipPath id="SVGID_2_">
		<use xlink:href="#SVGID_1_"  overflow="visible"/>
	</clipPath>
	<g clip-path="url(#SVGID_2_)">
		<defs>
			<rect id="SVGID_3_" width="494" height="43"/>
		</defs>
		<clipPath id="SVGID_4_">
			<use xlink:href="#SVGID_3_"  overflow="visible"/>
		</clipPath>
		<path clip-path="url(#SVGID_4_)" d="M1.1,34.7V8.5c0-2.8,0-5-1.1-7.4c5.2,0,9-0.3,11.5-0.3c13.2,0,24.8,6.7,24.8,21.7
			c0,8-6,19.9-24.6,19.9c-3.3,0-6.4-0.3-11.8-0.3C1,40,1.1,37.7,1.1,34.7 M6,4.5v34c0.9,0.2,3.5,0.4,5.9,0.4
			c17,0,19.3-10.7,19.3-16.5c0-10.2-7.1-18.3-20.3-18.3C8.6,4.2,7,4.3,6,4.5z"/>
	</g>
</g>
<g>
	<defs>
		<rect id="SVGID_5_" width="494" height="43"/>
	</defs>
	<clipPath id="SVGID_6_">
		<use xlink:href="#SVGID_5_"  overflow="visible"/>
	</clipPath>
	<path clip-path="url(#SVGID_6_)" d="M75.3,21H65.1v18h13c2.8,0,4.9-0.4,6.7-1.1l-1.5,4.3c-0.9-0.1-1.5-0.1-2.3-0.1H59.2
		c1.1-2.3,1.1-4.6,1.1-7.6V8.7c0-2.9-0.1-5.2-1.1-7.6h18.7c1.1,0,1.9,0,3.2-0.1v4.4c-1.5-1.1-4-1.1-4.7-1.1H65.1v13.6h13.1
		c0.8,0,1.3,0,2.3-0.1V22C80.2,21.6,79.2,21,75.3,21"/>
	<path clip-path="url(#SVGID_6_)" d="M110.4,8.7c0-2.9,0-5.2-1.1-7.6c4.6,0,6-0.3,10.4-0.3c7.6,0,13.3,3.2,13.3,9.8
		c0,4.4-3,7.4-5.8,8.6c5.2,1.6,8.5,5.7,8.5,10.5c0,3.9-2.6,12.7-15.8,12.7c-2.5,0-6.4-0.3-10.7-0.3c1-2.3,1.1-4.6,1.1-7.6V8.7
		 M119.2,3.9c-1.3,0-2.9,0.1-4,0.3v13.9c1.3,0.1,2.8,0.1,4.2,0.1c5.6,0,9.1-2.5,9.1-6.8C128.4,5.1,122.9,3.9,119.2,3.9z M119.6,21.2
		c-0.6,0-3,0.1-4.5,0.2v17.5c1.5,0.2,2.9,0.2,4.5,0.2c6.2,0,11-2.6,11-9.2C130.7,23.4,124.7,21.2,119.6,21.2z"/>
</g>
<g>
	<defs>
		<rect id="SVGID_7_" x="0.1" y="0.2" width="493.3" height="42.7"/>
	</defs>
	<clipPath id="SVGID_8_">
		<use xlink:href="#SVGID_7_"  overflow="visible"/>
	</clipPath>
	<g clip-path="url(#SVGID_8_)">
		<defs>
			<rect id="SVGID_9_" width="494" height="43"/>
		</defs>
		<clipPath id="SVGID_10_">
			<use xlink:href="#SVGID_9_"  overflow="visible"/>
		</clipPath>
		<path clip-path="url(#SVGID_10_)" d="M177.7,21h-10.1v18h13c2.8,0,4.9-0.4,6.7-1.1l-1.5,4.3c-0.9-0.1-1.5-0.1-2.3-0.1h-21.7
			c1.1-2.3,1.1-4.6,1.1-7.6V8.7c0-2.9-0.1-5.2-1.1-7.6h18.7c1.1,0,1.9,0,3.2-0.1v4.4c-1.5-1.1-4-1.1-4.7-1.1h-11.3v13.6h13.1
			c0.8,0,1.3,0,2.3-0.1V22C182.7,21.6,181.6,21,177.7,21"/>
		<path clip-path="url(#SVGID_10_)" d="M212.9,8.7c0-3.4-0.3-5.1-2.5-7.6h6.9l26.6,30.6v-23c0-2.9-0.1-5.2-1.1-7.6h5.8
			c-1.1,2.3-1.1,4.6-1.1,7.6V43l-31-35.4v27c0,2.9,0.1,5.2,1.1,7.6h-5.8c1.1-2.3,1.1-4.6,1.1-7.6V8.7"/>
	</g>
</g>
<g>
	<defs>
		<rect id="SVGID_11_" width="494" height="43"/>
	</defs>
	<clipPath id="SVGID_12_">
		<use xlink:href="#SVGID_11_"  overflow="visible"/>
	</clipPath>
	<path clip-path="url(#SVGID_12_)" d="M305.4,21.1H282v13.5c0,2.9,0.1,5.2,1.1,7.6h-7c1.1-2.3,1.1-4.6,1.1-7.6V8.7
		c0-2.9-0.1-5.2-1.1-7.6h7c-1.1,2.3-1.1,4.6-1.1,7.6v8.9h23.3V8.7c0-2.9-0.1-5.2-1.1-7.6h7c-1.1,2.3-1.1,4.6-1.1,7.6v25.9
		c0,2.9,0.1,5.2,1.1,7.6h-7c1.1-2.3,1.1-4.6,1.1-7.6V21.1"/>
</g>
<g>
	<defs>
		<rect id="SVGID_13_" x="0.1" y="0.2" width="493.3" height="42.7"/>
	</defs>
	<clipPath id="SVGID_14_">
		<use xlink:href="#SVGID_13_"  overflow="visible"/>
	</clipPath>
	<g clip-path="url(#SVGID_14_)">
		<defs>
			<rect id="SVGID_15_" width="494" height="43"/>
		</defs>
		<clipPath id="SVGID_16_">
			<use xlink:href="#SVGID_15_"  overflow="visible"/>
		</clipPath>
		<path clip-path="url(#SVGID_16_)" d="M361.3,26.6h-16.8l-3.4,8.3c-1.2,2.9-2.1,5.2-1.9,7.3h-6.9c1.7-1.3,2.8-3.5,4.1-6.4l13-30
			c0.5-1.2,0.8-3.6,0.4-4.7h6.1c0.2,0.8,0.5,1.6,0.8,2.4l13.8,32.2c1.2,2.9,2.4,5,4.1,6.4h-7.9c0.2-2.1-0.6-4.4-1.9-7.3L361.3,26.6
			 M346,23.5h14.4L353,7L346,23.5z"/>
		<path clip-path="url(#SVGID_16_)" d="M434.3,1.1h5.6c-0.9,2.4-0.8,4.6-0.4,7.7l2.9,26c0.4,3,0.6,5.2,1.9,7.4H437
			c0.9-2.4,0.8-4.6,0.4-7.7l-2.8-25.9L419.4,43L402.7,7l-1.9,27.5c-0.2,3-0.5,5.3,0.4,7.7h-5.9c1.3-2.2,1.6-4.4,1.9-7.4l2.1-26
			c0.2-3,0.5-5.4-0.6-7.7h6.9l14.7,32.2L434.3,1.1"/>
		<path clip-path="url(#SVGID_16_)" d="M480.4,3.5c-4,0-6.9,2.8-6.9,5.7c0,2.9,2,4.9,7.5,8.4c7.4,4.7,12.3,7.6,12.3,13.8
			c0,6.5-6.2,11.6-13.4,11.6c-3.1,0-8.7-0.4-11.7-3.3v-5.4c2.9,3.7,5.7,5.5,11.1,5.5c5.2,0,8.9-3.2,8.9-8c0-3-2.8-5.2-8.5-8.8
			C476.2,20.5,469,16.3,469,10c0-6.2,6-9.8,11.8-9.8c2.9,0,6.4,0,9.4,1.5v4.9C487.3,4.4,484.4,3.5,480.4,3.5"/>
	</g>
</g>
</svg>
