<?xml version="1.0" encoding="UTF-8"?>
<svg xmlns="http://www.w3.org/2000/svg" xmlns:xlink="http://www.w3.org/1999/xlink" version="1.2" >
<font id="Dax Regular 2">
<font-face  font-family="Dax" units-per-em="1000" ascent="784.912" descent="-214.844" font-style="normal" font-weight="400" font-stretch="normal" cap-height="750" x-height="500" underline-position="-75" underline-thickness="50" />
<missing-glyph  horiz-adv-x="1000" d="" />
<glyph glyph-name="NULL" d="" />
<glyph glyph-name="CR" unicode="&#xd;" horiz-adv-x="250" d="" />
<glyph glyph-name="space" unicode="&#x20;" horiz-adv-x="276" d="" />
<glyph glyph-name="exclam" unicode="&#x21;" horiz-adv-x="290" d="M208 688 L104 688 L123 226 L189 226 L208 688 Z M214 53 C214 84 188 110 156 110 C125 110 99 84 99 53 C99 21 125 -5 156 -5 C188 -5 214 21 214 53 L214 53 Z " />
<glyph glyph-name="quotedbl" unicode="&#x22;" horiz-adv-x="384" d="M315 676 C305 690 290 697 272 697 C254 697 240 690 229 676 L249 426 L295 426 L315 676 Z M154 676 C144 690 130 697 112 697 C93 697 79 690 69 676 L89 426 L134 426 L154 676 Z " />
<glyph glyph-name="numbersign" unicode="&#x23;" horiz-adv-x="528" d="M500 431 L500 476 L396 476 L433 688 L381 688 L344 476 L227 476 L264 688 L212 688 L175 476 L64 476 L64 431 L167 431 L139 275 L28 275 L28 229 L131 229 L90 0 L141 0 L183 229 L300 229 L260 0 L312 0 L351 229 L464 229 L464 275 L359 275 L388 431 L500 431 Z M336 431 L307 275 L190 275 L218 431 L336 431 Z " />
<glyph glyph-name="dollar" unicode="&#x24;" horiz-adv-x="528" d="M441 194 C441 265 411 337 286 386 C223 411 170 439 170 515 C170 588 213 637 286 637 C332 637 370 622 394 607 L415 660 C387 679 345 694 290 696 L299 810 L243 810 L252 695 C147 683 84 600 84 505 C84 429 125 363 229 323 C316 290 351 252 351 189 C351 110 299 57 220 57 C165 57 128 73 101 90 L78 29 C111 7 154 -7 226 -8 L217 -128 L275 -128 L266 -6 C370 8 441 86 441 194 L441 194 Z " />
<glyph glyph-name="percent" unicode="&#x25;" horiz-adv-x="854" d="M785 225 C785 331 762 459 650 459 C538 459 516 331 516 225 C515 118 538 -11 650 -11 C762 -11 785 118 785 225 L785 225 Z M566 682 L520 695 L286 6 L332 -8 L566 682 Z M338 464 C338 570 315 699 204 699 C91 699 69 570 69 464 C69 358 91 229 204 229 C315 229 338 358 338 464 L338 464 Z M725 226 C725 146 719 35 650 35 C582 35 576 146 576 226 C575 307 582 420 650 420 C719 420 726 307 725 226 L725 226 Z M278 465 C278 385 272 274 204 274 C135 274 129 384 129 465 C129 547 135 660 204 660 C272 660 279 547 278 465 L278 465 Z " />
<glyph glyph-name="ampersand" unicode="&#x26;" horiz-adv-x="619" d="M602 450 L577 506 C503 467 404 428 316 428 C244 428 185 469 185 538 C185 598 221 638 301 638 C341 638 377 624 400 611 L425 662 C395 681 342 698 284 698 C169 698 97 632 97 543 C97 468 147 415 232 392 L232 390 C125 358 53 288 53 187 C53 64 153 -10 307 -10 C392 -10 456 6 491 29 L491 410 C528 419 575 437 602 450 L602 450 Z M405 63 C382 52 353 48 311 48 C203 48 148 103 148 192 C148 303 227 349 405 391 L405 63 Z " />
<glyph glyph-name="quotesingle" unicode="&#x27;" horiz-adv-x="224" d="M155 676 C145 690 130 697 112 697 C94 697 79 690 69 676 L89 426 L134 426 L155 676 Z " />
<glyph glyph-name="parenleft" unicode="&#x28;" horiz-adv-x="363" d="M329 -200 C229 -59 163 104 163 286 C163 467 229 631 329 771 L286 797 C135 612 68 456 68 286 C68 116 135 -41 286 -226 L329 -200 Z " />
<glyph glyph-name="parenright" unicode="&#x29;" horiz-adv-x="363" d="M295 286 C295 456 228 612 77 797 L34 771 C134 631 200 467 200 286 C200 104 134 -59 34 -200 L77 -226 C228 -41 295 116 295 286 L295 286 Z " />
<glyph glyph-name="asterisk" unicode="&#x2a;" horiz-adv-x="422" d="M370 674 C370 698 351 716 328 716 C305 716 286 698 286 674 C286 650 305 632 328 632 C351 631 370 650 370 674 L370 674 Z M253 758 C253 782 234 801 211 801 C188 801 169 782 169 758 C169 735 188 716 211 716 C234 716 253 735 253 758 L253 758 Z M247 636 C247 657 231 673 211 673 C191 673 175 657 175 636 C175 616 191 600 211 600 C231 600 247 616 247 636 L247 636 Z M330 539 C330 562 311 581 288 581 C265 581 246 563 246 539 C246 515 265 497 288 497 C311 497 330 515 330 539 L330 539 Z M136 674 C136 698 117 717 94 717 C71 717 52 698 52 674 C52 651 71 632 94 632 C117 632 136 651 136 674 L136 674 Z M175 539 C175 563 156 582 133 582 C110 582 91 563 91 539 C91 516 110 497 133 497 C156 497 175 516 175 539 L175 539 Z " />
<glyph glyph-name="plus" unicode="&#x2b;" horiz-adv-x="528" d="M456 304 L456 364 L294 364 L294 539 L233 539 L233 364 L72 364 L72 304 L233 304 L233 129 L294 129 L294 304 L456 304 Z " />
<glyph glyph-name="comma" unicode="&#x2c;" horiz-adv-x="262" d="M194 78 C192 91 182 103 156 103 C128 103 110 93 97 78 L12 -169 L64 -169 L194 78 Z " />
<glyph glyph-name="hyphen" unicode="&#x2d;" horiz-adv-x="344" d="M285 302 L285 372 L59 372 L59 302 L285 302 Z " />
<glyph glyph-name="period" unicode="&#x2e;" horiz-adv-x="250" d="M182 54 C182 86 157 111 125 111 C93 111 67 86 67 54 C67 22 93 -4 125 -4 C157 -4 182 22 182 54 L182 54 Z " />
<glyph glyph-name="slash" unicode="&#x2f;" horiz-adv-x="563" d="M547 768 L490 796 L16 -199 L73 -227 L547 768 Z " />
<glyph glyph-name="zero" unicode="0" horiz-adv-x="528" d="M473 344 C473 498 432 698 264 698 C96 698 55 498 55 344 C55 190 96 -10 264 -10 C432 -10 473 190 473 344 L473 344 Z M388 345 C388 222 372 50 264 50 C156 50 140 222 140 345 C140 467 156 644 264 644 C372 644 388 468 388 345 L388 345 Z " />
<glyph glyph-name="one" unicode="1" horiz-adv-x="528" d="M361 0 L361 688 L300 688 C272 644 206 598 85 582 L95 529 C154 534 233 554 271 578 L271 0 L361 0 Z " />
<glyph glyph-name="two" unicode="2" horiz-adv-x="528" d="M450 0 L450 73 L171 73 L355 321 C417 404 442 465 442 516 C442 622 362 698 233 698 C152 698 102 683 60 661 L83 604 C113 619 149 632 206 632 C301 632 348 589 348 508 C348 466 337 422 283 345 L40 0 L450 0 Z " />
<glyph glyph-name="three" unicode="3" horiz-adv-x="528" d="M450 199 C450 317 364 365 293 384 L293 386 C335 401 421 448 421 542 C421 642 333 698 227 698 C150 698 94 680 62 662 L85 607 C113 622 162 634 214 634 C276 634 332 607 332 532 C332 454 261 403 158 395 L158 345 C231 348 355 330 355 199 C355 109 295 56 204 56 C145 56 97 70 70 86 L45 26 C84 4 137 -10 220 -10 C351 -10 450 72 450 199 L450 199 Z " />
<glyph glyph-name="four" unicode="4" horiz-adv-x="528" d="M473 157 L473 209 L417 209 L417 688 L333 688 L55 214 L55 157 L336 157 L336 0 L417 0 L417 157 L473 157 Z M338 598 C338 598 336 552 336 498 L336 209 L116 209 L285 502 C316 555 336 598 336 598 L338 598 Z " />
<glyph glyph-name="five" unicode="5" horiz-adv-x="528" d="M458 199 C458 333 363 426 165 404 L181 615 L439 615 L439 688 L118 688 L89 346 C294 379 364 304 364 198 C364 103 285 55 214 55 C155 55 108 70 78 86 L55 26 C96 3 152 -10 227 -10 C363 -10 458 85 458 199 L458 199 Z " />
<glyph glyph-name="six" unicode="6" horiz-adv-x="528" d="M474 201 C474 345 375 411 255 411 C219 411 188 404 160 393 C216 549 333 608 415 635 L392 694 C303 672 58 559 58 250 C58 94 127 -10 268 -10 C405 -10 474 91 474 201 L474 201 Z M390 205 C390 127 356 50 270 50 C179 50 140 131 140 248 C140 285 142 309 149 344 C166 352 197 362 240 362 C341 362 390 307 390 205 L390 205 Z " />
<glyph glyph-name="seven" unicode="7" horiz-adv-x="528" d="M490 688 L64 688 L64 615 L383 615 L114 0 L224 0 C249 95 323 297 398 473 L490 688 Z " />
<glyph glyph-name="eight" unicode="8" horiz-adv-x="528" d="M473 163 C473 240 432 297 322 362 C416 416 451 464 451 535 C451 632 366 698 264 698 C161 698 77 631 77 534 C77 462 112 414 206 359 C96 295 55 241 55 162 C55 51 154 -10 264 -10 C384 -10 473 61 473 163 L473 163 Z M378 535 C378 476 353 441 266 392 C181 443 153 474 153 536 C153 599 198 645 265 645 C332 645 378 598 378 535 L378 535 Z M391 163 C391 96 337 48 263 48 C194 48 134 93 134 165 C134 228 156 268 262 329 C369 267 391 227 391 163 L391 163 Z " />
<glyph glyph-name="nine" unicode="9" horiz-adv-x="528" d="M470 434 C470 590 402 694 261 694 C124 694 54 593 54 482 C54 339 153 273 273 273 C309 273 340 280 368 291 C312 134 195 76 113 48 L136 -10 C225 12 470 125 470 434 L470 434 Z M387 438 C387 404 385 373 379 342 C361 334 330 324 287 324 C187 324 137 379 137 481 C137 559 171 637 258 637 C348 637 387 555 387 438 L387 438 Z " />
<glyph glyph-name="colon" unicode="&#x3a;" horiz-adv-x="250" d="M182 361 C182 393 157 419 125 419 C93 419 67 393 67 361 C67 329 93 304 125 304 C157 304 182 329 182 361 L182 361 Z M182 54 C182 86 157 111 125 111 C93 111 67 86 67 54 C67 22 93 -4 125 -4 C157 -4 182 22 182 54 L182 54 Z " />
<glyph glyph-name="semicolon" unicode="&#x3b;" horiz-adv-x="262" d="M194 361 C194 393 168 419 136 419 C105 419 79 393 79 361 C79 329 105 304 136 304 C168 304 194 329 194 361 L194 361 Z M194 78 C192 92 180 105 155 105 C128 105 110 93 97 78 L12 -169 L64 -169 L194 78 Z " />
<glyph glyph-name="less" unicode="&#x3c;" horiz-adv-x="528" d="M456 140 L456 205 L144 337 L456 469 L456 535 L72 366 L72 308 L456 140 Z " />
<glyph glyph-name="equal" unicode="&#x3d;" horiz-adv-x="528" d="M456 392 L456 452 L72 452 L72 392 L456 392 Z M456 215 L456 275 L72 275 L72 215 L456 215 Z " />
<glyph glyph-name="greater" unicode="&#x3e;" horiz-adv-x="528" d="M456 308 L456 366 L72 535 L72 469 L384 337 L72 205 L72 140 L456 308 Z " />
<glyph glyph-name="question" unicode="&#x3f;" horiz-adv-x="394" d="M380 534 C380 633 305 696 186 696 C125 696 75 679 42 659 L67 607 C89 619 124 633 171 633 C252 633 288 588 288 529 C288 454 207 413 145 399 L159 226 L225 226 L236 372 C291 388 380 444 380 534 L380 534 Z M250 53 C250 85 224 111 192 111 C161 111 135 85 135 53 C135 21 161 -5 192 -5 C224 -5 250 21 250 53 L250 53 Z " />
<glyph glyph-name="at" unicode="&#x40;" horiz-adv-x="870" d="M803 413 C803 592 683 699 514 699 C265 699 66 477 66 222 C66 -8 215 -135 437 -135 C597 -135 697 -81 788 21 L766 47 C677 -48 588 -100 437 -100 C243 -100 109 11 109 221 C109 448 278 665 511 665 C659 665 761 568 761 413 C761 293 686 105 602 105 C572 105 561 121 561 171 C561 217 575 271 586 320 L620 478 L570 478 L555 401 C538 453 502 495 439 495 C312 495 239 328 239 222 C239 140 276 66 357 66 C422 66 472 92 512 157 C515 89 539 65 583 65 C727 65 803 285 803 413 L803 413 Z M535 335 C533 256 484 107 382 107 C321 107 294 164 294 224 C294 303 342 455 445 455 C491 455 537 415 535 335 L535 335 Z " />
<glyph glyph-name="A" unicode="A" horiz-adv-x="585" d="M566 0 L334 688 L252 688 L19 0 L103 0 L170 206 L406 206 L471 0 L566 0 Z M391 261 L186 261 L268 522 C285 576 289 605 289 605 L291 605 C291 605 294 576 311 522 L391 261 Z " />
<glyph glyph-name="B" unicode="B" horiz-adv-x="562" d="M514 186 C514 291 418 352 354 364 L354 366 C416 378 488 428 488 526 C488 626 407 698 256 698 C181 698 115 682 77 660 L77 28 C121 4 187 -10 265 -10 C407 -10 514 48 514 186 L514 186 Z M399 519 C399 429 351 385 209 385 L164 385 L164 630 C192 640 219 645 255 645 C349 645 399 603 399 519 L399 519 Z M421 185 C421 85 351 49 261 49 C219 49 190 54 164 65 L164 339 L210 339 C359 339 421 292 421 185 L421 185 Z " />
<glyph glyph-name="C" unicode="C" horiz-adv-x="478" d="M447 28 L423 86 C397 70 369 59 327 59 C201 59 150 195 150 344 C150 490 196 633 328 633 C371 633 403 619 424 606 L446 660 C416 682 373 698 312 698 C146 698 54 535 54 344 C54 149 147 -10 312 -10 C368 -10 417 5 447 28 L447 28 Z " />
<glyph glyph-name="D" unicode="D" horiz-adv-x="595" d="M541 351 C541 564 445 698 255 698 C180 698 117 682 77 660 L77 27 C113 6 180 -10 259 -10 C454 -10 541 139 541 351 L541 351 Z M446 352 C446 158 393 55 254 55 C219 55 188 60 168 68 L168 625 C192 635 217 639 253 639 C384 639 446 541 446 352 L446 352 Z " />
<glyph glyph-name="E" unicode="E" horiz-adv-x="442" d="M396 0 L396 62 L169 62 L169 325 L373 325 L373 386 L169 386 L169 626 L396 626 L396 688 L77 688 L77 0 L396 0 Z " />
<glyph glyph-name="F" unicode="F" horiz-adv-x="434" d="M395 626 L395 688 L77 688 L77 0 L169 0 L169 325 L372 325 L372 386 L169 386 L169 626 L395 626 Z " />
<glyph glyph-name="G" unicode="G" horiz-adv-x="588" d="M517 28 L517 386 L311 386 L311 328 L428 328 L428 70 C414 62 389 54 342 54 C234 54 149 154 149 341 C149 541 226 633 353 633 C414 633 454 619 477 605 L504 662 C471 683 418 698 343 698 C186 698 54 578 54 349 C54 106 183 -10 343 -10 C429 -10 475 4 517 28 L517 28 Z " />
<glyph glyph-name="H" unicode="H" horiz-adv-x="597" d="M520 0 L520 688 L428 688 L428 386 L169 386 L169 688 L77 688 L77 0 L169 0 L169 325 L428 325 L428 0 L520 0 Z " />
<glyph glyph-name="I" unicode="I" horiz-adv-x="253" d="M172 0 L172 688 L80 688 L80 0 L172 0 Z " />
<glyph glyph-name="J" unicode="J" horiz-adv-x="253" d="M172 28 L172 688 L80 688 L80 23 C80 -77 23 -137 -44 -155 L-44 -220 C71 -204 172 -121 172 28 L172 28 Z " />
<glyph glyph-name="K" unicode="K" horiz-adv-x="519" d="M501 0 L255 368 L490 688 L394 688 L173 369 L171 369 L171 688 L80 688 L80 0 L171 0 L171 356 L173 356 L397 0 L501 0 Z " />
<glyph glyph-name="L" unicode="L" horiz-adv-x="411" d="M379 0 L379 62 L172 62 L172 688 L80 688 L80 0 L379 0 Z " />
<glyph glyph-name="M" unicode="M" horiz-adv-x="782" d="M729 0 L647 688 L550 688 L408 190 C395 145 390 113 390 113 L388 113 C388 113 383 145 370 191 L232 688 L135 688 L53 0 L132 0 C133 10 186 516 186 516 C190 557 191 596 191 596 L193 596 C193 596 201 557 212 516 C212 516 353 10 356 0 L417 0 C421 12 563 515 563 515 C575 558 582 596 582 596 L584 596 C584 596 585 558 589 515 C589 515 641 9 642 0 L729 0 Z " />
<glyph glyph-name="N" unicode="N" horiz-adv-x="647" d="M570 0 L570 688 L493 688 L493 208 C493 165 496 132 496 132 L494 132 C494 132 480 163 455 205 L174 688 L77 688 L77 0 L154 0 L154 500 C154 543 151 585 151 585 L153 585 C153 585 172 545 197 502 L490 0 L570 0 Z " />
<glyph glyph-name="O" unicode="O" horiz-adv-x="605" d="M551 344 C551 539 481 698 303 698 C124 698 54 539 54 344 C54 147 124 -10 303 -10 C481 -10 551 147 551 344 L551 344 Z M458 347 C458 208 433 58 303 58 C173 58 147 208 147 347 C147 486 177 637 303 637 C428 637 458 486 458 347 L458 347 Z " />
<glyph glyph-name="P" unicode="P" horiz-adv-x="525" d="M484 490 C484 611 411 698 249 698 C176 698 115 682 77 660 L77 0 L167 0 L167 286 L198 283 C401 263 484 368 484 490 L484 490 Z M395 491 C395 391 342 325 197 339 L167 342 L167 630 C181 636 208 643 245 643 C350 643 395 591 395 491 L395 491 Z " />
<glyph glyph-name="Q" unicode="Q" horiz-adv-x="605" d="M551 345 C551 540 482 698 303 698 C124 698 54 540 54 345 C54 150 124 -7 303 -7 C325 -7 342 -5 366 1 L470 -190 L539 -129 L420 21 C515 85 551 205 551 345 L551 345 Z M459 349 C459 211 434 60 303 60 C171 60 147 211 147 349 C147 488 174 637 303 637 C432 637 459 488 459 349 L459 349 Z " />
<glyph glyph-name="R" unicode="R" horiz-adv-x="542" d="M502 0 L277 303 L277 305 C403 307 486 377 486 494 C486 622 406 698 250 698 C176 698 115 681 79 661 L79 0 L170 0 L170 321 L172 321 L398 0 L502 0 Z M395 490 C395 391 341 335 229 335 C205 335 180 338 170 341 L170 629 C188 639 214 644 248 644 C349 644 395 595 395 490 L395 490 Z " />
<glyph glyph-name="S" unicode="S" horiz-adv-x="465" d="M411 194 C411 255 391 335 255 388 C192 413 140 443 140 514 C140 587 181 635 254 635 C300 635 339 618 363 603 L385 661 C355 682 307 698 244 698 C124 698 50 609 50 505 C50 438 81 367 196 321 C282 287 316 250 316 189 C316 111 266 60 187 60 C132 60 93 76 67 92 L43 28 C79 5 125 -10 203 -10 C324 -10 411 74 411 194 L411 194 Z " />
<glyph glyph-name="T" unicode="T" horiz-adv-x="426" d="M396 626 L396 688 L30 688 L30 626 L167 626 L167 0 L259 0 L259 626 L396 626 Z " />
<glyph glyph-name="U" unicode="U" horiz-adv-x="583" d="M506 196 L506 688 L422 688 L422 197 C422 110 363 61 296 61 C228 61 169 110 169 197 L169 688 L77 688 L77 196 C77 79 160 -11 291 -11 C423 -11 506 79 506 196 L506 196 Z " />
<glyph glyph-name="V" unicode="V" horiz-adv-x="529" d="M508 688 L421 688 L292 204 C281 161 271 114 271 114 L269 114 C269 114 260 161 249 204 L122 688 L24 688 L228 0 L308 0 L508 688 Z " />
<glyph glyph-name="W" unicode="W" horiz-adv-x="817" d="M783 688 L698 688 L594 191 C586 154 582 112 582 112 L580 112 C580 112 575 154 566 191 L448 688 L378 688 L259 191 C249 151 244 112 244 112 L242 112 C242 112 238 151 230 191 L131 688 L36 688 L197 0 L278 0 L395 480 C405 522 408 557 408 557 L410 557 C410 557 415 521 425 480 L541 0 L622 0 L783 688 Z " />
<glyph glyph-name="X" unicode="X" horiz-adv-x="519" d="M496 0 L308 365 L479 688 L393 688 L262 428 L260 428 L144 688 L44 688 L211 354 L24 0 L117 0 L256 285 L258 285 L392 0 L496 0 Z " />
<glyph glyph-name="Y" unicode="Y" horiz-adv-x="500" d="M485 688 L397 688 L255 377 L253 377 L116 688 L17 688 L204 305 L204 0 L296 0 L296 305 L485 688 Z " />
<glyph glyph-name="Z" unicode="Z" horiz-adv-x="433" d="M400 0 L400 62 L143 62 L393 688 L40 688 L40 626 L277 626 L24 0 L400 0 Z " />
<glyph glyph-name="bracketleft" unicode="&#x5b;" horiz-adv-x="343" d="M294 -215 L294 -162 L157 -162 L157 733 L293 733 L293 785 L78 785 L78 -215 L294 -215 Z " />
<glyph glyph-name="backslash" unicode="&#x5c;" horiz-adv-x="568" d="M552 -198 L75 797 L16 767 L493 -227 L552 -198 Z " />
<glyph glyph-name="bracketright" unicode="&#x5d;" horiz-adv-x="343" d="M265 -215 L265 785 L49 785 L49 733 L185 733 L185 -162 L49 -162 L49 -215 L265 -215 Z " />
<glyph glyph-name="asciicircum" unicode="&#x5e;" horiz-adv-x="578" d="M483 479 L336 671 C323 688 305 696 289 696 C273 696 255 688 242 671 L95 479 L127 446 L289 630 L451 446 L483 479 Z " />
<glyph glyph-name="underscore" unicode="&#x5f;" horiz-adv-x="528" d="M538 -197 L538 -140 L-10 -140 L-10 -197 L538 -197 Z " />
<glyph glyph-name="grave" unicode="&#x60;" horiz-adv-x="196" d="M156 598 L86 735 C50 757 0 758 -8 734 L106 598 L156 598 Z " />
<glyph glyph-name="a" unicode="a" horiz-adv-x="499" d="M428 28 L428 374 C428 506 340 549 240 549 C166 549 106 526 75 509 L96 457 C126 472 174 491 226 491 C295 491 345 467 345 384 L345 351 C178 334 44 292 44 149 C44 51 109 -10 249 -10 C324 -10 387 5 428 28 L428 28 Z M345 59 C323 47 290 41 256 41 C176 41 128 73 128 151 C128 260 209 289 345 306 L345 59 Z " />
<glyph glyph-name="b" unicode="b" horiz-adv-x="527" d="M477 279 C477 442 392 546 268 546 C215 546 185 535 158 521 L158 785 L71 785 L71 28 C103 7 159 -10 232 -10 C392 -10 477 106 477 279 L477 279 Z M389 276 C389 140 345 47 234 47 C206 47 178 50 158 60 L158 473 C183 487 206 494 246 494 C348 494 389 394 389 276 L389 276 Z " />
<glyph glyph-name="c" unicode="c" horiz-adv-x="411" d="M376 26 L354 81 C334 67 309 55 272 55 C185 55 139 144 139 273 C139 399 177 488 275 488 C315 488 339 474 355 462 L376 513 C359 528 323 549 257 549 C137 549 50 447 50 270 C50 96 137 -10 255 -10 C315 -10 355 7 376 26 L376 26 Z " />
<glyph glyph-name="d" unicode="d" horiz-adv-x="527" d="M456 28 L456 785 L369 785 L369 532 C340 540 314 544 284 544 C145 544 50 440 50 261 C50 98 133 -10 287 -10 C362 -10 420 6 456 28 L456 28 Z M369 63 C352 52 327 48 291 48 C181 48 137 141 137 268 C137 385 177 493 302 493 C325 493 347 489 369 483 L369 63 Z " />
<glyph glyph-name="e" unicode="e" horiz-adv-x="522" d="M472 285 C474 465 396 549 267 549 C140 549 50 454 50 271 C50 79 149 -10 290 -10 C363 -10 420 7 453 27 L430 85 C402 69 358 54 297 54 C200 54 143 114 133 236 L472 285 Z M388 322 L130 283 C128 429 186 492 264 492 C341 492 388 444 388 322 L388 322 Z " />
<glyph glyph-name="f" unicode="f" horiz-adv-x="310" d="M283 484 L283 539 L189 539 L189 625 C189 701 230 726 283 729 L283 785 C165 790 101 721 101 615 L101 539 L39 539 L39 484 L101 484 L101 0 L189 0 L189 484 L283 484 Z " />
<glyph glyph-name="g" unicode="g" horiz-adv-x="526" d="M455 -11 L455 511 C424 531 370 549 295 549 C133 549 50 431 50 260 C50 96 133 -6 262 -6 C309 -6 346 3 370 17 L370 -21 C370 -102 332 -162 233 -162 C185 -162 138 -147 108 -130 L81 -189 C117 -211 177 -226 248 -226 C377 -226 455 -147 455 -11 L455 -11 Z M370 68 C349 55 319 46 285 46 C182 46 137 124 137 263 C137 405 184 496 293 496 C324 496 350 492 370 481 L370 68 Z " />
<glyph glyph-name="h" unicode="h" horiz-adv-x="533" d="M462 0 L462 385 C462 461 420 544 283 544 C243 544 204 534 159 511 L159 785 L71 785 L71 0 L159 0 L159 461 C192 481 224 488 264 488 C350 488 374 438 374 382 L374 0 L462 0 Z " />
<glyph glyph-name="i" unicode="i" horiz-adv-x="241" d="M172 691 C172 718 149 740 121 740 C92 740 69 718 69 691 C69 665 92 643 121 643 C149 643 172 665 172 691 L172 691 Z M165 0 L165 539 L77 539 L77 0 L165 0 Z " />
<glyph glyph-name="j" unicode="j" horiz-adv-x="244" d="M175 691 C175 718 152 740 123 740 C94 740 71 718 71 691 C71 665 95 643 123 643 C152 643 175 664 175 691 L175 691 Z M167 31 L167 539 L79 539 L79 25 C79 -92 37 -143 -20 -164 L-20 -222 C76 -211 167 -124 167 31 L167 31 Z " />
<glyph glyph-name="k" unicode="k" horiz-adv-x="476" d="M470 0 L244 287 L448 539 L356 539 L164 289 L162 289 L162 785 L76 785 L76 0 L162 0 L162 278 L164 278 L370 0 L470 0 Z " />
<glyph glyph-name="l" unicode="l" horiz-adv-x="243" d="M165 0 L165 785 L77 785 L77 0 L165 0 Z " />
<glyph glyph-name="m" unicode="m" horiz-adv-x="836" d="M765 0 L765 390 C765 465 719 549 590 549 C515 549 460 523 423 484 C391 524 341 549 258 549 C172 549 120 535 71 511 L71 0 L159 0 L159 474 C188 486 212 492 256 492 C334 492 374 452 374 392 L374 0 L462 0 L462 443 C493 476 528 491 573 491 C651 491 677 442 677 388 L677 0 L765 0 Z " />
<glyph glyph-name="n" unicode="n" horiz-adv-x="533" d="M462 0 L462 389 C462 466 418 549 268 549 C182 549 119 534 71 511 L71 0 L159 0 L159 473 C187 485 211 492 261 492 C353 492 374 437 374 387 L374 0 L462 0 Z " />
<glyph glyph-name="o" unicode="o" horiz-adv-x="521" d="M471 269 C471 430 408 549 260 549 C115 549 50 430 50 269 C50 111 114 -10 261 -10 C407 -10 471 111 471 269 L471 269 Z M383 269 C383 161 364 51 261 51 C160 51 138 160 138 269 C138 378 158 493 261 493 C364 493 383 377 383 269 L383 269 Z " />
<glyph glyph-name="p" unicode="p" horiz-adv-x="527" d="M477 278 C477 443 391 549 239 549 C162 549 107 532 71 511 L71 -215 L158 -215 L158 5 C178 -2 211 -8 242 -8 C384 -8 477 99 477 278 L477 278 Z M389 274 C389 131 333 46 224 46 C197 46 175 51 158 58 L158 481 C179 490 202 496 235 496 C349 496 389 411 389 274 L389 274 Z " />
<glyph glyph-name="q" unicode="q" horiz-adv-x="527" d="M456 -215 L456 511 C425 531 371 549 295 549 C128 549 50 426 50 259 C50 95 132 -8 261 -8 C307 -8 344 2 370 17 L370 -215 L456 -215 Z M370 68 C349 56 319 46 284 46 C182 46 137 126 137 263 C137 405 185 496 293 496 C324 496 350 492 370 481 L370 68 Z " />
<glyph glyph-name="r" unicode="r" horiz-adv-x="322" d="M303 548 C175 551 124 537 71 510 L71 0 L159 0 L159 471 C188 490 238 494 282 481 L303 548 Z " />
<glyph glyph-name="s" unicode="s" horiz-adv-x="404" d="M357 150 C357 212 331 268 226 308 C174 328 136 353 136 405 C136 451 167 490 226 490 C268 490 300 472 316 460 L339 513 C311 532 268 550 213 550 C115 550 52 482 52 402 C52 346 73 290 178 251 C237 229 267 204 267 148 C267 96 227 55 167 55 C119 55 81 71 62 87 L38 29 C67 7 118 -8 176 -8 C286 -8 357 68 357 150 L357 150 Z " />
<glyph glyph-name="t" unicode="t" horiz-adv-x="321" d="M283 3 L283 59 C274 57 266 55 257 55 C208 55 189 90 189 133 L189 484 L283 484 L283 539 L189 539 L189 690 L101 663 L101 539 L39 539 L39 484 L101 484 L101 131 C101 65 137 -5 235 -5 C257 -5 273 0 283 3 L283 3 Z " />
<glyph glyph-name="u" unicode="u" horiz-adv-x="523" d="M452 32 L452 539 L364 539 L364 73 C339 58 309 51 267 51 C193 51 159 99 159 162 L159 539 L71 539 L71 165 C71 57 127 -11 262 -11 C349 -11 412 9 452 32 L452 32 Z " />
<glyph glyph-name="v" unicode="v" horiz-adv-x="488" d="M462 539 L380 539 L265 153 C254 116 252 87 252 87 L250 87 C250 87 247 117 236 153 L123 539 L29 539 L208 0 L287 0 L462 539 Z " />
<glyph glyph-name="w" unicode="w" horiz-adv-x="771" d="M739 539 L659 539 L561 153 C553 121 550 88 550 88 L548 88 C548 88 544 121 536 152 L430 539 L354 539 L245 152 C235 115 232 88 232 88 L230 88 C230 88 228 115 219 152 L125 539 L35 539 L188 0 L264 0 L375 385 C385 418 388 448 388 448 L389 448 C389 448 391 418 400 385 L509 0 L585 0 L739 539 Z " />
<glyph glyph-name="x" unicode="x" horiz-adv-x="472" d="M448 0 L281 286 L431 539 L348 539 L241 342 L239 342 L134 539 L42 539 L191 279 L24 0 L115 0 L233 219 L235 219 L351 0 L448 0 Z " />
<glyph glyph-name="y" unicode="y" horiz-adv-x="488" d="M462 539 L380 539 L263 152 C252 115 249 83 249 83 L247 83 C247 83 245 115 234 152 L123 539 L29 539 L209 0 L119 -215 L214 -215 L462 539 Z " />
<glyph glyph-name="z" unicode="z" horiz-adv-x="417" d="M377 0 L377 55 L147 55 L369 539 L47 539 L47 484 L257 484 L30 0 L377 0 Z " />
<glyph glyph-name="braceleft" unicode="&#x7b;" horiz-adv-x="370" d="M315 -129 L315 -80 C245 -80 207 -50 207 22 L207 206 C207 281 175 316 124 328 C124 328 125 330 124 330 C175 341 207 377 207 451 L207 635 C207 707 245 737 315 737 L315 785 C206 785 129 740 129 633 L129 477 C129 388 105 357 52 354 L52 305 C105 302 129 271 129 180 L129 24 C129 -86 206 -129 315 -129 L315 -129 Z " />
<glyph glyph-name="bar" unicode="&#x7c;" horiz-adv-x="228" d="M150 -215 L150 785 L78 785 L78 -215 L150 -215 Z " />
<glyph glyph-name="braceright" unicode="&#x7d;" horiz-adv-x="370" d="M318 305 L318 354 C265 357 241 388 241 477 L241 633 C241 740 164 785 55 785 L55 737 C125 737 164 707 164 635 L164 451 C164 377 195 341 246 330 L246 328 C195 316 164 281 164 206 L164 22 C164 -50 125 -80 55 -80 L55 -129 C164 -129 241 -86 241 24 L241 180 C241 271 265 302 318 305 L318 305 Z " />
<glyph glyph-name="asciitilde" unicode="&#x7e;" horiz-adv-x="578" d="M494 353 L460 405 C448 375 424 344 380 338 C307 328 268 410 183 401 C126 395 102 361 84 319 L115 268 C127 296 150 329 195 335 C270 344 315 262 391 273 C450 281 480 310 494 353 L494 353 Z " />
<glyph glyph-name="nbspace" unicode="&#xa0;" horiz-adv-x="276" d="" />
<glyph glyph-name="exclamdown" unicode="&#xa1;" horiz-adv-x="290" d="M214 420 C214 452 188 478 156 478 C125 478 99 452 99 420 C99 388 125 363 156 363 C188 363 214 388 214 420 L214 420 Z M208 -215 L189 247 L123 247 L104 -215 L208 -215 Z " />
<glyph glyph-name="cent" unicode="&#xa2;" horiz-adv-x="528" d="M409 134 L389 184 C369 172 344 163 308 163 C220 163 173 235 173 347 C173 453 213 529 310 529 C346 529 371 520 390 508 L409 554 C388 570 355 582 304 584 L311 687 L251 687 L260 582 C157 567 88 480 88 344 C88 203 154 121 258 107 L249 1 L310 1 L302 104 C355 106 390 120 409 134 L409 134 Z " />
<glyph glyph-name="sterling" unicode="&#xa3;" horiz-adv-x="528" d="M477 0 L477 73 L188 73 C203 94 239 173 239 239 C239 270 238 295 230 330 L356 330 L356 382 L220 382 C208 425 203 458 203 493 C203 573 240 634 334 634 C384 634 421 619 443 607 L466 663 C442 679 389 698 320 698 C194 698 117 617 117 517 C117 470 128 422 140 382 L58 382 L58 330 L154 330 C163 294 167 272 167 237 C167 153 126 68 69 0 L477 0 Z " />
<glyph glyph-name="currency" unicode="&#xa4;" horiz-adv-x="528" d="M483 157 L411 229 C435 260 449 299 449 341 C449 383 435 422 411 453 L483 525 L448 560 L376 488 C345 512 306 526 264 526 C222 526 183 512 152 488 L80 560 L45 525 L117 453 C93 422 79 383 79 341 C79 299 93 260 117 229 L45 157 L80 122 L152 194 C183 170 222 156 264 156 C306 156 345 170 376 194 L448 122 L483 157 Z M392 341 C392 270 335 212 264 212 C193 212 136 270 136 341 C136 412 193 469 264 469 C335 469 392 412 392 341 L392 341 Z " />
<glyph glyph-name="yen" unicode="&#xa5;" horiz-adv-x="528" d="M494 688 L412 688 L268 369 L266 369 L127 688 L34 688 L156 440 L46 447 L46 402 L170 411 L220 310 L46 317 L46 271 L222 281 L222 0 L307 0 L307 281 L481 271 L481 317 L309 310 L359 411 L481 402 L481 447 L373 440 L494 688 Z " />
<glyph glyph-name="brokenbar" unicode="&#xa6;" horiz-adv-x="228" d="M150 390 L150 785 L78 785 L78 390 L150 390 Z M150 -215 L150 180 L78 180 L78 -215 L150 -215 Z " />
<glyph glyph-name="section" unicode="&#xa7;" horiz-adv-x="528" d="M453 217 C453 282 430 325 360 385 L279 454 C223 501 211 530 211 564 C211 613 246 639 295 639 C335 639 367 624 385 612 L407 661 C383 678 342 695 283 695 C194 695 134 635 134 565 C134 518 149 483 193 441 C138 406 76 353 76 270 C76 207 94 159 163 101 L266 14 C316 -29 322 -53 322 -85 C322 -135 277 -163 227 -163 C187 -163 151 -146 133 -132 L109 -187 C138 -207 181 -223 241 -223 C337 -223 404 -162 404 -83 C404 -44 393 -2 334 50 C396 87 453 142 453 217 L453 217 Z M379 206 C379 150 339 114 293 85 L212 154 C166 194 145 228 145 282 C145 342 190 382 230 406 L317 332 C368 288 379 255 379 206 L379 206 Z " />
<glyph glyph-name="dieresis" unicode="&#xa8;" horiz-adv-x="196" d="M225 659 C225 683 205 702 180 702 C155 702 135 683 135 659 C135 636 155 617 180 617 C205 617 225 635 225 659 L225 659 Z M61 659 C61 683 40 702 15 702 C-10 702 -30 683 -30 659 C-30 636 -10 617 15 617 C40 617 61 635 61 659 L61 659 Z " />
<glyph glyph-name="copyright" unicode="&#xa9;" horiz-adv-x="825" d="M766 343 C766 539 607 697 412 697 C217 697 59 539 59 343 C59 148 217 -10 412 -10 C607 -10 766 148 766 343 L766 343 Z M723 343 C723 172 584 33 412 33 C241 33 102 172 102 343 C102 514 241 654 412 654 C584 654 723 514 723 343 L723 343 Z M576 211 L540 239 C509 203 464 180 415 180 C325 180 251 254 251 345 C251 437 325 511 415 511 C465 511 510 487 541 450 L575 481 C535 527 481 556 415 556 C299 556 205 462 205 345 C205 229 299 135 415 135 C479 135 536 163 576 211 L576 211 Z " />
<glyph glyph-name="ordfeminine" unicode="&#xaa;" horiz-adv-x="353" d="M301 375 L301 587 C301 669 245 695 176 695 C128 695 91 683 68 671 L83 634 C104 644 137 654 167 654 C212 654 242 640 242 592 L242 573 C136 563 43 543 43 450 C43 390 88 350 182 350 C232 350 273 360 301 375 L301 375 Z M242 397 C229 391 208 387 186 387 C135 387 101 403 101 450 C101 515 155 529 242 539 L242 397 Z " />
<glyph glyph-name="guillemotleft" unicode="&#xab;" horiz-adv-x="514" d="M442 147 L314 334 L442 521 L395 552 L244 334 L395 116 L442 147 Z M258 147 L130 334 L258 521 L211 552 L60 334 L211 116 L258 147 Z " />
<glyph glyph-name="logicalnot" unicode="&#xac;" horiz-adv-x="528" d="M456 146 L456 366 L72 366 L72 306 L393 306 L393 146 L456 146 Z " />
<glyph glyph-name="registered" unicode="&#xae;" horiz-adv-x="825" d="M766 343 C766 539 607 697 412 697 C217 697 59 539 59 343 C59 148 217 -10 412 -10 C607 -10 766 148 766 343 L766 343 Z M723 343 C723 172 584 33 412 33 C241 33 102 172 102 343 C102 514 241 654 412 654 C584 654 723 514 723 343 L723 343 Z M557 139 L415 335 C486 339 539 378 539 449 C539 528 474 567 400 567 C363 567 328 560 302 547 L302 139 L349 139 L349 332 L364 332 L501 139 L557 139 Z M491 450 C491 386 441 365 386 365 L349 365 L349 520 C361 525 378 528 394 528 C438 528 491 511 491 450 L491 450 Z " />
<glyph glyph-name="macron" unicode="&#xaf;" horiz-adv-x="196" d="M240 629 L240 680 L-44 680 L-44 629 L240 629 Z " />
<glyph glyph-name="degree" unicode="&#xb0;" horiz-adv-x="420" d="M360 549 C360 632 293 699 210 699 C127 699 60 632 60 549 C60 466 127 399 210 399 C293 399 360 466 360 549 L360 549 Z M313 549 C313 492 267 446 210 446 C153 446 107 492 107 549 C107 606 153 652 210 652 C267 652 313 606 313 549 L313 549 Z " />
<glyph glyph-name="plusminus" unicode="&#xb1;" horiz-adv-x="528" d="M456 364 L456 422 L294 422 L294 593 L233 593 L233 422 L72 422 L72 364 L233 364 L233 191 L294 191 L294 364 L456 364 Z M456 71 L456 129 L72 129 L72 71 L456 71 Z " />
<glyph glyph-name="twosuperior" unicode="&#xb2;" horiz-adv-x="368" d="M308 271 L308 325 L147 325 L252 461 C290 510 305 547 305 579 C305 647 255 694 174 694 C133 694 95 684 67 670 L86 627 C104 636 127 643 156 643 C212 643 238 613 238 573 C238 544 231 524 200 481 L48 271 L308 271 Z " />
<glyph glyph-name="threesuperior" unicode="&#xb3;" horiz-adv-x="368" d="M305 393 C305 460 261 491 220 505 C248 518 288 547 288 597 C288 661 233 695 168 695 C126 695 96 687 67 671 L85 630 C107 641 133 647 157 647 C194 647 224 631 224 590 C224 549 186 520 121 515 L121 475 C170 477 238 466 238 393 C238 344 206 315 153 315 C119 315 92 323 71 334 L53 289 C81 273 113 264 163 264 C243 264 305 315 305 393 L305 393 Z " />
<glyph glyph-name="acute" unicode="&#xb4;" horiz-adv-x="196" d="M204 734 C196 758 146 757 110 735 L40 598 L90 598 L204 734 Z " />
<glyph glyph-name="mu" unicode="&#xb5;" horiz-adv-x="533" d="M462 33 L462 539 L374 539 L374 72 C347 57 318 50 268 50 C225 50 191 60 159 78 L159 539 L71 539 L71 -215 L159 -215 L159 27 C197 6 241 -7 286 -7 C367 -7 415 7 462 33 L462 33 Z " />
<glyph glyph-name="paragraph" unicode="&#xb6;" horiz-adv-x="528" d="M486 643 L486 688 L249 688 C132 688 28 637 28 503 C28 405 93 336 194 325 L194 -215 L257 -215 L257 643 L392 643 L392 -215 L455 -215 L455 643 L486 643 Z " />
<glyph glyph-name="periodcentered" unicode="&#xb7;" horiz-adv-x="243" d="M180 344 C180 376 154 402 122 402 C89 402 63 376 63 344 C63 312 89 286 122 286 C154 286 180 312 180 344 L180 344 Z " />
<glyph glyph-name="cedilla" unicode="&#xb8;" horiz-adv-x="196" d="M226 -124 C226 -81 185 -50 53 -62 L33 -93 C120 -87 160 -95 160 -125 C160 -159 77 -169 -10 -162 L-30 -196 C129 -209 226 -185 226 -124 L226 -124 Z " />
<glyph glyph-name="onesuperior" unicode="&#xb9;" horiz-adv-x="368" d="M250 271 L250 688 L206 688 C187 659 146 632 74 623 L80 588 C120 591 154 596 186 607 L186 271 L250 271 Z " />
<glyph glyph-name="ordmasculine" unicode="&#xba;" horiz-adv-x="353" d="M318 524 C318 622 276 697 176 697 C78 697 35 622 35 524 C35 427 78 351 177 351 C275 351 318 427 318 524 L318 524 Z M255 524 C255 457 242 395 177 395 C113 395 98 457 98 525 C98 592 112 658 177 658 C242 658 255 592 255 524 L255 524 Z " />
<glyph glyph-name="guillemotright" unicode="&#xbb;" horiz-adv-x="514" d="M454 334 L304 552 L257 521 L384 334 L257 147 L304 116 L454 334 Z M271 334 L120 552 L72 521 L200 334 L72 147 L120 116 L271 334 Z " />
<glyph glyph-name="onequarter" unicode="&#xbc;" horiz-adv-x="799" d="M723 93 L723 134 L689 134 L689 418 L630 418 L460 134 L460 93 L629 93 L629 0 L689 0 L689 93 L723 93 Z M583 680 L530 702 L199 8 L252 -15 L583 680 Z M225 271 L225 688 L181 688 C162 659 114 632 48 623 L54 588 C94 591 130 596 161 607 L161 271 L225 271 Z M630 349 C630 349 629 323 629 297 L629 134 L506 134 L602 297 C617 323 628 349 628 349 L630 349 Z " />
<glyph glyph-name="onehalf" unicode="&#xbd;" horiz-adv-x="799" d="M723 0 L723 54 L563 54 L669 187 C707 235 721 275 721 307 C721 374 671 424 590 424 C538 424 509 411 488 399 L506 356 C524 366 544 374 572 374 C629 374 654 347 654 302 C654 277 650 252 617 207 L465 0 L723 0 Z M567 680 L514 702 L183 8 L236 -15 L567 680 Z M225 271 L225 688 L181 688 C162 659 114 632 48 623 L54 588 C94 591 130 596 161 607 L161 271 L225 271 Z " />
<glyph glyph-name="threequarters" unicode="&#xbe;" horiz-adv-x="799" d="M728 93 L728 134 L694 134 L694 418 L635 418 L465 134 L465 93 L634 93 L634 0 L694 0 L694 93 L728 93 Z M615 680 L561 702 L230 8 L283 -15 L615 680 Z M305 393 C305 460 262 491 221 505 C249 518 288 547 288 597 C288 661 234 695 169 695 C127 695 96 687 67 671 L86 630 C108 641 133 647 158 647 C194 647 224 631 224 590 C224 549 186 520 122 515 L122 475 C171 477 238 466 238 393 C238 344 207 315 153 315 C119 315 92 323 71 334 L53 289 C81 273 114 264 163 264 C244 264 305 315 305 393 L305 393 Z M635 349 C635 349 634 322 634 297 L634 134 L511 134 L607 297 C622 323 634 349 635 349 L635 349 Z " />
<glyph glyph-name="questiondown" unicode="&#xbf;" horiz-adv-x="394" d="M287 420 C287 452 261 478 230 478 C198 478 172 452 172 420 C172 389 198 363 230 363 C261 363 287 389 287 420 L287 420 Z M380 -185 L355 -133 C333 -145 298 -159 251 -159 C170 -159 134 -115 134 -55 C134 20 215 60 277 74 L263 248 L197 248 L186 102 C131 85 42 30 42 -61 C42 -159 117 -222 236 -222 C297 -222 347 -206 380 -185 L380 -185 Z " />
<glyph glyph-name="Agrave" unicode="&#xc0;" horiz-adv-x="585" d="M321 740 L250 877 C215 899 165 900 157 876 L271 740 L321 740 Z M566 0 L334 688 L252 688 L19 0 L103 0 L170 206 L406 206 L471 0 L566 0 Z M391 261 L186 261 L268 522 C285 576 289 603 289 603 L291 603 C291 603 294 576 311 522 L391 261 Z " />
<glyph glyph-name="Aacute" unicode="&#xc1;" horiz-adv-x="585" d="M419 876 C410 900 360 899 325 877 L255 740 L305 740 L419 876 Z M566 0 L334 688 L252 688 L19 0 L103 0 L170 206 L406 206 L471 0 L566 0 Z M391 261 L186 261 L268 522 C285 576 289 603 289 603 L291 603 C291 603 294 576 311 522 L391 261 Z " />
<glyph glyph-name="Acircumflex" unicode="&#xc2;" horiz-adv-x="585" d="M426 760 L327 861 C317 871 304 876 293 876 C281 876 269 871 260 861 L161 760 L186 739 L294 818 L400 739 L426 760 Z M566 0 L334 688 L252 688 L19 0 L103 0 L170 206 L406 206 L471 0 L566 0 Z M391 261 L186 261 L268 522 C285 576 289 603 289 603 L291 603 C291 603 294 576 311 522 L391 261 Z " />
<glyph glyph-name="Atilde" unicode="&#xc3;" horiz-adv-x="585" d="M433 806 L405 847 C398 829 384 807 353 803 C306 797 279 848 222 842 C180 838 163 815 151 787 L177 747 C184 764 198 788 229 791 C278 796 309 746 365 754 C407 760 424 780 433 806 L433 806 Z M566 0 L334 688 L252 688 L19 0 L103 0 L170 206 L406 206 L471 0 L566 0 Z M391 261 L186 261 L268 522 C285 576 289 603 289 603 L291 603 C291 603 294 576 311 522 L391 261 Z " />
<glyph glyph-name="Adieresis" unicode="&#xc4;" horiz-adv-x="585" d="M421 800 C421 824 400 843 375 843 C351 843 330 824 330 800 C330 776 351 757 375 757 C400 757 421 776 421 800 L421 800 Z M256 800 C256 824 236 843 211 843 C186 843 166 824 166 800 C166 776 186 757 211 757 C236 757 256 776 256 800 L256 800 Z M566 0 L334 688 L252 688 L19 0 L103 0 L170 206 L406 206 L471 0 L566 0 Z M391 261 L186 261 L268 522 C285 576 289 603 289 603 L291 603 C291 603 294 576 311 522 L391 261 Z " />
<glyph glyph-name="Aring" unicode="&#xc5;" horiz-adv-x="585" d="M374 818 C374 863 338 899 293 899 C249 899 213 863 213 818 C213 774 249 738 293 738 C338 738 374 774 374 818 L374 818 Z M566 0 L334 688 L252 688 L19 0 L103 0 L170 206 L406 206 L471 0 L566 0 Z M340 818 C340 792 319 771 293 771 C267 771 246 792 246 818 C246 844 267 865 293 865 C319 865 340 844 340 818 L340 818 Z M391 261 L186 261 L268 522 C285 576 289 603 289 603 L291 603 C291 603 294 576 311 522 L391 261 Z " />
<glyph glyph-name="AE" unicode="&#xc6;" horiz-adv-x="745" d="M723 0 L723 62 L535 62 L468 325 L656 325 L656 386 L454 386 L393 626 L656 626 L656 688 L292 688 L5 0 L90 0 L172 206 L412 206 L460 0 L723 0 Z M403 262 L194 262 L306 546 C320 581 326 611 326 611 L328 611 C328 611 330 581 338 547 L403 262 Z " />
<glyph glyph-name="Ccedilla" unicode="&#xc7;" horiz-adv-x="478" d="M447 28 L423 86 C397 70 369 59 327 59 C201 59 150 195 150 344 C150 490 196 633 328 633 C371 633 403 619 424 606 L446 660 C416 682 373 698 312 698 C146 698 54 535 54 344 C54 149 147 -10 312 -10 C368 -10 417 5 447 28 L447 28 Z M395 -124 C395 -81 354 -50 222 -62 L202 -93 C289 -87 329 -95 329 -125 C329 -159 246 -169 160 -162 L139 -196 C299 -209 395 -185 395 -124 L395 -124 Z " />
<glyph glyph-name="Egrave" unicode="&#xc8;" horiz-adv-x="441" d="M280 740 L210 877 C175 899 125 900 116 876 L230 740 L280 740 Z M396 0 L396 62 L169 62 L169 325 L373 325 L373 386 L169 386 L169 626 L396 626 L396 688 L77 688 L77 0 L396 0 Z " />
<glyph glyph-name="Eacute" unicode="&#xc9;" horiz-adv-x="441" d="M355 876 C346 900 296 899 261 877 L191 740 L241 740 L355 876 Z M396 0 L396 62 L169 62 L169 325 L373 325 L373 386 L169 386 L169 626 L396 626 L396 688 L77 688 L77 0 L396 0 Z " />
<glyph glyph-name="Ecircumflex" unicode="&#xca;" horiz-adv-x="441" d="M363 760 L265 861 C255 871 242 876 230 876 C219 876 207 871 197 861 L99 760 L124 739 L231 818 L338 739 L363 760 Z M396 0 L396 62 L169 62 L169 325 L373 325 L373 386 L169 386 L169 626 L396 626 L396 688 L77 688 L77 0 L396 0 Z " />
<glyph glyph-name="Edieresis" unicode="&#xcb;" horiz-adv-x="441" d="M360 800 C360 824 339 843 315 843 C290 843 269 824 269 800 C269 776 290 757 315 757 C339 757 360 776 360 800 L360 800 Z M196 800 C196 824 175 843 150 843 C125 843 105 824 105 800 C105 776 125 757 150 757 C175 757 196 776 196 800 L196 800 Z M396 0 L396 62 L169 62 L169 325 L373 325 L373 386 L169 386 L169 626 L396 626 L396 688 L77 688 L77 0 L396 0 Z " />
<glyph glyph-name="Igrave" unicode="&#xcc;" horiz-adv-x="253" d="M179 740 L109 877 C74 899 24 900 15 876 L129 740 L179 740 Z M173 0 L173 688 L81 688 L81 0 L173 0 Z " />
<glyph glyph-name="Iacute" unicode="&#xcd;" horiz-adv-x="253" d="M238 876 C229 900 179 899 144 877 L74 740 L123 740 L238 876 Z M172 0 L172 688 L80 688 L80 0 L172 0 Z " />
<glyph glyph-name="Icircumflex" unicode="&#xce;" horiz-adv-x="253" d="M258 760 L160 861 C150 871 138 876 126 876 C114 876 102 871 93 861 L-6 760 L19 739 L127 818 L233 739 L258 760 Z M172 0 L172 688 L80 688 L80 0 L172 0 Z " />
<glyph glyph-name="Idieresis" unicode="&#xcf;" horiz-adv-x="253" d="M254 800 C254 824 233 843 209 843 C184 843 163 824 163 800 C163 776 184 757 209 757 C233 757 254 776 254 800 L254 800 Z M89 800 C89 824 69 843 44 843 C19 843 -1 824 -1 800 C-1 776 19 757 44 757 C69 757 89 776 89 800 L89 800 Z M172 0 L172 688 L80 688 L80 0 L172 0 Z " />
<glyph glyph-name="Eth" unicode="&#xd0;" horiz-adv-x="622" d="M568 351 C568 564 471 698 281 698 C206 698 143 682 103 660 L103 397 L42 397 L42 347 L103 347 L103 28 C138 6 204 -10 285 -10 C481 -10 568 139 568 351 L568 351 Z M473 352 C473 158 419 54 280 54 C245 54 213 60 193 67 L193 347 L308 347 L308 397 L193 397 L193 626 C216 635 242 639 278 639 C410 639 473 541 473 352 L473 352 Z " />
<glyph glyph-name="Ntilde" unicode="&#xd1;" horiz-adv-x="647" d="M464 806 L437 847 C430 829 416 807 385 803 C337 797 310 848 253 842 C211 838 194 815 182 787 L208 747 C215 764 229 788 261 791 C309 796 340 746 396 754 C438 760 455 780 464 806 L464 806 Z M570 0 L570 688 L493 688 L493 208 C493 165 496 132 496 132 L494 132 C494 132 480 163 455 205 L174 688 L77 688 L77 0 L154 0 L154 500 C154 543 151 585 151 585 L153 585 C153 585 172 545 197 502 L490 0 L570 0 Z " />
<glyph glyph-name="Ograve" unicode="&#xd2;" horiz-adv-x="605" d="M349 740 L279 877 C243 899 194 900 185 876 L299 740 L349 740 Z M551 344 C551 539 481 698 303 698 C124 698 54 539 54 344 C54 147 124 -10 303 -10 C481 -10 551 147 551 344 L551 344 Z M458 347 C458 208 433 58 303 58 C173 58 147 208 147 347 C147 486 177 637 303 637 C428 637 458 486 458 347 L458 347 Z " />
<glyph glyph-name="Oacute" unicode="&#xd3;" horiz-adv-x="605" d="M415 876 C406 900 357 899 321 877 L251 740 L301 740 L415 876 Z M551 344 C551 539 481 698 303 698 C124 698 54 539 54 344 C54 147 124 -10 303 -10 C481 -10 551 147 551 344 L551 344 Z M458 347 C458 208 433 58 303 58 C173 58 147 208 147 347 C147 486 177 637 303 637 C428 637 458 486 458 347 L458 347 Z " />
<glyph glyph-name="Ocircumflex" unicode="&#xd4;" horiz-adv-x="605" d="M435 760 L337 861 C327 871 314 876 302 876 C291 876 279 871 269 861 L171 760 L196 739 L303 818 L410 739 L435 760 Z M551 344 C551 539 481 698 303 698 C124 698 54 539 54 344 C54 147 124 -10 303 -10 C481 -10 551 147 551 344 L551 344 Z M458 347 C458 208 433 58 303 58 C173 58 147 208 147 347 C147 486 177 637 303 637 C428 637 458 486 458 347 L458 347 Z " />
<glyph glyph-name="Otilde" unicode="&#xd5;" horiz-adv-x="605" d="M441 806 L413 847 C406 829 392 807 361 803 C313 797 287 848 229 842 C188 838 170 815 159 787 L185 747 C191 764 205 788 237 791 C286 796 317 746 372 754 C414 760 431 780 441 806 L441 806 Z M551 344 C551 539 481 698 303 698 C124 698 54 539 54 344 C54 147 124 -10 303 -10 C481 -10 551 147 551 344 L551 344 Z M458 347 C458 208 433 58 303 58 C173 58 147 208 147 347 C147 486 177 637 303 637 C428 637 458 486 458 347 L458 347 Z " />
<glyph glyph-name="Odieresis" unicode="&#xd6;" horiz-adv-x="605" d="M430 800 C430 824 410 843 385 843 C360 843 340 824 340 800 C340 776 360 757 385 757 C410 757 430 776 430 800 L430 800 Z M266 800 C266 824 245 843 220 843 C195 843 175 824 175 800 C175 776 195 757 220 757 C245 757 266 776 266 800 L266 800 Z M551 344 C551 539 481 698 303 698 C124 698 54 539 54 344 C54 147 124 -10 303 -10 C481 -10 551 147 551 344 L551 344 Z M458 347 C458 208 433 58 303 58 C173 58 147 208 147 347 C147 486 177 637 303 637 C428 637 458 486 458 347 L458 347 Z " />
<glyph glyph-name="multiply" unicode="&#xd7;" horiz-adv-x="528" d="M461 158 L304 333 L460 508 L418 548 L264 376 L109 548 L67 508 L224 333 L68 159 L110 119 L264 290 L419 118 L461 158 Z " />
<glyph glyph-name="Oslash" unicode="&#xd8;" horiz-adv-x="610" d="M554 344 C554 447 534 539 489 604 L548 697 L518 716 L465 632 C427 673 374 698 305 698 C127 698 56 539 56 344 C56 242 75 151 118 87 L59 -5 L89 -24 L142 58 C181 15 234 -10 305 -10 C484 -10 554 147 554 344 L554 344 Z M424 567 L171 170 C150 221 143 285 143 347 C143 491 178 642 305 642 C361 642 399 613 424 567 L424 567 Z M467 347 C467 204 437 53 305 53 C248 53 210 82 185 127 L438 523 C459 473 467 408 467 347 L467 347 Z " />
<glyph glyph-name="Ugrave" unicode="&#xd9;" horiz-adv-x="583" d="M353 740 L283 877 C248 899 198 900 189 876 L303 740 L353 740 Z M506 196 L506 688 L422 688 L422 197 C422 110 363 61 296 61 C228 61 169 110 169 197 L169 688 L77 688 L77 196 C77 79 160 -11 291 -11 C423 -11 506 79 506 196 L506 196 Z " />
<glyph glyph-name="Uacute" unicode="&#xda;" horiz-adv-x="583" d="M408 876 C399 900 349 899 314 877 L244 740 L293 740 L408 876 Z M506 196 L506 688 L422 688 L422 197 C422 110 363 61 296 61 C228 61 169 110 169 197 L169 688 L77 688 L77 196 C77 79 160 -11 291 -11 C423 -11 506 79 506 196 L506 196 Z " />
<glyph glyph-name="Ucircumflex" unicode="&#xdb;" horiz-adv-x="583" d="M426 760 L328 861 C318 871 305 876 293 876 C282 876 270 871 260 861 L162 760 L187 739 L294 818 L401 739 L426 760 Z M506 196 L506 688 L422 688 L422 197 C422 110 363 61 296 61 C228 61 169 110 169 197 L169 688 L77 688 L77 196 C77 79 160 -11 291 -11 C423 -11 506 79 506 196 L506 196 Z " />
<glyph glyph-name="Udieresis" unicode="&#xdc;" horiz-adv-x="583" d="M425 800 C425 824 404 843 379 843 C354 843 334 824 334 800 C334 776 354 757 379 757 C404 757 425 776 425 800 L425 800 Z M260 800 C260 824 239 843 214 843 C190 843 169 824 169 800 C169 776 190 757 214 757 C239 757 260 776 260 800 L260 800 Z M506 196 L506 688 L422 688 L422 197 C422 110 363 61 296 61 C228 61 169 110 169 197 L169 688 L77 688 L77 196 C77 79 160 -11 291 -11 C423 -11 506 79 506 196 L506 196 Z " />
<glyph glyph-name="Yacute" unicode="&#xdd;" horiz-adv-x="500" d="M375 876 C366 900 316 899 281 877 L211 740 L261 740 L375 876 Z M485 688 L398 688 L256 377 L254 377 L117 688 L17 688 L204 305 L204 0 L296 0 L296 305 L485 688 Z " />
<glyph glyph-name="Thorn" unicode="&#xde;" horiz-adv-x="528" d="M480 367 C480 488 406 579 249 579 C221 579 193 573 168 566 L168 688 L77 688 L77 0 L168 0 L168 165 L199 163 C394 150 480 247 480 367 L480 367 Z M391 363 C391 275 333 204 196 219 L168 222 L168 515 C192 522 214 526 242 526 C330 526 391 471 391 363 L391 363 Z " />
<glyph glyph-name="germandbls" unicode="&#xdf;" horiz-adv-x="550" d="M506 149 C506 214 475 255 417 292 C360 328 345 351 345 386 C345 443 384 470 452 479 C459 502 466 542 466 573 C466 693 403 794 275 794 C119 794 74 653 74 531 L74 0 L162 0 L162 535 C162 645 186 735 275 735 C356 735 380 665 380 573 C380 549 379 529 372 507 C309 490 264 448 264 381 C264 325 292 286 346 252 C397 220 418 196 418 150 C418 95 378 58 323 58 C292 58 270 65 254 74 L235 17 C256 3 289 -7 335 -7 C432 -7 506 60 506 149 L506 149 Z " />
<glyph glyph-name="agrave" unicode="&#xe0;" horiz-adv-x="499" d="M303 598 L233 735 C197 757 148 758 139 734 L253 598 L303 598 Z M428 28 L428 374 C428 506 340 549 240 549 C166 549 106 526 75 509 L96 457 C126 472 174 491 226 491 C295 491 345 467 345 384 L345 351 C178 334 44 292 44 149 C44 51 109 -10 249 -10 C324 -10 387 5 428 28 L428 28 Z M345 59 C323 47 290 41 256 41 C176 41 128 73 128 151 C128 260 209 289 345 306 L345 59 Z " />
<glyph glyph-name="aacute" unicode="&#xe1;" horiz-adv-x="499" d="M381 734 C372 758 323 757 287 735 L217 598 L267 598 L381 734 Z M428 28 L428 374 C428 506 340 549 240 549 C166 549 106 526 75 509 L96 457 C126 472 174 491 226 491 C295 491 345 467 345 384 L345 351 C178 334 44 292 44 149 C44 51 109 -10 249 -10 C324 -10 387 5 428 28 L428 28 Z M345 59 C323 47 290 41 256 41 C176 41 128 73 128 151 C128 260 209 289 345 306 L345 59 Z " />
<glyph glyph-name="acircumflex" unicode="&#xe2;" horiz-adv-x="499" d="M383 619 L284 719 C275 729 262 734 250 734 C239 734 227 729 217 719 L118 619 L144 597 L251 676 L358 597 L383 619 Z M428 28 L428 374 C428 506 340 549 240 549 C166 549 106 526 75 509 L96 457 C126 472 174 491 226 491 C295 491 345 467 345 384 L345 351 C178 334 44 292 44 149 C44 51 109 -10 249 -10 C324 -10 387 5 428 28 L428 28 Z M345 59 C323 47 290 41 256 41 C176 41 128 73 128 151 C128 260 209 289 345 306 L345 59 Z " />
<glyph glyph-name="atilde" unicode="&#xe3;" horiz-adv-x="499" d="M390 665 L362 705 C355 687 341 665 310 661 C262 656 236 706 178 700 C136 696 119 673 108 646 L133 606 C140 622 154 646 186 650 C234 655 265 604 321 612 C363 618 380 638 390 665 L390 665 Z M428 28 L428 374 C428 506 340 549 240 549 C166 549 106 526 75 509 L96 457 C126 472 174 491 226 491 C295 491 345 467 345 384 L345 351 C178 334 44 292 44 149 C44 51 109 -10 249 -10 C324 -10 387 5 428 28 L428 28 Z M345 59 C323 47 290 41 256 41 C176 41 128 73 128 151 C128 260 209 289 345 306 L345 59 Z " />
<glyph glyph-name="adieresis" unicode="&#xe4;" horiz-adv-x="499" d="M383 659 C383 683 362 702 337 702 C312 702 292 683 292 659 C292 636 312 617 337 617 C362 617 383 635 383 659 L383 659 Z M218 659 C218 683 197 702 173 702 C148 702 127 683 127 659 C127 636 148 617 173 617 C197 617 218 635 218 659 L218 659 Z M428 28 L428 374 C428 506 340 549 240 549 C166 549 106 526 75 509 L96 457 C126 472 174 491 226 491 C295 491 345 467 345 384 L345 351 C178 334 44 292 44 149 C44 51 109 -10 249 -10 C324 -10 387 5 428 28 L428 28 Z M345 59 C323 47 290 41 256 41 C176 41 128 73 128 151 C128 260 209 289 345 306 L345 59 Z " />
<glyph glyph-name="aring" unicode="&#xe5;" horiz-adv-x="499" d="M335 677 C335 721 299 757 254 757 C210 757 174 721 174 677 C174 632 210 596 254 596 C299 596 335 632 335 677 L335 677 Z M428 28 L428 374 C428 506 340 549 240 549 C166 549 106 526 75 509 L96 457 C126 472 174 491 226 491 C295 491 345 467 345 384 L345 351 C178 334 44 292 44 149 C44 51 109 -10 249 -10 C324 -10 387 5 428 28 L428 28 Z M301 677 C301 651 280 630 254 630 C228 630 207 651 207 677 C207 703 228 724 254 724 C280 724 301 703 301 677 L301 677 Z M345 59 C323 47 290 41 256 41 C176 41 128 73 128 151 C128 260 209 289 345 306 L345 59 Z " />
<glyph glyph-name="ae" unicode="&#xe6;" horiz-adv-x="804" d="M754 285 C755 465 679 549 550 549 C491 549 426 521 391 452 C364 524 304 549 236 549 C165 549 109 529 77 511 L97 459 C125 474 173 492 219 492 C287 492 344 465 344 384 L344 350 C177 334 44 285 44 148 C44 52 102 -10 232 -10 C312 -10 364 25 393 89 C431 26 494 -10 572 -10 C646 -10 702 7 735 27 L712 82 C685 67 641 53 580 53 C491 53 423 107 417 235 L754 285 Z M670 322 L413 284 C412 430 470 492 546 492 C623 492 668 446 670 322 L670 322 Z M344 146 C344 80 294 42 236 42 C168 42 124 73 124 149 C124 258 206 286 344 303 L344 146 Z " />
<glyph glyph-name="ccedilla" unicode="&#xe7;" horiz-adv-x="411" d="M376 26 L354 81 C334 67 309 55 272 55 C185 55 139 144 139 273 C139 399 177 488 275 488 C315 488 339 474 355 462 L376 513 C359 528 323 549 257 549 C137 549 50 447 50 270 C50 96 137 -10 255 -10 C315 -10 355 7 376 26 L376 26 Z M340 -124 C340 -81 299 -50 167 -62 L147 -93 C234 -87 274 -95 274 -125 C274 -159 191 -169 104 -162 L84 -196 C243 -209 340 -185 340 -124 L340 -124 Z " />
<glyph glyph-name="egrave" unicode="&#xe8;" horiz-adv-x="522" d="M310 598 L240 735 C204 757 155 758 146 734 L260 598 L310 598 Z M472 285 C474 465 396 549 267 549 C140 549 50 454 50 271 C50 79 149 -10 290 -10 C363 -10 420 7 453 27 L430 85 C402 69 358 54 297 54 C200 54 143 114 133 236 L472 285 Z M388 322 L130 283 C128 429 186 492 264 492 C341 492 388 444 388 322 L388 322 Z " />
<glyph glyph-name="eacute" unicode="&#xe9;" horiz-adv-x="522" d="M390 734 C381 758 332 757 296 735 L226 598 L276 598 L390 734 Z M472 285 C474 465 396 549 267 549 C140 549 50 454 50 271 C50 79 149 -10 290 -10 C363 -10 420 7 453 27 L430 85 C402 69 358 54 297 54 C200 54 143 114 133 236 L472 285 Z M388 322 L130 283 C128 429 186 492 264 492 C341 492 388 444 388 322 L388 322 Z " />
<glyph glyph-name="ecircumflex" unicode="&#xea;" horiz-adv-x="522" d="M398 619 L299 719 C289 729 277 734 265 734 C253 734 241 729 232 719 L133 619 L158 597 L266 676 L372 597 L398 619 Z M472 285 C474 465 396 549 267 549 C140 549 50 454 50 271 C50 79 149 -10 290 -10 C363 -10 420 7 453 27 L430 85 C402 69 358 54 297 54 C200 54 143 114 133 236 L472 285 Z M388 322 L130 283 C128 429 186 492 264 492 C341 492 388 444 388 322 L388 322 Z " />
<glyph glyph-name="edieresis" unicode="&#xeb;" horiz-adv-x="522" d="M395 659 C395 683 375 702 350 702 C325 702 305 683 305 659 C305 636 325 617 350 617 C375 617 395 635 395 659 L395 659 Z M231 659 C231 683 210 702 185 702 C160 702 140 683 140 659 C140 636 160 617 185 617 C210 617 231 635 231 659 L231 659 Z M472 285 C474 465 396 549 267 549 C140 549 50 454 50 271 C50 79 149 -10 290 -10 C363 -10 420 7 453 27 L430 85 C402 69 358 54 297 54 C200 54 143 114 133 236 L472 285 Z M388 322 L130 283 C128 429 186 492 264 492 C341 492 388 444 388 322 L388 322 Z " />
<glyph glyph-name="igrave" unicode="&#xec;" horiz-adv-x="241" d="M172 598 L102 735 C66 757 17 758 8 734 L122 598 L172 598 Z M165 0 L165 539 L77 539 L77 0 L165 0 Z " />
<glyph glyph-name="iacute" unicode="&#xed;" horiz-adv-x="241" d="M233 734 C225 758 175 757 139 735 L69 598 L119 598 L233 734 Z M165 0 L165 539 L77 539 L77 0 L165 0 Z " />
<glyph glyph-name="icircumflex" unicode="&#xee;" horiz-adv-x="241" d="M253 619 L154 719 C144 729 132 734 120 734 C108 734 97 729 87 719 L-12 619 L14 597 L121 676 L228 597 L253 619 Z M165 0 L165 539 L77 539 L77 0 L165 0 Z " />
<glyph glyph-name="idieresis" unicode="&#xef;" horiz-adv-x="241" d="M248 659 C248 683 227 702 202 702 C178 702 157 683 157 659 C157 636 178 617 202 617 C227 617 248 635 248 659 L248 659 Z M84 659 C84 683 63 702 39 702 C14 702 -7 683 -7 659 C-7 636 14 617 39 617 C63 617 84 635 84 659 L84 659 Z M165 0 L165 539 L77 539 L77 0 L165 0 Z " />
<glyph glyph-name="eth" unicode="&#xf0;" horiz-adv-x="521" d="M468 266 C468 421 410 573 331 699 L410 724 C406 729 390 754 386 759 L308 735 C286 766 279 773 261 793 L188 770 C205 752 214 742 235 711 L146 683 C151 678 167 653 169 648 L259 675 C286 631 306 590 330 532 C309 538 290 542 259 542 C107 542 50 402 50 265 C50 96 127 -12 262 -12 C407 -12 468 106 468 266 L468 266 Z M380 269 C380 157 360 49 263 49 C166 49 138 150 138 266 C138 389 166 491 274 491 C300 491 321 488 344 481 C365 427 380 340 380 269 L380 269 Z " />
<glyph glyph-name="ntilde" unicode="&#xf1;" horiz-adv-x="533" d="M404 665 L376 705 C369 687 355 665 324 661 C276 656 250 706 192 700 C151 696 133 673 122 646 L148 606 C154 622 168 646 200 650 C249 655 280 604 335 612 C377 618 394 638 404 665 L404 665 Z M462 0 L462 393 C462 504 387 549 270 549 C184 549 119 534 71 511 L71 0 L159 0 L159 473 C187 485 211 492 261 492 C332 492 374 462 374 392 L374 0 L462 0 Z " />
<glyph glyph-name="ograve" unicode="&#xf2;" horiz-adv-x="521" d="M301 598 L231 735 C196 757 146 758 137 734 L252 598 L301 598 Z M471 269 C471 430 408 549 260 549 C115 549 50 430 50 269 C50 111 114 -10 261 -10 C407 -10 471 111 471 269 L471 269 Z M383 269 C383 161 364 51 261 51 C160 51 138 160 138 269 C138 378 158 493 261 493 C364 493 383 377 383 269 L383 269 Z " />
<glyph glyph-name="oacute" unicode="&#xf3;" horiz-adv-x="521" d="M384 734 C375 758 326 757 290 735 L220 598 L270 598 L384 734 Z M471 269 C471 430 408 549 260 549 C115 549 50 430 50 269 C50 111 114 -10 261 -10 C407 -10 471 111 471 269 L471 269 Z M383 269 C383 161 364 51 261 51 C160 51 138 160 138 269 C138 378 158 493 261 493 C364 493 383 377 383 269 L383 269 Z " />
<glyph glyph-name="ocircumflex" unicode="&#xf4;" horiz-adv-x="521" d="M393 619 L294 719 C284 729 272 734 260 734 C248 734 236 729 227 719 L128 619 L153 597 L261 676 L367 597 L393 619 Z M471 269 C471 430 408 549 260 549 C115 549 50 430 50 269 C50 111 114 -10 261 -10 C407 -10 471 111 471 269 L471 269 Z M383 269 C383 161 364 51 261 51 C160 51 138 160 138 269 C138 378 158 493 261 493 C364 493 383 377 383 269 L383 269 Z " />
<glyph glyph-name="otilde" unicode="&#xf5;" horiz-adv-x="521" d="M399 665 L372 705 C365 687 351 665 320 661 C272 656 245 706 188 700 C146 696 129 673 117 646 L143 606 C150 622 164 646 196 650 C244 655 275 604 331 612 C373 618 390 638 399 665 L399 665 Z M471 269 C471 430 408 549 260 549 C115 549 50 430 50 269 C50 111 114 -10 261 -10 C407 -10 471 111 471 269 L471 269 Z M383 269 C383 161 364 51 261 51 C160 51 138 160 138 269 C138 378 158 493 261 493 C364 493 383 377 383 269 L383 269 Z " />
<glyph glyph-name="odieresis" unicode="&#xf6;" horiz-adv-x="521" d="M388 659 C388 683 367 702 342 702 C318 702 297 683 297 659 C297 636 318 617 342 617 C367 617 388 635 388 659 L388 659 Z M223 659 C223 683 202 702 178 702 C153 702 132 683 132 659 C132 636 153 617 178 617 C202 617 223 635 223 659 L223 659 Z M471 269 C471 430 408 549 260 549 C115 549 50 430 50 269 C50 111 114 -10 261 -10 C407 -10 471 111 471 269 L471 269 Z M383 269 C383 161 364 51 261 51 C160 51 138 160 138 269 C138 378 158 493 261 493 C364 493 383 377 383 269 L383 269 Z " />
<glyph glyph-name="divide" unicode="&#xf7;" horiz-adv-x="528" d="M313 492 C313 519 291 541 264 541 C236 541 214 519 214 492 C214 464 236 442 264 442 C291 442 313 464 313 492 L313 492 Z M456 307 L456 359 L72 359 L72 307 L456 307 Z M313 174 C313 201 291 223 264 223 C236 223 214 201 214 174 C214 146 236 124 264 124 C291 124 313 146 313 174 L313 174 Z " />
<glyph glyph-name="oslash" unicode="&#xf8;" horiz-adv-x="523" d="M473 269 C473 361 451 440 405 490 L451 570 L425 586 L381 510 C350 535 311 549 261 549 C115 549 50 430 50 269 C50 180 71 102 116 52 L68 -31 L94 -47 L139 31 C171 5 211 -10 262 -10 C408 -10 473 111 473 269 L473 269 Z M350 455 L157 123 C138 164 132 219 132 270 C132 379 157 501 262 501 C302 501 330 483 350 455 L350 455 Z M391 270 C391 161 367 46 262 46 C222 46 193 63 174 90 L366 422 C385 379 391 322 391 270 L391 270 Z " />
<glyph glyph-name="ugrave" unicode="&#xf9;" horiz-adv-x="523" d="M314 598 L244 735 C209 757 159 758 150 734 L265 598 L314 598 Z M452 32 L452 539 L364 539 L364 73 C339 58 309 51 267 51 C193 51 159 99 159 162 L159 539 L71 539 L71 165 C71 57 127 -11 262 -11 C349 -11 412 9 452 32 L452 32 Z " />
<glyph glyph-name="uacute" unicode="&#xfa;" horiz-adv-x="523" d="M387 734 C378 758 328 757 293 735 L223 598 L272 598 L387 734 Z M452 32 L452 539 L364 539 L364 73 C339 58 309 51 267 51 C193 51 159 99 159 162 L159 539 L71 539 L71 165 C71 57 127 -11 262 -11 C349 -11 412 9 452 32 L452 32 Z " />
<glyph glyph-name="ucircumflex" unicode="&#xfb;" horiz-adv-x="523" d="M394 619 L296 719 C286 729 273 734 262 734 C250 734 238 729 228 719 L130 619 L155 597 L262 676 L369 597 L394 619 Z M452 32 L452 539 L364 539 L364 73 C339 58 309 51 267 51 C193 51 159 99 159 162 L159 539 L71 539 L71 165 C71 57 127 -11 262 -11 C349 -11 412 9 452 32 L452 32 Z " />
<glyph glyph-name="udieresis" unicode="&#xfc;" horiz-adv-x="523" d="M389 659 C389 683 368 702 344 702 C319 702 298 683 298 659 C298 636 319 617 344 617 C368 617 389 635 389 659 L389 659 Z M224 659 C224 683 204 702 179 702 C154 702 134 683 134 659 C134 636 154 617 179 617 C204 617 224 635 224 659 L224 659 Z M452 32 L452 539 L364 539 L364 73 C339 58 309 51 267 51 C193 51 159 99 159 162 L159 539 L71 539 L71 165 C71 57 127 -11 262 -11 C349 -11 412 9 452 32 L452 32 Z " />
<glyph glyph-name="yacute" unicode="&#xfd;" horiz-adv-x="488" d="M372 734 C363 758 313 757 278 735 L208 598 L257 598 L372 734 Z M462 539 L380 539 L250 103 L249 103 L123 539 L29 539 L209 0 L120 -215 L213 -215 L462 539 Z " />
<glyph glyph-name="thorn" unicode="&#xfe;" horiz-adv-x="528" d="M478 280 C478 444 397 547 254 547 C222 547 185 537 158 523 L158 785 L71 785 L71 -215 L159 -215 L159 5 C187 -3 212 -7 241 -7 C375 -7 478 98 478 280 L478 280 Z M391 272 C391 156 350 46 224 46 C201 46 178 51 159 56 L159 476 C182 489 210 495 237 495 C348 495 391 404 391 272 L391 272 Z " />
<glyph glyph-name="ydieresis" unicode="&#xff;" horiz-adv-x="488" d="M377 659 C377 683 357 702 332 702 C307 702 287 683 287 659 C287 636 307 617 332 617 C357 617 377 635 377 659 L377 659 Z M213 659 C213 683 192 702 167 702 C142 702 122 683 122 659 C122 636 142 617 167 617 C192 617 213 635 213 659 L213 659 Z M462 539 L380 539 L250 103 L249 103 L123 539 L29 539 L209 0 L120 -215 L213 -215 L462 539 Z " />
<glyph glyph-name="dotlessi" unicode="&#x131;" horiz-adv-x="229" d="M158 0 L158 539 L71 539 L71 0 L158 0 Z " />
<glyph glyph-name="Lslash" unicode="&#x141;" horiz-adv-x="419" d="M390 0 L390 62 L184 62 L184 447 L257 484 L257 533 L184 496 L184 688 L92 688 L92 462 L29 430 L29 380 L92 412 L92 0 L390 0 Z " />
<glyph glyph-name="lslash" unicode="&#x142;" horiz-adv-x="293" d="M263 485 L263 535 L190 498 L190 785 L102 785 L102 466 L33 430 L33 377 L102 415 L102 0 L190 0 L190 447 L263 485 Z " />
<glyph glyph-name="OE" unicode="&#x152;" horiz-adv-x="761" d="M716 0 L716 63 L489 63 L489 325 L694 325 L694 386 L489 386 L489 626 L716 626 L716 688 L411 688 C391 693 361 698 328 698 C139 698 54 546 54 344 C54 143 140 -10 329 -10 C364 -10 395 -5 411 0 L716 0 Z M403 58 C389 54 363 51 331 51 C179 51 148 219 148 345 C148 469 178 641 331 641 C358 641 386 637 403 632 L403 58 Z " />
<glyph glyph-name="oe" unicode="&#x153;" horiz-adv-x="842" d="M792 281 C792 468 718 549 588 549 C522 549 459 517 421 438 C383 515 335 549 260 549 C116 549 50 430 50 269 C50 111 115 -10 260 -10 C338 -10 393 33 423 113 C463 26 533 -10 612 -10 C698 -10 740 7 774 27 L751 83 C720 66 686 52 622 52 C560 52 472 73 457 243 L792 281 Z M707 319 L453 290 C451 432 508 496 585 496 C660 496 707 443 707 319 L707 319 Z M382 270 C382 180 370 50 260 50 C154 50 136 179 136 270 C136 362 151 493 260 493 C372 493 382 363 382 270 L382 270 Z " />
<glyph glyph-name="Scaron" unicode="&#x160;" horiz-adv-x="465" d="M365 855 L340 876 L232 797 L124 876 L99 855 L198 755 C207 745 219 740 231 740 C243 740 256 745 266 755 L365 855 Z M411 194 C411 255 391 335 255 388 C192 413 140 443 140 514 C140 587 181 635 254 635 C300 635 339 618 363 603 L385 661 C355 682 307 698 244 698 C124 698 50 609 50 505 C50 438 81 367 196 321 C282 287 316 250 316 189 C316 111 266 60 187 60 C132 60 93 76 67 92 L43 28 C79 5 125 -10 203 -10 C324 -10 411 74 411 194 L411 194 Z " />
<glyph glyph-name="scaron" unicode="&#x161;" horiz-adv-x="404" d="M335 714 L310 735 L202 655 L94 735 L69 714 L168 613 C178 603 189 598 201 598 C213 598 226 603 236 613 L335 714 Z M357 150 C357 212 331 268 226 308 C174 328 136 353 136 405 C136 451 167 490 226 490 C268 490 300 472 316 460 L339 513 C311 532 268 550 213 550 C115 550 52 482 52 402 C52 346 73 290 178 251 C237 229 267 204 267 148 C267 96 227 55 167 55 C119 55 81 71 62 87 L38 29 C67 7 118 -8 176 -8 C286 -8 357 68 357 150 L357 150 Z " />
<glyph glyph-name="Ydieresis" unicode="&#x178;" horiz-adv-x="500" d="M382 800 C382 824 361 843 336 843 C311 843 291 824 291 800 C291 776 311 757 336 757 C361 757 382 776 382 800 L382 800 Z M217 800 C217 824 196 843 172 843 C147 843 126 824 126 800 C126 776 147 757 172 757 C196 757 217 776 217 800 L217 800 Z M485 688 L398 688 L256 377 L254 377 L117 688 L17 688 L204 305 L204 0 L296 0 L296 305 L485 688 Z " />
<glyph glyph-name="Zcaron" unicode="&#x17d;" horiz-adv-x="433" d="M347 855 L322 876 L215 797 L106 876 L81 855 L180 755 C190 745 202 740 214 740 C226 740 238 745 248 755 L347 855 Z M400 0 L400 62 L143 62 L393 688 L40 688 L40 626 L277 626 L24 0 L400 0 Z " />
<glyph glyph-name="zcaron" unicode="&#x17e;" horiz-adv-x="417" d="M338 714 L313 735 L206 655 L97 735 L72 714 L171 613 C181 603 193 598 205 598 C217 598 229 603 239 613 L338 714 Z M377 0 L377 55 L147 55 L369 539 L47 539 L47 484 L257 484 L30 0 L377 0 Z " />
<glyph glyph-name="florin" unicode="&#x192;" horiz-adv-x="563" d="M518 684 C501 691 475 697 442 697 C322 697 289 608 266 488 C266 488 252 417 251 411 L131 411 L131 358 L240 358 L177 22 C155 -97 128 -156 62 -156 C47 -156 35 -153 22 -148 L11 -210 C26 -216 50 -222 75 -222 C194 -222 241 -100 260 1 L327 358 L449 358 L449 411 L338 411 L353 484 C366 545 382 636 456 636 C475 636 491 633 506 628 L518 684 Z " />
<glyph glyph-name="circumflex" unicode="&#x2c6;" horiz-adv-x="196" d="M230 619 L132 719 C122 729 109 734 98 734 C86 734 74 729 64 719 L-34 619 L-9 597 L98 676 L205 597 L230 619 Z " />
<glyph glyph-name="caron" unicode="&#x2c7;" horiz-adv-x="196" d="M231 714 L206 735 L98 655 L-10 735 L-35 714 L64 613 C74 603 86 598 98 598 C110 598 122 603 132 613 L231 714 Z " />
<glyph glyph-name="breve" unicode="&#x2d8;" horiz-adv-x="196" d="M227 717 L197 728 C184 678 149 649 97 649 C45 649 11 678 0 728 L-31 717 C-31 670 3 598 98 598 C192 598 227 670 227 717 L227 717 Z " />
<glyph glyph-name="dotaccent" unicode="&#x2d9;" horiz-adv-x="196" d="M146 691 C146 717 125 739 98 739 C71 739 50 717 50 691 C50 664 71 642 98 642 C125 642 146 664 146 691 L146 691 Z " />
<glyph glyph-name="ring" unicode="&#x2da;" horiz-adv-x="196" d="M178 677 C178 721 142 757 98 757 C53 757 17 721 17 677 C17 632 53 596 98 596 C142 596 178 632 178 677 L178 677 Z M144 677 C144 651 124 630 98 630 C72 630 51 651 51 677 C51 703 72 724 98 724 C124 724 144 703 144 677 L144 677 Z " />
<glyph glyph-name="ogonek" unicode="&#x2db;" horiz-adv-x="196" d="M243 -151 L234 -118 C165 -143 117 -132 117 -104 C117 -70 134 -44 220 5 L158 5 C70 -42 51 -75 51 -120 C51 -179 151 -190 243 -151 L243 -151 Z " />
<glyph glyph-name="tilde" unicode="&#x2dc;" horiz-adv-x="196" d="M239 665 L211 705 C204 687 190 665 159 661 C111 656 85 706 27 700 C-14 696 -31 673 -43 646 L-17 606 C-10 622 4 647 35 650 C84 656 115 604 171 612 C212 618 229 638 239 665 L239 665 Z " />
<glyph glyph-name="hungarumlaut" unicode="&#x2dd;" horiz-adv-x="196" d="M258 725 C258 735 252 741 232 741 C209 741 193 733 182 724 L97 597 L137 597 L258 725 Z M127 725 C127 735 121 741 101 741 C78 741 62 733 51 724 L-34 597 L6 597 L127 725 Z " />
<glyph glyph-name="pi" unicode="&#x3c0;" horiz-adv-x="644" d="M588 0 L588 58 C520 57 517 104 517 151 L517 482 L588 482 L588 539 L54 539 L54 482 L126 482 L126 0 L214 0 L214 482 L429 482 L429 149 C429 89 432 -13 588 0 L588 0 Z " />
<glyph glyph-name="endash" unicode="&#x2013;" horiz-adv-x="400" d="M400 305 L400 366 L0 366 L0 305 L400 305 Z " />
<glyph glyph-name="emdash" unicode="&#x2014;" horiz-adv-x="800" d="M800 309 L800 361 L0 361 L0 309 L800 309 Z " />
<glyph glyph-name="quoteleft" unicode="&#x2018;" horiz-adv-x="264" d="M224 785 L178 785 L55 538 C58 527 67 513 89 513 C117 513 134 525 144 538 L224 785 Z " />
<glyph glyph-name="quoteright" unicode="&#x2019;" horiz-adv-x="264" d="M209 764 C206 776 197 789 175 789 C147 789 130 778 120 764 L40 517 L86 517 L209 764 Z " />
<glyph glyph-name="quotesinglbase" unicode="&#x201a;" horiz-adv-x="264" d="M209 78 C206 89 197 103 175 103 C147 103 130 91 120 78 L40 -169 L86 -169 L209 78 Z " />
<glyph glyph-name="quotedblleft" unicode="&#x201c;" horiz-adv-x="439" d="M399 785 L353 785 L230 538 C232 527 242 513 264 513 C291 513 309 525 319 538 L399 785 Z M224 785 L178 785 L55 538 C58 527 67 513 89 513 C117 513 134 525 144 538 L224 785 Z " />
<glyph glyph-name="quotedblright" unicode="&#x201d;" horiz-adv-x="439" d="M384 764 C381 776 372 789 350 789 C322 789 305 778 295 764 L215 517 L260 517 L384 764 Z M209 764 C206 776 197 789 175 789 C147 789 130 778 120 764 L40 517 L86 517 L209 764 Z " />
<glyph glyph-name="quotedblbase" unicode="&#x201e;" horiz-adv-x="439" d="M384 78 C381 89 372 103 350 103 C322 103 305 91 295 78 L215 -169 L260 -169 L384 78 Z M209 78 C206 89 197 103 175 103 C147 103 130 91 120 78 L40 -169 L86 -169 L209 78 Z " />
<glyph glyph-name="dagger" unicode="&#x2020;" horiz-adv-x="553" d="M503 457 L503 543 L312 535 L321 785 L230 785 L240 535 L50 543 L50 457 L240 465 L231 -215 L321 -215 L312 465 L503 457 Z " />
<glyph glyph-name="daggerdbl" unicode="&#x2021;" horiz-adv-x="553" d="M503 54 L503 130 L312 123 L313 296 L312 474 L503 467 L503 543 L311 536 L320 785 L233 785 L241 536 L50 543 L50 467 L241 474 L239 295 L241 123 L50 130 L50 54 L241 60 L233 -215 L320 -215 L311 60 L503 54 Z " />
<glyph glyph-name="bullet" unicode="&#x2022;" horiz-adv-x="324" d="M256 356 C256 408 214 450 162 450 C110 450 68 408 68 356 C68 304 110 262 162 262 C214 262 256 304 256 356 L256 356 Z " />
<glyph glyph-name="ellipsis" unicode="&#x2026;" horiz-adv-x="838" d="M756 53 C756 85 730 111 698 111 C666 111 640 85 640 53 C640 21 666 -4 698 -4 C730 -4 756 21 756 53 L756 53 Z M476 53 C476 85 451 111 419 111 C387 111 361 85 361 53 C361 21 387 -4 419 -4 C451 -4 476 21 476 53 L476 53 Z M197 53 C197 85 171 111 140 111 C108 111 82 85 82 53 C82 21 108 -4 140 -4 C171 -4 197 21 197 53 L197 53 Z " />
<glyph glyph-name="perthousand" unicode="&#x2030;" horiz-adv-x="1196" d="M1127 225 C1127 331 1104 459 992 459 C879 459 857 331 857 225 C856 118 879 -11 992 -11 C1103 -11 1128 118 1127 225 L1127 225 Z M785 225 C785 331 762 459 651 459 C538 459 516 331 516 225 C515 118 538 -11 651 -11 C762 -11 786 118 785 225 L785 225 Z M566 682 L520 695 L286 6 L332 -8 L566 682 Z M338 464 C338 570 315 699 204 699 C91 699 69 570 69 464 C69 358 91 229 204 229 C315 229 338 358 338 464 L338 464 Z M1066 226 C1066 146 1060 34 992 34 C923 34 917 146 917 226 C916 307 923 420 992 420 C1060 420 1067 307 1066 226 L1066 226 Z M725 226 C725 146 719 35 651 35 C582 35 576 146 576 226 C575 307 582 420 651 420 C719 420 726 307 725 226 L725 226 Z M278 465 C278 385 272 274 204 274 C135 274 129 384 129 465 C129 547 135 660 204 660 C272 660 279 547 278 465 L278 465 Z " />
<glyph glyph-name="guilsinglleft" unicode="&#x2039;" horiz-adv-x="330" d="M258 147 L130 334 L258 521 L211 552 L60 334 L211 116 L258 147 Z " />
<glyph glyph-name="guilsinglright" unicode="&#x203a;" horiz-adv-x="330" d="M270 334 L119 552 L72 521 L199 334 L72 147 L119 116 L270 334 Z " />
<glyph glyph-name="fraction" unicode="&#x2044;" horiz-adv-x="160" d="M272 680 L219 702 L-112 8 L-60 -15 L272 680 Z " />
<glyph glyph-name="trademark" unicode="&#x2122;" horiz-adv-x="782" d="M712 341 L668 688 L597 688 L513 391 L428 688 L358 688 L313 341 L362 341 L396 644 L489 341 L536 341 L628 644 L664 341 L712 341 Z M289 650 L289 688 L46 688 L46 650 L143 650 L143 341 L193 341 L193 650 L289 650 Z " />
<glyph glyph-name="Omega" unicode="&#x2126;" horiz-adv-x="650" d="M604 0 L604 62 L473 62 C532 136 588 269 588 385 C588 571 500 698 325 698 C151 698 63 571 63 385 C63 267 118 135 179 62 L46 62 L46 0 L285 0 C202 91 153 236 153 383 C153 526 198 637 325 637 C453 637 497 526 497 383 C497 237 449 90 365 0 L604 0 Z " />
<glyph glyph-name="partialdiff" unicode="&#x2202;" horiz-adv-x="528" d="M474 333 C474 558 319 663 208 694 L183 636 C267 609 369 530 385 398 C189 457 50 322 50 162 C50 67 107 -9 218 -9 C404 -9 474 165 474 333 L474 333 Z M391 350 C391 186 341 51 228 51 C163 51 133 96 133 171 C133 302 228 400 391 350 L391 350 Z " />
<glyph glyph-name="Delta" unicode="&#x2206;" horiz-adv-x="575" d="M561 0 L330 688 L247 688 L14 0 C396 0 123 0 561 0 L561 0 Z M451 58 L116 58 L263 522 C273 554 285 597 285 597 L287 597 C287 597 297 554 307 522 L451 58 Z " />
<glyph glyph-name="product" unicode="&#x220f;" horiz-adv-x="825" d="M766 343 C766 539 607 697 412 697 C217 697 59 539 59 343 C59 148 217 -10 412 -10 C607 -10 766 148 766 343 L766 343 Z M723 343 C723 172 584 33 412 33 C241 33 102 172 102 343 C102 514 241 654 412 654 C584 654 723 514 723 343 L723 343 Z M556 438 C556 534 483 568 417 568 C379 568 342 561 316 547 L316 124 L364 124 L364 314 C478 300 556 344 556 438 L556 438 Z M507 439 C507 371 450 342 364 352 L364 520 C377 525 394 529 411 529 C455 529 507 511 507 439 L507 439 Z " />
<glyph glyph-name="summation" unicode="&#x2211;" horiz-adv-x="528" d="M480 -215 L480 -143 L176 -142 L387 285 L187 625 L471 625 L471 688 L55 688 L294 272 L54 -215 L480 -215 Z " />
<glyph glyph-name="minus" unicode="&#x2212;" horiz-adv-x="528" d="M456 303 L456 363 L72 363 L72 303 L456 303 Z " />
<glyph glyph-name="radical" unicode="&#x221a;" horiz-adv-x="528" d="M499 785 L422 785 L282 107 L280 107 L178 501 L26 501 L26 453 L106 452 L243 0 L323 0 L499 785 Z " />
<glyph glyph-name="infinity" unicode="&#x221e;" horiz-adv-x="855" d="M783 339 C783 433 715 506 619 506 C532 506 496 468 428 385 C358 470 313 506 236 506 C140 506 72 434 72 339 C72 244 140 172 236 172 C316 172 360 208 426 294 C492 208 540 172 620 172 C715 172 783 245 783 339 L783 339 Z M726 340 C726 279 680 233 619 233 C559 233 523 268 466 341 C529 422 559 447 619 447 C679 447 726 400 726 340 L726 340 Z M390 338 C331 262 295 231 236 231 C175 231 128 279 128 338 C128 399 175 445 236 445 C292 445 328 411 390 338 L390 338 Z " />
<glyph glyph-name="integral" unicode="&#x222b;" horiz-adv-x="528" d="M424 727 L424 784 C305 790 232 719 232 613 L232 -56 C232 -132 177 -158 124 -157 L124 -215 C243 -220 318 -150 318 -44 L318 625 C318 702 371 728 424 727 L424 727 Z " />
<glyph glyph-name="approxequal" unicode="&#x2248;" horiz-adv-x="528" d="M456 408 L456 467 C434 442 396 418 347 418 C285 418 239 483 173 483 C123 483 90 459 72 439 L72 380 C93 402 125 424 173 424 C240 424 283 358 348 358 C404 358 438 385 456 408 L456 408 Z M456 227 L456 286 C434 262 396 237 347 237 C285 237 239 303 173 303 C123 303 90 278 72 258 L72 199 C93 221 125 243 173 243 C240 243 283 178 348 178 C404 178 438 204 456 227 L456 227 Z " />
<glyph glyph-name="notequal" unicode="&#x2260;" horiz-adv-x="528" d="M456 218 L456 276 L256 276 L327 391 L456 391 L456 448 L360 448 L413 535 L373 558 L307 448 L72 448 L72 391 L273 391 L203 276 L72 276 L72 218 L169 218 L113 127 L152 103 L222 218 L456 218 Z " />
<glyph glyph-name="lessequal" unicode="&#x2264;" horiz-adv-x="528" d="M456 227 L456 287 L144 400 L456 513 L456 574 L72 427 L72 374 L456 227 Z M456 105 L456 161 L72 161 L72 105 L456 105 Z " />
<glyph glyph-name="greaterequal" unicode="&#x2265;" horiz-adv-x="528" d="M456 374 L456 427 L72 574 L72 513 L384 400 L72 287 L72 227 L456 374 Z M456 105 L456 160 L72 161 L72 105 L456 105 Z " />
<glyph glyph-name="lozenge" unicode="&#x25ca;" horiz-adv-x="641" d="M591 344 L320 684 L50 344 L320 4 L591 344 Z M514 335 L328 100 L128 352 L314 588 L514 335 Z " />
<glyph glyph-name="fi" unicode="&#xfb01;" horiz-adv-x="527" d="M456 691 C456 717 434 738 406 738 C378 738 355 717 355 691 C355 665 378 644 406 644 C434 644 456 665 456 691 L456 691 Z M450 0 L450 539 L362 539 L362 0 L450 0 Z M283 484 L283 539 L189 539 L189 625 C189 701 231 726 283 729 L283 785 C165 790 101 721 101 615 L101 539 L40 539 L40 484 L101 484 L101 0 L189 0 L189 484 L283 484 Z " />
<glyph glyph-name="fl" unicode="&#xfb02;" horiz-adv-x="533" d="M456 0 L456 785 L368 785 L368 0 L456 0 Z M283 484 L283 539 L189 539 L189 625 C189 701 231 726 283 729 L283 785 C165 790 101 721 101 615 L101 539 L40 539 L40 484 L101 484 L101 0 L189 0 L189 484 L283 484 Z " />
</font>
</svg>
