<?xml version="1.0" encoding="UTF-8" standalone="no"?>
<svg width="470px" height="537px" viewBox="0 0 470 537" version="1.1" xmlns="http://www.w3.org/2000/svg" xmlns:xlink="http://www.w3.org/1999/xlink">
    <!-- Generator: Sketch 3.8.3 (29802) - http://www.bohemiancoding.com/sketch -->
    <title>Hammer</title>
    <desc>Created with Sketch.</desc>
    <defs>
        <polygon id="path-1" points="1093.24552 527.463435 1093.24552 0.211820359 0.106840336 0.211820359 0.106840336 527.463435"></polygon>
    </defs>
    <g id="Page-1" stroke="none" stroke-width="1" fill="none" fill-rule="evenodd">
        <g id="Desktop-Landscape-Copy-4" transform="translate(0.000000, -230.000000)">
            <g id="Hammer" transform="translate(244.989132, 536.594082) scale(-1, 1) rotate(29.000000) translate(-244.989132, -536.594082) translate(-302.010868, 272.594082)">
                <mask id="mask-2" fill="white">
                    <use xlink:href="#path-1"></use>
                </mask>
                <g id="Clip-2"></g>
                <path d="M1061.25928,399.607674 C1058.552,403.692346 1055.40049,407.374916 1051.8928,410.649175 C1051.454,411.059039 1050.68881,411.293469 1050.21615,411.097852 C1049.26271,410.706618 1048.21852,410.203602 1047.17163,409.671089 C1046.12204,409.138576 1045.05619,408.564144 1043.98763,407.975741 C1039.70255,405.603495 1035.36737,403.021659 1031.02,400.467769 C1013.62375,390.171476 995.823903,380.153084 977.169484,372.246115 C967.886967,368.315142 958.483915,364.758326 948.973872,361.608269 C939.465183,358.455107 929.856275,355.71802 920.212154,353.319381 C910.566679,350.91298 900.892763,348.848132 891.264894,346.843833 C881.637025,344.837981 872.061975,342.880257 862.59527,340.601162 C853.125857,338.32983 843.767498,335.721602 834.559468,332.573097 C829.953422,331.000397 825.396131,329.301944 820.859155,327.462211 C816.315408,325.625584 811.789267,323.677175 807.279377,321.658903 C789.23982,313.554764 771.439977,304.46012 753.717331,295.149676 C735.520672,285.567541 717.402564,275.684218 699.258724,265.804001 C695.820102,263.931665 692.381481,262.05933 688.940151,260.188547 C689.664713,259.257037 690.408235,258.344157 691.178844,257.460774 C692.015814,256.510634 692.889351,255.600859 693.781849,254.712819 C694.870723,253.62761 695.997518,252.587424 697.159526,251.593813 C697.544153,251.266232 697.926072,250.932441 698.31747,250.615727 C698.41769,250.531891 698.523327,250.45737 698.623547,250.37664 C700.496573,248.876908 702.446796,247.488958 704.46338,246.209684 C704.964479,245.894523 705.470995,245.587125 705.978865,245.282831 C707.536334,244.351321 709.127662,243.474149 710.748784,242.663735 C712.188427,241.941815 713.651094,241.26647 715.130013,240.634596 C721.137782,238.07139 727.436729,236.206817 733.852148,234.854575 C740.270276,233.503885 746.813002,232.662421 753.395002,232.192009 C766.571193,231.260498 779.900421,231.774381 793.180894,233.121966 C806.466785,234.481971 819.721526,236.697413 832.897716,239.488838 C845.236936,242.107934 857.50844,245.244019 869.693267,248.78531 C875.786358,250.559837 881.853717,252.446145 887.896697,254.427156 C890.918188,255.419215 893.928844,256.451638 896.934082,257.496482 L901.42772,259.115758 L906.077104,260.868549 L901.441263,259.053657 C901.441263,259.053657 915.331181,263.20664 919.600001,264.385 C923.868821,265.574228 928.138996,266.760351 932.384792,268.059808 C940.875032,270.664931 949.321933,273.450147 957.672677,276.522578 C966.023421,279.596561 974.29426,282.909632 982.395809,286.60928 C990.487878,290.315138 998.439097,294.376523 1005.96371,299.094622 C1009.73955,301.460657 1013.31225,303.957105 1016.76035,306.77337 C1020.20846,309.577216 1023.51706,312.629464 1026.68076,315.88354 C1033.00814,322.396349 1038.74776,329.714913 1043.89689,337.562887 C1049.04331,345.413965 1053.59789,353.800661 1057.53761,362.553752 C1059.50679,366.928745 1061.32294,371.396889 1062.97521,375.939553 L1063.94355,378.671983 C1064.34307,379.830161 1064.73447,380.997653 1065.1191,382.176014 C1065.80845,384.298304 1066.47207,386.474933 1067.11808,388.744713 C1065.42788,392.601165 1063.49933,396.241817 1061.25928,399.607674 L1061.25928,399.607674 Z M686.124517,260.969463 C685.676237,261.63394 685.252334,262.326363 684.816243,263.01568 L684.22305,264.012396 C683.831652,263.801254 683.440253,263.588559 683.051563,263.377417 C683.708408,262.290655 684.37338,261.216313 685.060021,260.197862 L685.334948,259.792655 C685.731764,260.028637 686.104202,260.247542 686.459035,260.46179 C686.34798,260.631014 686.234217,260.798686 686.124517,260.969463 L686.124517,260.969463 Z M643.811462,222.684395 C642.652163,225.174632 641.467132,227.667974 640.271266,230.162869 L639.92456,230.041773 L637.582939,229.231359 L437.475219,159.914582 L410.459221,150.560667 L411.007721,149.185137 L414.133495,141.259538 C416.205606,135.959245 418.245214,130.624797 420.210334,125.232906 C422.175454,119.842567 424.063377,114.393232 425.833475,108.886455 C426.720555,106.133842 427.577841,103.365704 428.402622,100.586699 L429.620157,96.4073233 L430.086043,94.7585503 L651.433581,183.53768 L652.835304,184.101243 L655.149838,185.029649 C655.02795,186.355498 654.885746,187.67048 654.723227,188.973042 C654.60811,189.881264 654.487575,190.787934 654.349435,191.685289 C653.535488,197.091153 652.189292,202.225326 650.323038,207.345527 C648.547523,212.246823 646.376546,217.138804 644.108058,222.0401 C644.009193,222.254347 643.910327,222.468595 643.811462,222.684395 L643.811462,222.684395 Z M418.353559,104.966349 C418.042065,112.452586 416.202897,119.605032 413.72449,126.485787 C413.63375,126.058845 413.551137,125.627245 413.495609,125.183225 C413.368303,124.164774 412.080344,124.170984 412.078989,125.239116 C412.074927,128.490086 410.185649,136.789842 410.178877,136.803814 C409.448898,138.42309 408.873311,139.717889 408.622762,140.348211 C408.579424,140.414969 408.355961,137.850211 408.06749,137.06619 C407.514927,135.557143 406.686083,134.810383 407.099151,131.256671 C407.027372,131.399503 406.958301,131.550097 406.889231,131.694481 C406.737547,132.006537 406.59128,132.32325 406.450431,132.647727 C406.43147,132.69275 406.411156,132.737772 406.390841,132.784348 C405.459068,134.953214 402.793764,144.468591 402.793764,144.468591 C402.785638,144.496536 401.363601,149.441302 401.363601,149.441302 C401.363601,149.441302 398.717257,148.756642 397.854555,149.340389 C386.265629,157.168179 392.261208,140.73634 392.549679,139.899533 C393.916189,135.98719 394.475523,135.95614 394.95089,131.512837 C394.973914,131.304799 395.17977,126.505969 395.542728,125.150622 C395.714727,124.50788 395.950379,123.852718 396.290314,123.15098 C396.651917,123.343492 396.734531,124.147696 396.681712,125.249983 C396.628894,126.36469 396.060079,130.604614 396.014032,130.984981 C395.706601,133.495401 395.584712,135.614586 396.385116,135.541618 C396.406785,135.540066 396.4271,135.544723 396.451478,135.538513 C396.473147,135.533856 396.49617,135.516778 396.51784,135.504358 C396.939034,135.245087 398.221576,130.395024 398.32315,129.96032 C398.389511,129.676209 400.349214,120.992982 400.391198,120.834625 C400.574031,120.878095 402.136918,112.250759 402.379342,110.564725 L402.517482,110.600433 C402.55134,110.612853 402.631245,110.741712 402.631245,110.741712 L402.64208,110.810023 C402.726048,111.283541 402.843874,111.86263 403.025353,112.497609 C402.987432,112.80656 404.325501,113.379439 404.405406,112.842268 C404.580113,111.663907 404.81712,110.546095 405.389997,109.530749 C405.66357,109.046364 403.561664,107.718962 402.865543,107.427089 C403.006392,106.598045 404.649184,99.9936374 404.853686,99.3027674 C405.075795,98.5482442 410.773424,79.6152999 411.198681,78.5394057 C411.839275,79.0781291 412.475806,79.6121949 413.101502,80.1338406 C413.584995,80.537495 414.06307,80.9364918 414.534374,81.3277261 C415.502713,78.4478072 417.039868,79.0626039 418.956232,80.7672675 C418.728706,81.0606932 418.666408,81.5093706 418.999571,81.8478193 C420.650488,83.5260901 421.815204,85.4512111 422.603419,87.5331364 C422.84178,89.5793537 423.054408,91.6271236 423.164108,93.679551 C422.74156,98.4193853 421.972305,103.095566 420.813007,107.675491 C420.71685,107.973575 420.61663,108.270105 420.520473,108.566636 C420.333577,107.270284 420.06813,105.986353 419.73903,104.702421 C419.502024,103.774016 418.390126,104.07831 418.353559,104.966349 L418.353559,104.966349 Z M394.344154,125.145965 C393.975779,126.31501 393.611466,127.490265 393.248508,128.665521 C392.993896,129.493012 392.740638,130.323609 392.488734,131.155758 C392.147445,132.28599 391.804802,133.416222 391.470285,134.552665 C391.009816,136.120707 390.557472,137.694959 390.115964,139.275421 L389.461827,141.65543 L387.722878,148.463217 C387.52921,149.228608 387.399195,149.976921 387.233968,150.734549 C387.183858,150.928614 387.179795,151.099391 387.166252,151.276377 L387.144583,151.54341 C375.471689,152.446975 367.48932,155.81749 362.590741,158.754852 C360.246411,160.159879 358.607682,161.467099 357.609548,162.356691 C356.815916,163.064639 356.427225,163.507106 356.409619,163.525736 C356.401493,163.590942 356.393367,163.6577 356.383887,163.722906 C356.302628,163.789664 356.221369,163.862632 356.146881,163.930943 C356.140109,163.774139 356.137401,163.617335 356.137401,163.458978 C356.137401,162.833314 356.171259,162.195229 356.21866,161.581985 C356.251164,161.184541 356.322943,159.965815 356.565366,158.233206 C356.912072,156.758315 357.387439,155.042784 357.929167,153.3878 C358.369322,152.037111 358.85146,150.737654 359.32141,149.573266 C359.428401,149.304681 359.536747,149.036095 359.642384,148.783035 C360.430599,146.885859 361.194436,145.320922 361.592606,144.476353 C361.88514,146.94175 362.298207,149.394727 363.090485,151.711082 C363.350515,152.471815 364.244367,152.453185 364.45835,151.662954 C364.829434,150.284319 365.151762,148.891711 365.451067,147.489789 L366.197298,145.181196 C366.367942,144.656445 366.545359,144.130142 366.728192,143.608496 C367.405352,141.67406 368.171898,139.80483 369.092837,138.266285 C369.256709,137.988385 369.432771,137.716694 369.611542,137.445004 C371.185263,135.046365 373.235705,132.931837 374.938087,131.152653 C376.830073,129.151458 378.306283,127.451452 378.172206,125.453363 C378.135639,124.92085 377.971766,124.556008 377.810602,124.237742 C377.717154,124.049888 377.623705,123.877558 377.558698,123.695914 C377.388054,123.206871 377.416494,122.629335 378.295449,121.482025 C379.947721,119.367497 382.185059,118.279182 385.068409,117.481188 C385.929757,117.251416 386.524304,117.127215 387.25022,117.018538 C387.912483,116.937807 388.442023,116.930045 388.962082,116.905205 C390.003555,116.872602 391.016587,116.732875 392.949203,116.465842 C394.145069,116.312143 395.243423,116.021822 396.423037,115.944197 C396.716925,115.925566 397.018938,115.920909 397.325015,115.936434 C397.320952,115.948854 397.316889,115.961274 397.312826,115.973694 C397.151662,116.461185 396.994561,116.948675 396.834751,117.436165 C396.127795,117.43306 395.374793,117.431508 394.629916,117.468768 C393.335185,117.523106 392.075666,117.693883 391.217027,118.016807 C390.354324,118.338178 389.915524,118.775988 390.166074,119.272793 C390.176908,119.292976 390.195869,119.311606 390.21212,119.330236 C390.413914,119.560009 391.047737,119.631424 391.945651,119.699735 C392.918054,119.768046 394.20195,119.842567 395.553563,119.999371 C395.694412,120.013344 395.836616,120.030421 395.980174,120.047499 C395.428965,121.742847 394.88182,123.441301 394.344154,125.145965 L394.344154,125.145965 Z M353.925794,200.394909 C353.157894,203.344691 352.316861,206.302236 351.42978,209.255123 C351.41082,209.24736 351.390505,209.24115 351.37019,209.236493 C351.171105,208.780053 350.966603,208.325165 350.751265,207.881146 C349.208694,204.686066 347.31129,201.809252 345.228344,199.236731 C342.182476,195.488955 338.775004,192.371501 335.213139,189.676332 C334.378877,189.000987 333.535135,188.344272 332.679204,187.712398 C328.663642,184.767273 324.409719,182.318954 320.012239,180.33639 C319.963483,180.347257 319.871389,180.410911 319.772524,180.491641 C319.710225,180.460591 319.646572,180.429541 319.582919,180.39849 L319.340495,180.286709 C319.297157,180.212188 319.247047,180.129905 319.180685,180.032096 C311.547732,176.748523 303.396073,174.831165 295.06158,174.897923 C294.397963,174.778379 293.72622,174.694543 293.050413,174.647968 C291.224789,173.932257 289.628044,173.843764 287.727931,174.242761 C285.81563,174.646415 284.109185,176.042128 282.245639,176.613454 L291.37241,157.404162 L293.057185,153.848898 C293.107295,153.7573 293.334821,153.453006 293.592142,153.199946 C293.856235,152.934466 294.179917,152.661223 294.541521,152.405057 C294.73248,152.268436 294.936983,152.138024 295.146903,152.01227 C296.541853,151.181674 298.334975,150.590165 300.245922,150.278109 C302.457528,149.910163 304.846551,149.869797 307.273494,150.049889 C308.546556,150.146145 309.830452,150.304502 311.12112,150.507882 C314.765599,151.085418 318.461541,152.054188 322.123625,153.237206 C327.100755,154.858034 331.965477,156.820415 336.469949,159.31531 C336.740813,159.465904 337.00626,159.624261 337.274416,159.779513 L337.27577,159.782618 C341.457914,162.189019 345.302832,165.093778 348.345991,168.645937 C349.967114,170.533798 351.35123,172.597093 352.492922,174.849795 C352.52678,174.916553 352.559284,174.981759 352.593142,175.046965 C353.26624,176.394549 353.849952,177.805787 354.387618,179.311729 C354.399807,179.356752 354.414704,179.39867 354.428247,179.443693 C354.435019,179.456113 354.441791,179.471638 354.448562,179.484058 C354.753284,180.34881 355.043109,181.246165 355.327517,182.18078 C355.34106,182.228908 355.354603,182.277036 355.369501,182.323611 L356.385241,185.680153 L356.389304,185.704993 C356.393367,185.720519 356.389304,185.691021 356.398785,185.760884 C356.412328,185.864903 356.427225,186.044995 356.433997,186.260794 C356.448894,186.697052 356.427225,187.273036 356.381178,187.875412 C356.283667,189.098795 356.085936,190.468115 355.842159,191.851408 C355.346477,194.635071 354.669317,197.519647 353.925794,200.394909 L353.925794,200.394909 Z M318.33288,150.644503 C320.908799,151.627246 323.047272,152.15355 325.062502,152.532364 C323.045918,152.15355 320.903382,151.642771 318.324754,150.658476 C318.326109,150.653818 318.330172,150.649161 318.33288,150.644503 L318.33288,150.644503 Z M321.757959,150.38989 C323.681095,150.639845 334.548167,153.552367 334.923314,153.713829 L334.584734,154.781961 L334.664639,154.533558 L334.927377,153.715382 C335.389201,153.914104 339.609265,154.629814 340.687305,155.281871 C344.73808,157.731743 347.904482,160.305816 350.411331,162.901624 C350.414039,162.901624 350.415394,162.900072 350.419457,162.898519 C350.789186,162.741715 351.114224,162.538335 351.263199,162.131576 C351.236112,161.970114 351.227986,161.886278 351.21038,161.835045 C351.2009,161.8071 351.190066,161.790022 351.173814,161.774497 L351.167042,161.76984 L351.162979,161.766734 L350.984209,161.524542 C350.984209,161.524542 348.041269,157.554756 346.756018,155.84854 L345.553381,154.247895 L345.432846,154.087986 C345.393571,154.0352 345.344815,153.966889 345.34617,153.980862 C345.30554,153.959127 345.263556,153.935839 345.218864,153.907894 C345.069888,153.79456 345.631932,149.708335 345.908213,148.738012 C349.002837,137.890576 353.944755,125.808889 351.817116,121.99125 C351.53,121.47892 351.202254,121.315905 350.896178,121.194809 L350.26371,123.135455 C349.117954,126.650354 347.958655,130.210275 346.849466,133.610287 L345.878418,136.59112 C345.656309,137.268017 345.438264,137.937152 345.224281,138.593866 C345.224281,138.593866 340.153703,154.148534 340.141514,154.187347 C340.129325,154.224607 340.11849,154.255657 340.113073,154.274288 C340.106301,154.29447 340.102238,154.306891 340.102238,154.306891 L336.983237,152.954648 C336.901978,152.84442 336.792278,152.752821 336.647365,152.698483 C336.483492,152.637935 336.319619,152.571177 336.157101,152.507523 C335.944472,152.380217 335.708821,152.248253 335.446082,152.108527 C335.018117,151.880307 334.527853,151.638114 333.982061,151.386606 C332.631803,150.765599 328.025757,149.096644 327.543618,148.96468 C327.268691,148.879291 317.957733,145.850331 317.957733,145.850331 L312.132798,144.035438 C312.132798,144.035438 316.849899,140.505015 321.170183,133.46435 C321.189144,133.431748 321.208104,133.405355 321.228419,133.372752 C319.306637,135.819519 317.548728,137.656146 317.490493,137.850211 C318.202866,135.647189 317.898143,134.58061 317.65572,133.521794 C317.39569,132.462977 314.179177,134.372573 314.179177,134.372573 C314.179177,134.372573 313.722771,135.082073 313.699748,135.137964 C313.679433,135.178329 313.622551,135.581984 313.6063,135.67203 C313.573796,135.852122 313.518269,136.057054 313.439718,136.274406 C313.361168,136.491758 305.844685,141.365109 305.4262,141.594882 C305.217635,141.709768 304.467341,142.082372 304.296696,142.192601 C303.635787,142.628858 308.237771,129.53493 307.301935,130.278586 C310.029538,127.95602 303.692669,102.066248 303.692669,102.066248 L307.258596,91.5681279 C307.39132,91.6550689 307.526752,91.7420098 307.659476,91.8305033 L308.765956,92.583474 L309.839933,93.3286822 L311.058822,94.184119 C312.510654,95.2149903 313.955714,96.2691493 315.387232,97.340386 C318.252975,99.4875169 321.076735,101.707616 323.842259,104.003789 L325.903536,105.741055 L326.415469,106.180418 L326.697168,106.42261 L327.087212,106.742429 C327.455588,107.037407 327.811774,107.29202 328.161189,107.534212 C328.177441,107.54508 328.192338,107.555948 328.20859,107.566815 C328.329125,107.649099 328.451014,107.737592 328.56884,107.815218 C329.055041,108.133484 329.533116,108.423804 330.007129,108.695495 C330.126309,108.763806 331.037767,115.195883 331.104129,116.737533 C331.166428,118.272972 329.824295,116.156891 329.764705,114.467753 C329.763351,114.413415 329.760642,114.357524 329.759288,114.301634 C329.645525,110.979247 329.084836,108.034123 328.21807,108.65513 C328.201819,108.664445 328.188275,108.68618 328.174732,108.703258 C328.170669,108.707915 328.166606,108.71102 328.163898,108.71723 C327.735932,109.260611 327.511115,116.26712 327.4908,116.496893 C327.484028,116.541916 327.482674,116.568308 327.488091,116.537258 C327.348596,118.102195 326.286808,124.080938 326.049802,124.857196 C325.789773,125.695556 323.724433,132.130738 322.888817,134.324445 C322.343025,135.743445 319.159016,141.849494 318.917947,142.113422 L318.85294,142.181733 L318.836688,142.198811 C318.839397,142.201916 318.858357,142.203468 318.867837,142.206573 L318.939616,142.218994 L319.222669,142.268674 L329.371952,144.553979 C329.851382,144.290051 329.840547,144.164297 329.576454,143.669044 L322.352506,141.351137 L322.237388,141.310771 L322.179152,141.292141 C322.166964,141.284378 322.123625,141.282826 322.157483,141.264196 C322.225199,141.21141 322.286144,141.152414 322.343025,141.090314 C322.378238,141.051501 323.984463,138.828297 324.333877,138.300441 C324.539734,137.989937 331.641794,122.443033 332.453033,117.527764 C332.509914,117.176895 332.573567,116.827579 332.625031,116.475157 C332.924336,114.427388 333.103107,112.36254 333.174886,110.300797 C333.483671,110.440524 333.792456,110.577146 334.101241,110.710662 C337.725405,112.242996 341.340088,113.351493 345.099683,114.137067 C345.943425,114.309396 346.796648,114.461543 347.657996,114.591954 L337.201282,146.680927 L337.151173,146.848599 L337.023866,146.797366 L330.575943,143.984205 C330.479787,144.033886 330.07349,144.575714 330.07349,144.577267 C330.244135,144.721651 330.230592,144.841195 330.279347,144.952976 C332.228215,145.814623 338.118158,149.89619 338.458093,150.150803 C338.754689,149.781304 339.045868,149.048516 339.295063,148.27381 L340.462488,144.324207 C343.884857,141.335611 344.234272,132.776585 346.871135,128.12214 C347.284203,125.046604 348.547785,121.862391 349.90346,118.906399 C350.527802,117.543289 351.169751,116.228307 351.75888,114.997161 C352.096106,115.011134 352.43875,115.017344 352.782747,115.018897 C355.039046,116.638172 357.753106,117.325937 360.173278,115.552962 C360.2586,115.489309 360.326316,115.416341 360.376426,115.33561 C361.068484,115.060814 366.09437,112.735144 367.814357,112.312859 C371.25027,111.466738 374.644199,110.615958 378.006978,109.861435 C381.353506,109.116227 384.724411,108.42691 387.827161,108.124169 C388.567975,108.054305 389.291182,108.012388 389.937193,108.01394 C390.539866,108.012388 391.183169,108.068278 391.903668,108.162982 C393.332476,108.350836 394.892654,108.678417 396.46773,109.046364 C397.429298,109.273031 398.404409,109.521434 399.386292,109.774494 C398.847272,111.372034 398.310961,112.971127 397.778713,114.573324 C395.92871,114.081176 394.006928,113.720992 391.94836,113.579713 C390.129507,113.483457 385.343336,114.402547 385.343336,114.402547 L383.590844,115.029764 C382.814818,115.326295 382.04421,115.646113 381.279018,115.986115 C378.218252,117.347672 375.249581,119.081833 372.478639,121.187046 C367.165638,125.19875 362.658457,130.599957 359.303803,136.682718 C357.619028,139.724099 356.203762,142.928494 355.0404,146.22604 C354.933409,146.524123 354.654419,147.328327 354.42283,148.062667 C354.18447,148.801665 353.959652,149.543769 353.748378,150.285872 C353.324476,151.77163 352.957455,153.249626 352.640543,154.702782 C352.016201,157.602884 351.584173,160.405177 351.402694,162.915597 C352.645961,163.615782 355.193439,165.132591 355.193439,165.132591 L355.307202,165.200902 C355.336997,165.219532 355.339705,165.213322 355.358666,165.219532 C355.358666,165.219532 355.941024,168.599362 355.926127,170.210874 C356.056141,170.437542 356.182093,170.664209 356.306691,170.889324 C356.845711,171.87362 355.817781,173.208784 355.732459,173.118738 C355.418256,172.78029 355.041755,172.345585 354.570451,171.788231 C353.021108,169.971787 351.52052,168.237625 349.842516,166.447573 C348.485486,165.005285 347.003859,163.527289 345.290643,162.0229 C345.031967,161.796232 344.767875,161.568012 344.49701,161.339792 C344.343972,161.209381 344.193643,161.082075 344.036541,160.951663 C341.367174,158.779692 339.854398,157.672747 338.261716,156.671374 C337.222952,156.041052 336.12866,155.461963 334.560356,154.859587 L334.584734,154.781961 L334.560356,154.859587 C333.708488,154.532005 332.717125,154.196662 331.514488,153.841135 C330.678872,153.598943 329.871696,153.420403 329.06723,153.260494 C327.82938,153.012091 326.605074,152.819579 325.337429,152.582044 C323.242295,152.198573 321.029334,151.662954 318.336943,150.63674 C318.564469,150.160118 319.882224,150.164775 321.753896,150.411625 C323.677032,150.660028 323.67974,150.644503 321.756604,150.394548 C319.871389,150.147698 318.546863,150.15546 318.33288,150.635188 C318.546863,150.15546 319.872744,150.144593 321.757959,150.38989 L321.757959,150.38989 Z M309.112662,86.1048208 C312.643377,72.1337207 320.063703,59.4900227 329.166095,48.9748253 C331.843588,46.0141755 334.48316,43.4137096 336.748939,41.3488621 C340.351433,38.0575261 342.963919,36.0501217 343.210405,35.7784312 C340.855241,38.2609058 339.529361,40.0664831 338.649052,41.4699584 C337.771452,42.8765387 337.344841,43.8980949 336.89656,44.9351762 C336.450989,45.9753626 335.981039,47.0310741 335.085833,48.5556458 C334.196044,50.0833224 332.864746,52.0674391 330.852225,55.0808745 C335.963433,49.3086165 341.922446,43.1435717 348.429959,37.7532328 C351.677621,35.0580634 355.048526,32.555406 358.447872,30.3865399 C359.298386,29.8431589 360.1489,29.3215132 360.999414,28.8247078 L362.276538,28.0934723 L362.913069,27.741051 L363.498136,27.4289951 C365.074566,26.6216862 366.793199,25.9401313 368.488809,25.3517274 C373.247894,23.713822 378.483699,22.4997537 383.592199,21.4409372 C388.710178,20.3867782 393.737418,19.5018435 398.279811,18.6572743 C403.656466,17.6621109 408.357315,16.7135231 411.772913,15.6671266 C412.609883,15.4109613 413.366949,15.148586 414.041401,14.8768955 C415.264353,14.3847476 416.20696,13.8677595 416.806925,13.3088534 C417.421786,12.7421847 417.420432,12.3292152 417.367614,11.9628212 C421.366924,11.4520431 425.341856,10.9738679 429.209798,10.529848 C440.288144,9.25833664 450.498371,8.26783083 457.976933,7.59093344 C458.004019,7.60645861 458.029751,7.62353629 458.059546,7.63440391 C461.411491,8.91678291 464.813546,8.1374194 468.134341,7.03357985 C468.716699,6.97924176 469.320727,6.92335115 469.946423,6.86280299 L469.758172,7.93248717 C469.73244,7.98993029 469.709417,8.05047845 469.693165,8.12034172 C469.496788,8.96491094 468.820982,9.16518563 468.13705,8.99285624 C468.011098,8.96180591 467.898689,8.96956849 467.79847,9.00061883 C464.302967,8.17312729 444.829183,14.7464841 442.503814,15.4016462 C437.55377,16.8066741 433.210462,18.2225695 429.170522,19.590337 L423.296831,21.6101615 C423.296831,21.6101615 413.442791,25.3936453 412.590923,25.8578479 C410.887187,26.7909106 409.183451,27.8047042 407.462109,28.9038862 C404.035676,31.1115653 400.469749,33.6204327 396.957994,36.8356953 C395.190605,38.4704956 393.566774,40.2496801 392.293712,42.1468558 C391.520395,43.3003759 390.897407,44.5004715 390.48163,45.6803844 C390.30286,45.5996535 390.128153,45.3590134 390.006264,44.9538064 L389.962925,44.7938972 C389.960217,44.7706094 389.953445,44.7907921 389.954799,44.7178239 L389.953445,44.5827549 L389.949382,44.3576399 C389.949382,44.0611092 389.965634,43.7630259 389.998138,43.4664952 C390.063145,42.8734337 390.195869,42.2834773 390.392245,41.712151 C390.975958,39.9888572 392.193492,38.2422756 393.660222,36.720809 C395.125598,35.1884748 396.809019,33.8533102 398.370551,32.6532146 C400.907194,30.7156735 403.116092,29.0855307 404.066826,27.3917347 C395.970694,32.2650854 387.374818,39.5339697 386.527013,47.6800262 C386.375329,49.123867 386.652964,50.682594 387.270535,52.3251569 C387.424928,52.7350214 387.599635,53.1479909 387.794657,53.565618 C388.085836,53.5392252 388.366181,53.4196814 388.619439,53.2333793 C389.22482,52.7862545 389.673101,52.0301787 390.02387,51.2523677 C390.149822,50.9729147 390.260876,50.685699 390.367867,50.3938258 C390.663109,51.2057922 391.095138,52.0845168 391.615197,52.9585838 C391.61926,52.9647939 391.621969,52.9694515 391.624677,52.9756615 C391.638221,52.9989493 391.654472,53.0206845 391.668016,53.0439723 C391.535292,53.2364844 391.40934,53.4243389 391.291514,53.6075359 C391.417466,53.427444 391.548835,53.250457 391.685622,53.0719176 C391.548835,53.250457 391.508206,53.4522842 391.3809,53.6308237 C391.302349,53.7410524 391.176397,53.8388609 391.100555,53.9506422 C390.580496,54.7051654 390.118672,55.4658987 389.788218,56.1800565 C389.743525,56.2763126 389.693415,56.3772262 389.652786,56.4734822 C389.568818,56.4796923 389.487559,56.4765873 389.406299,56.4703772 C389.479433,56.586816 389.64466,56.7265425 389.720502,56.8429813 L389.811241,56.869374 C389.950736,57.1069091 390.103775,57.3506543 390.264939,57.5943995 C390.308277,57.6611577 390.344844,57.7263634 390.389536,57.7946741 C390.53174,58.007369 390.686133,58.2231688 390.840525,58.4374162 C390.909596,58.5367772 390.973249,58.6330333 391.045028,58.7323944 C391.260365,59.0258201 391.486537,59.3223508 391.718126,59.6188816 C391.734377,59.6390643 391.747921,59.659247 391.764172,59.6794297 C392.013368,59.9976957 392.269334,60.3175142 392.532073,60.6357802 L392.494152,60.6761456 C394.107148,62.6416321 398.205324,66.8287703 398.255434,66.8675832 C398.256788,66.8691357 398.256788,66.8691357 398.258142,66.8691357 C398.260851,66.8706883 398.262205,66.8722408 398.26356,66.8737933 C398.277103,66.8846609 398.251371,66.8877659 398.254079,66.890871 C398.258142,66.893976 398.313669,66.9110537 398.312315,66.9126062 L398.312315,66.9141587 L398.270331,66.9343414 L398.298772,66.980917 L398.297418,66.9824695 L398.315024,66.9948896 C398.878421,67.5506907 404.385091,71.1665027 406.629201,71.8604777 C408.163647,72.7221246 409.501716,73.4518076 410.138247,73.7498909 C410.938651,74.1256 405.499697,91.9547047 403.763458,96.9755445 C403.483113,97.7875109 403.205477,98.5994772 402.925133,99.4114436 C402.549986,100.502863 402.174839,101.59273 401.799692,102.684149 C401.612796,103.230635 401.425899,103.778674 401.239003,104.32516 C400.913966,105.273748 400.588929,106.222335 400.266601,107.172476 C398.676628,106.725351 397.043316,106.299961 395.400525,105.94754 C393.402901,105.526808 391.393088,105.182149 389.590487,105.248907 C387.682249,105.312561 385.643995,105.633932 383.677521,105.997221 C381.107019,105.770553 377.924365,106.116764 374.431571,106.802977 C370.933359,107.481427 367.125008,108.502983 363.187996,109.527644 C361.216105,110.035317 359.217127,110.547648 357.157204,110.95596 C356.173967,111.148472 355.152809,111.319249 354.092376,111.392217 C354.046329,111.395322 354.000282,111.401532 353.952881,111.404637 C353.745669,111.417057 353.541167,111.423267 353.33531,111.429477 C353.552002,110.895411 353.802551,110.275957 354.076124,109.589745 C354.128942,109.460886 354.179052,109.332027 354.230516,109.203168 C353.512726,109.249744 352.748889,109.254401 351.948485,109.221798 C351.483953,109.201615 351.005878,109.165908 350.519677,109.122437 C350.357158,108.71723 349.95357,108.45175 349.543211,108.780883 C347.492769,110.435866 344.648694,110.052395 342.430316,109.037049 C342.032146,108.853852 341.669188,109.080519 341.486355,109.4081 C340.824092,109.175223 340.180789,108.928373 339.559156,108.66755 C337.503296,108.159877 335.393264,107.482979 333.272397,106.503341 C333.243956,106.489368 333.215515,106.478501 333.187075,106.466081 C333.162697,105.626169 333.115296,104.789362 333.05706,103.955661 C332.056216,103.4247 331.17049,102.881319 330.429677,102.337938 C330.431031,102.382961 330.43374,102.423326 330.436448,102.466797 C330.479787,103.493011 330.471661,104.301872 330.448637,105.000505 C330.336229,104.932194 330.225174,104.859226 330.11412,104.786257 C329.644171,104.481964 329.174221,104.149725 328.704272,103.763149 L328.153063,103.284973 L327.918765,103.083146 L326.843434,102.151636 L323.17187,98.9829489 C320.712423,96.8777359 318.239432,94.7927057 315.805717,92.805484 C314.589537,91.8103206 313.382837,90.8399975 312.192388,89.9038298 L311.122475,89.0841008 L310.036309,88.2690294 L308.70772,87.2987063 L309.112662,86.1048208 L309.112662,86.1048208 Z M469.154145,11.8029119 C469.170397,11.8044644 469.181232,11.806017 469.196129,11.8075695 C469.212381,11.8106745 469.190712,11.8168846 469.151437,11.812227 L468.83588,13.0899485 C468.567724,13.1116837 456.116096,15.8984517 453.262541,16.3843895 C453.278793,15.8642963 469.081012,11.8479349 469.091846,11.7951493 C469.091846,11.7951493 469.135185,11.7998069 469.154145,11.8029119 L469.154145,11.8029119 Z M409.293151,60.938521 C412.781882,60.3035415 413.128588,60.8205297 416.531997,58.9621669 C418.644738,57.8086468 420.104697,56.0216998 423.154628,55.7965848 C423.36861,57.4484629 415.952348,59.9029922 414.568232,61.6604414 L414.566877,61.6604414 C414.566877,61.6604414 414.566877,61.6604414 414.566877,61.6619939 C414.321745,61.9709447 414.262155,62.2597129 414.468012,62.5189832 C414.48291,62.5360609 414.505933,62.5500336 414.527602,62.5640062 L404.332273,65.2622807 C404.23747,65.1737872 404.139959,65.0852938 404.046511,64.9952478 C404.045157,64.9952478 404.043802,64.9936953 404.042448,64.9936953 C403.472279,64.4565244 402.908881,63.9162485 402.350901,63.3744201 C404.329564,62.0019951 406.52221,61.4415365 409.293151,60.938521 L409.293151,60.938521 Z M654.801778,178.755928 L655.588639,179.072641 L655.566969,179.476295 L655.450498,181.300503 L655.386845,182.169912 C654.850533,181.951007 654.311514,181.73055 653.77114,181.510093 C653.930949,181.08315 654.372458,179.901685 654.801778,178.755928 L654.801778,178.755928 Z M1092.64838,339.68052 C1093.30794,334.755936 1093.46098,329.600027 1092.90841,324.513982 C1092.36939,319.426384 1091.14102,314.458329 1089.43052,309.842696 C1089.00391,308.687624 1086.18421,302.657648 1085.86188,302.244678 C1085.53955,301.831709 1084.51298,300.791523 1084.364,300.658006 C1084.364,300.658006 1080.38636,297.750142 1079.42344,297.180368 C1075.588,294.941639 1071.84601,293.181084 1068.07423,291.462448 C1060.54556,288.068646 1053.00063,285.062973 1045.4354,282.139584 C1037.87287,279.22551 937.578614,244.817076 917.812297,238.417601 L888.172979,228.838572 L873.378375,224.027322 C868.463543,222.411152 917.481843,240.319435 922.525335,242.15451 C938.373601,248.215536 1011.39047,273.749782 1027.80349,279.590351 C1026.67398,279.391629 1025.70564,279.272085 1024.92691,279.245692 C1023.37486,279.194459 1023.18796,279.559301 1023.12295,279.92259 C1055.52102,291.628568 1080.20082,301.870522 1082.53161,306.776475 C1093.04385,328.899842 1079.92047,367.270299 1079.64826,368.124183 C1079.58596,368.318247 1076.07962,379.688882 1074.38943,384.372825 C1074.37317,384.422506 1074.35557,384.470634 1074.33661,384.518762 C1074.08064,385.228262 1073.81519,385.940867 1073.54298,386.650368 C1073.49693,386.769911 1073.45088,386.891008 1073.40348,387.012104 C1073.15158,387.664161 1072.8929,388.317771 1072.62881,388.97138 C1072.60172,389.036586 1072.5489,389.163893 1072.5489,389.160788 C1071.80674,386.44854 1066.15786,372.083101 1066.15786,372.083101 C1065.63103,370.622183 1060.29907,357.430446 1057.44822,351.687686 C1054.59602,345.943373 1051.11135,339.666547 1047.03891,333.411456 C1042.97324,327.154813 1038.31979,320.924562 1033.27088,315.233035 C1029.74423,311.246172 1026.02526,307.540314 1022.24806,304.210165 C1020.62694,302.780297 1018.99498,301.414082 1017.36167,300.137913 C1011.92407,295.880911 1006.50679,292.547658 1001.78698,289.812123 C997.054981,287.092113 992.979829,285.01795 990.013865,283.558584 C987.045194,282.100771 985.181648,281.259307 984.815981,281.114923 L999.408791,286.863893 C1002.65916,288.116774 1004.74075,288.810749 1006.89006,289.585455 C1009.04072,290.372581 1011.26994,291.221808 1014.74919,293.089486 C1016.49762,294.038074 1018.54941,295.264562 1021.0048,296.953701 C1023.45747,298.649049 1026.31644,300.805495 1029.61286,303.688519 C1026.18778,300.32111 1022.46746,297.090322 1018.46951,294.120357 C1014.44311,291.133315 1010.26097,288.500246 1005.94204,286.020876 C997.308239,281.08853 988.215327,276.909154 979.049282,273.183114 C960.700939,265.763635 942.068189,260.138866 925.400558,255.517023 C919.902015,254.012634 858.189663,235.435216 849.494922,233.458862 C832.10273,229.485971 818.524306,227.903957 813.383303,228.691083 C811.810936,228.931723 811.676858,229.327615 811.668732,229.698666 C811.664669,229.916019 811.701236,230.125608 811.521111,230.29328 C811.275979,230.5215 810.629968,230.668989 808.934358,230.670542 C807.240102,230.676752 804.496248,230.524605 800.05272,230.252915 C791.792715,229.759214 783.539482,229.287249 774.728269,229.08387 C765.919764,228.900673 756.542445,228.942591 746.141258,230.001407 C740.050876,230.636387 735.415035,231.418855 731.49563,232.219954 C727.577579,233.033473 724.373255,233.871832 721.182474,234.893388 C718.240889,235.851291 715.296594,236.961341 711.908083,238.585273 C711.627739,238.720342 711.350103,238.852306 711.062987,238.993585 C709.815657,239.61304 708.499257,240.317882 707.117849,241.118981 C706.642482,241.395329 706.157635,241.68565 705.666017,241.985285 C705.438491,242.126564 705.215028,242.255423 704.986148,242.40136 C702.797565,243.7831 700.428857,245.434978 697.912528,247.541744 C697.185258,248.148778 696.479657,248.768232 695.797079,249.397001 C695.33661,249.822391 694.886975,250.255543 694.442758,250.693353 C693.389096,251.730434 692.386898,252.800119 691.429393,253.897748 C690.987884,254.405421 690.549084,254.919304 690.125182,255.439397 C689.117567,256.676753 688.168188,257.956027 687.258084,259.272562 C686.878874,259.066077 686.501018,258.861145 686.123163,258.656212 L686.272138,258.441965 C686.674372,257.876849 687.088794,257.321048 687.508633,256.774562 C688.383525,255.635014 689.292274,254.537385 690.225402,253.481673 C691.089458,252.502035 691.97383,251.558105 692.871745,250.657645 C692.997697,250.533444 693.122295,250.417005 693.246892,250.294356 C693.699235,249.848784 694.154287,249.410974 694.610693,248.985584 C697.812309,246.004752 701.085703,243.551775 703.990722,241.617339 C704.745078,241.114323 705.470995,240.650121 706.169824,240.213864 C706.664152,239.901808 707.148999,239.602172 707.609468,239.324271 C709.455407,238.204907 711.006105,237.333945 712.105814,236.680335 C712.254789,236.594947 712.388867,236.512663 712.518882,236.433485 C713.961234,235.56097 714.39868,235.138686 713.428986,235.253572 C713.359915,235.259782 713.269176,235.279965 713.167602,235.306358 C713.064673,235.331198 712.945493,235.365353 712.811415,235.405719 C712.086853,235.630834 710.895051,236.091931 709.324038,236.809194 C708.952954,236.978418 708.55343,237.167825 708.14307,237.369653 C707.709687,237.579242 707.258699,237.804357 706.784686,238.049655 C705.097202,238.923722 703.171357,240.016694 701.087057,241.373594 C698.341848,243.162093 690.841618,249.629879 690.788799,249.684217 C689.835357,250.632805 683.578393,258.261873 683.330553,258.620505 C683.315655,258.643792 683.298049,258.66708 683.281797,258.688815 C682.526086,259.794207 681.785272,260.947728 681.070191,262.147823 C681.044459,262.244079 680.978097,262.174216 680.925278,262.152481 L680.755988,262.063987 L670.092064,256.496661 L659.24666,250.902943 L649.221975,245.796715 L645.05202,243.694607 C645.05202,243.694607 642.225552,241.559896 640.882065,240.864368 C641.124489,240.361353 646.035257,228.406972 646.414467,227.585691 C648.001732,224.132893 654.675826,207.763154 655.931282,203.006242 C657.197572,198.250883 657.951929,193.537441 658.385312,188.879891 C658.463862,188.053952 658.522098,187.229565 658.583043,186.408284 C658.583043,186.408284 658.829529,182.475758 658.853907,181.93393 L658.920269,180.407806 L658.943292,179.859767 L658.96767,179.172002 L659.021843,177.551174 L659.142377,172.853258 C659.158629,172.812893 659.208739,172.819103 659.261557,172.828418 L659.410533,172.843943 L659.708483,172.876546 L660.307093,172.941752 L661.509731,173.072163 L663.938028,173.342301 L668.296234,173.842211 C670.723177,174.118559 673.146058,174.410433 675.578418,174.720936 C680.44314,175.345048 685.345783,176.039023 690.383857,176.829254 C700.465424,178.409716 711.103616,180.359678 723.101547,182.955486 C745.233863,187.755868 767.268668,193.195888 789.234403,199.114082 C800.216593,202.076285 811.181177,205.165793 822.1268,208.404344 C833.076486,211.658419 839.18312,212.485911 831.208878,209.972386 C823.235989,207.471281 815.249557,205.057117 807.249582,202.711264 C791.248278,198.024215 775.192801,193.602647 759.073671,189.465189 C742.954541,185.332389 726.771757,181.480595 710.503652,178.044875 C702.366891,176.327791 694.211169,174.719383 686.025652,173.252255 C681.931539,172.519467 677.832009,171.823939 673.722999,171.171882 L667.552711,170.227952 L662.031144,169.448588 L656.061297,168.645937 L655.844605,173.637279 C655.121398,175.197559 653.228057,179.443693 652.531936,181.007077 C645.302569,178.080583 637.646592,175.095093 630.460564,172.285037 C615.365301,163.446558 583.625431,153.491819 563.391873,144.105302 C543.610658,137.297515 519.750229,126.234279 502.144054,118.564845 C497.837313,116.687852 471.564837,105.626169 450.245113,96.7100641 C443.17962,93.7556243 436.659918,91.0371671 431.662473,88.967662 L431.998345,87.7054658 C439.858825,89.3464762 438.849855,87.4306703 455.601454,92.8831098 C449.90247,90.4223704 443.844592,87.9693936 437.606589,85.5381521 C436.089749,84.9481957 434.56072,84.3582392 433.02492,83.7698353 C433.030337,83.7481 433.035755,83.7232598 433.041172,83.7030771 L429.089263,82.0884594 C428.770998,81.9518379 422.965023,76.5040559 422.347452,76.3348316 L425.2457,76.2401281 C426.778791,76.1500821 434.086708,74.8087074 435.260904,74.7590269 C436.429684,74.7093463 438.10227,74.7807621 440.445246,75.0027721 C440.897589,74.8692556 451.40983,69.2056737 452.057195,67.3892289 C452.214296,66.9405515 452.395775,66.3956181 452.592152,65.7326933 C452.592152,65.7326933 446.268827,55.7732971 445.94379,55.7515618 C445.435919,55.718959 443.11055,55.0389566 443.11055,55.0389566 L435.222983,57.1069091 L435.202669,57.1115667 C436.130379,58.3038997 437.209773,59.2136746 438.266143,60.0070108 C439.648905,61.0363295 441.019478,61.8389808 442.238367,62.6819975 C443.462673,63.5250142 444.53665,64.3990813 445.403415,65.5386287 C446.110371,66.4608238 446.662934,67.5615583 447.141009,68.9246682 C446.815972,69.0674997 424.086401,59.8765994 424.087755,59.6437218 C424.087755,59.6281967 424.085046,59.6157765 424.083692,59.6002514 C425.390612,59.0801582 426.505218,58.6376909 427.153938,58.424996 C429.086554,57.7884641 430.713094,57.0696487 432.213682,56.3259931 C435.678035,54.6089094 438.457102,52.7412315 442.686647,51.3719115 C442.686647,51.3719115 399.464842,60.4618983 399.412024,60.4060077 C398.157923,59.0817107 396.692547,55.2314687 397.140827,54.7253481 C397.333141,54.5079958 406.099662,48.2684301 406.863499,47.9268764 C408.044467,47.937744 414.813364,48.2296172 414.813364,48.2296172 L423.279225,48.6953723 C423.279225,48.6953723 441.628922,49.8551024 451.914991,50.54442 C452.06803,50.0864275 452.260343,49.6455127 452.487869,49.2340957 C442.197737,47.8523556 419.407221,44.7799245 417.33511,44.6634858 C417.350007,44.6138052 417.364905,44.5641247 417.382511,44.5097866 C419.533173,43.952433 421.700087,43.4292348 423.881898,42.9355344 C429.747463,41.6096849 435.710539,40.4825576 441.670906,39.4299511 C449.372931,38.0870239 457.141317,36.8496679 464.870427,35.8436369 C464.954395,35.7458284 465.126394,35.1543194 465.137229,35.0565109 C465.138583,35.0503008 465.138583,35.0440907 465.138583,35.0425382 C464.893451,35.0099353 464.84605,34.8981541 464.740413,34.8267383 C462.179391,35.1543194 409.929682,42.6001907 409.153656,42.7616525 C407.188536,40.3723289 404.261848,41.9248459 401.836259,44.1247624 C397.427943,46.5855017 394.522925,49.3722697 392.660733,51.7088077 C392.644481,51.6808624 392.626875,51.6529171 392.611977,51.6249718 C392.454876,51.3299936 392.30861,51.0381204 392.179949,50.7586673 C391.716771,49.7650565 391.514977,48.4469696 391.513623,48.4174717 C391.516332,48.4050516 391.513623,48.3879739 391.516332,48.3786588 L391.517686,48.3615811 L391.527166,48.2855078 C391.55019,48.0852331 392.946495,44.3949003 393.631781,43.4074995 C394.243934,42.5272224 397.805799,38.7390811 398.951555,37.7703105 C401.019603,36.0268339 403.281319,34.432399 405.631067,32.9761381 C407.980814,31.5214297 415.37947,27.927353 416.580753,27.4786756 C417.172591,27.2582182 420.198145,26.4928273 420.198145,26.4928273 C423.155982,25.7910897 425.924214,25.0272513 428.731722,24.2696231 L437.085175,21.9936332 C442.636537,20.4923493 448.178419,19.0221158 453.694569,17.7273166 C456.059214,17.1746206 458.42115,16.659185 460.749228,16.2182701 C460.808818,16.2570831 460.873826,16.2896859 460.952376,16.3098686 C462.195643,16.617267 463.368485,16.6809202 464.62665,16.4092297 C465.924089,16.1282242 466.952019,15.656259 468.172262,16.1235666 C469.354585,16.5769016 470.788811,16.6886828 471.94811,16.1080414 L468.78577,30.9640762 C468.987564,31.6238959 469.099972,31.6021606 469.557733,31.2016113 L476.743761,0.211820359 C476.743761,0.211820359 396.601808,9.05185189 391.387671,9.94920669 C386.173535,10.8496665 380.959398,11.8417249 375.722239,13.0557931 C373.101627,13.6659323 370.478307,14.331962 367.829255,15.1206407 C365.173431,15.9232919 362.524379,16.7911489 359.708745,18.1232084 L358.730926,18.6075937 L357.786964,19.0904265 C357.158559,19.4149026 356.535571,19.7486937 355.915292,20.0886949 C354.676088,20.7702499 353.450427,21.4781976 352.239664,22.2140906 C349.816784,23.6858767 347.453493,25.2632339 345.143022,26.9337422 C335.920095,33.6344053 327.512469,41.7897769 320.364362,51.3812266 C316.798435,56.181609 313.564316,61.356148 310.810981,66.9063961 C309.433636,69.6822965 308.180889,72.5529003 307.074409,75.5088926 C306.798127,76.2494432 306.529972,76.9930988 306.274005,77.7429645 L305.894795,78.8716443 L305.668623,79.5749345 L305.347649,80.6058057 C304.921038,82.0123861 304.543183,83.4127564 304.17887,84.8131267 L298.222566,102.291363 C298.620736,103.264791 299.033804,104.242876 299.422494,105.21941 L299.701485,105.955303 L299.924948,106.565442 L300.17008,107.264074 C300.493762,108.197137 300.801193,109.144172 301.088309,110.09897 C301.663896,112.007014 302.167703,113.94145 302.579417,115.875886 C303.40149,119.740101 303.871439,123.643128 303.738716,127.266703 C303.704858,128.17182 303.631724,129.05365 303.517961,129.907534 C303.46108,130.334476 303.394718,130.752103 303.316168,131.165073 L303.255223,131.469366 L303.180736,131.814025 L303.011445,132.512658 L302.789337,133.281153 C302.460237,134.307367 302.051232,135.318056 301.364591,136.421895 C301.225096,136.685823 300.974546,136.991669 300.76869,137.278885 L300.60888,137.497789 L300.52762,137.606466 L300.411149,137.73222 L299.95068,138.22592 L299.603973,138.596971 L299.547092,138.659072 L299.448226,138.738251 L297.865025,140.015972 L297.041598,140.727025 L296.218171,141.436525 C296.059715,141.560726 296.008251,141.656982 295.906677,141.767211 L295.634458,142.085477 L295.090021,142.723562 L294.953235,142.885023 C294.913959,142.934704 294.897707,142.975069 294.869267,143.023197 L294.712165,143.294888 C294.232736,144.054069 294.029588,144.667313 293.856235,145.237086 C293.800707,145.496357 293.712676,145.789783 293.681527,146.021108 L293.638189,146.438735 C295.080541,145.693526 296.906166,145.032154 299.203094,144.617632 C299.931719,144.487221 300.707745,144.380097 301.532527,144.304024 C301.53659,144.302471 301.540653,144.302471 301.544716,144.302471 C304.082713,144.069594 307.094724,144.122379 310.657943,144.611422 C312.8384,144.909505 315.224713,145.372155 317.835845,146.033528 C318.940971,146.312981 320.088081,146.629694 321.274466,146.985221 C321.274466,146.985221 317.831782,146.325401 317.478304,146.229145 L317.476949,146.227592 C317.459343,146.222935 317.237235,146.342479 317.231817,146.371976 C317.231817,146.371976 317.231817,146.373529 317.230463,146.375081 C315.357437,146.045948 313.585985,145.809965 312.529614,145.659371 C311.129246,145.462201 309.834515,145.365945 308.556036,145.322475 C306.915953,145.266584 305.386925,145.336448 303.925612,145.508777 C302.03498,145.733892 300.28926,146.142204 298.664075,146.72595 C298.589587,146.752343 298.519162,146.780288 298.444675,146.808234 C298.394565,146.826864 298.348518,146.848599 298.298408,146.867229 C297.823041,147.048874 297.358509,147.244491 296.906166,147.457186 C295.861984,147.952439 294.88281,148.536185 294.002501,149.21774 C293.9551,149.251895 293.913116,149.292261 293.868423,149.327969 C293.04635,149.981578 292.302828,150.726786 291.747556,151.526333 C291.459086,151.942407 291.213954,152.384875 291.150301,152.670538 L290.286244,154.811459 C289.688988,156.261509 289.04704,157.762793 288.344147,159.33394 L280.453873,177.113365 C280.380739,177.209621 280.333338,177.322954 280.306252,177.445603 L280.291354,177.479759 C279.845782,177.644325 279.398856,177.81355 278.954639,177.998299 C277.589483,178.56652 276.240579,179.24497 274.916053,180.016571 C274.400057,180.31776 273.888124,180.636026 273.380253,180.972922 C272.242623,181.656029 271.128017,182.435393 270.052686,183.32188 C268.614397,184.511108 267.249241,185.892848 266.026289,187.49815 C265.415491,188.302354 264.839904,189.160896 264.310365,190.090854 C263.778116,191.028574 263.298687,191.995792 262.859887,193.188125 L262.859887,193.192783 C262.635069,193.689588 262.418378,194.192604 262.220647,194.706487 C262.086569,195.052698 261.957909,195.403567 261.838729,195.757541 L261.769658,195.95471 L261.758824,195.988866 C262.238253,196.251241 262.689242,196.501196 263.125334,196.740284 C262.82332,197.696634 262.564645,198.666957 262.368268,199.648148 C261.654541,203.104051 261.647769,206.586346 262.10553,209.551654 C262.559227,212.527829 263.436827,215.000988 264.410584,216.749122 C265.38705,218.501914 266.455609,219.543653 267.441555,219.768768 C267.975158,219.885207 268.301549,219.712877 268.581893,219.52968 C268.745766,219.424109 268.894742,219.315433 269.059969,219.261095 C269.513666,219.098081 270.054041,219.348036 271.415133,220.8369 C272.692258,222.209324 273.850203,223.608142 275.059611,225.137371 C276.270375,226.660391 277.536665,228.310716 279.048087,230.089901 C280.830374,232.159406 281.797359,233.291191 282.868627,234.320509 C283.949375,235.329645 285.154721,236.250288 287.634483,237.479881 C289.179764,238.231299 290.662745,238.633401 292.202608,239.165915 C293.750597,239.695323 295.347342,240.358248 297.239329,241.567658 C296.831678,242.43862 293.01791,241.25405 289.508864,239.617697 C285.990337,238.038787 282.798202,236.039146 282.88217,237.371205 C282.883525,237.397598 282.898422,237.431753 282.909257,237.462804 C283.181475,238.296505 286.438618,240.774322 290.314685,242.741361 C290.586903,242.88264 290.86183,243.019262 291.136758,243.155883 C292.896021,244.020635 294.721646,244.789131 296.348185,245.394613 C298.232046,246.099455 299.849106,246.596261 300.784941,246.908317 C305.573821,248.496542 309.460723,248.738734 313.170208,248.656451 C315.028337,248.60677 316.855316,248.459281 318.763555,248.259006 C320.673147,248.054074 322.666708,247.799461 324.866126,247.448593 C329.315071,246.735987 333.631292,245.200548 337.228369,242.696338 C339.02149,241.448115 340.622298,239.959251 341.91432,238.265455 C342.216334,237.871116 342.500741,237.464356 342.767542,237.049834 C343.064139,236.593394 343.337712,236.122981 343.59097,235.643254 C343.623473,235.5796 343.654623,235.515947 343.688481,235.450742 C343.762968,235.304805 343.837456,235.154211 343.907881,235.003617 C344.269484,234.245988 344.582333,233.461967 344.835591,232.656211 C344.669009,232.044519 344.551183,232.066255 344.093423,232.320867 C344.07988,232.355023 344.069045,232.364338 344.056856,232.400046 C343.727756,233.305163 343.311979,233.986718 342.804109,234.960146 L342.544079,234.890283 L342.533245,234.939964 C342.52241,234.992749 342.626693,235.075032 342.599607,235.123161 C342.596898,235.127818 342.670031,235.152658 342.665968,235.157316 C342.470946,235.488002 342.301656,235.824898 342.082256,236.141612 C342.076839,236.149374 342.089027,236.161794 342.08361,236.169557 C340.973067,237.776412 339.599785,239.204728 337.982726,240.407928 C335.171155,242.506931 331.75962,243.925932 328.167961,244.734793 C324.568175,245.545207 320.782847,245.762559 316.990748,245.503289 C313.197295,245.240913 309.394361,244.50502 305.671332,243.365473 C298.227983,241.0693 291.064979,237.229926 284.951573,232.013469 C281.898933,229.403688 279.107677,226.439933 276.764702,223.165675 C274.427143,219.897627 272.537865,216.300445 271.435448,212.600797 C270.973625,211.059148 270.666194,209.508183 270.509092,207.977402 C270.984459,208.05658 271.518062,207.635848 271.295953,206.983791 C270.292401,204.009168 271.151041,200.95692 272.112609,198.081659 C273.136475,196.019916 274.482671,194.156896 276.252768,192.610589 C278.307274,190.801907 280.800579,189.413956 283.483489,188.420346 C283.866762,188.277514 284.260869,188.14555 284.650914,188.019796 C285.09784,187.875412 285.552892,187.743448 286.007944,187.620799 C286.101392,187.595959 286.197548,187.575776 286.290997,187.550936 C289.62669,186.681527 293.151988,186.35084 296.700309,186.448649 C296.946795,186.454859 297.193282,186.459517 297.439768,186.470384 C305.248784,186.829016 313.114681,189.212129 320.318315,193.060819 C323.916746,194.990597 327.344533,197.306953 330.491976,199.991254 C333.635355,202.677109 336.503807,205.73712 338.888767,209.126264 C341.331962,212.59614 343.275413,216.435514 344.297925,220.361829 C345.107809,223.443575 345.302832,226.528427 344.812567,229.383505 C344.678489,230.162869 344.495656,230.925155 344.25865,231.665705 C344.303343,231.772829 344.694741,232.185798 344.76652,232.244794 C344.770583,232.247899 344.773292,232.251004 344.776001,232.251004 C344.903307,232.039862 345.011652,232.052282 345.109164,231.987076 C345.747049,229.988987 346.042291,227.848066 346.105944,225.6792 C346.119487,225.187052 346.126259,224.696457 346.118133,224.204309 C346.088338,224.194994 346.074795,224.260199 346.074795,224.401478 C346.103235,222.996451 346.074795,222.651792 346.181786,221.821195 C346.042291,220.63352 345.925819,219.785846 345.761946,218.632325 C345.711837,217.998899 345.589948,217.311134 345.412532,216.592318 C345.198549,215.735329 344.904661,214.834869 344.52816,213.915779 C344.293862,213.344453 344.031124,212.770021 343.739945,212.19559 C342.598252,209.9196 341.048909,207.690186 339.462999,205.754197 C339.207032,204.714011 338.704579,203.667615 338.028773,202.636743 C336.789569,200.750435 334.957172,198.92157 332.918919,197.303848 C329.764705,194.765482 326.179817,192.72237 323.544308,190.534874 C320.616266,189.431034 317.528414,187.841257 314.418892,186.353945 C311.561275,184.976863 308.690114,183.702247 306.115549,182.854572 C305.897504,182.783156 305.676749,182.707083 305.462767,182.641877 C305.098454,182.531649 304.218146,182.286351 302.988422,182.017766 C302.308553,181.867171 301.523046,181.710367 300.654927,181.564431 C298.217149,181.146804 295.138777,180.850273 292.098326,180.927899 C291.020286,180.949634 289.950372,181.022602 288.917025,181.131278 C288.675956,181.157671 288.43895,181.185617 288.201944,181.215114 C286.594365,181.415389 285.096485,181.6995 283.843738,182.028633 C281.611817,182.603065 280.138316,183.247359 279.997466,183.356035 C280.570344,182.894938 281.055191,182.489731 281.473676,182.121784 C282.559842,181.721235 283.585063,180.909269 284.453183,180.198216 C284.794472,179.915658 285.146595,179.616022 285.494656,179.296203 C287.033165,179.131637 288.673248,178.97949 290.370212,178.889444 C293.709968,178.700037 297.250163,178.72643 300.535746,178.974832 C303.826747,180.597213 308.683342,181.368814 313.793196,182.447813 L315.713623,182.85923 L316.194407,182.966353 C316.378595,183.012929 316.612893,183.054847 316.814686,183.120053 L317.852096,183.554757 C319.08182,184.073298 320.299355,184.619784 321.47626,185.201978 C323.83007,186.364813 326.022716,187.67669 327.818546,189.134503 C331.674298,190.916793 335.656002,193.917808 339.010656,197.586406 C339.599785,198.227595 340.160474,198.895177 340.70762,199.56897 C339.507691,198.362664 338.235984,197.229327 336.92771,196.187588 C333.250728,193.245568 329.313716,190.977341 325.833111,189.055325 C320.985996,186.341525 315.5809,183.814028 310.88276,182.620142 C309.261637,182.197858 307.742089,181.937035 306.386414,181.836121 L306.362036,181.834569 C307.349336,182.048816 308.343408,182.289456 309.340188,182.562699 C312.166656,183.332747 315.024274,184.338778 317.877829,185.590107 C323.666197,188.128472 328.878979,191.427571 333.342822,195.212607 C335.995937,197.462204 338.376833,199.885683 340.463842,202.420943 C340.496346,202.647611 340.610109,202.855648 340.821383,202.976744 C340.821383,202.98606 340.820029,202.993822 340.820029,203.003137 C340.828154,203.322956 340.989319,203.624144 341.348214,203.703322 C341.409158,203.718848 341.467394,203.740583 341.528339,203.754555 C344.835591,208.051922 347.292329,212.636505 348.710304,217.245928 C347.668831,213.040159 345.656309,208.497495 342.11476,203.919122 C342.988297,204.206338 343.798181,204.625517 344.545766,205.165793 C345.386799,206.628264 346.115424,208.089183 346.724869,209.492658 C347.066158,210.301519 348.26744,212.8492 349.108474,216.50693 C349.1166,216.542638 349.123371,216.579898 349.131497,216.617158 C349.333291,215.993047 349.528313,215.368935 349.727399,214.744823 C350.340906,216.255422 350.8718,217.829674 351.240175,219.425662 C351.590945,220.928498 351.785967,222.443755 351.811699,223.881385 C351.764298,224.288145 351.735857,224.694904 351.729085,225.104769 C350.969311,227.351261 350.259647,229.397478 349.643431,231.145612 C349.49581,231.89082 349.315685,232.628266 349.097639,233.356396 C349.027215,233.587721 348.955436,233.820599 348.879594,234.048819 C348.573517,234.967909 348.20785,235.848186 347.8002,236.697413 C347.731129,236.824719 347.672894,236.953578 347.618721,237.082437 C347.578091,237.161615 347.538816,237.239241 347.498186,237.316867 C347.488706,237.333945 347.48058,237.34947 347.472454,237.3681 C347.469745,237.372758 347.467037,237.375863 347.465682,237.382073 L347.457556,237.377415 C347.415572,237.456593 347.365463,237.5839 347.334313,237.607188 L347.300455,237.588557 C347.30181,237.587005 347.319416,237.613398 347.319416,237.61495 L347.319416,237.616503 C346.640901,238.544908 346.388997,239.061896 345.919048,239.738793 C349.466015,242.21661 353.801197,244.065658 352.162468,240.302357 C354.650356,236.379147 355.743293,231.563239 356.113023,226.714729 C357.642051,221.166033 358.996373,215.60647 360.303292,210.643073 C361.458528,206.247898 362.71263,201.64158 363.66878,197.056997 C364.142793,194.760825 364.545026,192.472415 364.768489,190.154507 C364.876835,188.991672 364.943197,187.822627 364.910693,186.589928 C364.891732,185.972026 364.849748,185.338599 364.757655,184.663255 C364.710253,184.326358 364.649309,183.975489 364.561278,183.590465 C364.480019,183.222519 364.371673,182.86544 364.253847,182.520781 C363.416877,180.305339 362.579906,178.206337 361.658968,176.644504 C361.26486,175.966055 360.863981,175.396281 360.465811,174.932078 C360.467165,174.925868 360.469874,174.921211 360.471228,174.915001 C360.53759,174.692991 360.617495,174.506689 360.670313,174.255181 L360.820643,173.47737 C360.842312,173.343853 360.874816,173.225862 360.888359,173.079926 L360.98587,171.713711 C360.989933,171.067864 360.973681,170.394071 360.993996,169.771512 C361.006185,168.65991 361.075255,167.610408 361.160578,166.573327 C361.573646,166.217801 361.97317,165.899535 362.364569,165.603004 C363.037667,165.098436 363.69045,164.652864 364.337815,164.239894 C365.632546,163.418613 366.908317,162.727742 368.209819,162.098973 L369.229623,161.627008 L370.14379,161.228011 C370.755943,160.970293 371.376222,160.726548 372.000564,160.493671 C374.501995,159.565265 377.090103,158.84024 379.726966,158.298412 C382.512805,157.725533 385.352816,157.348271 388.219914,157.146444 C388.343157,157.346719 388.474526,157.545441 388.62621,157.7364 C389.010838,158.230101 389.421197,158.610468 389.827493,158.910103 C390.753849,159.585448 391.800739,160.01239 393.172666,160.138144 C394.529696,160.274766 396.169779,159.953395 397.746209,159.666179 C398.143025,159.596316 399.983547,159.383621 400.112208,159.380516 L400.208365,159.378963 L400.255766,159.378963 L400.372238,159.383621 C400.55778,159.396041 401.333806,159.48764 401.543725,159.577686 C401.748228,159.647549 401.959502,159.72828 402.173485,159.815221 L403.476342,160.332209 L406.109142,161.386368 L406.48158,160.515406 L406.840475,159.614946 L412.62749,161.581985 C418.516078,163.564549 424.059314,165.385652 429.018838,166.916433 C438.939241,169.977997 446.52073,171.87362 449.840171,171.566221 C450.996762,171.457545 451.157926,171.086494 451.226996,170.723205 C451.377326,169.939184 451.087501,169.207948 459.569614,171.351974 C471.084053,174.264496 482.399406,178.201679 496.69562,183.402611 C513.448572,189.497792 514.429101,190.4588 532.238424,195.648864 C543.292393,198.87189 552.109023,200.498927 566.365962,206.028993 C565.217498,207.674661 514.301795,190.376517 518.567906,193.979909 C518.611244,194.017169 518.676252,194.059087 518.75074,194.105663 C520.824205,195.370964 534.626092,199.944679 549.059092,204.599125 C562.162149,208.825076 575.778494,213.117785 581.60072,215.056879 C604.03505,222.529143 619.42691,226.674363 637.111635,231.996391 C637.77119,232.193561 638.434807,232.395388 639.101133,232.595663 L637.786087,235.321883 L633.826052,243.544012 L633.739376,256.080587 L633.694683,256.401958 C633.694683,256.401958 633.74073,256.490451 633.773234,256.454743 L640.310542,249.060105 L641.606627,247.592977 L643.707179,248.687501 L648.86308,251.398196 L658.904017,256.734197 L668.93141,262.124535 L682.712982,269.587484 L685.642379,264.8787 C685.657276,264.855413 688.004315,261.404167 688.004315,261.404167 C688.685538,261.828005 689.38166,262.267367 690.190189,262.784355 C695.170028,265.599068 698.653342,267.615788 703.251262,270.334245 C717.661239,279.160304 740.787627,291.577334 761.237876,302.027326 C771.312671,308.689176 786.951017,316.726557 803.694489,324.147588 C812.068257,327.845683 820.714243,331.390079 829.1002,334.380227 C837.490219,337.3859 845.628335,339.891662 852.871244,342.124181 C859.832455,343.710854 867.231111,345.320814 874.827498,346.950957 C882.421177,348.584204 890.209878,350.25316 897.910548,352.038555 C905.612572,353.820844 913.222503,355.731993 920.462703,357.758027 C927.705613,359.779404 934.57473,361.91101 940.833048,363.994488 C943.429281,364.867002 951.658137,367.526464 962.377588,371.752415 C967.736637,373.873153 973.720028,376.355628 979.928236,379.196734 C986.132381,382.04405 992.5478,385.260865 998.830496,388.625169 C1003.24017,390.980337 1007.57806,393.411579 1011.75478,395.81177 C1019.4866,400.259731 1026.64961,404.603674 1032.60185,408.17291 C1037.18622,410.922418 1041.06636,413.195303 1043.93887,414.719874 C1046.80055,416.258418 1045.76991,415.904445 1044.36684,415.311383 C1042.96782,414.710559 1041.7083,414.148548 1040.56119,413.636217 C1038.26426,412.610004 1036.41697,411.79338 1034.84731,411.141323 C1031.71206,409.830998 1029.69547,409.157206 1027.61253,408.439943 C1025.52958,407.725785 1023.38028,406.955737 1019.98635,405.459111 C1016.59106,403.968694 1011.96064,401.725307 1004.86264,398.256984 C1012.38454,402.551246 1020.28565,407.196377 1028.48065,411.953289 C1032.58966,414.325535 1046.92921,421.786931 1048.36479,422.255791 C1049.10425,422.484011 1049.85996,422.716889 1050.96915,422.842643 C1051.25491,422.869036 1051.55693,422.890771 1051.92259,422.883008 C1052.28691,422.875246 1055.41674,421.689123 1055.41674,421.689123 C1055.88805,421.310309 1055.69438,421.462455 1055.69438,421.462455 L1055.74178,421.42209 C1055.74178,421.42209 1057.88161,419.459708 1058.83099,418.515778 C1062.62715,414.744714 1076.01597,394.339984 1076.01597,394.339984 C1076.73917,392.531302 1077.47999,390.762985 1078.20726,388.858047 C1078.93182,386.957766 1079.64284,384.956572 1080.33083,382.907249 C1081.01883,380.861032 1081.68245,378.768239 1082.33658,376.675446 C1082.33658,376.675446 1084.73644,368.99825 1085.43662,366.902352 C1086.84241,362.662428 1088.29153,358.341774 1089.58085,353.831712 C1090.8661,349.326308 1091.99289,344.617524 1092.64838,339.68052 L1092.64838,339.68052 Z" id="Fill-1" fill="#FFFFFF" mask="url(#mask-2)"></path>
            </g>
        </g>
    </g>
</svg>