<?xml version="1.0" encoding="UTF-8" standalone="no"?>
<svg width="20px" height="14px" viewBox="0 0 20 14" version="1.1" xmlns="http://www.w3.org/2000/svg" xmlns:xlink="http://www.w3.org/1999/xlink" xmlns:sketch="http://www.bohemiancoding.com/sketch/ns">
    <!-- Generator: Sketch 3.4.4 (17249) - http://www.bohemiancoding.com/sketch -->
    <title>flag-english</title>
    <desc>Created with Sketch.</desc>
    <defs></defs>
    <g id="Page-1" stroke="none" stroke-width="1" fill="none" fill-rule="evenodd" sketch:type="MSPage">
        <g id="Flag_of_the_United_States" sketch:type="MSLayerGroup">
            <rect id="Rectangle-path" fill="#B22234" sketch:type="MSShapeGroup" x="1" y="1" width="19" height="12"></rect>
            <path d="M1,2.38461538 L20,2.38461538 M20,4.23076923 L1,4.23076923 M1,6.07692308 L20,6.07692308 M20,7.92307692 L1,7.92307692 M1,9.76923077 L20,9.76923077 M20,11.6153846 L1,11.6153846" id="Shape" stroke="#FFFFFF" stroke-width="0.923076923" fill="#000000" sketch:type="MSShapeGroup"></path>
            <rect id="Rectangle-path" fill="#3C3B6E" sketch:type="MSShapeGroup" x="1" y="1" width="9.2" height="6.46153846"></rect>
            <g id="Group" transform="translate(1.409717, 1.276923)" fill="#FFFFFF" sketch:type="MSShapeGroup">
                <g id="s18">
                    <g id="s9">
                        <g id="s5">
                            <g id="s4">
                                <path d="M0.356950067,0 L0.575882225,0.667944735 L0.00271039325,0.255132188 L0.711189742,0.255132188 L0.13801791,0.667944735 L0.356950067,0 Z" id="s"></path>
                                <g id="s-link" transform="translate(0.000000, 1.292308)">
                                    <path d="M0.356950067,0 L0.575882225,0.667944735 L0.00271039325,0.255132188 L0.711189742,0.255132188 L0.13801791,0.667944735 L0.356950067,0 Z" id="s"></path>
                                </g>
                                <g id="s-link" transform="translate(0.000000, 2.584615)">
                                    <path d="M0.356950067,0 L0.575882225,0.667944735 L0.00271039325,0.255132188 L0.711189742,0.255132188 L0.13801791,0.667944735 L0.356950067,0 Z" id="s"></path>
                                </g>
                                <g id="s-link" transform="translate(0.000000, 3.876923)">
                                    <path d="M0.356950067,0 L0.575882225,0.667944735 L0.00271039325,0.255132188 L0.711189742,0.255132188 L0.13801791,0.667944735 L0.356950067,0 Z" id="s"></path>
                                </g>
                            </g>
                            <g id="s-link" transform="translate(0.000000, 5.169231)">
                                <path d="M0.356950067,0 L0.575882225,0.667944735 L0.00271039325,0.255132188 L0.711189742,0.255132188 L0.13801791,0.667944735 L0.356950067,0 Z" id="s"></path>
                            </g>
                        </g>
                        <g id="s4-link" transform="translate(0.766667, 0.646154)">
                            <g id="s4">
                                <path d="M0.356950067,0 L0.575882225,0.667944735 L0.00271039325,0.255132188 L0.711189742,0.255132188 L0.13801791,0.667944735 L0.356950067,0 Z" id="s"></path>
                                <g id="s-link" transform="translate(0.000000, 1.292308)">
                                    <path d="M0.356950067,0 L0.575882225,0.667944735 L0.00271039325,0.255132188 L0.711189742,0.255132188 L0.13801791,0.667944735 L0.356950067,0 Z" id="s"></path>
                                </g>
                                <g id="s-link" transform="translate(0.000000, 2.584615)">
                                    <path d="M0.356950067,0 L0.575882225,0.667944735 L0.00271039325,0.255132188 L0.711189742,0.255132188 L0.13801791,0.667944735 L0.356950067,0 Z" id="s"></path>
                                </g>
                                <g id="s-link" transform="translate(0.000000, 3.876923)">
                                    <path d="M0.356950067,0 L0.575882225,0.667944735 L0.00271039325,0.255132188 L0.711189742,0.255132188 L0.13801791,0.667944735 L0.356950067,0 Z" id="s"></path>
                                </g>
                            </g>
                        </g>
                    </g>
                    <g id="s9-link" transform="translate(1.533333, 0.000000)">
                        <g id="s9">
                            <g id="s5">
                                <g id="s4">
                                    <path d="M0.356950067,0 L0.575882225,0.667944735 L0.00271039325,0.255132188 L0.711189742,0.255132188 L0.13801791,0.667944735 L0.356950067,0 Z" id="s"></path>
                                    <g id="s-link" transform="translate(0.000000, 1.292308)">
                                        <path d="M0.356950067,0 L0.575882225,0.667944735 L0.00271039325,0.255132188 L0.711189742,0.255132188 L0.13801791,0.667944735 L0.356950067,0 Z" id="s"></path>
                                    </g>
                                    <g id="s-link" transform="translate(0.000000, 2.584615)">
                                        <path d="M0.356950067,0 L0.575882225,0.667944735 L0.00271039325,0.255132188 L0.711189742,0.255132188 L0.13801791,0.667944735 L0.356950067,0 Z" id="s"></path>
                                    </g>
                                    <g id="s-link" transform="translate(0.000000, 3.876923)">
                                        <path d="M0.356950067,0 L0.575882225,0.667944735 L0.00271039325,0.255132188 L0.711189742,0.255132188 L0.13801791,0.667944735 L0.356950067,0 Z" id="s"></path>
                                    </g>
                                </g>
                                <g id="s-link" transform="translate(0.000000, 5.169231)">
                                    <path d="M0.356950067,0 L0.575882225,0.667944735 L0.00271039325,0.255132188 L0.711189742,0.255132188 L0.13801791,0.667944735 L0.356950067,0 Z" id="s"></path>
                                </g>
                            </g>
                            <g id="s4-link" transform="translate(0.766667, 0.646154)">
                                <g id="s4">
                                    <path d="M0.356950067,0 L0.575882225,0.667944735 L0.00271039325,0.255132188 L0.711189742,0.255132188 L0.13801791,0.667944735 L0.356950067,0 Z" id="s"></path>
                                    <g id="s-link" transform="translate(0.000000, 1.292308)">
                                        <path d="M0.356950067,0 L0.575882225,0.667944735 L0.00271039325,0.255132188 L0.711189742,0.255132188 L0.13801791,0.667944735 L0.356950067,0 Z" id="s"></path>
                                    </g>
                                    <g id="s-link" transform="translate(0.000000, 2.584615)">
                                        <path d="M0.356950067,0 L0.575882225,0.667944735 L0.00271039325,0.255132188 L0.711189742,0.255132188 L0.13801791,0.667944735 L0.356950067,0 Z" id="s"></path>
                                    </g>
                                    <g id="s-link" transform="translate(0.000000, 3.876923)">
                                        <path d="M0.356950067,0 L0.575882225,0.667944735 L0.00271039325,0.255132188 L0.711189742,0.255132188 L0.13801791,0.667944735 L0.356950067,0 Z" id="s"></path>
                                    </g>
                                </g>
                            </g>
                        </g>
                    </g>
                </g>
                <g id="s18-link" transform="translate(3.066667, 0.000000)">
                    <g id="s18">
                        <g id="s9">
                            <g id="s5">
                                <g id="s4">
                                    <path d="M0.356950067,0 L0.575882225,0.667944735 L0.00271039325,0.255132188 L0.711189742,0.255132188 L0.13801791,0.667944735 L0.356950067,0 Z" id="s"></path>
                                    <g id="s-link" transform="translate(0.000000, 1.292308)">
                                        <path d="M0.356950067,0 L0.575882225,0.667944735 L0.00271039325,0.255132188 L0.711189742,0.255132188 L0.13801791,0.667944735 L0.356950067,0 Z" id="s"></path>
                                    </g>
                                    <g id="s-link" transform="translate(0.000000, 2.584615)">
                                        <path d="M0.356950067,0 L0.575882225,0.667944735 L0.00271039325,0.255132188 L0.711189742,0.255132188 L0.13801791,0.667944735 L0.356950067,0 Z" id="s"></path>
                                    </g>
                                    <g id="s-link" transform="translate(0.000000, 3.876923)">
                                        <path d="M0.356950067,0 L0.575882225,0.667944735 L0.00271039325,0.255132188 L0.711189742,0.255132188 L0.13801791,0.667944735 L0.356950067,0 Z" id="s"></path>
                                    </g>
                                </g>
                                <g id="s-link" transform="translate(0.000000, 5.169231)">
                                    <path d="M0.356950067,0 L0.575882225,0.667944735 L0.00271039325,0.255132188 L0.711189742,0.255132188 L0.13801791,0.667944735 L0.356950067,0 Z" id="s"></path>
                                </g>
                            </g>
                            <g id="s4-link" transform="translate(0.766667, 0.646154)">
                                <g id="s4">
                                    <path d="M0.356950067,0 L0.575882225,0.667944735 L0.00271039325,0.255132188 L0.711189742,0.255132188 L0.13801791,0.667944735 L0.356950067,0 Z" id="s"></path>
                                    <g id="s-link" transform="translate(0.000000, 1.292308)">
                                        <path d="M0.356950067,0 L0.575882225,0.667944735 L0.00271039325,0.255132188 L0.711189742,0.255132188 L0.13801791,0.667944735 L0.356950067,0 Z" id="s"></path>
                                    </g>
                                    <g id="s-link" transform="translate(0.000000, 2.584615)">
                                        <path d="M0.356950067,0 L0.575882225,0.667944735 L0.00271039325,0.255132188 L0.711189742,0.255132188 L0.13801791,0.667944735 L0.356950067,0 Z" id="s"></path>
                                    </g>
                                    <g id="s-link" transform="translate(0.000000, 3.876923)">
                                        <path d="M0.356950067,0 L0.575882225,0.667944735 L0.00271039325,0.255132188 L0.711189742,0.255132188 L0.13801791,0.667944735 L0.356950067,0 Z" id="s"></path>
                                    </g>
                                </g>
                            </g>
                        </g>
                        <g id="s9-link" transform="translate(1.533333, 0.000000)">
                            <g id="s9">
                                <g id="s5">
                                    <g id="s4">
                                        <path d="M0.356950067,0 L0.575882225,0.667944735 L0.00271039325,0.255132188 L0.711189742,0.255132188 L0.13801791,0.667944735 L0.356950067,0 Z" id="s"></path>
                                        <g id="s-link" transform="translate(0.000000, 1.292308)">
                                            <path d="M0.356950067,0 L0.575882225,0.667944735 L0.00271039325,0.255132188 L0.711189742,0.255132188 L0.13801791,0.667944735 L0.356950067,0 Z" id="s"></path>
                                        </g>
                                        <g id="s-link" transform="translate(0.000000, 2.584615)">
                                            <path d="M0.356950067,0 L0.575882225,0.667944735 L0.00271039325,0.255132188 L0.711189742,0.255132188 L0.13801791,0.667944735 L0.356950067,0 Z" id="s"></path>
                                        </g>
                                        <g id="s-link" transform="translate(0.000000, 3.876923)">
                                            <path d="M0.356950067,0 L0.575882225,0.667944735 L0.00271039325,0.255132188 L0.711189742,0.255132188 L0.13801791,0.667944735 L0.356950067,0 Z" id="s"></path>
                                        </g>
                                    </g>
                                    <g id="s-link" transform="translate(0.000000, 5.169231)">
                                        <path d="M0.356950067,0 L0.575882225,0.667944735 L0.00271039325,0.255132188 L0.711189742,0.255132188 L0.13801791,0.667944735 L0.356950067,0 Z" id="s"></path>
                                    </g>
                                </g>
                                <g id="s4-link" transform="translate(0.766667, 0.646154)">
                                    <g id="s4">
                                        <path d="M0.356950067,0 L0.575882225,0.667944735 L0.00271039325,0.255132188 L0.711189742,0.255132188 L0.13801791,0.667944735 L0.356950067,0 Z" id="s"></path>
                                        <g id="s-link" transform="translate(0.000000, 1.292308)">
                                            <path d="M0.356950067,0 L0.575882225,0.667944735 L0.00271039325,0.255132188 L0.711189742,0.255132188 L0.13801791,0.667944735 L0.356950067,0 Z" id="s"></path>
                                        </g>
                                        <g id="s-link" transform="translate(0.000000, 2.584615)">
                                            <path d="M0.356950067,0 L0.575882225,0.667944735 L0.00271039325,0.255132188 L0.711189742,0.255132188 L0.13801791,0.667944735 L0.356950067,0 Z" id="s"></path>
                                        </g>
                                        <g id="s-link" transform="translate(0.000000, 3.876923)">
                                            <path d="M0.356950067,0 L0.575882225,0.667944735 L0.00271039325,0.255132188 L0.711189742,0.255132188 L0.13801791,0.667944735 L0.356950067,0 Z" id="s"></path>
                                        </g>
                                    </g>
                                </g>
                            </g>
                        </g>
                    </g>
                </g>
                <g id="s9-link" transform="translate(6.133333, 0.000000)">
                    <g id="s9">
                        <g id="s5">
                            <g id="s4">
                                <path d="M0.356950067,0 L0.575882225,0.667944735 L0.00271039325,0.255132188 L0.711189742,0.255132188 L0.13801791,0.667944735 L0.356950067,0 Z" id="s"></path>
                                <g id="s-link" transform="translate(0.000000, 1.292308)">
                                    <path d="M0.356950067,0 L0.575882225,0.667944735 L0.00271039325,0.255132188 L0.711189742,0.255132188 L0.13801791,0.667944735 L0.356950067,0 Z" id="s"></path>
                                </g>
                                <g id="s-link" transform="translate(0.000000, 2.584615)">
                                    <path d="M0.356950067,0 L0.575882225,0.667944735 L0.00271039325,0.255132188 L0.711189742,0.255132188 L0.13801791,0.667944735 L0.356950067,0 Z" id="s"></path>
                                </g>
                                <g id="s-link" transform="translate(0.000000, 3.876923)">
                                    <path d="M0.356950067,0 L0.575882225,0.667944735 L0.00271039325,0.255132188 L0.711189742,0.255132188 L0.13801791,0.667944735 L0.356950067,0 Z" id="s"></path>
                                </g>
                            </g>
                            <g id="s-link" transform="translate(0.000000, 5.169231)">
                                <path d="M0.356950067,0 L0.575882225,0.667944735 L0.00271039325,0.255132188 L0.711189742,0.255132188 L0.13801791,0.667944735 L0.356950067,0 Z" id="s"></path>
                            </g>
                        </g>
                        <g id="s4-link" transform="translate(0.766667, 0.646154)">
                            <g id="s4">
                                <path d="M0.356950067,0 L0.575882225,0.667944735 L0.00271039325,0.255132188 L0.711189742,0.255132188 L0.13801791,0.667944735 L0.356950067,0 Z" id="s"></path>
                                <g id="s-link" transform="translate(0.000000, 1.292308)">
                                    <path d="M0.356950067,0 L0.575882225,0.667944735 L0.00271039325,0.255132188 L0.711189742,0.255132188 L0.13801791,0.667944735 L0.356950067,0 Z" id="s"></path>
                                </g>
                                <g id="s-link" transform="translate(0.000000, 2.584615)">
                                    <path d="M0.356950067,0 L0.575882225,0.667944735 L0.00271039325,0.255132188 L0.711189742,0.255132188 L0.13801791,0.667944735 L0.356950067,0 Z" id="s"></path>
                                </g>
                                <g id="s-link" transform="translate(0.000000, 3.876923)">
                                    <path d="M0.356950067,0 L0.575882225,0.667944735 L0.00271039325,0.255132188 L0.711189742,0.255132188 L0.13801791,0.667944735 L0.356950067,0 Z" id="s"></path>
                                </g>
                            </g>
                        </g>
                    </g>
                </g>
                <g id="s5-link" transform="translate(7.666667, 0.000000)">
                    <g id="s5">
                        <g id="s4">
                            <path d="M0.356950067,0 L0.575882225,0.667944735 L0.00271039325,0.255132188 L0.711189742,0.255132188 L0.13801791,0.667944735 L0.356950067,0 Z" id="s"></path>
                            <g id="s-link" transform="translate(0.000000, 1.292308)">
                                <path d="M0.356950067,0 L0.575882225,0.667944735 L0.00271039325,0.255132188 L0.711189742,0.255132188 L0.13801791,0.667944735 L0.356950067,0 Z" id="s"></path>
                            </g>
                            <g id="s-link" transform="translate(0.000000, 2.584615)">
                                <path d="M0.356950067,0 L0.575882225,0.667944735 L0.00271039325,0.255132188 L0.711189742,0.255132188 L0.13801791,0.667944735 L0.356950067,0 Z" id="s"></path>
                            </g>
                            <g id="s-link" transform="translate(0.000000, 3.876923)">
                                <path d="M0.356950067,0 L0.575882225,0.667944735 L0.00271039325,0.255132188 L0.711189742,0.255132188 L0.13801791,0.667944735 L0.356950067,0 Z" id="s"></path>
                            </g>
                        </g>
                        <g id="s-link" transform="translate(0.000000, 5.169231)">
                            <path d="M0.356950067,0 L0.575882225,0.667944735 L0.00271039325,0.255132188 L0.711189742,0.255132188 L0.13801791,0.667944735 L0.356950067,0 Z" id="s"></path>
                        </g>
                    </g>
                </g>
            </g>
            <rect id="Rectangle-4-Copy" stroke="#00132F" sketch:type="MSShapeGroup" x="0" y="0" width="20" height="14"></rect>
        </g>
    </g>
</svg>