<?xml version="1.0" encoding="UTF-8" standalone="no"?>
<svg width="944px" height="98px" viewBox="0 0 944 98" version="1.1" xmlns="http://www.w3.org/2000/svg" xmlns:xlink="http://www.w3.org/1999/xlink" xmlns:sketch="http://www.bohemiancoding.com/sketch/ns">
    <!-- Generator: Sketch 3.4.4 (17249) - http://www.bohemiancoding.com/sketch -->
    <title>Slice 1</title>
    <desc>Created with Sketch.</desc>
    <defs>
        <linearGradient x1="50%" y1="2.55102041%" x2="50%" y2="100%" id="linearGradient-1">
            <stop stop-color="#C0ECFF" offset="0%"></stop>
            <stop stop-color="#5599B8" offset="100%"></stop>
        </linearGradient>
        <linearGradient x1="50%" y1="0%" x2="50%" y2="97.9591837%" id="linearGradient-2">
            <stop stop-color="#C0EBFF" offset="0%"></stop>
            <stop stop-color="#5599B8" offset="100%"></stop>
        </linearGradient>
        <linearGradient x1="50%" y1="0%" x2="50%" y2="100%" id="linearGradient-3">
            <stop stop-color="#C0EBFF" offset="0%"></stop>
            <stop stop-color="#5599B8" offset="100%"></stop>
        </linearGradient>
        <linearGradient x1="50%" y1="0%" x2="50%" y2="100%" id="linearGradient-4">
            <stop stop-color="#C0EBFF" offset="1.53061224%"></stop>
            <stop stop-color="#5599B8" offset="100%"></stop>
        </linearGradient>
        <linearGradient x1="50%" y1="0%" x2="50%" y2="100%" id="linearGradient-5">
            <stop stop-color="#8FD4F5" offset="0%"></stop>
            <stop stop-color="#7499AF" offset="100%"></stop>
        </linearGradient>
    </defs>
    <g id="Page-1" stroke="none" stroke-width="1" fill="none" fill-rule="evenodd" sketch:type="MSPage">
        <g id="Subtract" sketch:type="MSLayerGroup">
            <g id="javascript" transform="translate(106.000000, 1.000000)" fill="url(#linearGradient-1)" sketch:type="MSShapeGroup">
                <path d="M0,0 L96,0 L96,96 L0,96 L0,0 Z M25.2419048,80.2246095 L32.5884953,75.7785904 C34.0057905,78.2915048 35.2950857,80.4176764 38.3876573,80.4176764 C41.3520761,80.4176764 43.2210285,79.2580571 43.2210285,74.7475811 L43.2210285,44.0732951 L52.2425906,44.0732951 L52.2425906,74.8751239 C52.2425906,84.2191238 46.7654096,88.4722286 38.7744,88.4722286 C31.5574857,88.4722286 27.3682286,84.7344761 25.2417524,80.2238475 L25.2419048,80.2246095 Z M57.142857,79.2579049 L64.4885333,75.0048 C66.4222478,78.1627429 68.9354666,80.4824381 73.381638,80.4824381 C77.1196954,80.4824381 79.5033904,78.6134857 79.5033904,76.0358096 C79.5033904,72.9426285 77.054781,71.8470094 72.930438,70.0432762 L70.6756571,69.0759619 C64.1667049,66.3055237 59.8489905,62.8257525 59.8489905,55.4793142 C59.8489905,48.7129905 65.0041905,43.5574856 73.059657,43.5574856 C78.7949715,43.5574856 82.9191619,45.5553525 85.8831236,50.775162 L78.8589713,55.2857906 C77.3123048,52.5150476 75.6373335,51.4197334 73.0598096,51.4197334 C70.4176763,51.4197334 68.7420953,53.0951617 68.7420953,55.2857906 C68.7420953,57.9923809 70.4176763,59.0881522 74.2837335,60.7637332 L76.5389715,61.7302856 C84.207543,65.0169904 88.525257,68.367543 88.525257,75.9068951 C88.525257,84.0269715 82.1456764,88.4729906 73.575162,88.4729906 C65.1978668,88.4729906 59.7846859,84.4778666 57.1430096,79.2579049 L57.142857,79.2579049 Z" id="Shape"></path>
            </g>
            <g id="django" transform="translate(0.000000, 1.000000)">
                <path d="M0,0 L96,0 L96,96 L0,96 L0,0 Z M18.1017505,36.5556704 L22.4128919,36.5556704 L22.4128919,56.6086481 C20.201337,57.0305926 18.5776158,57.1993704 16.8141149,57.1993704 C11.5512428,57.1993704 8.80783842,54.8085333 8.80783842,50.2226778 C8.80783842,45.8061444 11.7193758,42.9367407 16.2262812,42.9367407 C16.9260832,42.9367407 17.4579327,42.9931815 18.1019311,43.1615963 L18.1019311,36.5556704 L18.1017505,36.5556704 Z M18.1017505,46.6496704 C17.5978931,46.4810741 17.1780119,46.4248148 16.6461624,46.4248148 C14.4625996,46.4248148 13.2027754,47.7752185 13.2027754,50.1379259 C13.2027754,52.4451 14.4066154,53.7109333 16.6181703,53.7109333 C17.093855,53.7109333 17.4859248,53.6828037 18.1017505,53.5987778 L18.1017505,46.6496704 Z M29.2711319,43.2458037 L29.2711319,53.2891704 C29.2711319,56.7491148 29.0192032,58.408763 28.263417,59.843737 C27.5634345,61.2222704 26.6395152,62.0939259 24.7360539,63.0505148 L20.7328253,61.1375185 C22.6364673,60.2373704 23.5602059,59.4502852 24.1480396,58.2399852 C24.7640459,57.002463 24.9601711,55.5673074 24.9601711,51.7977556 L24.9601711,43.2458037 L29.2711319,43.2458037 Z M24.9601711,36.5787185 L29.2711319,36.5787185 L29.2711319,41.0237444 L24.9601711,41.0237444 L24.9601711,36.5787185 L24.9601711,36.5787185 Z M31.8751176,44.2305222 C33.7789402,43.3301926 35.5984253,42.9365593 37.5860436,42.9365593 C39.7975984,42.9365593 41.2531865,43.5272815 41.897185,44.6807778 C42.2609014,45.3275778 42.3728697,46.1714667 42.3728697,47.9723074 L42.3728697,56.7772444 C40.441055,57.0589037 38.0057442,57.2556296 36.2142511,57.2556296 C32.6030923,57.2556296 30.9791905,55.9894333 30.9791905,53.1766519 C30.9791905,50.1379259 33.1347612,48.7316259 38.4258059,48.2811889 L38.4258059,47.3246 C38.4258059,46.5371519 38.0339168,46.256037 36.9420451,46.256037 C35.3464966,46.256037 33.554823,46.7059296 31.874937,47.5781296 L31.874937,44.2305222 L31.8751176,44.2305222 Z M38.6217505,51.1228259 C35.7661972,51.4044852 34.8424586,51.8543778 34.8424586,52.979563 C34.8424586,53.8234519 35.3744887,54.2174481 36.550156,54.2174481 C37.1941545,54.2174481 37.7818075,54.1610074 38.6217505,54.0207222 L38.6217505,51.1228259 Z M44.4726368,43.9212778 C47.019916,43.2458037 49.1195026,42.9365593 51.2470812,42.9365593 C53.458636,42.9365593 55.0543651,43.4425296 56.006457,44.4276111 C56.9022036,45.3555259 57.1819438,46.3681926 57.1819438,48.5349 L57.1819438,57.0305926 L52.870983,57.0305926 L52.870983,48.7034963 C52.870983,47.0438481 52.3111414,46.4246333 50.771577,46.4246333 C50.1837434,46.4246333 49.6518939,46.4810741 48.7837782,46.7342407 L48.7837782,57.0304111 L44.4728174,57.0304111 L44.4728174,43.9212778 L44.4726368,43.9212778 Z M58.8578566,59.393663 C60.3697901,60.1811111 61.8813624,60.5467963 63.4769109,60.5467963 C66.3041109,60.5467963 67.5079509,59.393663 67.5079509,56.6365963 L67.5079509,56.5518444 C66.6681885,56.9739704 65.8282455,57.1429296 64.708743,57.1429296 C60.9294511,57.1429296 58.5215905,54.6390296 58.5215905,50.6727519 C58.5215905,45.7495222 62.0771263,42.9646889 68.3755248,42.9646889 C70.2233632,42.9646889 71.9310606,43.1614148 74.002655,43.5829963 L72.5264792,46.7084704 C71.3786234,46.4832519 72.4345568,46.678163 71.5671636,46.5937741 L71.5671636,47.0438481 L71.6229671,48.8720926 L71.6507786,51.2353444 C71.6787707,51.8257037 71.6787707,52.4167889 71.7069434,53.0073296 L71.7069434,54.189137 C71.7069434,57.9026111 71.3990305,59.6468296 70.4752919,61.0812593 C69.1314915,63.1913444 66.8079683,64.2321407 63.5047224,64.2321407 C61.825017,64.2321407 60.3696095,63.9787926 58.857676,63.3880704 L58.857676,59.393663 L58.8578566,59.393663 Z M67.4241552,46.4529444 L67.2843754,46.4529444 L66.976282,46.4529444 C66.1367002,46.4248148 65.1569774,46.6496704 64.4848063,47.0716148 C63.44928,47.6627 62.9170693,48.7314444 62.9170693,50.2508074 C62.9170693,52.4171519 63.9811295,53.6546741 65.8845909,53.6546741 C66.4724246,53.6546741 66.9484705,53.5421556 67.5081315,53.3733778 L67.5081315,53.0639519 L67.5081315,51.8825074 C67.5081315,51.3761741 67.48032,50.8132185 67.48032,50.2226778 L67.4525085,48.2252926 L67.4243358,46.7906815 L67.4243358,46.4529444 L67.4241552,46.4529444 Z M80.6952903,42.8804815 C85.0062511,42.8804815 87.6378677,45.6094185 87.6378677,50.0255889 C87.6378677,54.5548222 84.894644,57.3960963 80.5273378,57.3960963 C76.2160158,57.3960963 73.5565877,54.6673407 73.5565877,50.2791185 C73.5567683,45.7213926 76.3003533,42.8804815 80.6952903,42.8804815 Z M80.6109529,53.9078407 C82.2628467,53.9078407 83.2427501,52.5293074 83.2427501,50.1379259 C83.2427501,47.7752185 82.2908388,46.3683741 80.6394867,46.3683741 C78.9316087,46.3683741 77.9515248,47.7472704 77.9515248,50.1379259 C77.9517053,52.5294889 78.9316087,53.9078407 80.6109529,53.9078407 L80.6109529,53.9078407 Z" id="Rectangle-1-Copy" fill="url(#linearGradient-2)" sketch:type="MSShapeGroup"></path>
                <g id="django-logo-negative" transform="translate(8.813946, 36.084320)"></g>
            </g>
            <g id="python" transform="translate(212.000000, 1.000000)" fill="url(#linearGradient-3)" sketch:type="MSShapeGroup">
                <path d="M0,0 L96,0 L96,96 L0,96 L0,0 Z M39.0021034,48.4800419 C39.0021034,45.7914535 38.2484159,44.4111669 36.7410408,44.3355837 C36.1412742,44.3067909 35.5556637,44.4039682 34.9859736,44.6289178 C34.5312846,44.7944798 34.2252108,44.9582434 34.0642109,45.1238054 L34.0642109,51.5411461 C35.0284349,52.1566072 35.8847388,52.4427408 36.6313491,52.3977524 C38.2112621,52.2915762 39.0021034,50.9868728 39.0021034,48.4800419 Z M40.861553,48.5916167 C40.861553,49.9575059 40.5466323,51.0912489 39.9132513,51.9928435 C39.2073324,53.0132116 38.2289541,53.5386921 36.9781162,53.5674868 C36.0351219,53.5980797 35.0638208,53.2975469 34.0642109,52.6676904 L34.0642109,58.5001643 L32.4471441,57.9134979 L32.4471441,44.9672404 C32.7125265,44.6361165 33.0539862,44.3517811 33.4679837,44.110636 C34.4304398,43.5401652 35.5998928,43.2468311 36.9763465,43.2324356 L36.9993459,43.2558299 C38.257261,43.2396324 39.2267942,43.7651147 39.9079439,44.8304712 C40.5430928,45.8076491 40.861553,47.0601654 40.861553,48.5916167 Z M50.7444134,52.4193465 C50.7444134,54.2513305 50.5639535,55.5200419 50.2030339,56.2254817 C49.8403427,56.9309215 49.1503479,57.4941936 48.1312762,57.9134979 C47.3050508,58.2446218 46.411595,58.4245811 45.4526784,58.455174 L45.1855263,57.4186104 C46.1603652,57.2836414 46.8468241,57.1486705 47.2448975,57.0137015 C48.0286617,56.7437635 48.5665053,56.3298577 48.8619643,55.7755826 C49.0990397,55.3238857 49.2158086,54.4618828 49.2158086,53.1859722 L49.2158086,52.7576709 C48.1100465,53.2687541 46.9512065,53.5224965 45.7392922,53.5224965 C44.9431435,53.5224965 44.2407623,53.2687541 43.63569,52.7576709 C42.9563083,52.2015956 42.6166184,51.4961558 42.6166184,50.6413516 L42.6166184,43.7957077 L44.2336851,43.2324356 L44.2336851,50.1230679 C44.2336851,50.8591006 44.4672229,51.425973 44.9342965,51.8236832 C45.4013702,52.2213915 46.0064443,52.4121479 46.7477472,52.3977524 C47.4890502,52.3815549 48.2834292,52.0900209 49.1273466,51.519552 L49.1273466,43.4807794 L50.7444134,43.4807794 L50.7444134,52.4193465 Z M57.0569898,53.4775062 C56.8641453,53.4937018 56.6872232,53.5009005 56.5244554,53.5009005 C55.609768,53.5009005 54.896772,53.2795512 54.387237,52.8350524 C53.8794701,52.3905537 53.6247044,51.7768928 53.6247044,50.9940715 L53.6247044,44.515543 L52.5171726,44.515543 L52.5171726,43.4807794 L53.6247044,43.4807794 L53.6247044,40.7328034 L55.2400014,40.1479353 L55.2400014,43.4807794 L57.0569898,43.4807794 L57.0569898,44.515543 L55.2400014,44.515543 L55.2400014,50.9490812 C55.2400014,51.5663405 55.4027692,52.0036406 55.7283066,52.2591831 C56.0078433,52.4697353 56.4519175,52.5903089 57.0569898,52.6209018 L57.0569898,53.4775062 Z M66.8478505,53.3425372 L65.2307837,53.3425372 L65.2307837,46.993581 C65.2307837,46.347527 65.0821685,45.7914535 64.7867113,45.3271589 C64.4452516,44.8016784 63.971099,44.5389372 63.362489,44.5389372 C62.6211843,44.5389372 61.6941123,44.9366474 60.5812766,45.7320678 L60.5812766,53.3425372 L58.9642081,53.3425372 L58.9642081,38.1665867 L60.5812766,37.6483049 L60.5812766,44.5605332 C61.6145008,43.7957077 62.7432606,43.4123948 63.9693292,43.4123948 C64.8256331,43.4123948 65.5191673,43.7057271 66.049932,44.2905952 C66.5824682,44.8754615 66.8478505,45.6042956 66.8478505,46.4752973 L66.8478505,53.3425372 Z M75.4427192,48.220901 C75.4427192,47.1879358 75.2498766,46.3349298 74.8659538,45.6600829 C74.4094968,44.8376699 73.7000403,44.4039682 72.7411219,44.358978 C70.9683645,44.4633559 70.0837556,45.755462 70.0837556,48.2316981 C70.0837556,49.3672411 70.2677531,50.3156244 70.6392876,51.0768515 C71.1134403,52.0468308 71.8246666,52.5255227 72.7729683,52.5093271 C74.5528028,52.4949298 75.4427192,51.0660544 75.4427192,48.220901 Z M77.2137105,48.2316981 C77.2137105,49.7019653 76.8439439,50.9256869 76.1061786,51.9028648 C75.2941076,52.997016 74.1724214,53.5458908 72.7411219,53.5458908 C71.3222088,53.5458908 70.2164467,52.997016 69.4185282,51.9028648 C68.6949173,50.9256869 68.3339958,49.7019653 68.3339958,48.2316981 C68.3339958,46.8496132 68.7249939,45.6870775 69.5069884,44.7404925 C70.3332156,43.7363201 71.4195159,43.2324356 72.7623516,43.2324356 C74.1051909,43.2324356 75.1985666,43.7363201 76.0407179,44.7404925 C76.8227105,45.6870775 77.2137105,46.8496132 77.2137105,48.2316981 Z M86.4844196,53.3425372 L84.8673528,53.3425372 L84.8673528,46.6336624 C84.8673528,45.8976297 84.6497392,45.3235605 84.2145119,44.9096529 C83.7792828,44.4975472 83.1989797,44.2977921 82.4753688,44.3139895 C81.7075287,44.3283869 80.9768389,44.5839275 80.2833064,45.0788151 L80.2833064,53.3425372 L78.6662397,53.3425372 L78.6662397,44.8754615 C79.5968493,44.1862192 80.4531514,43.7363201 81.235144,43.5257678 C81.9729111,43.329613 82.6239841,43.2324356 83.1848272,43.2324356 C83.5687481,43.2324356 83.9296678,43.2702272 84.2693577,43.3458086 C84.9045084,43.4951749 85.4211187,43.7723116 85.819194,44.1790205 C86.2632664,44.6289178 86.4844196,45.1687956 86.4844196,45.8004505 L86.4844196,53.3425372 Z M16.475793,38.2273628 C15.6438022,38.231295 14.8492696,38.3034699 14.1501628,38.4293002 C12.0906815,38.7993888 11.7167596,39.574016 11.7167594,41.0025604 L11.7167594,42.8892333 L16.5835661,42.8892333 L16.5835661,43.5181242 L11.7167594,43.5181242 L9.89028882,43.5181242 C8.47585929,43.5181242 7.23734429,44.382872 6.84995265,46.0279184 C6.40310129,47.9135233 6.383281,49.0901715 6.84995265,51.0590459 C7.19590266,52.5245999 8.02207814,53.5688397 9.43650731,53.5688401 L11.1098266,53.5688401 L11.1098266,51.3071405 C11.1098266,49.6731961 12.4996948,48.2319219 14.1501628,48.2319215 L19.0112972,48.2319215 C20.3644648,48.2319215 21.4447011,47.0986413 21.4447006,45.7163577 L21.4447006,41.0025604 C21.4447006,39.6609869 20.3320319,38.6532034 19.0112972,38.4293002 C18.1752525,38.2877408 17.3077838,38.2234305 16.475793,38.2273628 Z M13.8438602,39.7447785 C14.3465679,39.7447785 14.7570955,40.1691742 14.7570955,40.6909998 C14.7570952,41.2109758 14.3465679,41.6314514 13.8438602,41.6314514 C13.3393503,41.6314512 12.930625,41.2109756 12.930625,40.6909998 C12.9306248,40.1691744 13.3393503,39.7447785 13.8438602,39.7447785 Z M22.0516334,43.5181242 L22.0516334,45.7163577 C22.0516334,47.4206185 20.6311348,48.8550426 19.0112972,48.8550428 L14.1501628,48.8550428 C12.8186166,48.8550428 11.7167596,50.0142299 11.7167594,51.3706066 L11.7167594,56.0844033 C11.7167594,57.425977 12.8636628,58.2150757 14.1501628,58.5999671 C15.6907203,59.0607279 17.1680344,59.1439991 19.0112972,58.5999671 C20.2365354,58.2391309 21.4447011,57.5129463 21.4447006,56.0844033 L21.4447006,54.197731 L16.5835661,54.197731 L16.5835661,53.5688401 L21.4447006,53.5688401 L23.8781047,53.5688401 C25.2925344,53.5688401 25.8196089,52.5653087 26.3115062,51.0590459 C26.8196199,49.5083719 26.7979999,48.0171476 26.3115062,46.0279184 C25.9619529,44.5956734 25.2943332,43.5181242 23.8781047,43.5181242 L22.0516334,43.5181242 Z M19.3175997,55.4555129 C19.82211,55.4555135 20.230835,55.8759891 20.230835,56.395964 C20.2308347,56.9177888 19.8221095,57.3421852 19.3175997,57.3421852 C18.8148915,57.3421852 18.4043645,56.9177888 18.4043645,56.395964 C18.4043648,55.8759891 18.814891,55.4555129 19.3175997,55.4555129 Z M89.6334037,42.0143544 L89.9169173,42.0143544 L89.9169173,40.2056889 L90.5885375,40.2056889 L90.5885375,39.9901056 L88.9617835,39.9901056 L88.9617835,40.2056889 L89.6334037,40.2056889 L89.6334037,42.0143544 Z M90.8399216,42.0143544 L91.0821447,42.0143544 L91.0821447,40.3624773 L91.6078797,42.0141468 L91.8775511,42.0141468 L92.4253852,40.3680771 L92.4253852,42.0143544 L92.6896294,42.0143544 L92.6896294,39.9901056 L92.3400561,39.9901056 L91.7413713,41.724295 L91.2307818,39.9901056 L90.8399216,39.9901056 L90.8399216,42.0143544 Z M23.1607126,61.804402 C23.1607126,62.2639758 21.9176406,62.6886395 19.8997498,62.9184264 C17.881859,63.1482133 15.3957151,63.1482133 13.3778243,62.9184264 C11.3599335,62.6886395 10.1168615,62.2639758 10.1168615,61.804402 C10.1168615,61.3448282 11.3599335,60.9201645 13.3778243,60.6903776 C15.3957151,60.4605907 17.881859,60.4605907 19.8997498,60.6903776 C21.9176406,60.9201645 23.1607126,61.3448282 23.1607126,61.804402 L23.1607126,61.804402 Z" id="Rectangle"></path>
            </g>
            <g id="node.js" transform="translate(318.000000, 1.000000)" fill="url(#linearGradient-4)" sketch:type="MSShapeGroup">
                <path d="M0,0 L96,0 L96,96 L0,96 L0,0 Z M60.6932731,58.1213284 C60.6932731,58.8900369 60.0548984,59.5306273 59.2888488,59.5306273 C58.5227991,59.5306273 57.8844244,58.9083395 57.8844244,58.1213284 C57.8844244,57.3160148 58.5410384,56.7120295 59.2888488,56.7120295 C60.0548984,56.7120295 60.6932731,57.3343173 60.6932731,58.1213284 Z M58.1032957,58.1213284 C58.1032957,58.7802214 58.6322348,59.3109963 59.2706095,59.3109963 C59.9272235,59.3109963 60.4561625,58.7619188 60.4561625,58.1213284 C60.4561625,57.4624354 59.9272235,56.9499631 59.2706095,56.9499631 C58.650474,56.9499631 58.1032957,57.4624354 58.1032957,58.1213284 L58.1032957,58.1213284 Z M58.7599097,57.3343173 L59.307088,57.3343173 C59.4894808,57.3343173 59.8542664,57.3343173 59.8542664,57.7552768 C59.8542664,58.0481181 59.6718736,58.1030258 59.5624379,58.139631 C59.7813093,58.1579336 59.7995485,58.3043542 59.8177878,58.5056827 C59.8360271,58.6338007 59.8542664,58.8534317 59.8907449,58.9266421 L59.5624379,58.9266421 C59.5624379,58.8534317 59.5077201,58.4507749 59.5077201,58.4324723 C59.4894808,58.3409594 59.4530023,58.3043542 59.3435666,58.3043542 L59.0699774,58.3043542 L59.0699774,58.9449446 L58.7599097,58.9449446 L58.7599097,57.3343173 L58.7599097,57.3343173 Z M59.0517381,58.0298155 L59.2888488,58.0298155 C59.4894808,58.0298155 59.5259594,57.8833948 59.5259594,57.8101845 C59.5259594,57.5905535 59.3800451,57.5905535 59.2888488,57.5905535 L59.0334989,57.5905535 L59.0334989,58.0298155 L59.0517381,58.0298155 Z M47.9440181,72.7816974 C47.6704289,72.7816974 47.415079,72.7084871 47.1779684,72.580369 L44.7521445,71.1344649 C44.3873589,70.9331365 44.5697517,70.8599262 44.6791874,70.823321 C45.1716479,70.6585978 45.2628442,70.6219926 45.773544,70.3291513 C45.8282619,70.2925461 45.901219,70.3108487 45.9559368,70.3474539 L47.8163431,71.4639114 C47.8893002,71.5005166 47.9804966,71.5005166 48.0352144,71.4639114 L55.3126862,67.2360148 C55.3856433,67.1994096 55.4221219,67.1261993 55.4221219,67.0346863 L55.4221219,58.5971956 C55.4221219,58.5056827 55.3856433,58.4324723 55.3126862,58.3958672 L48.0352144,54.1862731 C47.9622573,54.1496679 47.8710609,54.1496679 47.8163431,54.1862731 L40.5388713,58.3958672 C40.4659142,58.4324723 40.4294357,58.5239852 40.4294357,58.5971956 L40.4294357,67.0346863 C40.4294357,67.1078967 40.4659142,67.1994096 40.5388713,67.2360148 L42.5269526,68.3890775 C43.60307,68.938155 44.2779233,68.2975646 44.2779233,67.6569742 L44.2779233,59.3292989 C44.2779233,59.2194834 44.3691196,59.1096679 44.4967946,59.1096679 L45.4269977,59.1096679 C45.5364334,59.1096679 45.6458691,59.2011808 45.6458691,59.3292989 L45.6458691,67.6569742 C45.6458691,69.1028782 44.8615801,69.944797 43.4936343,69.944797 C43.0741309,69.944797 42.7458239,69.944797 41.8156208,69.4872325 L39.9004966,68.3890775 C39.4262754,68.1145387 39.134447,67.6020664 39.134447,67.0529889 L39.134447,58.6154982 C39.134447,58.0664207 39.4262754,57.5539483 39.9004966,57.2794096 L47.1779684,53.0515129 C47.6339503,52.7952768 48.2540858,52.7952768 48.7100677,53.0515129 L55.9875395,57.2794096 C56.4617607,57.5539483 56.7535892,58.0664207 56.7535892,58.6154982 L56.7535892,67.0529889 C56.7535892,67.6020664 56.4617607,68.1145387 55.9875395,68.3890775 L48.7100677,72.6169742 C48.4729571,72.7267897 48.1993679,72.7816974 47.9440181,72.7816974 Z M50.1874492,66.9797786 C46.9955756,66.9797786 46.3389616,65.515572 46.3389616,64.2709963 C46.3389616,64.1611808 46.430158,64.0513653 46.557833,64.0513653 L47.5062754,64.0513653 C47.6157111,64.0513653 47.7069074,64.1245756 47.7069074,64.2343911 C47.8528217,65.204428 48.2723251,65.6802952 50.2056885,65.6802952 C51.7377878,65.6802952 52.3944018,65.3325461 52.3944018,64.5089299 C52.3944018,64.0330627 52.212009,63.6853137 49.8226637,63.4473801 C47.8345824,63.2460517 46.5943115,62.8067897 46.5943115,61.2144649 C46.5943115,59.7319557 47.8345824,58.8534317 49.91386,58.8534317 C52.2484876,58.8534317 53.3975621,59.6587454 53.5434763,61.4157934 C53.5434763,61.4707011 53.525237,61.5256089 53.4887585,61.5805166 C53.4522799,61.6171218 53.3975621,61.6537269 53.3428442,61.6537269 L52.3944018,61.6537269 C52.3032054,61.6537269 52.212009,61.5805166 52.1937698,61.4890037 C51.9748984,60.4823616 51.4094808,60.1529151 49.91386,60.1529151 C48.2358465,60.1529151 48.0352144,60.7385978 48.0352144,61.1778598 C48.0352144,61.7086347 48.2723251,61.8733579 50.5339955,62.1661993 C52.7774266,62.4590406 53.8353047,62.88 53.8353047,64.4540221 C53.8170655,66.0646494 52.5038375,66.9797786 50.1874492,66.9797786 Z M25.3637923,39.7821402 C25.3637923,39.4526937 25.1813995,39.1415498 24.8895711,38.9768266 L17.1561174,34.5109963 C17.0284424,34.437786 16.8825282,34.4011808 16.736614,34.3828782 L16.6636569,34.3828782 C16.5177427,34.3828782 16.3718284,34.437786 16.2441535,34.5109963 L8.51069977,38.9768266 C8.21887133,39.1415498 8.03647856,39.4526937 8.03647856,39.7821402 L8.05471783,51.7886347 C8.05471783,51.9533579 8.14591422,52.1180812 8.29182844,52.1912915 C8.43774266,52.2828044 8.62013544,52.2828044 8.74781038,52.1912915 L13.3441084,49.5557196 C13.6359368,49.3909963 13.8183296,49.0798524 13.8183296,48.7504059 L13.8183296,43.1315129 C13.8183296,42.8020664 14.0007223,42.4909225 14.2925508,42.3261993 L16.2441535,41.1914391 C16.3900677,41.0999262 16.5542212,41.063321 16.7183747,41.063321 C16.8825282,41.063321 17.0466817,41.0999262 17.1743567,41.1914391 L19.1259594,42.3261993 C19.4177878,42.4909225 19.6001806,42.8020664 19.6001806,43.1315129 L19.6001806,48.7504059 C19.6001806,49.0798524 19.7825734,49.3909963 20.0744018,49.5557196 L24.6706998,52.1912915 C24.816614,52.2828044 24.9990068,52.2828044 25.144921,52.1912915 C25.2908352,52.1180812 25.3820316,51.9533579 25.3820316,51.7886347 L25.3637923,39.7821402 Z M62.5354402,23.2549077 C62.389526,23.1816974 62.2071332,23.1816974 62.0794582,23.2549077 C61.933544,23.3464207 61.8423476,23.4928413 61.8423476,23.6575646 L61.8423476,35.5542435 C61.8423476,35.664059 61.7876298,35.7738745 61.6781941,35.8470849 C61.5687585,35.9019926 61.4593228,35.9019926 61.3498871,35.8470849 L59.4165237,34.7306273 C59.1246953,34.5659041 58.778149,34.5659041 58.4863205,34.7306273 L50.7528668,39.2147601 C50.4610384,39.3794834 50.2786456,39.6906273 50.2786456,40.0200738 L50.2786456,48.9700369 C50.2786456,49.2994834 50.4610384,49.6106273 50.7528668,49.7753506 L58.4863205,54.2594834 C58.778149,54.4242066 59.1246953,54.4242066 59.4165237,54.2594834 L67.1499774,49.7753506 C67.4418059,49.6106273 67.6241986,49.2994834 67.6241986,48.9700369 L67.6241986,26.6591882 C67.6241986,26.3114391 67.4418059,26.0002952 67.1499774,25.835572 L62.5354402,23.2549077 Z M29.3826273,49.416971 L29.3764334,49.4276015 C29.2305192,49.2628782 29.1575621,49.0615498 29.1575621,48.8419188 L29.1575621,39.9651661 C29.1575621,39.6357196 29.3399549,39.3245756 29.6317833,39.1598524 L37.3105192,34.7123247 C37.5266014,34.5858392 37.7604611,34.5485493 37.9945473,34.6180665 L38.0036117,34.6025092 C38.0765688,34.6208118 38.1677652,34.657417 38.2407223,34.6940221 L45.8647404,39.1415498 C45.9741761,39.1964576 46.0471332,39.2696679 46.101851,39.3428782 L46.0884526,39.3674866 C46.2131291,39.531486 46.2842438,39.748326 46.2842438,39.9651661 L46.2842438,48.8419188 C46.2842438,49.1713653 46.1565688,49.4825092 45.8647404,49.6472325 L38.2224831,54.0947601 C38.1677652,54.1313653 38.0948081,54.1496679 38.0400903,54.1679705 L42.4346966,46.0782288 L38.0400903,54.1496679 C37.8029797,54.2411808 37.5476298,54.2045756 37.3105192,54.0764576 L29.6317833,49.6289299 C29.5431498,49.5755652 29.4545164,49.5049123 29.3826273,49.416971 Z M37.7847405,54.2182578 C37.7847405,54.2182578 37.7847404,54.2182578 37.7847404,54.2182578 C37.7847404,54.2182578 37.7847405,54.2182578 37.7847405,54.2182578 Z M61.8241084,46.023321 C61.8241084,46.1148339 61.7876298,46.1880443 61.7146727,46.2246494 L59.0699774,47.7620664 C58.9970203,47.7986716 58.9058239,47.7986716 58.8328668,47.7620664 L56.1881716,46.2246494 C56.1152144,46.1880443 56.0787359,46.0965314 56.0787359,46.023321 L56.0787359,42.9484871 C56.0787359,42.8569742 56.1152144,42.7837638 56.1881716,42.7471587 L58.8328668,41.2097417 C58.9058239,41.1731365 58.9970203,41.1731365 59.0699774,41.2097417 L61.7146727,42.7471587 C61.7876298,42.7837638 61.8241084,42.8752768 61.8241084,42.9484871 L61.8241084,46.023321 Z M88.2710609,42.8752768 C88.5628894,42.7105535 88.7270429,42.3994096 88.7270429,42.0699631 L88.7270429,39.8919557 C88.7270429,39.5625092 88.5446501,39.2513653 88.2710609,39.0866421 L80.5923251,34.6208118 C80.3004966,34.4560886 79.9539503,34.4560886 79.6621219,34.6208118 L71.9286682,39.1049446 C71.6368397,39.2696679 71.454447,39.5808118 71.454447,39.9102583 L71.454447,48.8602214 C71.454447,49.1896679 71.6368397,49.5008118 71.9286682,49.6655351 L79.6074041,54.058155 C79.8992325,54.2228782 80.2457788,54.2228782 80.5193679,54.058155 L85.1703837,51.4591882 C85.316298,51.3859779 85.4074944,51.2212546 85.4074944,51.0565314 C85.4074944,50.8918081 85.316298,50.7270849 85.1703837,50.6538745 L77.4004515,46.1697417 C77.2545372,46.0782288 77.1633409,45.9318081 77.1633409,45.7670849 L77.1633409,42.9667897 C77.1633409,42.8020664 77.2545372,42.6373432 77.4004515,42.5641328 L79.8262754,41.1731365 C79.9721896,41.0816236 80.1545824,41.0816236 80.3004966,41.1731365 L82.7263205,42.5641328 C82.8722348,42.6556458 82.9634312,42.8020664 82.9634312,42.9667897 L82.9634312,45.1630996 C82.9634312,45.3278229 83.0546275,45.4925461 83.2005418,45.5657565 C83.346456,45.6572694 83.5288488,45.6572694 83.674763,45.5657565 L88.2710609,42.8752768 Z M80.0086682,42.4543173 C80.063386,42.4177122 80.1363431,42.4177122 80.1910609,42.4543173 L81.6684424,43.3145387 C81.7231603,43.3511439 81.7596388,43.4060517 81.7596388,43.479262 L81.7596388,45.1997048 C81.7596388,45.2729151 81.7231603,45.3278229 81.6684424,45.364428 L80.1910609,46.2246494 C80.1363431,46.2612546 80.063386,46.2612546 80.0086682,46.2246494 L78.5312867,45.364428 C78.4765688,45.3278229 78.4400903,45.2729151 78.4400903,45.1997048 L78.4400903,43.479262 C78.4400903,43.4060517 78.4765688,43.3511439 78.5312867,43.3145387 L80.0086682,42.4543173 Z" id="background"></path>
            </g>
            <g id="sass" transform="translate(424.000000, 1.000000)" fill="url(#linearGradient-3)" sketch:type="MSShapeGroup">
                <path d="M0,0 L96,0 L96,96 L0,96 L0,0 Z M71.788975,55.6176624 C71.0084623,54.07297 70.2279496,52.7233966 70.0978641,51.7152815 C69.951518,50.5445673 69.7726505,49.8291308 69.951518,48.4307776 C70.1303855,47.0324244 70.9434195,45.0487141 70.9434195,44.8861149 C70.9271589,44.7397756 70.7645521,44.0243391 69.0897019,44.0080792 C67.4148517,43.9918193 65.9676511,44.3332776 65.8050443,44.7722955 C65.6424375,45.2113133 65.3172239,46.2194284 65.105835,47.2600633 C64.8131427,48.7884958 61.7561347,54.2030494 60.0162418,57.0485354 C59.447118,55.9428609 58.9592975,54.9672656 58.8617334,54.1867894 C58.7153873,53.0160752 58.5365198,52.3006387 58.7153873,50.9022855 C58.8942548,49.5039323 59.7072889,47.520222 59.7072889,47.3576228 C59.6910282,47.2112836 59.5284214,46.4958471 57.8535712,46.4795871 C56.178721,46.4633272 54.7315204,46.8047855 54.5689136,47.2438034 C54.4063068,47.6828213 54.2274393,48.7234562 53.8697043,49.7315712 C53.52823,50.7396863 49.4630597,59.7802021 48.4061154,62.1378906 C47.869513,63.3411247 47.3979532,64.30046 47.0564789,64.9508568 C46.7150046,65.6175135 46.5523978,65.926452 46.5523978,65.926452 C46.3247483,66.34921 46.080838,66.7394481 45.9670133,66.7394481 C45.8857099,66.7394481 45.723103,65.6500334 45.9995346,64.1541207 C46.6011798,61.015956 48.0646411,56.12172 48.0483805,55.9428609 C48.0483805,55.8615613 48.324812,54.9997855 47.1052609,54.5607676 C45.9182312,54.1217498 45.4954535,54.8534462 45.3978894,54.8534462 C45.3003253,54.8534462 45.2190219,55.1136049 45.2190219,55.1136049 C45.2190219,55.1136049 46.5361371,49.6014919 42.6986163,49.6014919 C40.2920355,49.6014919 36.9748566,52.2193391 35.3325278,54.6095474 C34.2918442,55.1786446 32.0803915,56.3818787 29.7388535,57.6664124 C28.844516,58.15421 27.9176572,58.6745275 27.0395804,59.1460652 L26.8607129,58.9509461 C22.2101581,53.9916704 13.6082577,50.4795276 13.9659927,43.8129602 C14.0960782,41.390232 14.9416336,35.0000833 30.4868448,27.2603611 C43.2189581,20.9189922 53.4144052,22.6588036 55.1868195,26.5286647 C57.7072251,32.0570377 49.7394913,42.3333074 36.5032968,43.8129602 C31.4624857,44.3820574 28.8119946,42.4308669 28.1453067,41.6991705 C27.4460974,40.9349543 27.3485333,40.9024344 27.0883624,41.0487737 C26.6655847,41.2764126 26.9257556,41.9593292 27.0883624,42.3658273 C27.4786188,43.3902022 29.1046869,45.2113133 31.8690027,46.1218689 C34.2918442,46.918605 40.2107321,47.3576228 47.3654318,44.5934364 C55.3819477,41.4877916 61.6423099,32.8700337 59.8048529,25.6668889 C57.9348746,18.3336648 45.7718851,15.9271966 34.2755835,20.0084366 C27.4298367,22.4474247 20.0149661,26.2522461 14.6814627,31.2440417 C8.33979703,37.1626527 7.3316348,42.3333074 7.75441251,44.4796169 C9.23413449,52.1380395 19.7873166,57.1298351 24.0150937,60.820837 C23.8037048,60.9346564 23.6085767,61.0484759 23.4297092,61.1460354 C21.3158206,62.1866703 13.2667834,66.3979897 11.250459,70.8532079 C8.97396359,75.8937833 11.6081939,79.5197455 13.3643475,80.0075432 C18.795415,81.5197158 24.356568,78.804309 27.364794,74.3328309 C30.3567593,69.8613528 29.9990244,64.0565612 28.6168665,61.4061941 L30.2266739,60.3330394 C31.2998788,59.6989025 32.3568231,59.1135453 33.2836819,58.6094878 C32.7633402,60.0241009 32.3893445,61.6988727 32.1942163,64.1378608 C31.9665668,66.9996068 33.1373358,70.7068686 34.6821005,72.1702615 C35.3650491,72.8043984 36.1780832,72.8206583 36.6821643,72.8206583 C38.4708392,72.8206583 39.2838733,71.3410055 40.1782108,69.5686742 C41.2839371,67.4061048 42.259578,64.902077 42.259578,64.902077 C42.259578,64.902077 41.0400269,71.6824639 44.3734665,71.6824639 C45.5930176,71.6824639 46.8125687,70.1052516 47.3654318,69.2922556 C47.5930814,68.9507972 47.6581241,68.8369778 47.6581241,68.8369778 C48.1459445,67.9589421 49.2354102,66.0240116 50.8614783,62.8208072 C52.9591062,58.6907874 54.9754306,53.5201327 54.9754306,53.5201327 C54.9754306,53.5201327 55.1705588,54.7884065 55.772204,56.8696763 C56.129939,58.1054303 56.9104517,59.4550037 57.5120969,60.7720572 C57.0242765,61.4549739 56.7315842,61.845212 56.7315842,61.845212 C56.3575885,62.3817894 55.9185501,62.9346267 55.4632511,63.487464 C53.8046616,65.4711743 51.8208585,67.7313032 51.5606876,68.3817 C51.2517346,69.1459163 51.3167774,69.7150135 51.9184226,70.1702913 C52.357461,70.4954897 53.1379737,70.5605294 53.9672684,70.4954897 C55.4632511,70.3979302 56.5039347,70.023952 57.0242765,69.7963131 C57.8373105,69.5036345 58.7641693,69.0646167 59.6585068,68.4142199 C61.2845749,67.2109857 62.2764765,65.5036941 62.1789124,63.2273052 C62.1301304,61.9752914 61.7236133,60.7395374 61.2195322,59.5688231 C61.3658783,59.3574442 61.5122245,59.1460652 61.6585706,58.9184263 C64.2277582,55.1623847 66.2115613,51.0323649 66.2115613,51.0323649 C66.2115613,51.0323649 66.4066895,52.3006387 67.0083347,54.3819085 C67.3172876,55.4388033 67.9351935,56.5932577 68.4880567,57.7314521 C66.0814759,59.6989025 64.5692325,61.9752914 64.0488907,63.471204 C63.0895105,66.2353905 63.8375019,67.4874044 65.2521811,67.780083 C65.8863477,67.9101623 66.7969458,67.6174838 67.4798945,67.3248052 C68.3254499,67.0483865 69.3498728,66.5768488 70.2929923,65.8776723 C71.9190604,64.6744382 73.4800858,62.9996663 73.3987824,60.7395374 C73.3500004,59.6989025 73.0735688,58.6745275 72.6995731,57.6989323 C74.7484189,56.8534164 77.39891,56.3656188 80.764871,56.7721168 C88.0008741,57.6176327 89.431814,62.1378906 89.1553825,64.0240413 C88.8789509,65.9101921 87.3667075,66.950827 86.8626264,67.2760254 C86.3585453,67.5849639 86.1959385,67.6987834 86.2447205,67.9264222 C86.3097633,68.2678806 86.5374128,68.2516207 86.9764512,68.186581 C87.5780964,68.0890215 90.7814506,66.6418885 90.911536,63.1622655 C91.1066642,58.6907874 86.8626264,53.8128113 79.333931,53.861591 C76.4232691,53.877851 73.9028635,54.5770275 71.788975,55.6176624 Z M23.5272732,72.674319 C21.1369531,75.2921662 17.7709921,76.2840214 16.3400522,75.4385055 C14.7952875,74.5442099 15.3969327,70.6906087 18.340116,67.9101623 C20.1287909,66.2191306 22.4540683,64.6581782 23.9825723,63.6988429 C24.3240466,63.487464 24.8443884,63.1785255 25.4622943,62.8045473 C25.5598584,62.7395076 25.6249011,62.7069878 25.6249011,62.7069878 C25.7387259,62.6419481 25.8688113,62.5606485 25.9988968,62.4793489 C27.0883624,66.4467695 26.0476788,69.9263925 23.5272732,72.674319 L23.5272732,72.674319 Z M41.0075055,60.7883172 C40.1782108,62.8208072 38.4220572,68.0402417 37.3651129,67.7475631 C36.4545148,67.5036643 35.9016516,63.5525036 37.1862454,59.6501227 C37.8366727,57.6826723 39.2188306,55.3412438 40.0318646,54.4306883 C41.3489798,52.9672954 42.7799198,52.4794978 43.1376547,53.0811149 C43.5604325,53.861591 41.5278473,59.5200434 41.0075055,60.7883172 L41.0075055,60.7883172 Z M55.4307297,67.6825234 C55.0729947,67.8613826 54.7477811,67.9914619 54.601435,67.8939024 C54.4876102,67.8288627 54.7477811,67.5849639 54.7477811,67.5849639 C54.7477811,67.5849639 56.5527167,65.6500334 57.2681867,64.7557378 C57.6747037,64.2354203 58.1625241,63.6338032 58.6828659,62.9508866 L58.6828659,63.1460056 C58.6828659,65.4874342 56.4388919,67.0483865 55.4307297,67.6825234 L55.4307297,67.6825234 Z M66.5530356,65.1459758 C66.2928647,64.9508568 66.3253861,64.3492397 67.2034629,62.463089 C67.5449372,61.7151326 68.3254499,60.4631187 69.6750864,59.2761446 C69.8376932,59.7639422 69.9352573,60.2354799 69.9189966,60.6744977 C69.902736,63.6012834 67.8213688,64.6906981 66.5530356,65.1459758 L66.5530356,65.1459758 Z" id="background"></path>
            </g>
            <g id="botstrap" transform="translate(530.000000, 1.000000)" fill="url(#linearGradient-3)" sketch:type="MSShapeGroup">
                <path d="M0,0 L96,0 L96,96 L0,96 L0,0 Z M68.9333333,18.2039216 C71.5,18.2039216 73.9257516,19.2104575 75.7576471,21.0423529 C77.5895425,22.8742484 78.5960784,25.3 78.5960784,27.8666667 L78.5960784,68.9333333 C78.5960784,71.5 77.5895425,73.9257516 75.7576471,75.7576471 C73.9257516,77.5895425 71.5,78.5960784 68.9333333,78.5960784 L27.8666667,78.5960784 C25.3,78.5960784 22.8742484,77.5895425 21.0423529,75.7576471 C19.2104575,73.9257516 18.2039216,71.5 18.2039216,68.9333333 L18.2039216,27.8666667 C18.2039216,25.3 19.2104575,22.8742484 21.0423529,21.0423529 C22.8742484,19.2104575 25.3,18.2039216 27.8666667,18.2039216 L68.9333333,18.2039216 Z M34.3386928,30.9869281 L51.8020915,30.9869281 C55.0230065,30.9869281 57.6098039,31.7216993 59.5524183,33.2013072 C61.4950327,34.680915 62.4713725,36.9053595 62.4713725,39.8947712 C62.4713725,41.7065359 62.0284967,43.2566013 61.1427451,44.5449673 C60.2569935,45.8333333 58.9887582,46.8398693 57.3380392,47.5444444 L57.3380392,47.645098 C59.5524183,48.1181699 61.2333333,49.1649673 62.370719,50.7854902 C63.5081046,52.4160784 64.0818301,54.449281 64.0818301,56.9052288 C64.0818301,58.3143791 63.8301961,59.6329412 63.3269281,60.8508497 C62.8236601,62.0788235 62.0385621,63.1356863 60.9615686,64.0214379 C59.8845752,64.9071895 58.5156863,65.6117647 56.8347712,66.1351634 C55.1538562,66.6585621 53.160915,66.9202614 50.8458824,66.9202614 L34.3386928,66.9202614 L34.3386928,30.9869281 Z M40.6295425,46.0346405 L50.8962092,46.0346405 C52.4060131,46.0346405 53.664183,45.6118954 54.670719,44.7462745 C55.6772549,43.8806536 56.1805229,42.6526797 56.1805229,41.0422222 C56.1805229,39.2304575 55.7275817,37.9521569 54.8216993,37.2173856 C53.915817,36.4826144 52.6073203,36.1101961 50.8962092,36.1101961 L40.6295425,36.1101961 L40.6295425,46.0346405 L40.6295425,46.0346405 L40.6295425,46.0346405 Z M40.6295425,61.7869281 L51.7517647,61.7869281 C53.664183,61.7869281 55.1538562,61.2937255 56.2006536,60.2972549 C57.2575163,59.3108497 57.7909804,57.9016993 57.7909804,56.0899346 C57.7909804,54.308366 57.2675817,52.9495425 56.2006536,51.983268 C55.1337255,51.0169935 53.664183,50.5539869 51.7517647,50.5539869 L40.6295425,50.5539869 L40.6295425,61.7869281 L40.6295425,61.7869281 Z" id="Rectangle-5"></path>
            </g>
            <g id="jquery" transform="translate(635.000000, 0.000000)" fill="url(#linearGradient-3)" sketch:type="MSShapeGroup">
                <g id="JQuery_logo-01" transform="translate(0.800000, 0.600000)">
                    <path d="M59.5734351,41.4170543 L56.7755725,41.4170543 C56.6120611,41.4170543 56.4667176,41.5429457 56.4303817,41.6868217 L55.431145,46.2189147 L54.4319084,50.7510078 C54.3955725,50.8948837 54.250229,51.0207752 54.0867176,51.0207752 L52.4152672,51.0207752 L52.1245802,51.0207752 C50.1624427,51.0207752 50.398626,49.6899225 50.7983206,47.8555039 C50.7983206,47.8375194 50.7983206,47.8195349 50.8164885,47.8015504 L50.8528244,47.5677519 L50.8528244,47.5317829 L50.9436641,47.064186 L51.0345038,46.5606202 C51.0708397,46.4167442 51.1071756,46.1829457 51.1435115,46.0390698 L51.5977099,43.8629457 L52.0519084,41.6868217 C52.0882443,41.5429457 51.9792366,41.4170543 51.8338931,41.4170543 L48.9633588,41.4170543 C48.7998473,41.4170543 48.6545038,41.5429457 48.6181679,41.6868217 L48.000458,44.5823256 L47.3827481,47.4778295 L47.3282443,47.7475969 C46.6196947,50.9488372 46.801374,54.0062016 50.6529771,54.096124 L50.7619847,54.096124 L56.8119084,54.096124 C56.9754198,54.096124 57.1207634,53.9702326 57.1570992,53.8263566 L58.4651908,47.7475969 L59.7732824,41.6688372 C59.8277863,41.5429457 59.7187786,41.4170543 59.5734351,41.4170543 Z M29.6871756,41.3810853 L26.6167939,41.3810853 C26.4532824,41.3810853 26.3079389,41.5069767 26.2716031,41.6508527 L25.980916,42.9277519 L25.690229,44.2046512 C25.6538931,44.3485271 25.7629008,44.4744186 25.9082443,44.4744186 L28.9967939,44.4744186 C29.1603053,44.4744186 29.3056489,44.3485271 29.3419847,44.2046512 L29.6145038,42.9277519 L29.8870229,41.6508527 C29.9415267,41.5069767 29.850687,41.3810853 29.6871756,41.3810853 Z M28.7969466,45.3376744 L25.7083969,45.3376744 C25.5448855,45.3376744 25.399542,45.4635659 25.3632061,45.6074419 L24.9271756,47.5137984 L24.491145,49.420155 C24.4548092,49.564031 24.4003053,49.815814 24.3639695,49.9596899 L23.9461069,51.9020155 L23.5464122,53.8263566 C23.5100763,53.9702326 23.4555725,54.2220155 23.4010687,54.3658915 C23.4010687,54.3658915 22.8196947,56.0564341 21.8567939,56.0384496 L21.7296183,56.0384496 C21.2572519,56.0384496 20.8938931,56.0204651 20.8938931,56.0204651 C20.7303817,56.0204651 20.5850382,56.1463566 20.5487023,56.2902326 L20.2216794,57.6210853 L19.8946565,58.951938 C19.8583206,59.095814 19.9491603,59.2217054 20.1126718,59.2217054 C20.6577099,59.2217054 21.8931298,59.2396899 22.6380153,59.2396899 C25.0543511,59.2396899 26.3442748,57.9088372 27.1618321,54.096124 L28.1247328,49.707907 L29.0149618,45.5894574 C29.0512977,45.4455814 28.960458,45.3376744 28.7969466,45.3376744 Z M85.6625954,44.2945736 L85.5354198,43.7730233 L85.4082443,43.2334884 L85.3355725,42.9637209 C85.0812214,41.9925581 84.3545038,41.4350388 82.7557252,41.4350388 L80.2667176,41.4350388 L77.9775573,41.4350388 L77.7777099,41.4350388 L75.3977099,41.4350388 C75.2341985,41.4350388 75.088855,41.5609302 75.0525191,41.7048062 L74.9435115,42.2443411 L74.8163359,42.8737984 L74.78,43.0536434 L73.6172519,48.4310078 L72.5090076,53.5386047 C72.4726718,53.6824806 72.4726718,53.8803101 72.4908397,53.9522481 C72.5090076,54.024186 72.7996947,54.096124 72.9632061,54.096124 L75.2887023,54.096124 C75.4522137,54.096124 75.6338931,54.060155 75.7247328,54.0421705 C75.8155725,54.0062016 75.9427481,53.7004651 75.960916,53.5565891 L76.3787786,51.5243411 L76.7966412,49.492093 L76.851145,49.2223256 L77.3598473,46.9023256 L77.7958779,44.852093 C77.8322137,44.7082171 77.9775573,44.5823256 78.1410687,44.5823256 L85.4627481,44.5823256 C85.5899237,44.5643411 85.6989313,44.4564341 85.6625954,44.2945736 Z M95.0917557,39.5646512 L94.5285496,39.5646512 L92.1848855,39.5646512 C92.021374,39.5646512 91.8396947,39.6725581 91.748855,39.7984496 L86.5709924,47.315969 C86.4801527,47.4418605 86.389313,47.423876 86.3529771,47.28 L85.9714504,45.6254264 C85.9351145,45.4815504 85.789771,45.3556589 85.6262595,45.3556589 L82.3015267,45.3556589 C82.1380153,45.3556589 82.0471756,45.4815504 82.1016794,45.6254264 L83.5914504,50.8049612 C83.6277863,50.9488372 83.6459542,51.2006202 83.5914504,51.3444961 L82.9374046,53.8443411 C82.9010687,53.9882171 82.9919084,54.1141085 83.1554198,54.1141085 L86.4438168,54.1141085 C86.6073282,54.1141085 86.7526718,53.9882171 86.7890076,53.8443411 L87.4430534,51.3444961 C87.4793893,51.2006202 87.5883969,50.9668217 87.6792366,50.8589147 L96.0909924,39.7984496 C96.1818321,39.6725581 96.1273282,39.5826357 95.9819847,39.5826357 L95.0917557,39.5646512 Z M68.6210687,46.0570543 C68.6029008,46.2189147 68.4393893,46.3448062 68.2940458,46.3448062 L64.079084,46.3448062 C63.9337405,46.3448062 63.8610687,46.2548837 63.8792366,46.1289922 C63.8792366,46.1289922 63.8792366,46.1289922 63.8792366,46.1110078 L63.8792366,46.0930233 C63.8792366,46.0930233 63.8792366,46.0570543 63.8974046,46.0210853 C64.2970992,44.96 65.1146565,44.2586047 66.6589313,44.2586047 C68.4030534,44.2586047 68.7300763,45.103876 68.6210687,46.0570543 Z M67.3856489,41.2192248 C61.9716031,41.2192248 60.6816794,44.4744186 59.9549618,47.7655814 C59.2282443,51.1106977 59.300916,54.2579845 64.9148092,54.2579845 L65.1146565,54.2579845 L65.1691603,54.2579845 L65.3326718,54.2579845 L65.3871756,54.2579845 L65.5325191,54.2579845 L65.6051908,54.2579845 L65.7687023,54.2579845 L65.8050382,54.2579845 L66.4772519,54.2579845 L66.4954198,54.2579845 C67.9851908,54.2579845 69.4567939,54.24 70.0563359,54.24 C70.2016794,54.24 70.3651908,54.1141085 70.4015267,53.9702326 L70.619542,52.8731783 L70.6558779,52.6573643 L70.9283969,51.3444961 C70.9647328,51.2006202 70.8557252,51.0747287 70.7103817,51.0747287 L65.6596947,51.0747287 C63.6612214,51.0747287 63.0616794,50.5531783 63.2796947,48.9885271 L71.3462595,48.9885271 C71.4734351,48.9885271 71.6006107,48.8986047 71.6369466,48.7906977 C71.6369466,48.7727132 71.6551145,48.7367442 71.6551145,48.7187597 C72.8541985,44.2406202 72.5090076,41.2192248 67.3856489,41.2192248 Z M41.750687,46.0390698 L41.6780153,46.3088372 L41.0603053,48.4310078 L40.4607634,50.5711628 C40.4244275,50.7150388 40.260916,50.8409302 40.0974046,50.8409302 L36.8816794,50.8409302 C34.4290076,50.8409302 33.8476336,48.9525581 34.4290076,46.1649612 C35.0285496,43.3054264 36.1912977,41.5429457 38.5894656,41.3631008 C41.8960305,41.1113178 42.5500763,43.3953488 41.750687,46.0390698 Z M43.9671756,50.6790698 C43.9671756,50.6790698 45.4932824,47.0282171 45.8384733,44.924031 C46.2926718,42.1004651 44.8755725,38 39.3525191,38 C33.8658015,38 31.4858015,41.9026357 30.5774046,46.1649612 C29.6690076,50.4452713 30.8680916,54.204031 36.3184733,54.168062 L40.6242748,54.1500775 L44.6393893,54.132093 C44.8029008,54.132093 44.9482443,54.0062016 44.9845802,53.8623256 L45.6931298,51.2186047 C45.7294656,51.0747287 45.638626,50.9488372 45.4751145,50.9488372 L44.8029008,50.9488372 L44.130687,50.9488372 C44.0035115,50.9488372 43.9308397,50.8589147 43.9308397,50.7510078 C43.9490076,50.7150388 43.9490076,50.6970543 43.9671756,50.6790698 Z M2.09007634,43.4852713 C0.582137405,45.6434109 0.763816794,48.4489922 1.92656489,50.7330233 C1.96290076,50.7869767 1.9810687,50.8409302 2.01740458,50.8948837 C2.03557252,50.9308527 2.05374046,50.9668217 2.0719084,51.0027907 C2.09007634,51.0207752 2.09007634,51.0387597 2.10824427,51.0567442 C2.12641221,51.0927132 2.14458015,51.1286822 2.16274809,51.1646512 C2.19908397,51.2186047 2.23541985,51.2905426 2.27175573,51.3444961 C2.28992366,51.3804651 2.3080916,51.4164341 2.32625954,51.4524031 C2.36259542,51.5243411 2.41709924,51.5782946 2.45343511,51.6502326 C2.47160305,51.6862016 2.48977099,51.704186 2.50793893,51.740155 C2.56244275,51.8300775 2.6351145,51.92 2.68961832,52.0099225 C2.70778626,52.027907 2.70778626,52.0458915 2.7259542,52.0458915 C2.78045802,52.1178295 2.83496183,52.1897674 2.88946565,52.2617054 C2.90763359,52.2796899 2.92580153,52.3156589 2.9621374,52.3336434 C3.01664122,52.4055814 3.07114504,52.4595349 3.12564885,52.5314729 C3.14381679,52.5494574 3.16198473,52.5854264 3.18015267,52.6034109 C3.25282443,52.6933333 3.32549618,52.7652713 3.39816794,52.8551938 C3.39816794,52.8551938 3.39816794,52.8551938 3.39816794,52.8731783 C3.47083969,52.9451163 3.54351145,53.0350388 3.61618321,53.1069767 C3.63435115,53.1249612 3.67068702,53.1609302 3.68885496,53.1789147 C3.74335878,53.2328682 3.7978626,53.2868217 3.87053435,53.3587597 C3.88870229,53.3767442 3.92503817,53.4127132 3.94320611,53.4306977 C4.01587786,53.5026357 4.10671756,53.5745736 4.17938931,53.6465116 C4.19755725,53.6644961 4.21572519,53.6644961 4.21572519,53.6824806 C4.28839695,53.7364341 4.3610687,53.8083721 4.43374046,53.8623256 C4.47007634,53.8803101 4.48824427,53.9162791 4.52458015,53.9342636 C4.57908397,53.9882171 4.65175573,54.024186 4.70625954,54.0781395 C4.74259542,54.096124 4.7789313,54.132093 4.79709924,54.1500775 C4.86977099,54.204031 4.94244275,54.24 4.99694656,54.2939535 C5.0151145,54.311938 5.05145038,54.3299225 5.06961832,54.347907 L5.08778626,54.3658915 C5.16045802,54.4018605 5.21496183,54.455814 5.28763359,54.4917829 C5.32396947,54.5097674 5.3421374,54.5277519 5.37847328,54.5457364 C5.48748092,54.6176744 5.57832061,54.6716279 5.68732824,54.7435659 C5.72366412,54.7615504 5.74183206,54.7795349 5.77816794,54.7975194 C5.85083969,54.8334884 5.94167939,54.8874419 6.01435115,54.9234109 C6.05068702,54.9413953 6.10519084,54.9593798 6.14152672,54.9953488 C6.19603053,55.0313178 6.25053435,55.0493023 6.30503817,55.0852713 C6.32320611,55.0852713 6.32320611,55.1032558 6.34137405,55.1032558 C6.35954198,55.1212403 6.39587786,55.1212403 6.4140458,55.1392248 C6.5048855,55.1751938 6.59572519,55.2291473 6.68656489,55.2651163 C6.70473282,55.2651163 6.72290076,55.2831008 6.7410687,55.2831008 C6.85007634,55.3190698 6.94091603,55.3730233 7.04992366,55.4089922 C7.0680916,55.4269767 7.10442748,55.4269767 7.12259542,55.4449612 C7.21343511,55.4809302 7.32244275,55.5168992 7.41328244,55.5528682 C7.43145038,55.5528682 7.43145038,55.5528682 7.44961832,55.5708527 C7.55862595,55.6068217 7.66763359,55.6427907 7.77664122,55.6787597 C7.79480916,55.6787597 7.83114504,55.6967442 7.84931298,55.6967442 C7.95832061,55.7327132 8.06732824,55.7686822 8.19450382,55.7866667 C15.5161832,57.1175194 17.6418321,51.4344186 17.6418321,51.4344186 C15.8977099,53.7184496 12.7364885,54.3299225 9.72061069,53.6465116 C9.61160305,53.6285271 9.50259542,53.5925581 9.39358779,53.5565891 C9.35725191,53.5565891 9.33908397,53.5386047 9.30274809,53.5386047 C9.19374046,53.5026357 9.08473282,53.4666667 8.97572519,53.4306977 C8.95755725,53.4306977 8.93938931,53.4127132 8.93938931,53.4127132 C8.84854962,53.3767442 8.75770992,53.3407752 8.64870229,53.3048062 C8.63053435,53.2868217 8.61236641,53.2868217 8.57603053,53.2688372 C8.4670229,53.2328682 8.37618321,53.1789147 8.26717557,53.1429457 C8.24900763,53.1429457 8.23083969,53.1249612 8.21267176,53.1249612 C8.12183206,53.0889922 8.03099237,53.0530233 7.95832061,52.9990698 C7.94015267,52.9810853 7.90381679,52.9810853 7.88564885,52.9631008 C7.8129771,52.9271318 7.75847328,52.8911628 7.68580153,52.8551938 C7.64946565,52.8372093 7.59496183,52.8012403 7.55862595,52.7832558 C7.4859542,52.7472868 7.3951145,52.6933333 7.32244275,52.6573643 C7.30427481,52.6393798 7.26793893,52.6213953 7.24977099,52.6213953 C7.14076336,52.5674419 7.03175573,52.4955039 6.94091603,52.4235659 C6.90458015,52.4055814 6.88641221,52.3875969 6.85007634,52.3696124 C6.77740458,52.3156589 6.70473282,52.2796899 6.63206107,52.2257364 C6.61389313,52.2077519 6.57755725,52.1897674 6.55938931,52.1717829 C6.48671756,52.1178295 6.4140458,52.063876 6.34137405,52.027907 C6.30503817,52.0099225 6.28687023,51.9739535 6.25053435,51.955969 C6.1778626,51.9020155 6.12335878,51.8660465 6.06885496,51.812093 C6.03251908,51.7941085 6.01435115,51.776124 5.97801527,51.740155 C5.90534351,51.6682171 5.81450382,51.6142636 5.74183206,51.5423256 L5.72366412,51.5243411 C5.63282443,51.4524031 5.56015267,51.3804651 5.46931298,51.3085271 C5.45114504,51.2905426 5.41480916,51.2725581 5.39664122,51.2365891 C5.3421374,51.1826357 5.26946565,51.1286822 5.21496183,51.0567442 C5.19679389,51.0387597 5.16045802,51.0027907 5.14229008,50.9848062 C5.06961832,50.9128682 4.99694656,50.8409302 4.92427481,50.7510078 C4.92427481,50.7510078 4.92427481,50.7510078 4.90610687,50.7330233 C4.83343511,50.6431008 4.76076336,50.5711628 4.6880916,50.4812403 C4.66992366,50.4632558 4.65175573,50.4272868 4.63358779,50.4093023 C4.57908397,50.3373643 4.52458015,50.2834109 4.47007634,50.2114729 C4.4519084,50.1934884 4.43374046,50.1575194 4.41557252,50.1395349 C4.3610687,50.0675969 4.28839695,49.9776744 4.23389313,49.8877519 C2.56244275,47.6396899 1.96290076,44.5283721 3.30732824,41.9745736 L2.09007634,43.4852713 Z M6.79557252,41.6688372 C5.70549618,43.2334884 5.76,45.3196899 6.61389313,46.9742636 C6.75923664,47.244031 6.92274809,47.5137984 7.10442748,47.7835659 C7.26793893,48.0173643 7.44961832,48.2871318 7.66763359,48.4849612 C7.74030534,48.5748837 7.83114504,48.6468217 7.92198473,48.7367442 C7.94015267,48.7547287 7.95832061,48.7727132 7.99465649,48.8086822 C8.08549618,48.8806202 8.15816794,48.9705426 8.24900763,49.0424806 L8.26717557,49.0424806 C8.35801527,49.1324031 8.4670229,49.2043411 8.5578626,49.2762791 C8.57603053,49.2942636 8.59419847,49.3122481 8.63053435,49.3302326 C8.73954198,49.4021705 8.83038168,49.4741085 8.93938931,49.5460465 C8.99389313,49.5820155 9.03022901,49.6 9.08473282,49.635969 C9.10290076,49.6539535 9.1210687,49.671938 9.15740458,49.671938 C9.23007634,49.7258915 9.30274809,49.7618605 9.39358779,49.815814 C9.41175573,49.815814 9.41175573,49.8337984 9.42992366,49.8337984 C9.50259542,49.8697674 9.55709924,49.9057364 9.62977099,49.9417054 C9.64793893,49.9596899 9.68427481,49.9596899 9.70244275,49.9776744 C9.75694656,49.9956589 9.79328244,50.0316279 9.84778626,50.0496124 C9.84778626,50.0496124 9.8659542,50.0496124 9.8659542,50.0675969 C9.95679389,50.1215504 10.0658015,50.1575194 10.1566412,50.2114729 C10.1748092,50.2294574 10.1929771,50.2294574 10.229313,50.2294574 C10.3019847,50.2654264 10.3928244,50.3013953 10.4654962,50.3193798 C10.5018321,50.3373643 10.5381679,50.3373643 10.5745038,50.3553488 C10.6471756,50.3733333 10.7198473,50.4093023 10.7925191,50.4272868 C10.828855,50.4452713 10.8651908,50.4452713 10.8833588,50.4632558 C10.9923664,50.4992248 11.101374,50.5351938 11.2103817,50.5531783 C16.8061069,51.4883721 18.0960305,47.172093 18.0960305,47.172093 C16.9151145,48.8446512 14.6441221,49.6539535 12.2096183,49.0244961 C12.1006107,48.9885271 11.9916031,48.9705426 11.8825954,48.9345736 C11.8462595,48.9165891 11.8099237,48.9165891 11.7917557,48.8986047 C11.719084,48.8806202 11.6464122,48.8446512 11.5737405,48.8266667 C11.5374046,48.8086822 11.5010687,48.8086822 11.4647328,48.7906977 C11.3920611,48.7547287 11.3012214,48.7367442 11.2285496,48.7007752 C11.2103817,48.6827907 11.1922137,48.6827907 11.1558779,48.6648062 C11.0650382,48.6288372 10.9560305,48.5748837 10.8651908,48.5209302 C10.810687,48.5029457 10.7743511,48.4669767 10.7198473,48.4489922 C10.6835115,48.4310078 10.6653435,48.4130233 10.6290076,48.4130233 C10.5745038,48.3770543 10.5018321,48.3410853 10.4473282,48.3051163 C10.4291603,48.3051163 10.4109924,48.2871318 10.4109924,48.2871318 C10.3383206,48.2511628 10.2656489,48.1972093 10.1929771,48.1432558 C10.1748092,48.1252713 10.1566412,48.1072868 10.1203053,48.0893023 C10.0658015,48.0533333 10.0294656,48.0173643 9.97496183,47.9993798 C9.8659542,47.9274419 9.7751145,47.8555039 9.66610687,47.7835659 C9.64793893,47.7655814 9.61160305,47.7475969 9.59343511,47.7296124 C8.52152672,46.9023256 7.68580153,45.7693023 7.28610687,44.4744186 C6.86824427,43.1435659 6.95908397,41.6328682 7.68580153,40.4099225 L6.79557252,41.6688372 Z M10.7380153,40.32 C10.0839695,41.2551938 10.0294656,42.424186 10.4836641,43.4672868 C10.9560305,44.5643411 11.9189313,45.4275969 13.0453435,45.8412403 C13.0998473,45.8592248 13.1361832,45.8772093 13.190687,45.8951938 C13.208855,45.8951938 13.2270229,45.9131783 13.2451908,45.9131783 C13.3178626,45.9311628 13.3723664,45.9491473 13.4450382,45.9671318 C16.5699237,46.5606202 17.4056489,44.3844961 17.6418321,44.0607752 C16.8969466,45.1218605 15.6615267,45.3736434 14.1172519,44.995969 C13.9900763,44.96 13.8629008,44.924031 13.7538931,44.888062 C13.6085496,44.8341085 13.4632061,44.780155 13.3178626,44.7082171 C13.0453435,44.5823256 12.7909924,44.4204651 12.5548092,44.2406202 C11.1740458,43.2155039 10.3383206,41.2551938 11.2285496,39.6545736 L10.7380153,40.32 Z M45.911145,58.6282171 L45.0027481,60.6604651 L44.0035115,60.6604651 L44.0761832,58.808062 L43.3494656,60.6604651 L42.3865649,60.6604651 L42.3683969,58.6282171 L42.4774046,58.1246512 L43.1677863,58.1246512 L43.0406107,60.1209302 L43.8036641,58.1246512 L44.7483969,58.1246512 L44.6757252,60.1568992 L45.4206107,58.1246512 L46.0201527,58.1246512 L45.911145,58.6282171 Z M47.4735878,59.2396899 C47.5644275,58.844031 47.5280916,58.772093 47.3282443,58.772093 L47.0193893,58.772093 L46.819542,59.7072868 L46.510687,60.6784496 L45.929313,60.6784496 L46.4016794,58.4843411 L46.4743511,58.1606202 L47.0012214,58.1606202 L47.0738931,58.3044961 C47.0738931,58.3044961 47.3827481,58.1246512 47.6734351,58.1246512 C48.309313,58.1246512 48.2548092,58.5922481 48.1276336,59.2576744 L47.4735878,59.2396899 Z M49.3630534,57.8189147 C49.1087023,57.8189147 48.9451908,57.7469767 48.9996947,57.4412403 C49.0723664,57.1355039 49.2722137,57.0635659 49.5265649,57.0635659 C49.780916,57.0635659 49.9444275,57.1355039 49.8717557,57.4412403 C49.8172519,57.7289922 49.6174046,57.8189147 49.3630534,57.8189147 Z M49.0905344,60.6604651 L48.5091603,60.6604651 L48.6181679,59.6713178 L48.8180153,58.7541085 L48.4183206,58.664186 L48.5273282,58.1246512 L49.6174046,58.1246512 L49.0905344,60.6604651 Z M51.579542,58.664186 L50.8528244,58.7541085 L50.6529771,59.7252713 C50.5984733,59.9950388 50.5984733,60.0669767 50.8346565,60.0669767 L51.3070229,60.0669767 L51.1980153,60.5705426 C51.1980153,60.5705426 50.7619847,60.6964341 50.5803053,60.6964341 C49.8354198,60.6964341 49.8535878,60.3007752 49.9807634,59.6893023 L50.1806107,58.736124 L49.780916,58.6462016 L49.9080916,58.1066667 L50.3259542,58.1066667 L50.5621374,57.4772093 L51.1253435,57.4772093 L50.98,58.1066667 L51.6885496,58.1066667 L51.579542,58.664186 Z M53.069313,58.700155 C52.7241221,58.700155 52.5606107,58.88 52.4879389,59.1857364 L53.4508397,59.1137984 C53.4871756,58.8979845 53.4508397,58.700155 53.069313,58.700155 Z M52.3970992,59.6353488 C52.3607634,59.9410853 52.469771,60.0489922 52.8694656,60.0489922 L53.8687023,60.0489922 L53.7778626,60.5165891 C53.7778626,60.5165891 53.1783206,60.6784496 52.7241221,60.6784496 C51.5977099,60.6784496 51.5977099,60.0489922 51.7430534,59.3835659 C51.8883969,58.736124 52.1427481,58.0706977 53.2328244,58.0706977 C54.2683969,58.0706977 54.3229008,58.700155 54.0685496,59.6173643 L52.3970992,59.6353488 Z M56.339542,60.6604651 L55.7581679,60.6604651 L55.8671756,59.6713178 L56.2668702,57.7829457 L55.8671756,57.6930233 L55.9943511,57.1534884 L57.0844275,57.1534884 L56.339542,60.6604651 Z M58.428855,58.700155 C58.0836641,58.700155 57.9201527,58.88 57.8474809,59.1857364 L58.8103817,59.1137984 C58.8467176,58.8979845 58.8103817,58.700155 58.428855,58.700155 Z M57.7384733,59.6353488 C57.7021374,59.9410853 57.811145,60.0489922 58.2108397,60.0489922 L59.2100763,60.0489922 L59.1010687,60.5165891 C59.1010687,60.5165891 58.5015267,60.6784496 58.0473282,60.6784496 C56.920916,60.6784496 56.920916,60.0489922 57.0662595,59.3835659 C57.2116031,58.736124 57.4659542,58.0706977 58.5560305,58.0706977 C59.5916031,58.0706977 59.6461069,58.700155 59.3917557,59.6173643 L57.7384733,59.6353488 Z M62.0442748,58.736124 L61.1177099,58.736124 C60.6998473,58.736124 60.6453435,58.8620155 60.6090076,59.0058915 L60.5908397,59.1317829 L61.9352672,59.2396899 C61.9352672,59.2396899 61.9352672,59.6713178 61.8807634,59.9051163 C61.8080916,60.3007752 61.3720611,60.7144186 60.6271756,60.7144186 C60.2456489,60.7144186 59.6461069,60.5705426 59.6461069,60.5705426 L59.7551145,60.0849612 L60.6816794,60.0849612 C61.099542,60.0849612 61.1540458,59.9770543 61.1722137,59.8691473 L61.2085496,59.7072868 L59.8822901,59.5993798 C59.8822901,59.5993798 59.8277863,59.2756589 59.900458,58.951938 C60.0094656,58.5023256 60.4091603,58.1246512 61.1722137,58.1246512 C61.5537405,58.1246512 62.1532824,58.2685271 62.1532824,58.2685271 L62.0442748,58.736124 Z M64.5514504,58.736124 L63.6248855,58.736124 C63.2070229,58.736124 63.1525191,58.8620155 63.1161832,59.0058915 L63.0980153,59.1317829 L64.4424427,59.2396899 C64.4424427,59.2396899 64.4424427,59.6713178 64.3879389,59.9051163 C64.3152672,60.3007752 63.8792366,60.7144186 63.1343511,60.7144186 C62.7528244,60.7144186 62.1532824,60.5705426 62.1532824,60.5705426 L62.2622901,60.0849612 L63.188855,60.0849612 C63.6067176,60.0849612 63.6612214,59.9770543 63.6793893,59.8691473 L63.7157252,59.7072868 L62.3894656,59.5993798 C62.3894656,59.5993798 62.3349618,59.2756589 62.4076336,58.951938 C62.5166412,58.5023256 62.9163359,58.1246512 63.6793893,58.1246512 C64.060916,58.1246512 64.660458,58.2685271 64.660458,58.2685271 L64.5514504,58.736124 Z M65.3326718,61.056124 L64.8239695,61.056124 L64.8421374,60.6784496 C64.660458,60.6604651 64.5696183,60.5345736 64.6059542,60.3187597 C64.678626,60.0130233 64.8603053,59.9410853 65.1328244,59.9410853 C65.3871756,59.9410853 65.550687,60.0130233 65.4780153,60.3187597 L65.3326718,61.056124 Z M68.6755725,58.7541085 C68.2940458,58.7541085 68.1668702,58.9699225 68.0760305,59.3835659 C67.9851908,59.7972093 68.0215267,60.0310078 68.3848855,60.0310078 L68.9117557,60.0310078 L69.2024427,58.7541085 L68.6755725,58.7541085 Z M69.5294656,60.3367442 L69.4567939,60.6604651 L68.9299237,60.6604651 L68.8572519,60.4986047 C68.8572519,60.4986047 68.4030534,60.6964341 68.0760305,60.6964341 C67.2766412,60.6964341 67.2403053,60.0489922 67.3856489,59.3835659 C67.5309924,58.7181395 67.8398473,58.0886822 68.6392366,58.0886822 C68.9299237,58.0886822 69.3114504,58.2325581 69.3114504,58.2325581 L69.6384733,57.1714729 L70.2198473,57.1714729 L69.5294656,60.3367442 Z M71.6006107,58.736124 C71.1100763,58.736124 70.9647328,59.0058915 70.8738931,59.4015504 C70.8012214,59.7972093 70.8375573,60.0849612 71.3099237,60.0849612 C71.818626,60.0849612 71.9639695,59.8151938 72.0548092,59.4015504 C72.1456489,59.023876 72.109313,58.736124 71.6006107,58.736124 Z M71.1827481,60.6964341 C70.1471756,60.6964341 70.0745038,60.0669767 70.2016794,59.4015504 C70.3470229,58.736124 70.7103817,58.1066667 71.7459542,58.1066667 C72.7633588,58.1066667 72.8723664,58.736124 72.7270229,59.4015504 C72.5816794,60.0669767 72.2183206,60.6964341 71.1827481,60.6964341 Z M77.0328244,60.6604651 L77.1418321,59.6893023 L77.1963359,59.4195349 C77.2690076,59.0418605 77.3235115,58.772093 76.9419847,58.772093 L76.6331298,58.772093 C76.6512977,58.9699225 76.6149618,59.1857364 76.560458,59.4015504 L76.2879389,60.6604651 L75.7065649,60.6604651 L75.8155725,59.6893023 L75.8700763,59.4195349 C75.9427481,59.0418605 75.9972519,58.772093 75.6157252,58.772093 L75.361374,58.772093 L74.9435115,60.6604651 L74.2712977,60.6604651 L74.8163359,58.1246512 L75.3432061,58.1246512 L75.4158779,58.2865116 C75.4158779,58.2865116 75.7792366,58.1066667 76.0517557,58.1066667 C76.269771,58.1066667 76.4332824,58.2145736 76.4877863,58.3224806 C76.6149618,58.2505426 76.9601527,58.1066667 77.2326718,58.1066667 C78.0320611,58.1066667 78.0138931,58.7541085 77.8685496,59.4015504 L77.5960305,60.6604651 L77.0328244,60.6604651 Z M79.6853435,58.736124 C79.1948092,58.736124 79.0494656,59.0058915 78.958626,59.4015504 C78.8859542,59.7972093 78.9222901,60.0849612 79.3946565,60.0849612 C79.9033588,60.0849612 80.0487023,59.8151938 80.139542,59.4015504 C80.2122137,59.023876 80.1940458,58.736124 79.6853435,58.736124 Z M79.2674809,60.6964341 C78.2319084,60.6964341 78.1592366,60.0669767 78.2864122,59.4015504 C78.4317557,58.736124 78.7951145,58.1066667 79.830687,58.1066667 C80.8480916,58.1066667 80.9570992,58.736124 80.8117557,59.4015504 C80.6482443,60.0669767 80.2848855,60.6964341 79.2674809,60.6964341 Z M82.5377099,59.2396899 C82.6285496,58.844031 82.5922137,58.772093 82.3923664,58.772093 L82.0835115,58.772093 L81.8836641,59.7072868 L81.5748092,60.6784496 L80.9934351,60.6784496 L81.4658015,58.4843411 L81.5384733,58.1606202 L82.0653435,58.1606202 L82.1380153,58.3044961 C82.1380153,58.3044961 82.4468702,58.1246512 82.7375573,58.1246512 C83.3734351,58.1246512 83.3189313,58.5922481 83.1917557,59.2576744 L82.5377099,59.2396899 Z M84.7723664,58.700155 C84.4271756,58.700155 84.2636641,58.88 84.1909924,59.1857364 L85.1538931,59.1137984 C85.2083969,58.8979845 85.1538931,58.700155 84.7723664,58.700155 Z M0.2,0.4 L96.2,0.4 L96.2,96.4 L0.2,96.4 L0.2,0.4 Z M84.1001527,59.6353488 C84.0638168,59.9410853 84.1728244,60.0489922 84.5725191,60.0489922 L85.5717557,60.0489922 L85.480916,60.5165891 C85.480916,60.5165891 84.881374,60.6784496 84.4271756,60.6784496 C83.3007634,60.6784496 83.3007634,60.0489922 83.4461069,59.3835659 C83.5914504,58.736124 83.8458015,58.0706977 84.9358779,58.0706977 C85.9714504,58.0706977 86.0259542,58.700155 85.7716031,59.6173643 L84.1001527,59.6353488 Z M86.3166412,60.6964341 C86.0622901,60.6964341 85.8987786,60.6244961 85.9532824,60.3187597 C86.0077863,60.0130233 86.2076336,59.9410853 86.4801527,59.9410853 C86.7163359,59.9410853 86.8980153,60.0130233 86.8253435,60.3187597 C86.7526718,60.6244961 86.5528244,60.6964341 86.3166412,60.6964341 Z" id="Shape"></path>
                </g>
            </g>
            <g id="angular" transform="translate(742.000000, 1.000000)" fill="url(#linearGradient-3)" sketch:type="MSShapeGroup">
                <path d="M83.3660465,51.9670924 C83.2720537,51.9374973 83.1788169,51.9062099 83.0863349,51.8732315 L83.0863349,52.8947416 C83.9847256,53.1347685 84.9543442,53.2553888 85.9960372,53.2553888 C87.3624971,53.2553888 88.3067187,52.9342805 88.828873,52.2920066 C89.338398,51.8720693 89.593107,51.2582933 89.593107,50.4506652 C89.593107,48.8886697 88.6802047,48.1074292 86.8566977,48.1074292 L85.7546605,48.1074292 C84.7008744,48.1074292 84.174707,47.6466697 84.174707,46.7258787 C84.174707,46.3876138 84.2568215,46.1042599 84.421063,45.8758337 C84.8092587,45.5883425 85.4123132,45.4445618 86.2302791,45.4445618 C87.2278326,45.4445618 88.1554884,45.6048629 89.014214,45.9255865 L89.014214,45.546605 C89.1082902,45.5774305 89.2015673,45.6101171 89.2940465,45.6446652 L89.2940465,44.6231551 C88.4355628,44.3831281 87.5075442,44.2620225 86.5099907,44.2620225 C85.0565422,44.2620225 84.0632363,44.5913041 83.5299196,45.2494672 C83.0342021,45.6581159 82.786307,46.2439948 82.786307,47.0069213 C82.786307,48.5691596 83.6831256,49.3496719 85.4749488,49.3496719 L86.576986,49.3496719 C87.6625767,49.3496719 88.2059163,49.8114022 88.2059163,50.7312225 C88.2059163,51.1072784 88.1169757,51.4179658 87.9391149,51.6633102 C87.5708473,51.9367203 87.0164873,52.0734562 86.2761116,52.0734562 C85.2340558,52.0734562 84.2645581,51.9125483 83.3660465,51.5923101 L83.3660465,51.9670924 Z M80.629314,52.3248467 C80.1620034,52.9050182 79.3542737,53.1950787 78.2060744,53.1950787 L78.2060744,52.2940674 C78.3034727,52.2940674 78.3969115,52.2905934 78.4863907,52.2836463 L78.4863907,52.0131461 C79.025336,52.0131461 79.4430468,51.9067299 79.7394901,51.6940856 C79.9149821,51.4461333 80.0027349,51.1213831 80.0027349,50.7199371 L80.0027349,44.603618 L80.2829302,44.603618 L80.2829302,44.3224539 L81.3906512,44.3224539 L81.3906512,50.4390157 C81.3906512,51.2841227 81.1368775,51.912657 80.629314,52.3248467 Z M70.5949674,44.603618 L70.3147721,44.603618 L70.3147721,53.1952 L70.314893,53.195564 L71.422493,53.195564 L71.422493,52.9145213 C71.6317461,52.9145213 71.7025674,52.9145213 71.7025674,52.9145213 L71.7025674,45.5230742 L73.8660093,45.5230742 C74.7755256,45.5230742 75.2304651,45.9202472 75.2304651,46.7130157 C75.2304651,47.0655592 75.1289904,47.3721796 74.9260409,47.6328981 C74.5171191,47.9603011 73.8937916,48.1906582 73.0561395,48.3242787 L73.0561395,48.5559639 C72.9656464,48.5738549 72.8723285,48.5904692 72.776186,48.6058067 L72.776186,49.3321978 L75.5000186,53.1952 L76.9609767,53.1952 L76.7572339,52.9145213 L77.2411721,52.9145213 L74.4033694,49.005173 C75.0762426,48.7357056 75.5798179,48.4044131 75.9142256,48.0113433 C76.4312824,47.5630969 76.6896093,47.0204065 76.6896093,46.3836764 C76.6896093,45.0096494 75.8762326,44.3229393 74.2473023,44.3229393 L70.5949674,44.3229393 L70.5949674,44.603618 Z M64.9687498,43.6497877 L64.8902047,43.4703461 L60.6334605,53.1954427 L61.7827814,53.1954427 L61.8974673,52.9144 L62.0629767,52.9144 L64.9254726,45.8992787 L66.3256681,49.309627 L64.5661116,49.309627 L64.470539,49.5911551 L64.2857953,49.5911551 L63.9806884,50.4913169 L66.811907,50.4913169 L67.9199907,53.1954427 L69.1470698,53.1954427 L69.0240519,52.9144 L69.427386,52.9144 L65.1705209,43.188818 L64.9687498,43.6497877 Z M60.1846884,52.914036 L60.1846884,53.1952 L54.5983163,53.1952 L54.5983163,44.603618 L54.8785116,44.603618 L54.8785116,44.3224539 L55.985507,44.3224539 L55.985507,52.0131461 L60.4644,52.0131461 L60.4644,52.914036 L60.1846884,52.914036 Z M45.7774233,44.603982 L45.4973488,44.603982 L45.4973488,49.8787506 C45.4973488,52.1304899 46.6847628,53.2558742 49.0595907,53.2557528 C50.3774877,53.2557528 51.3297051,52.9092487 51.9162634,52.2160122 C52.5734397,51.6548916 52.9020279,50.7822295 52.9020279,49.5977079 L52.9020279,44.3224539 L51.7945488,44.3224539 L51.7945488,44.603982 L51.5144744,44.603982 L51.5144744,49.8786292 C51.5144744,50.6115899 51.352963,51.181978 51.0300144,51.5896021 C50.6263719,51.9120522 50.0629346,52.0733348 49.339786,52.0733348 C47.7028744,52.0733348 46.8842977,51.2478022 46.8842977,49.5977079 L46.8842977,44.3224539 L45.7774233,44.3224539 L45.7774233,44.603982 Z M38.0469969,45.5303598 C37.2459515,46.2355363 36.8453953,47.3185447 36.8453953,48.7793348 C36.8453953,51.7635326 38.3965674,53.2553888 41.4975814,53.2553888 C42.2958419,53.2553888 43.0406512,53.1234831 43.7309209,52.8587011 L43.7309209,52.6772348 C43.8252905,52.6465466 43.9186891,52.6134768 44.0111163,52.5780225 L44.0112372,49.0091685 L42.9042419,49.0091685 L42.9042419,49.2900899 L42.6234419,49.2900899 L42.6234419,51.9841818 C42.2849165,52.0439583 41.9711264,52.0736989 41.6824837,52.0736989 C39.3832372,52.0736989 38.2339163,50.881573 38.2339163,48.4984135 C38.2339163,47.5062882 38.4665119,46.7354731 38.9317138,46.1860762 C39.5134229,45.6919374 40.3545867,45.4448045 41.4552558,45.4448045 C42.2339256,45.4448045 42.9927628,45.5852045 43.7308,45.8656404 L43.7308,45.4852691 C43.8245679,45.5161898 43.9180076,45.5493401 44.0111163,45.5847191 L44.0111163,44.6236404 C43.2732,44.3831281 42.4745767,44.2625079 41.6164558,44.2625079 C39.9786307,44.2625079 38.7888177,44.6851583 38.0469969,45.5303598 Z M28.1148372,44.603618 L27.8346419,44.603618 L27.8346419,53.1952 L28.8826233,53.1952 L28.8826233,52.9145213 L29.1623349,52.9145213 L29.1623349,46.586073 L34.1215628,53.1952 L35.2290419,53.1952 L35.2290419,52.9145213 L35.5092372,52.9145213 L35.5092372,44.3229393 L34.4612558,44.3229393 L34.4612558,44.603618 L34.1816651,44.603618 L34.1816651,50.8747914 L29.2223163,44.3229393 L28.1148372,44.3229393 L28.1148372,44.603618 Z M16.4431966,39.5179209 L10.2606977,53.3193393 L12.5664744,53.2765034 L13.8061302,50.1651326 L16.4432558,50.1651326 L16.4491914,50.1623474 L19.3470326,50.1651326 L20.7042326,53.3198247 L22.9104837,53.3608404 L16.4431966,39.5179209 Z M16.4597666,43.9431326 L14.619507,48.3233079 L16.4431349,48.3233079 L16.5432751,48.3267056 L18.5479256,48.3267056 L16.4597666,43.9431326 Z M73.1354698,57.5003955 L72.7287814,56.259609 L72.4396372,56.259609 L73.0008744,57.8274292 C72.987814,57.8615281 72.9664093,57.9134652 72.937386,57.9836045 C72.9081209,58.0537438 72.8909488,58.0923326 72.8864744,58.0999775 C72.8713581,58.122791 72.8527349,58.141964 72.8303628,58.157618 C72.8081116,58.1732719 72.7735256,58.1810382 72.7266047,58.1810382 C72.7114884,58.1810382 72.6938326,58.1794607 72.674,58.176791 C72.6542884,58.174 72.6221209,58.1663551 72.5778605,58.1539775 L72.5778605,58.3873303 C72.6061581,58.3949753 72.6302233,58.3999506 72.6493302,58.4029843 C72.6686791,58.4056539 72.696493,58.4071101 72.7324093,58.4071101 C72.8797023,58.4071101 72.9834605,58.3645169 73.0438047,58.279209 C73.1042698,58.1939011 73.207907,57.9571506 73.3553209,57.5687146 C73.4177209,57.4038022 73.4949953,57.1902292 73.5877488,56.9286022 C73.7113395,56.5804539 73.7913953,56.3575371 73.8270698,56.2597303 L73.5450605,56.2597303 L73.1354698,57.5003955 Z M71.625414,57.6048764 C71.4414791,57.6048764 71.3158326,57.5211461 71.2485953,57.3532 C71.2125581,57.2642517 71.1947814,57.1481213 71.1947814,57.0049303 C71.1947814,56.8068899 71.2384372,56.6646697 71.3263535,56.5781483 C71.4140279,56.4921124 71.516093,56.4489124 71.6326698,56.4489124 C71.7661767,56.4489124 71.8673953,56.5016989 71.9363256,56.6067865 C72.0051349,56.7119955 72.0394791,56.8447506 72.0394791,57.0049303 C72.0394791,57.1851326 72.0052558,57.3301438 71.9363256,57.4400854 C71.8673953,57.5499056 71.7637581,57.6048764 71.625414,57.6048764 L71.625414,57.6048764 Z M70.9606605,57.7826517 L71.1958698,57.7826517 L71.1958698,57.588009 C71.2498047,57.661182 71.3005953,57.7142112 71.3481209,57.7473393 C71.427693,57.8032809 71.5254047,57.831191 71.6411349,57.831191 C71.8479256,57.831191 72.0096093,57.7515865 72.1264279,57.5921348 C72.2431256,57.4328045 72.301293,57.2329438 72.301293,56.9921888 C72.301293,56.7380854 72.2424,56.5458697 72.1241302,56.4155416 C72.0059814,56.2852135 71.8521581,56.2200494 71.6626605,56.2200494 C71.5714791,56.2200494 71.4871907,56.2392225 71.4091907,56.2776899 C71.3314326,56.316036 71.2648,56.3717348 71.2086884,56.4447865 L71.2086884,55.6868449 L70.9606605,55.6868449 L70.9606605,57.7826517 Z M16.4665953,37.7061798 L6.46699535,41.2374157 L8.0471907,54.3838067 L16.4772372,59.0331461 L24.9506977,54.320827 L26.5302884,41.1749213 L16.4665953,37.7061798 Z M85.3884837,55.6614831 C85.4987721,55.7531011 85.7291442,55.9455596 85.7291442,56.3119101 C85.7291442,56.6683101 85.5275535,56.8371056 85.3258419,56.9959506 C85.2634419,57.0584449 85.1914884,57.126036 85.1914884,57.2320944 C85.1914884,57.3379101 85.2634419,57.3957933 85.3161674,57.439236 L85.4892186,57.5738112 C85.7003628,57.7520719 85.8922791,57.9160135 85.8922791,58.2485079 C85.8922791,58.7012584 85.4553581,59.1588629 84.6297674,59.1588629 C83.9335721,59.1588629 83.5976279,58.8266112 83.5976279,58.4698472 C83.5976279,58.2963191 83.6838512,58.0509528 83.9674326,57.8821573 C84.2648,57.699164 84.6682233,57.6752584 84.8842047,57.6604539 C84.8168465,57.5738112 84.7400558,57.4823146 84.7400558,57.3330562 C84.7400558,57.2512674 84.7642419,57.2029708 84.788186,57.1450876 C84.7352186,57.1499416 84.682614,57.1546742 84.6344837,57.1546742 C84.1257302,57.1546742 83.8376744,56.7740045 83.8376744,56.3984315 C83.8376744,56.1768494 83.9386512,55.9309978 84.1448372,55.7528584 C84.4186233,55.5264225 84.744893,55.4878337 85.0042884,55.4878337 L85.9931349,55.4878337 L85.6858512,55.6612404 L85.3884837,55.6612404 L85.3884837,55.6614831 Z M85.0473395,57.8004899 C85.0090047,57.7955146 84.9850605,57.7955146 84.9371721,57.7955146 C84.8938791,57.7955146 84.6344837,57.8052225 84.432893,57.8726921 C84.3273209,57.9112809 84.0200372,58.0266831 84.0200372,58.368764 C84.0200372,58.7108449 84.351386,58.9566966 84.8650977,58.9566966 C85.3258419,58.9566966 85.5708465,58.7346292 85.5708465,58.4364764 C85.5709674,58.1902607 85.4125488,58.0606607 85.0473395,57.8004899 L85.0473395,57.8004899 Z M85.1866512,56.8850382 C85.2970605,56.7740045 85.306614,56.6201348 85.306614,56.5333708 C85.306614,56.186436 85.100186,55.6469213 84.7018419,55.6469213 C84.5769209,55.6469213 84.4425674,55.7095371 84.3655349,55.806009 C84.2840279,55.9072135 84.2600837,56.0370562 84.2600837,56.1625303 C84.2600837,56.4851955 84.4474047,57.0199775 84.8603814,57.0199775 C84.9803442,57.0199775 85.1096186,56.9622157 85.1866512,56.8850382 L85.1866512,56.8850382 Z M82.3660744,57.7233124 C81.604093,57.7233124 81.1966791,57.1270067 81.1966791,56.5880989 C81.1966791,55.9580584 81.7095442,55.4195146 82.4382698,55.4195146 C83.1426884,55.4195146 83.5837209,55.9724989 83.5837209,56.5546067 C83.5836,57.1220315 83.1475256,57.7233124 82.3660744,57.7233124 L82.3660744,57.7233124 Z M82.9650419,57.3337843 C83.0804093,57.1797933 83.1091907,56.9875775 83.1091907,56.7997303 C83.1091907,56.3765888 82.9078419,55.5685303 82.3133488,55.5685303 C82.1551721,55.5685303 81.9969953,55.6311461 81.8821116,55.7323506 C81.6951535,55.9005393 81.661414,56.1121708 81.661414,56.3190697 C81.661414,56.7951191 81.8963814,57.5789079 82.4763628,57.5789079 C82.6633209,57.5789079 82.8551163,57.4876539 82.9650419,57.3337843 L82.9650419,57.3337843 Z M79.7681302,57.7233124 C79.0060279,57.7233124 78.598614,57.1270067 78.598614,56.5880989 C78.598614,55.9580584 79.1116,55.4195146 79.8402047,55.4195146 C80.5446233,55.4195146 80.9856558,55.9724989 80.9856558,56.5546067 C80.9856558,57.1220315 80.5494605,57.7233124 79.7681302,57.7233124 L79.7681302,57.7233124 Z M80.3672186,57.3337843 C80.4823442,57.1797933 80.5111256,56.9875775 80.5111256,56.7997303 C80.5111256,56.3765888 80.3097767,55.5685303 79.7154047,55.5685303 C79.5573488,55.5685303 79.3990512,55.6311461 79.2840465,55.7323506 C79.0970884,55.9005393 79.0635907,56.1121708 79.0635907,56.3190697 C79.0635907,56.7951191 79.2983163,57.5789079 79.8784186,57.5789079 C80.0654977,57.5789079 80.257293,57.4876539 80.3672186,57.3337843 L80.3672186,57.3337843 Z M78.2324372,57.6479551 L78.2324372,57.0579596 C78.2324372,57.0096629 78.2370326,56.8693843 78.2419907,56.8258202 C78.2516651,56.7874742 78.2562605,56.7774022 78.2902419,56.7485213 L78.4154047,56.6277798 L77.393786,56.6277798 L77.0085023,56.8356494 L77.7360186,56.7970607 L77.7360186,57.5753888 C77.591507,57.633636 77.4326047,57.6962517 77.1239907,57.6962517 C76.0735907,57.6962517 75.4181488,56.840382 75.4181488,55.9316045 C75.4181488,55.0854427 75.9917209,54.5049124 76.7529767,54.5049124 C77.3214698,54.5049124 77.6204093,54.7999101 77.7841488,54.9592404 L77.6637023,55.1529124 L77.8322791,55.1143236 L78.2323163,54.7323191 C78.1262605,54.6597528 77.9576837,54.534036 77.5961023,54.4324674 C77.3697209,54.3694876 77.1192744,54.3310202 76.8590326,54.3310202 C75.6301395,54.3310202 74.9121767,55.201209 74.9121767,56.1391101 C74.9121767,56.9080944 75.4180279,57.8896809 76.7481395,57.8896809 C77.0130977,57.8896809 77.2635442,57.8510921 77.5431349,57.8075281 L78.2324372,57.6479551 L78.2324372,57.6479551 Z M86.9116,57.5087685 C86.7523349,57.4942067 86.7190791,57.4652045 86.7190791,57.2767506 L86.7190791,54.5397393 C86.7199256,54.5293034 86.7207721,54.5186247 86.7218605,54.5085528 C86.7410884,54.3393933 86.7893395,54.310391 86.9386884,54.2232629 L86.249507,54.2232629 L85.8880465,54.3973978 L86.2565209,54.3973978 L86.2565209,54.399582 L86.2561581,54.3978831 L86.2561581,57.3830517 C86.2561581,57.4797663 86.2370512,57.4942067 86.1261581,57.6390966 L86.9790791,57.6390966 L87.1574512,57.5329169 C87.0755814,57.523209 86.9935907,57.5183551 86.9116,57.5087685 L86.9116,57.5087685 Z M88.8723628,57.5533034 C88.8198791,57.5820629 88.7671535,57.6157978 88.7146698,57.6398247 C88.556493,57.7117843 88.3937209,57.7309573 88.2501767,57.7309573 C88.0972,57.7309573 87.8578791,57.7212494 87.6136,57.5437169 C87.2741488,57.3035685 87.1255256,56.8906202 87.1255256,56.5303371 C87.1255256,55.7861079 87.7286047,55.4212135 88.2213953,55.4212135 C88.3936,55.4212135 88.5710047,55.4644135 88.7145488,55.5557888 C88.9536279,55.714027 89.015786,55.9204404 89.0492837,56.0308674 L87.9248744,56.4871371 L87.5561581,56.516018 C87.6756372,57.1259146 88.0875256,57.4812225 88.5419814,57.4812225 C88.7861395,57.4812225 88.9631814,57.3948225 89.1258326,57.3132764 L88.8723628,57.5533034 L88.8723628,57.5533034 Z M0,0 L96,0 L96,96 L0,96 L0,0 Z M88.4226233,56.122 C88.5134419,56.0883865 88.5613302,56.059627 88.5613302,55.9924 C88.5613302,55.8005483 88.3460744,55.5793303 88.0876465,55.5793303 C87.8959721,55.5793303 87.537293,55.7282247 87.537293,56.2468674 C87.537293,56.3285348 87.5468465,56.4149348 87.5516837,56.5014562 L88.4226233,56.122 Z" id="Shape"></path>
            </g>
            <g id="less-hover2" transform="translate(848.000000, 2.000000)" sketch:type="MSShapeGroup">
                <rect id="background-copy" fill="#1D365D" x="0" y="0" width="96" height="96"></rect>
                <path d="M26.3999902,56.3936 C27.4823902,56.3936 28.3023902,56.2296 28.8271902,56 L28.2367902,52.4248 C27.9743902,52.4904 27.8431902,52.4904 27.6463902,52.4904 C27.2527902,52.4904 26.7935902,52.1624 26.7935902,51.1456 L26.7935902,33.0072 L21.9719902,33.0072 L21.9719902,50.9488 C21.9719902,54.2288 23.0871902,56.3936 26.3999902,56.3936 L26.3999902,56.3936 Z M37.8343902,56.3936 C39.7695902,56.3936 41.9343902,55.7048 43.6071902,54.5568 L41.9999902,51.6376 C40.8191902,52.3592 39.7039902,52.72 38.4903902,52.72 C36.3255902,52.72 34.6855902,51.6376 34.2591902,49.276 L44.0007902,49.276 C44.0991902,48.8824 44.1975902,47.9968 44.1975902,47.144 C44.1975902,42.716 41.9015902,39.3376 37.2767902,39.3376 C33.3735902,39.3376 29.6015902,42.5848 29.6015902,47.8656 C29.6015902,53.2448 33.1767902,56.3936 37.8343902,56.3936 L37.8343902,56.3936 Z M34.2263902,46.0944 C34.5543902,44.028 35.8663902,43.0112 37.3751902,43.0112 C39.3103902,43.0112 40.0975902,44.2904 40.0975902,46.0944 L34.2263902,46.0944 Z M51.5319902,56.3936 C55.8943902,56.3936 58.2231902,54.0976 58.2231902,51.1456 C58.2231902,48.1608 55.8943902,47.0128 53.8279902,46.2584 C52.1551902,45.6352 50.6463902,45.2416 50.6463902,44.192 C50.6463902,43.372 51.2367902,42.9128 52.4831902,42.9128 C53.6311902,42.9128 54.7463902,43.4376 55.9271902,44.2904 L58.0919902,41.404 C56.6815902,40.3544 54.8447902,39.3376 52.3519902,39.3376 C48.5799902,39.3376 46.1199902,41.404 46.1199902,44.4216 C46.1199902,47.1112 48.4487902,48.456 50.4167902,49.2104 C52.0895902,49.8664 53.7295902,50.3584 53.7295902,51.4408 C53.7295902,52.2936 53.1063902,52.8184 51.6631902,52.8184 C50.2855902,52.8184 48.9407902,52.228 47.4647902,51.1128 L45.2999902,54.1304 C46.9399902,55.4752 49.3999902,56.3936 51.5319902,56.3936 L51.5319902,56.3936 Z M65.2623902,56.3936 C69.6247902,56.3936 71.9535902,54.0976 71.9535902,51.1456 C71.9535902,48.1608 69.6247902,47.0128 67.5583902,46.2584 C65.8855902,45.6352 64.3767902,45.2416 64.3767902,44.192 C64.3767902,43.372 64.9671902,42.9128 66.2135902,42.9128 C67.3615902,42.9128 68.4767902,43.4376 69.6575902,44.2904 L71.8223902,41.404 C70.4119902,40.3544 68.5751902,39.3376 66.0823902,39.3376 C62.3103902,39.3376 59.8503902,41.404 59.8503902,44.4216 C59.8503902,47.1112 62.1791902,48.456 64.1471902,49.2104 C65.8199902,49.8664 67.4599902,50.3584 67.4599902,51.4408 C67.4599902,52.2936 66.8367902,52.8184 65.3935902,52.8184 C64.0159902,52.8184 62.6711902,52.228 61.1951902,51.1128 L59.0303902,54.1304 C60.6703902,55.4752 63.1303902,56.3936 65.2623902,56.3936 Z M22.0128,61.9072 L22.0128,59.2864 L21.3744,59.2864 C19.9968,59.2864 19.5936,58.7824 19.5936,56.9344 C19.5936,55.12 19.728,53.5072 19.728,51.4576 C19.728,48.904 18.9216,47.9296 17.2416,47.5264 L17.2416,47.392 C18.9216,46.9888 19.728,46.0144 19.728,43.4608 C19.728,41.4112 19.5936,39.7984 19.5936,37.984 C19.5936,36.136 19.9968,35.632 21.3744,35.632 L22.0128,35.632 L22.0128,33.0112 L19.896,33.0112 C16.9392,33.0112 15.5952,34.1536 15.5952,37.7824 C15.5952,40.168 15.5952,41.3440002 15.5952,43.4608002 C15.5952,44.6368002 14.484,46.0328 12.3,46.1 L12.3,48.3 C14.484,48.3672 15.5952,50.2816005 15.5952,51.4576005 C15.5952,53.5744005 15.5952,54.7504 15.5952,57.136 C15.5952,60.7648 16.9392,61.9072 19.896,61.9072 L22.0128,61.9072 Z M71.9456,61.9072 L74.0624,61.9072 C77.0192,61.9072 78.3632,60.7648 78.3632,57.136 C78.3632,54.7504 78.7999999,53.5744005 78.7999999,51.4576005 C78.7999999,50.2816005 79.4159999,48.3672 81.5999999,48.3 L81.5999999,46.3 C79.4159999,46.2328 78.3632003,44.8 78.3632003,43.4608002 C78.3632003,41.3440002 78.3632,40.168 78.3632,37.7824 C78.3632,34.1536 77.0192,33.0112 74.0624,33.0112 L71.9456,33.0112 L71.9456,35.632 L72.584,35.632 C73.9952,35.632 74.3648,36.136 74.3648,37.984 C74.3648,39.7984 74.2304,41.4112 74.2304,43.4608 C74.2304,46.0144 75.0368,46.9888 76.7168,47.392 L76.7168,47.5264 C75.0368,47.9296 74.2304,48.904 74.2304,51.4576 C74.2304,53.5072 74.3648,55.12 74.3648,56.9344 C74.3648,58.7824 73.9952,59.2864 72.584,59.2864 L71.9456,59.2864 L71.9456,61.9072 Z" id="less" fill="url(#linearGradient-5)"></path>
            </g>
        </g>
    </g>
</svg>