<?xml version="1.0" encoding="UTF-8" standalone="no"?>
<svg width="944px" height="98px" viewBox="0 0 944 98" version="1.1" xmlns="http://www.w3.org/2000/svg" xmlns:xlink="http://www.w3.org/1999/xlink" xmlns:sketch="http://www.bohemiancoding.com/sketch/ns">
    <!-- Generator: Sketch 3.4.4 (17249) - http://www.bohemiancoding.com/sketch -->
    <title>web-logos</title>
    <desc>Created with Sketch.</desc>
    <defs>
        <linearGradient x1="50%" y1="-7.29166667%" x2="50%" y2="100%" id="linearGradient-1">
            <stop stop-color="#C0EBFF" offset="0%"></stop>
            <stop stop-color="#5599B8" offset="100%"></stop>
        </linearGradient>
        <linearGradient x1="50%" y1="0%" x2="50%" y2="100%" id="linearGradient-2">
            <stop stop-color="#C0EBFF" offset="0%"></stop>
            <stop stop-color="#5599B8" offset="100%"></stop>
        </linearGradient>
        <linearGradient x1="50%" y1="0%" x2="50%" y2="100%" id="linearGradient-3">
            <stop stop-color="#C0EBFF" offset="1.53061224%"></stop>
            <stop stop-color="#5599B8" offset="100%"></stop>
        </linearGradient>
        <linearGradient x1="50%" y1="0%" x2="50%" y2="97.9591837%" id="linearGradient-4">
            <stop stop-color="#C0EBFF" offset="0%"></stop>
            <stop stop-color="#5599B8" offset="100%"></stop>
        </linearGradient>
        <linearGradient x1="50%" y1="2.55102041%" x2="50%" y2="100%" id="linearGradient-5">
            <stop stop-color="#C0ECFF" offset="0%"></stop>
            <stop stop-color="#5599B8" offset="100%"></stop>
        </linearGradient>
    </defs>
    <g id="Page-1" stroke="none" stroke-width="1" fill="none" fill-rule="evenodd" sketch:type="MSPage">
        <g id="Hover" sketch:type="MSLayerGroup" transform="translate(8.000000, 19.000000)">
            <g id="less-hover" transform="translate(852.000000, 16.000000)" fill="url(#linearGradient-1)" sketch:type="MSShapeGroup">
                <path d="M14.3999902,23.3936 C15.4823902,23.3936 16.3023902,23.2296 16.8271902,23 L16.2367902,19.4248 C15.9743902,19.4904 15.8431902,19.4904 15.6463902,19.4904 C15.2527902,19.4904 14.7935902,19.1624 14.7935902,18.1456 L14.7935902,0.0072 L9.97199023,0.0072 L9.97199023,17.9488 C9.97199023,21.2288 11.0871902,23.3936 14.3999902,23.3936 Z M25.8343902,23.3936 C27.7695902,23.3936 29.9343902,22.7048 31.6071902,21.5568 L29.9999902,18.6376 C28.8191902,19.3592 27.7039902,19.72 26.4903902,19.72 C24.3255902,19.72 22.6855902,18.6376 22.2591902,16.276 L32.0007902,16.276 C32.0991902,15.8824 32.1975902,14.9968 32.1975902,14.144 C32.1975902,9.716 29.9015902,6.3376 25.2767902,6.3376 C21.3735902,6.3376 17.6015902,9.5848 17.6015902,14.8656 C17.6015902,20.2448 21.1767902,23.3936 25.8343902,23.3936 L25.8343902,23.3936 Z M22.2263902,13.0944 C22.5543902,11.028 23.8663902,10.0112 25.3751902,10.0112 C27.3103902,10.0112 28.0975902,11.2904 28.0975902,13.0944 L22.2263902,13.0944 Z M39.5319902,23.3936 C43.8943902,23.3936 46.2231902,21.0976 46.2231902,18.1456 C46.2231902,15.1608 43.8943902,14.0128 41.8279902,13.2584 C40.1551902,12.6352 38.6463902,12.2416 38.6463902,11.192 C38.6463902,10.372 39.2367902,9.9128 40.4831902,9.9128 C41.6311902,9.9128 42.7463902,10.4376 43.9271902,11.2904 L46.0919902,8.404 C44.6815902,7.3544 42.8447902,6.3376 40.3519902,6.3376 C36.5799902,6.3376 34.1199902,8.404 34.1199902,11.4216 C34.1199902,14.1112 36.4487902,15.456 38.4167902,16.2104 C40.0895902,16.8664 41.7295902,17.3584 41.7295902,18.4408 C41.7295902,19.2936 41.1063902,19.8184 39.6631902,19.8184 C38.2855902,19.8184 36.9407902,19.228 35.4647902,18.1128 L33.2999902,21.1304 C34.9399902,22.4752 37.3999902,23.3936 39.5319902,23.3936 L39.5319902,23.3936 Z M53.2623902,23.3936 C57.6247902,23.3936 59.9535902,21.0976 59.9535902,18.1456 C59.9535902,15.1608 57.6247902,14.0128 55.5583902,13.2584 C53.8855902,12.6352 52.3767902,12.2416 52.3767902,11.192 C52.3767902,10.372 52.9671902,9.9128 54.2135902,9.9128 C55.3615902,9.9128 56.4767902,10.4376 57.6575902,11.2904 L59.8223902,8.404 C58.4119902,7.3544 56.5751902,6.3376 54.0823902,6.3376 C50.3103902,6.3376 47.8503902,8.404 47.8503902,11.4216 C47.8503902,14.1112 50.1791902,15.456 52.1471902,16.2104 C53.8199902,16.8664 55.4599902,17.3584 55.4599902,18.4408 C55.4599902,19.2936 54.8367902,19.8184 53.3935902,19.8184 C52.0159902,19.8184 50.6711902,19.228 49.1951902,18.1128 L47.0303902,21.1304 C48.6703902,22.4752 51.1303902,23.3936 53.2623902,23.3936 Z M10.0128,28.9072 L10.0128,26.2864 L9.3744,26.2864 C7.9968,26.2864 7.5936,25.7824 7.5936,23.9344 C7.5936,22.12 7.728,20.5072 7.728,18.4576 C7.728,15.904 6.9216,14.9296 5.2416,14.5264 L5.2416,14.392 C6.9216,13.9888 7.728,13.0144 7.728,10.4608 C7.728,8.4112 7.5936,6.7984 7.5936,4.984 C7.5936,3.136 7.9968,2.632 9.3744,2.632 L10.0128,2.632 L10.0128,0.0112 L7.896,0.0112 C4.9392,0.0112 3.5952,1.1536 3.5952,4.7824 C3.5952,7.168 3.59519998,8.34400022 3.59519998,10.4608002 C3.59519998,11.6368002 2.48400001,13.0328 0.300000011,13.1 L0.300000011,15.3 C2.48400001,15.3672 3.59519998,17.2816005 3.59519998,18.4576005 C3.59519998,20.5744005 3.5952,21.7504 3.5952,24.136 C3.5952,27.7648 4.9392,28.9072 7.896,28.9072 L10.0128,28.9072 Z M59.9456,28.9072 L62.0624,28.9072 C65.0192,28.9072 66.3632,27.7648 66.3632,24.136 C66.3632,21.7504 66.7999999,20.5744005 66.7999999,18.4576005 C66.7999999,17.2816005 67.4159999,15.3672 69.5999999,15.3 L69.5999999,13.3 C67.4159999,13.2328 66.3632003,11.8 66.3632003,10.4608002 C66.3632003,8.34400022 66.3632,7.168 66.3632,4.7824 C66.3632,1.1536 65.0192,0.0112 62.0624,0.0112 L59.9456,0.0112 L59.9456,2.632 L60.584,2.632 C61.9952,2.632 62.3648,3.136 62.3648,4.984 C62.3648,6.7984 62.2304,8.4112 62.2304,10.4608 C62.2304,13.0144 63.0368,13.9888 64.7168,14.392 L64.7168,14.5264 C63.0368,14.9296 62.2304,15.904 62.2304,18.4576 C62.2304,20.5072 62.3648,22.12 62.3648,23.9344 C62.3648,25.7824 61.9952,26.2864 60.584,26.2864 L59.9456,26.2864 L59.9456,28.9072 Z" id="background-copy"></path>
            </g>
            <g id="angular-hover" transform="translate(740.000000, 19.000000)" fill="url(#linearGradient-1)" sketch:type="MSShapeGroup">
                <path d="M10.4665953,0.706179775 L0.466995349,4.23741573 L2.0471907,17.3838067 L10.4772372,22.0331461 L18.9506977,17.320827 L20.5302884,4.17492135 L10.4665953,0.706179775 Z M19.5328558,4.93468315 L10.4432558,1.82428315 L10.4432558,20.9223236 L18.0607721,16.6918787 L19.5328558,4.93468315 Z M1.58910698,4.99074607 L2.94316279,16.7480629 L10.4431349,20.9223236 L10.4431349,1.8239191 L1.58910698,4.99074607 Z" id="Shape"></path>
                <path d="M22.1148372,15.9145213 L22.1148372,7.32293933 L23.2223163,7.32293933 L28.4612558,14.2441618 L28.4612558,7.32293933 L29.5092372,7.32293933 L29.5092372,15.9145213 L28.4016372,15.9145213 L23.1623349,8.93262472 L23.1623349,15.9145213 L22.1148372,15.9145213 Z M38.0111163,15.5780225 C37.3208465,15.8428045 36.5764,15.9745888 35.7778977,15.9745888 C32.6766419,15.9745888 31.1257116,14.4828539 31.1257116,11.4986562 C31.1257116,8.67475955 32.622586,7.26250787 35.6164558,7.26250787 C36.4745767,7.26250787 37.2732,7.38312809 38.0111163,7.62364045 L38.0111163,8.5847191 C37.2730791,8.30428315 36.5142419,8.16388315 35.7360558,8.16388315 C33.4012558,8.16388315 32.2339163,9.27579775 32.2339163,11.4984135 C32.2339163,13.881573 33.3832372,15.0736989 35.6824837,15.0736989 C36.049386,15.0736989 36.4569209,15.0256449 36.9042419,14.9289303 L36.9042419,12.0091685 L38.0112372,12.0091685 L38.0111163,15.5780225 Z M39.7774233,12.5978292 L39.7774233,7.32245393 L40.8842977,7.32245393 L40.8842977,12.5977079 C40.8842977,14.2478022 41.7028744,15.0733348 43.339786,15.0733348 C44.9759721,15.0733348 45.7945488,14.2476809 45.7945488,12.5977079 L45.7945488,7.32245393 L46.9020279,7.32245393 L46.9020279,12.5977079 C46.9020279,14.8494472 45.714614,15.9742247 43.339786,15.9742247 C40.9648372,15.9742247 39.7774233,14.8496899 39.7774233,12.5978292 Z M49.985507,7.32245393 L49.985507,15.0131461 L54.4644,15.0131461 L54.4644,15.914036 L48.8785116,15.914036 L48.8785116,7.32245393 L49.985507,7.32245393 Z M56.0629767,15.9144 L54.9135349,15.9144 L59.1705209,6.18881798 L63.427386,15.9144 L62.1995814,15.9144 L61.0921023,13.2105169 L58.2602791,13.2105169 L58.5661116,12.309627 L60.7209674,12.309627 L59.1227535,8.41580225 L56.0629767,15.9144 Z M64.5949674,15.9145213 L64.5949674,7.32293933 L68.2473023,7.32293933 C69.8762326,7.32293933 70.6896093,8.00964944 70.6896093,9.3836764 C70.6896093,10.5009303 69.8942512,11.3286472 68.3013581,11.8646427 L71.2411721,15.9145213 L69.7796093,15.9145213 L67.0561395,12.0513978 L67.0561395,11.3242787 C68.6924465,11.0632584 69.5109023,10.4330966 69.5109023,9.43148764 C69.5109023,8.6387191 69.0554791,8.24215281 68.1453581,8.24215281 L65.7025674,8.24215281 L65.7025674,15.9145213 C65.7025674,15.9145213 64.5949674,15.9145213 64.5949674,15.9145213 Z M75.3906512,7.32245393 L75.3906512,13.4390157 C75.3906512,15.0895955 74.4226047,15.914036 72.4863907,15.914036 L72.4863907,15.0131461 C73.6839628,15.0131461 74.2829302,14.4877079 74.2829302,13.4388944 L74.2829302,7.32245393 L75.3906512,7.32245393 Z M77.3660465,15.6135775 L77.3660465,14.5923101 C78.2645581,14.9125483 79.2340558,15.0734562 80.2761116,15.0734562 C81.7489209,15.0734562 82.4856279,14.532364 82.4856279,13.4506652 C82.4856279,12.5303596 81.9424093,12.0691146 80.8566977,12.0691146 L79.7546605,12.0691146 C77.9628372,12.0691146 77.0661395,11.2881169 77.0661395,9.7257573 C77.0661395,8.08379326 78.2138884,7.26202247 80.5099907,7.26202247 C81.5075442,7.26202247 82.4355628,7.38312809 83.2940465,7.62315506 L83.2940465,8.64466517 C82.4352,8.32382022 81.5075442,8.1635191 80.5099907,8.1635191 C78.953014,8.1635191 78.174707,8.68446742 78.174707,9.72587865 C78.174707,10.6466697 78.7008744,11.1074292 79.7546605,11.1074292 L80.8566977,11.1074292 C82.6802047,11.1074292 83.593107,11.8886697 83.593107,13.4506652 C83.593107,15.1331596 82.4876837,15.9743461 80.2758698,15.9743461 C79.2341767,15.9742247 78.2644372,15.8536045 77.3660465,15.6135775 Z M67.1354698,20.5003955 L66.7287814,19.259609 L66.4396372,19.259609 L67.0008744,20.8274292 C66.987814,20.8615281 66.9664093,20.9134652 66.937386,20.9836045 C66.9081209,21.0537438 66.8909488,21.0923326 66.8864744,21.0999775 C66.8713581,21.122791 66.8527349,21.141964 66.8303628,21.157618 C66.8081116,21.1732719 66.7735256,21.1810382 66.7266047,21.1810382 C66.7114884,21.1810382 66.6938326,21.1794607 66.674,21.176791 C66.6542884,21.174 66.6221209,21.1663551 66.5778605,21.1539775 L66.5778605,21.3873303 C66.6061581,21.3949753 66.6302233,21.3999506 66.6493302,21.4029843 C66.6686791,21.4056539 66.696493,21.4071101 66.7324093,21.4071101 C66.8797023,21.4071101 66.9834605,21.3645169 67.0438047,21.279209 C67.1042698,21.1939011 67.207907,20.9571506 67.3553209,20.5687146 C67.4177209,20.4038022 67.4949953,20.1902292 67.5877488,19.9286022 C67.7113395,19.5804539 67.7913953,19.3575371 67.8270698,19.2597303 L67.5450605,19.2597303 L67.1354698,20.5003955 Z M65.625414,20.6048764 C65.4414791,20.6048764 65.3158326,20.5211461 65.2485953,20.3532 C65.2125581,20.2642517 65.1947814,20.1481213 65.1947814,20.0049303 C65.1947814,19.8068899 65.2384372,19.6646697 65.3263535,19.5781483 C65.4140279,19.4921124 65.516093,19.4489124 65.6326698,19.4489124 C65.7661767,19.4489124 65.8673953,19.5016989 65.9363256,19.6067865 C66.0051349,19.7119955 66.0394791,19.8447506 66.0394791,20.0049303 C66.0394791,20.1851326 66.0052558,20.3301438 65.9363256,20.4400854 C65.8673953,20.5499056 65.7637581,20.6048764 65.625414,20.6048764 L65.625414,20.6048764 Z M64.9606605,20.7826517 L65.1958698,20.7826517 L65.1958698,20.588009 C65.2498047,20.661182 65.3005953,20.7142112 65.3481209,20.7473393 C65.427693,20.8032809 65.5254047,20.831191 65.6411349,20.831191 C65.8479256,20.831191 66.0096093,20.7515865 66.1264279,20.5921348 C66.2431256,20.4328045 66.301293,20.2329438 66.301293,19.9921888 C66.301293,19.7380854 66.2424,19.5458697 66.1241302,19.4155416 C66.0059814,19.2852135 65.8521581,19.2200494 65.6626605,19.2200494 C65.5714791,19.2200494 65.4871907,19.2392225 65.4091907,19.2776899 C65.3314326,19.316036 65.2648,19.3717348 65.2086884,19.4447865 L65.2086884,18.6868449 L64.9606605,18.6868449 L64.9606605,20.7826517 Z M79.3884837,18.6614831 C79.4987721,18.7531011 79.7291442,18.9455596 79.7291442,19.3119101 C79.7291442,19.6683101 79.5275535,19.8371056 79.3258419,19.9959506 C79.2634419,20.0584449 79.1914884,20.126036 79.1914884,20.2320944 C79.1914884,20.3379101 79.2634419,20.3957933 79.3161674,20.439236 L79.4892186,20.5738112 C79.7003628,20.7520719 79.8922791,20.9160135 79.8922791,21.2485079 C79.8922791,21.7012584 79.4553581,22.1588629 78.6297674,22.1588629 C77.9335721,22.1588629 77.5976279,21.8266112 77.5976279,21.4698472 C77.5976279,21.2963191 77.6838512,21.0509528 77.9674326,20.8821573 C78.2648,20.699164 78.6682233,20.6752584 78.8842047,20.6604539 C78.8168465,20.5738112 78.7400558,20.4823146 78.7400558,20.3330562 C78.7400558,20.2512674 78.7642419,20.2029708 78.788186,20.1450876 C78.7352186,20.1499416 78.682614,20.1546742 78.6344837,20.1546742 C78.1257302,20.1546742 77.8376744,19.7740045 77.8376744,19.3984315 C77.8376744,19.1768494 77.9386512,18.9309978 78.1448372,18.7528584 C78.4186233,18.5264225 78.744893,18.4878337 79.0042884,18.4878337 L79.9931349,18.4878337 L79.6858512,18.6612404 L79.3884837,18.6612404 L79.3884837,18.6614831 Z M79.0473395,20.8004899 C79.0090047,20.7955146 78.9850605,20.7955146 78.9371721,20.7955146 C78.8938791,20.7955146 78.6344837,20.8052225 78.432893,20.8726921 C78.3273209,20.9112809 78.0200372,21.0266831 78.0200372,21.368764 C78.0200372,21.7108449 78.351386,21.9566966 78.8650977,21.9566966 C79.3258419,21.9566966 79.5708465,21.7346292 79.5708465,21.4364764 C79.5709674,21.1902607 79.4125488,21.0606607 79.0473395,20.8004899 L79.0473395,20.8004899 Z M79.1866512,19.8850382 C79.2970605,19.7740045 79.306614,19.6201348 79.306614,19.5333708 C79.306614,19.186436 79.100186,18.6469213 78.7018419,18.6469213 C78.5769209,18.6469213 78.4425674,18.7095371 78.3655349,18.806009 C78.2840279,18.9072135 78.2600837,19.0370562 78.2600837,19.1625303 C78.2600837,19.4851955 78.4474047,20.0199775 78.8603814,20.0199775 C78.9803442,20.0199775 79.1096186,19.9622157 79.1866512,19.8850382 L79.1866512,19.8850382 Z M76.3660744,20.7233124 C75.604093,20.7233124 75.1966791,20.1270067 75.1966791,19.5880989 C75.1966791,18.9580584 75.7095442,18.4195146 76.4382698,18.4195146 C77.1426884,18.4195146 77.5837209,18.9724989 77.5837209,19.5546067 C77.5836,20.1220315 77.1475256,20.7233124 76.3660744,20.7233124 L76.3660744,20.7233124 Z M76.9650419,20.3337843 C77.0804093,20.1797933 77.1091907,19.9875775 77.1091907,19.7997303 C77.1091907,19.3765888 76.9078419,18.5685303 76.3133488,18.5685303 C76.1551721,18.5685303 75.9969953,18.6311461 75.8821116,18.7323506 C75.6951535,18.9005393 75.661414,19.1121708 75.661414,19.3190697 C75.661414,19.7951191 75.8963814,20.5789079 76.4763628,20.5789079 C76.6633209,20.5789079 76.8551163,20.4876539 76.9650419,20.3337843 L76.9650419,20.3337843 Z M73.7681302,20.7233124 C73.0060279,20.7233124 72.598614,20.1270067 72.598614,19.5880989 C72.598614,18.9580584 73.1116,18.4195146 73.8402047,18.4195146 C74.5446233,18.4195146 74.9856558,18.9724989 74.9856558,19.5546067 C74.9856558,20.1220315 74.5494605,20.7233124 73.7681302,20.7233124 L73.7681302,20.7233124 Z M74.3672186,20.3337843 C74.4823442,20.1797933 74.5111256,19.9875775 74.5111256,19.7997303 C74.5111256,19.3765888 74.3097767,18.5685303 73.7154047,18.5685303 C73.5573488,18.5685303 73.3990512,18.6311461 73.2840465,18.7323506 C73.0970884,18.9005393 73.0635907,19.1121708 73.0635907,19.3190697 C73.0635907,19.7951191 73.2983163,20.5789079 73.8784186,20.5789079 C74.0654977,20.5789079 74.257293,20.4876539 74.3672186,20.3337843 L74.3672186,20.3337843 Z M72.2324372,20.6479551 L72.2324372,20.0579596 C72.2324372,20.0096629 72.2370326,19.8693843 72.2419907,19.8258202 C72.2516651,19.7874742 72.2562605,19.7774022 72.2902419,19.7485213 L72.4154047,19.6277798 L71.393786,19.6277798 L71.0085023,19.8356494 L71.7360186,19.7970607 L71.7360186,20.5753888 C71.591507,20.633636 71.4326047,20.6962517 71.1239907,20.6962517 C70.0735907,20.6962517 69.4181488,19.840382 69.4181488,18.9316045 C69.4181488,18.0854427 69.9917209,17.5049124 70.7529767,17.5049124 C71.3214698,17.5049124 71.6204093,17.7999101 71.7841488,17.9592404 L71.6637023,18.1529124 L71.8322791,18.1143236 L72.2323163,17.7323191 C72.1262605,17.6597528 71.9576837,17.534036 71.5961023,17.4324674 C71.3697209,17.3694876 71.1192744,17.3310202 70.8590326,17.3310202 C69.6301395,17.3310202 68.9121767,18.201209 68.9121767,19.1391101 C68.9121767,19.9080944 69.4180279,20.8896809 70.7481395,20.8896809 C71.0130977,20.8896809 71.2635442,20.8510921 71.5431349,20.8075281 L72.2324372,20.6479551 L72.2324372,20.6479551 Z M80.9116,20.5087685 C80.7523349,20.4942067 80.7190791,20.4652045 80.7190791,20.2767506 L80.7190791,17.5397393 C80.7199256,17.5293034 80.7207721,17.5186247 80.7218605,17.5085528 C80.7410884,17.3393933 80.7893395,17.310391 80.9386884,17.2232629 L80.249507,17.2232629 L79.8880465,17.3973978 L80.2565209,17.3973978 L80.2565209,17.399582 L80.2561581,17.3978831 L80.2561581,20.3830517 C80.2561581,20.4797663 80.2370512,20.4942067 80.1261581,20.6390966 L80.9790791,20.6390966 L81.1574512,20.5329169 C81.0755814,20.523209 80.9935907,20.5183551 80.9116,20.5087685 L80.9116,20.5087685 Z M82.8723628,20.5533034 C82.8198791,20.5820629 82.7671535,20.6157978 82.7146698,20.6398247 C82.556493,20.7117843 82.3937209,20.7309573 82.2501767,20.7309573 C82.0972,20.7309573 81.8578791,20.7212494 81.6136,20.5437169 C81.2741488,20.3035685 81.1255256,19.8906202 81.1255256,19.5303371 C81.1255256,18.7861079 81.7286047,18.4212135 82.2213953,18.4212135 C82.3936,18.4212135 82.5710047,18.4644135 82.7145488,18.5557888 C82.9536279,18.714027 83.015786,18.9204404 83.0492837,19.0308674 L81.9248744,19.4871371 L81.5561581,19.516018 C81.6756372,20.1259146 82.0875256,20.4812225 82.5419814,20.4812225 C82.7861395,20.4812225 82.9631814,20.3948225 83.1258326,20.3132764 L82.8723628,20.5533034 L82.8723628,20.5533034 Z M82.4226233,19.122 C82.5134419,19.0883865 82.5613302,19.059627 82.5613302,18.9924 C82.5613302,18.8005483 82.3460744,18.5793303 82.0876465,18.5793303 C81.8959721,18.5793303 81.537293,18.7282247 81.537293,19.2468674 C81.537293,19.3285348 81.5468465,19.4149348 81.5516837,19.5014562 L82.4226233,19.122 L82.4226233,19.122 Z" id="Shape"></path>
                <path d="M10.4491914,13.1623474 L13.3470326,13.1651326 L14.7042326,16.3198247 L16.9104837,16.3608404 L10.4431966,2.51792091 L4.26069767,16.3193393 L6.56647442,16.2765034 L7.80613023,13.1651326 L10.4432558,13.1651326 L10.4491914,13.1623474 Z M12.7034419,11.4 L10.4598233,6.94299775 L8.61950698,11.3233079 L10.4431349,11.3233079 L12.7034419,11.4 Z" id="Shape"></path>
            </g>
            <g id="jquery-hover" transform="translate(628.000000, 19.000000)" fill="url(#linearGradient-1)" sketch:type="MSShapeGroup">
                <path d="M59.3734351,4.01705426 L56.5755725,4.01705426 C56.4120611,4.01705426 56.2667176,4.14294574 56.2303817,4.28682171 L55.231145,8.81891473 L54.2319084,13.3510078 C54.1955725,13.4948837 54.050229,13.6207752 53.8867176,13.6207752 L52.2152672,13.6207752 L51.9245802,13.6207752 C49.9624427,13.6207752 50.198626,12.2899225 50.5983206,10.4555039 C50.5983206,10.4375194 50.5983206,10.4195349 50.6164885,10.4015504 L50.6528244,10.1677519 L50.6528244,10.1317829 L50.7436641,9.66418605 L50.8345038,9.16062016 C50.8708397,9.01674419 50.9071756,8.78294574 50.9435115,8.63906977 L51.3977099,6.46294574 L51.8519084,4.28682171 C51.8882443,4.14294574 51.7792366,4.01705426 51.6338931,4.01705426 L48.7633588,4.01705426 C48.5998473,4.01705426 48.4545038,4.14294574 48.4181679,4.28682171 L47.800458,7.18232558 L47.1827481,10.0778295 L47.1282443,10.3475969 C46.4196947,13.5488372 46.601374,16.6062016 50.4529771,16.696124 L50.5619847,16.696124 L56.6119084,16.696124 C56.7754198,16.696124 56.9207634,16.5702326 56.9570992,16.4263566 L58.2651908,10.3475969 L59.5732824,4.26883721 C59.6277863,4.14294574 59.5187786,4.01705426 59.3734351,4.01705426 Z M29.4871756,3.98108527 L26.4167939,3.98108527 C26.2532824,3.98108527 26.1079389,4.10697674 26.0716031,4.25085271 L25.780916,5.52775194 L25.490229,6.80465116 C25.4538931,6.94852713 25.5629008,7.0744186 25.7082443,7.0744186 L28.7967939,7.0744186 C28.9603053,7.0744186 29.1056489,6.94852713 29.1419847,6.80465116 L29.4145038,5.52775194 L29.6870229,4.25085271 C29.7415267,4.10697674 29.650687,3.98108527 29.4871756,3.98108527 Z M28.5969466,7.93767442 L25.5083969,7.93767442 C25.3448855,7.93767442 25.199542,8.06356589 25.1632061,8.20744186 L24.7271756,10.1137984 L24.291145,12.020155 C24.2548092,12.164031 24.2003053,12.415814 24.1639695,12.5596899 L23.7461069,14.5020155 L23.3464122,16.4263566 C23.3100763,16.5702326 23.2555725,16.8220155 23.2010687,16.9658915 C23.2010687,16.9658915 22.6196947,18.6564341 21.6567939,18.6384496 L21.5296183,18.6384496 C21.0572519,18.6384496 20.6938931,18.6204651 20.6938931,18.6204651 C20.5303817,18.6204651 20.3850382,18.7463566 20.3487023,18.8902326 L20.0216794,20.2210853 L19.6946565,21.551938 C19.6583206,21.695814 19.7491603,21.8217054 19.9126718,21.8217054 C20.4577099,21.8217054 21.6931298,21.8396899 22.4380153,21.8396899 C24.8543511,21.8396899 26.1442748,20.5088372 26.9618321,16.696124 L27.9247328,12.307907 L28.8149618,8.18945736 C28.8512977,8.0455814 28.760458,7.93767442 28.5969466,7.93767442 Z M85.4625954,6.89457364 L85.3354198,6.37302326 L85.2082443,5.83348837 L85.1355725,5.56372093 C84.8812214,4.59255814 84.1545038,4.03503876 82.5557252,4.03503876 L80.0667176,4.03503876 L77.7775573,4.03503876 L77.5777099,4.03503876 L75.1977099,4.03503876 C75.0341985,4.03503876 74.888855,4.16093023 74.8525191,4.3048062 L74.7435115,4.84434109 L74.6163359,5.47379845 L74.58,5.65364341 L73.4172519,11.0310078 L72.3090076,16.1386047 C72.2726718,16.2824806 72.2726718,16.4803101 72.2908397,16.5522481 C72.3090076,16.624186 72.5996947,16.696124 72.7632061,16.696124 L75.0887023,16.696124 C75.2522137,16.696124 75.4338931,16.660155 75.5247328,16.6421705 C75.6155725,16.6062016 75.7427481,16.3004651 75.760916,16.1565891 L76.1787786,14.1243411 L76.5966412,12.092093 L76.651145,11.8223256 L77.1598473,9.50232558 L77.5958779,7.45209302 C77.6322137,7.30821705 77.7775573,7.18232558 77.9410687,7.18232558 L85.2627481,7.18232558 C85.3899237,7.16434109 85.4989313,7.05643411 85.4625954,6.89457364 Z M94.8917557,2.16465116 L94.3285496,2.16465116 L91.9848855,2.16465116 C91.821374,2.16465116 91.6396947,2.27255814 91.548855,2.39844961 L86.3709924,9.91596899 C86.2801527,10.0418605 86.189313,10.023876 86.1529771,9.88 L85.7714504,8.22542636 C85.7351145,8.08155039 85.589771,7.95565891 85.4262595,7.95565891 L82.1015267,7.95565891 C81.9380153,7.95565891 81.8471756,8.08155039 81.9016794,8.22542636 L83.3914504,13.4049612 C83.4277863,13.5488372 83.4459542,13.8006202 83.3914504,13.9444961 L82.7374046,16.4443411 C82.7010687,16.5882171 82.7919084,16.7141085 82.9554198,16.7141085 L86.2438168,16.7141085 C86.4073282,16.7141085 86.5526718,16.5882171 86.5890076,16.4443411 L87.2430534,13.9444961 C87.2793893,13.8006202 87.3883969,13.5668217 87.4792366,13.4589147 L95.8909924,2.39844961 C95.9818321,2.27255814 95.9273282,2.18263566 95.7819847,2.18263566 L94.8917557,2.16465116 Z M68.4210687,8.65705426 C68.4029008,8.81891473 68.2393893,8.9448062 68.0940458,8.9448062 L63.879084,8.9448062 C63.7337405,8.9448062 63.6610687,8.85488372 63.6792366,8.72899225 C63.6792366,8.72899225 63.6792366,8.72899225 63.6792366,8.71100775 L63.6792366,8.69302326 C63.6792366,8.69302326 63.6792366,8.65705426 63.6974046,8.62108527 C64.0970992,7.56 64.9146565,6.85860465 66.4589313,6.85860465 C68.2030534,6.85860465 68.5300763,7.70387597 68.4210687,8.65705426 Z M67.1856489,3.81922481 C61.7716031,3.81922481 60.4816794,7.0744186 59.7549618,10.3655814 C59.0282443,13.7106977 59.100916,16.8579845 64.7148092,16.8579845 L64.9146565,16.8579845 L64.9691603,16.8579845 L65.1326718,16.8579845 L65.1871756,16.8579845 L65.3325191,16.8579845 L65.4051908,16.8579845 L65.5687023,16.8579845 L65.6050382,16.8579845 L66.2772519,16.8579845 L66.2954198,16.8579845 C67.7851908,16.8579845 69.2567939,16.84 69.8563359,16.84 C70.0016794,16.84 70.1651908,16.7141085 70.2015267,16.5702326 L70.419542,15.4731783 L70.4558779,15.2573643 L70.7283969,13.9444961 C70.7647328,13.8006202 70.6557252,13.6747287 70.5103817,13.6747287 L65.4596947,13.6747287 C63.4612214,13.6747287 62.8616794,13.1531783 63.0796947,11.5885271 L71.1462595,11.5885271 C71.2734351,11.5885271 71.4006107,11.4986047 71.4369466,11.3906977 C71.4369466,11.3727132 71.4551145,11.3367442 71.4551145,11.3187597 C72.6541985,6.84062016 72.3090076,3.81922481 67.1856489,3.81922481 Z M41.550687,8.63906977 L41.4780153,8.90883721 L40.8603053,11.0310078 L40.2607634,13.1711628 C40.2244275,13.3150388 40.060916,13.4409302 39.8974046,13.4409302 L36.6816794,13.4409302 C34.2290076,13.4409302 33.6476336,11.5525581 34.2290076,8.76496124 C34.8285496,5.90542636 35.9912977,4.14294574 38.3894656,3.96310078 C41.6960305,3.71131783 42.3500763,5.99534884 41.550687,8.63906977 Z M43.7671756,13.2790698 C43.7671756,13.2790698 45.2932824,9.62821705 45.6384733,7.52403101 C46.0926718,4.70046512 44.6755725,0.6 39.1525191,0.6 C33.6658015,0.6 31.2858015,4.50263566 30.3774046,8.76496124 C29.4690076,13.0452713 30.6680916,16.804031 36.1184733,16.768062 L40.4242748,16.7500775 L44.4393893,16.732093 C44.6029008,16.732093 44.7482443,16.6062016 44.7845802,16.4623256 L45.4931298,13.8186047 C45.5294656,13.6747287 45.438626,13.5488372 45.2751145,13.5488372 L44.6029008,13.5488372 L43.930687,13.5488372 C43.8035115,13.5488372 43.7308397,13.4589147 43.7308397,13.3510078 C43.7490076,13.3150388 43.7490076,13.2970543 43.7671756,13.2790698 Z M1.89007634,6.08527132 C0.382137405,8.24341085 0.563816794,11.0489922 1.72656489,13.3330233 C1.76290076,13.3869767 1.7810687,13.4409302 1.81740458,13.4948837 C1.83557252,13.5308527 1.85374046,13.5668217 1.8719084,13.6027907 C1.89007634,13.6207752 1.89007634,13.6387597 1.90824427,13.6567442 C1.92641221,13.6927132 1.94458015,13.7286822 1.96274809,13.7646512 C1.99908397,13.8186047 2.03541985,13.8905426 2.07175573,13.9444961 C2.08992366,13.9804651 2.1080916,14.0164341 2.12625954,14.0524031 C2.16259542,14.1243411 2.21709924,14.1782946 2.25343511,14.2502326 C2.27160305,14.2862016 2.28977099,14.304186 2.30793893,14.340155 C2.36244275,14.4300775 2.4351145,14.52 2.48961832,14.6099225 C2.50778626,14.627907 2.50778626,14.6458915 2.5259542,14.6458915 C2.58045802,14.7178295 2.63496183,14.7897674 2.68946565,14.8617054 C2.70763359,14.8796899 2.72580153,14.9156589 2.7621374,14.9336434 C2.81664122,15.0055814 2.87114504,15.0595349 2.92564885,15.1314729 C2.94381679,15.1494574 2.96198473,15.1854264 2.98015267,15.2034109 C3.05282443,15.2933333 3.12549618,15.3652713 3.19816794,15.4551938 C3.19816794,15.4551938 3.19816794,15.4551938 3.19816794,15.4731783 C3.27083969,15.5451163 3.34351145,15.6350388 3.41618321,15.7069767 C3.43435115,15.7249612 3.47068702,15.7609302 3.48885496,15.7789147 C3.54335878,15.8328682 3.5978626,15.8868217 3.67053435,15.9587597 C3.68870229,15.9767442 3.72503817,16.0127132 3.74320611,16.0306977 C3.81587786,16.1026357 3.90671756,16.1745736 3.97938931,16.2465116 C3.99755725,16.2644961 4.01572519,16.2644961 4.01572519,16.2824806 C4.08839695,16.3364341 4.1610687,16.4083721 4.23374046,16.4623256 C4.27007634,16.4803101 4.28824427,16.5162791 4.32458015,16.5342636 C4.37908397,16.5882171 4.45175573,16.624186 4.50625954,16.6781395 C4.54259542,16.696124 4.5789313,16.732093 4.59709924,16.7500775 C4.66977099,16.804031 4.74244275,16.84 4.79694656,16.8939535 C4.8151145,16.911938 4.85145038,16.9299225 4.86961832,16.947907 L4.88778626,16.9658915 C4.96045802,17.0018605 5.01496183,17.055814 5.08763359,17.0917829 C5.12396947,17.1097674 5.1421374,17.1277519 5.17847328,17.1457364 C5.28748092,17.2176744 5.37832061,17.2716279 5.48732824,17.3435659 C5.52366412,17.3615504 5.54183206,17.3795349 5.57816794,17.3975194 C5.65083969,17.4334884 5.74167939,17.4874419 5.81435115,17.5234109 C5.85068702,17.5413953 5.90519084,17.5593798 5.94152672,17.5953488 C5.99603053,17.6313178 6.05053435,17.6493023 6.10503817,17.6852713 C6.12320611,17.6852713 6.12320611,17.7032558 6.14137405,17.7032558 C6.15954198,17.7212403 6.19587786,17.7212403 6.2140458,17.7392248 C6.3048855,17.7751938 6.39572519,17.8291473 6.48656489,17.8651163 C6.50473282,17.8651163 6.52290076,17.8831008 6.5410687,17.8831008 C6.65007634,17.9190698 6.74091603,17.9730233 6.84992366,18.0089922 C6.8680916,18.0269767 6.90442748,18.0269767 6.92259542,18.0449612 C7.01343511,18.0809302 7.12244275,18.1168992 7.21328244,18.1528682 C7.23145038,18.1528682 7.23145038,18.1528682 7.24961832,18.1708527 C7.35862595,18.2068217 7.46763359,18.2427907 7.57664122,18.2787597 C7.59480916,18.2787597 7.63114504,18.2967442 7.64931298,18.2967442 C7.75832061,18.3327132 7.86732824,18.3686822 7.99450382,18.3866667 C15.3161832,19.7175194 17.4418321,14.0344186 17.4418321,14.0344186 C15.6977099,16.3184496 12.5364885,16.9299225 9.52061069,16.2465116 C9.41160305,16.2285271 9.30259542,16.1925581 9.19358779,16.1565891 C9.15725191,16.1565891 9.13908397,16.1386047 9.10274809,16.1386047 C8.99374046,16.1026357 8.88473282,16.0666667 8.77572519,16.0306977 C8.75755725,16.0306977 8.73938931,16.0127132 8.73938931,16.0127132 C8.64854962,15.9767442 8.55770992,15.9407752 8.44870229,15.9048062 C8.43053435,15.8868217 8.41236641,15.8868217 8.37603053,15.8688372 C8.2670229,15.8328682 8.17618321,15.7789147 8.06717557,15.7429457 C8.04900763,15.7429457 8.03083969,15.7249612 8.01267176,15.7249612 C7.92183206,15.6889922 7.83099237,15.6530233 7.75832061,15.5990698 C7.74015267,15.5810853 7.70381679,15.5810853 7.68564885,15.5631008 C7.6129771,15.5271318 7.55847328,15.4911628 7.48580153,15.4551938 C7.44946565,15.4372093 7.39496183,15.4012403 7.35862595,15.3832558 C7.2859542,15.3472868 7.1951145,15.2933333 7.12244275,15.2573643 C7.10427481,15.2393798 7.06793893,15.2213953 7.04977099,15.2213953 C6.94076336,15.1674419 6.83175573,15.0955039 6.74091603,15.0235659 C6.70458015,15.0055814 6.68641221,14.9875969 6.65007634,14.9696124 C6.57740458,14.9156589 6.50473282,14.8796899 6.43206107,14.8257364 C6.41389313,14.8077519 6.37755725,14.7897674 6.35938931,14.7717829 C6.28671756,14.7178295 6.2140458,14.663876 6.14137405,14.627907 C6.10503817,14.6099225 6.08687023,14.5739535 6.05053435,14.555969 C5.9778626,14.5020155 5.92335878,14.4660465 5.86885496,14.412093 C5.83251908,14.3941085 5.81435115,14.376124 5.77801527,14.340155 C5.70534351,14.2682171 5.61450382,14.2142636 5.54183206,14.1423256 L5.52366412,14.1243411 C5.43282443,14.0524031 5.36015267,13.9804651 5.26931298,13.9085271 C5.25114504,13.8905426 5.21480916,13.8725581 5.19664122,13.8365891 C5.1421374,13.7826357 5.06946565,13.7286822 5.01496183,13.6567442 C4.99679389,13.6387597 4.96045802,13.6027907 4.94229008,13.5848062 C4.86961832,13.5128682 4.79694656,13.4409302 4.72427481,13.3510078 C4.72427481,13.3510078 4.72427481,13.3510078 4.70610687,13.3330233 C4.63343511,13.2431008 4.56076336,13.1711628 4.4880916,13.0812403 C4.46992366,13.0632558 4.45175573,13.0272868 4.43358779,13.0093023 C4.37908397,12.9373643 4.32458015,12.8834109 4.27007634,12.8114729 C4.2519084,12.7934884 4.23374046,12.7575194 4.21557252,12.7395349 C4.1610687,12.6675969 4.08839695,12.5776744 4.03389313,12.4877519 C2.36244275,10.2396899 1.76290076,7.12837209 3.10732824,4.57457364 L1.89007634,6.08527132 Z M6.59557252,4.26883721 C5.50549618,5.83348837 5.56,7.91968992 6.41389313,9.57426357 C6.55923664,9.84403101 6.72274809,10.1137984 6.90442748,10.3835659 C7.06793893,10.6173643 7.24961832,10.8871318 7.46763359,11.0849612 C7.54030534,11.1748837 7.63114504,11.2468217 7.72198473,11.3367442 C7.74015267,11.3547287 7.75832061,11.3727132 7.79465649,11.4086822 C7.88549618,11.4806202 7.95816794,11.5705426 8.04900763,11.6424806 L8.06717557,11.6424806 C8.15801527,11.7324031 8.2670229,11.8043411 8.3578626,11.8762791 C8.37603053,11.8942636 8.39419847,11.9122481 8.43053435,11.9302326 C8.53954198,12.0021705 8.63038168,12.0741085 8.73938931,12.1460465 C8.79389313,12.1820155 8.83022901,12.2 8.88473282,12.235969 C8.90290076,12.2539535 8.9210687,12.271938 8.95740458,12.271938 C9.03007634,12.3258915 9.10274809,12.3618605 9.19358779,12.415814 C9.21175573,12.415814 9.21175573,12.4337984 9.22992366,12.4337984 C9.30259542,12.4697674 9.35709924,12.5057364 9.42977099,12.5417054 C9.44793893,12.5596899 9.48427481,12.5596899 9.50244275,12.5776744 C9.55694656,12.5956589 9.59328244,12.6316279 9.64778626,12.6496124 C9.64778626,12.6496124 9.6659542,12.6496124 9.6659542,12.6675969 C9.75679389,12.7215504 9.86580153,12.7575194 9.95664122,12.8114729 C9.97480916,12.8294574 9.9929771,12.8294574 10.029313,12.8294574 C10.1019847,12.8654264 10.1928244,12.9013953 10.2654962,12.9193798 C10.3018321,12.9373643 10.3381679,12.9373643 10.3745038,12.9553488 C10.4471756,12.9733333 10.5198473,13.0093023 10.5925191,13.0272868 C10.628855,13.0452713 10.6651908,13.0452713 10.6833588,13.0632558 C10.7923664,13.0992248 10.901374,13.1351938 11.0103817,13.1531783 C16.6061069,14.0883721 17.8960305,9.77209302 17.8960305,9.77209302 C16.7151145,11.4446512 14.4441221,12.2539535 12.0096183,11.6244961 C11.9006107,11.5885271 11.7916031,11.5705426 11.6825954,11.5345736 C11.6462595,11.5165891 11.6099237,11.5165891 11.5917557,11.4986047 C11.519084,11.4806202 11.4464122,11.4446512 11.3737405,11.4266667 C11.3374046,11.4086822 11.3010687,11.4086822 11.2647328,11.3906977 C11.1920611,11.3547287 11.1012214,11.3367442 11.0285496,11.3007752 C11.0103817,11.2827907 10.9922137,11.2827907 10.9558779,11.2648062 C10.8650382,11.2288372 10.7560305,11.1748837 10.6651908,11.1209302 C10.610687,11.1029457 10.5743511,11.0669767 10.5198473,11.0489922 C10.4835115,11.0310078 10.4653435,11.0130233 10.4290076,11.0130233 C10.3745038,10.9770543 10.3018321,10.9410853 10.2473282,10.9051163 C10.2291603,10.9051163 10.2109924,10.8871318 10.2109924,10.8871318 C10.1383206,10.8511628 10.0656489,10.7972093 9.9929771,10.7432558 C9.97480916,10.7252713 9.95664122,10.7072868 9.92030534,10.6893023 C9.86580153,10.6533333 9.82946565,10.6173643 9.77496183,10.5993798 C9.6659542,10.5274419 9.5751145,10.4555039 9.46610687,10.3835659 C9.44793893,10.3655814 9.41160305,10.3475969 9.39343511,10.3296124 C8.32152672,9.50232558 7.48580153,8.36930233 7.08610687,7.0744186 C6.66824427,5.74356589 6.75908397,4.23286822 7.48580153,3.00992248 L6.59557252,4.26883721 Z M10.5380153,2.92 C9.88396947,3.8551938 9.82946565,5.02418605 10.2836641,6.06728682 C10.7560305,7.16434109 11.7189313,8.0275969 12.8453435,8.44124031 C12.8998473,8.45922481 12.9361832,8.4772093 12.990687,8.4951938 C13.008855,8.4951938 13.0270229,8.51317829 13.0451908,8.51317829 C13.1178626,8.53116279 13.1723664,8.54914729 13.2450382,8.56713178 C16.3699237,9.16062016 17.2056489,6.98449612 17.4418321,6.66077519 C16.6969466,7.72186047 15.4615267,7.97364341 13.9172519,7.59596899 C13.7900763,7.56 13.6629008,7.52403101 13.5538931,7.48806202 C13.4085496,7.43410853 13.2632061,7.38015504 13.1178626,7.30821705 C12.8453435,7.18232558 12.5909924,7.02046512 12.3548092,6.84062016 C10.9740458,5.81550388 10.1383206,3.8551938 11.0285496,2.25457364 L10.5380153,2.92 Z M45.711145,21.2282171 L44.8027481,23.2604651 L43.8035115,23.2604651 L43.8761832,21.408062 L43.1494656,23.2604651 L42.1865649,23.2604651 L42.1683969,21.2282171 L42.2774046,20.7246512 L42.9677863,20.7246512 L42.8406107,22.7209302 L43.6036641,20.7246512 L44.5483969,20.7246512 L44.4757252,22.7568992 L45.2206107,20.7246512 L45.8201527,20.7246512 L45.711145,21.2282171 Z M47.2735878,21.8396899 C47.3644275,21.444031 47.3280916,21.372093 47.1282443,21.372093 L46.8193893,21.372093 L46.619542,22.3072868 L46.310687,23.2784496 L45.729313,23.2784496 L46.2016794,21.0843411 L46.2743511,20.7606202 L46.8012214,20.7606202 L46.8738931,20.9044961 C46.8738931,20.9044961 47.1827481,20.7246512 47.4734351,20.7246512 C48.109313,20.7246512 48.0548092,21.1922481 47.9276336,21.8576744 L47.2735878,21.8396899 Z M49.1630534,20.4189147 C48.9087023,20.4189147 48.7451908,20.3469767 48.7996947,20.0412403 C48.8723664,19.7355039 49.0722137,19.6635659 49.3265649,19.6635659 C49.580916,19.6635659 49.7444275,19.7355039 49.6717557,20.0412403 C49.6172519,20.3289922 49.4174046,20.4189147 49.1630534,20.4189147 Z M48.8905344,23.2604651 L48.3091603,23.2604651 L48.4181679,22.2713178 L48.6180153,21.3541085 L48.2183206,21.264186 L48.3273282,20.7246512 L49.4174046,20.7246512 L48.8905344,23.2604651 Z M51.379542,21.264186 L50.6528244,21.3541085 L50.4529771,22.3252713 C50.3984733,22.5950388 50.3984733,22.6669767 50.6346565,22.6669767 L51.1070229,22.6669767 L50.9980153,23.1705426 C50.9980153,23.1705426 50.5619847,23.2964341 50.3803053,23.2964341 C49.6354198,23.2964341 49.6535878,22.9007752 49.7807634,22.2893023 L49.9806107,21.336124 L49.580916,21.2462016 L49.7080916,20.7066667 L50.1259542,20.7066667 L50.3621374,20.0772093 L50.9253435,20.0772093 L50.78,20.7066667 L51.4885496,20.7066667 L51.379542,21.264186 Z M52.869313,21.300155 C52.5241221,21.300155 52.3606107,21.48 52.2879389,21.7857364 L53.2508397,21.7137984 C53.2871756,21.4979845 53.2508397,21.300155 52.869313,21.300155 Z M52.1970992,22.2353488 C52.1607634,22.5410853 52.269771,22.6489922 52.6694656,22.6489922 L53.6687023,22.6489922 L53.5778626,23.1165891 C53.5778626,23.1165891 52.9783206,23.2784496 52.5241221,23.2784496 C51.3977099,23.2784496 51.3977099,22.6489922 51.5430534,21.9835659 C51.6883969,21.336124 51.9427481,20.6706977 53.0328244,20.6706977 C54.0683969,20.6706977 54.1229008,21.300155 53.8685496,22.2173643 L52.1970992,22.2353488 Z M56.139542,23.2604651 L55.5581679,23.2604651 L55.6671756,22.2713178 L56.0668702,20.3829457 L55.6671756,20.2930233 L55.7943511,19.7534884 L56.8844275,19.7534884 L56.139542,23.2604651 Z M58.228855,21.300155 C57.8836641,21.300155 57.7201527,21.48 57.6474809,21.7857364 L58.6103817,21.7137984 C58.6467176,21.4979845 58.6103817,21.300155 58.228855,21.300155 Z M57.5384733,22.2353488 C57.5021374,22.5410853 57.611145,22.6489922 58.0108397,22.6489922 L59.0100763,22.6489922 L58.9010687,23.1165891 C58.9010687,23.1165891 58.3015267,23.2784496 57.8473282,23.2784496 C56.720916,23.2784496 56.720916,22.6489922 56.8662595,21.9835659 C57.0116031,21.336124 57.2659542,20.6706977 58.3560305,20.6706977 C59.3916031,20.6706977 59.4461069,21.300155 59.1917557,22.2173643 L57.5384733,22.2353488 Z M61.8442748,21.336124 L60.9177099,21.336124 C60.4998473,21.336124 60.4453435,21.4620155 60.4090076,21.6058915 L60.3908397,21.7317829 L61.7352672,21.8396899 C61.7352672,21.8396899 61.7352672,22.2713178 61.6807634,22.5051163 C61.6080916,22.9007752 61.1720611,23.3144186 60.4271756,23.3144186 C60.0456489,23.3144186 59.4461069,23.1705426 59.4461069,23.1705426 L59.5551145,22.6849612 L60.4816794,22.6849612 C60.899542,22.6849612 60.9540458,22.5770543 60.9722137,22.4691473 L61.0085496,22.3072868 L59.6822901,22.1993798 C59.6822901,22.1993798 59.6277863,21.8756589 59.700458,21.551938 C59.8094656,21.1023256 60.2091603,20.7246512 60.9722137,20.7246512 C61.3537405,20.7246512 61.9532824,20.8685271 61.9532824,20.8685271 L61.8442748,21.336124 Z M64.3514504,21.336124 L63.4248855,21.336124 C63.0070229,21.336124 62.9525191,21.4620155 62.9161832,21.6058915 L62.8980153,21.7317829 L64.2424427,21.8396899 C64.2424427,21.8396899 64.2424427,22.2713178 64.1879389,22.5051163 C64.1152672,22.9007752 63.6792366,23.3144186 62.9343511,23.3144186 C62.5528244,23.3144186 61.9532824,23.1705426 61.9532824,23.1705426 L62.0622901,22.6849612 L62.988855,22.6849612 C63.4067176,22.6849612 63.4612214,22.5770543 63.4793893,22.4691473 L63.5157252,22.3072868 L62.1894656,22.1993798 C62.1894656,22.1993798 62.1349618,21.8756589 62.2076336,21.551938 C62.3166412,21.1023256 62.7163359,20.7246512 63.4793893,20.7246512 C63.860916,20.7246512 64.460458,20.8685271 64.460458,20.8685271 L64.3514504,21.336124 Z M65.1326718,23.656124 L64.6239695,23.656124 L64.6421374,23.2784496 C64.460458,23.2604651 64.3696183,23.1345736 64.4059542,22.9187597 C64.478626,22.6130233 64.6603053,22.5410853 64.9328244,22.5410853 C65.1871756,22.5410853 65.350687,22.6130233 65.2780153,22.9187597 L65.1326718,23.656124 Z M68.4755725,21.3541085 C68.0940458,21.3541085 67.9668702,21.5699225 67.8760305,21.9835659 C67.7851908,22.3972093 67.8215267,22.6310078 68.1848855,22.6310078 L68.7117557,22.6310078 L69.0024427,21.3541085 L68.4755725,21.3541085 Z M69.3294656,22.9367442 L69.2567939,23.2604651 L68.7299237,23.2604651 L68.6572519,23.0986047 C68.6572519,23.0986047 68.2030534,23.2964341 67.8760305,23.2964341 C67.0766412,23.2964341 67.0403053,22.6489922 67.1856489,21.9835659 C67.3309924,21.3181395 67.6398473,20.6886822 68.4392366,20.6886822 C68.7299237,20.6886822 69.1114504,20.8325581 69.1114504,20.8325581 L69.4384733,19.7714729 L70.0198473,19.7714729 L69.3294656,22.9367442 Z M71.4006107,21.336124 C70.9100763,21.336124 70.7647328,21.6058915 70.6738931,22.0015504 C70.6012214,22.3972093 70.6375573,22.6849612 71.1099237,22.6849612 C71.618626,22.6849612 71.7639695,22.4151938 71.8548092,22.0015504 C71.9456489,21.623876 71.909313,21.336124 71.4006107,21.336124 Z M70.9827481,23.2964341 C69.9471756,23.2964341 69.8745038,22.6669767 70.0016794,22.0015504 C70.1470229,21.336124 70.5103817,20.7066667 71.5459542,20.7066667 C72.5633588,20.7066667 72.6723664,21.336124 72.5270229,22.0015504 C72.3816794,22.6669767 72.0183206,23.2964341 70.9827481,23.2964341 Z M76.8328244,23.2604651 L76.9418321,22.2893023 L76.9963359,22.0195349 C77.0690076,21.6418605 77.1235115,21.372093 76.7419847,21.372093 L76.4331298,21.372093 C76.4512977,21.5699225 76.4149618,21.7857364 76.360458,22.0015504 L76.0879389,23.2604651 L75.5065649,23.2604651 L75.6155725,22.2893023 L75.6700763,22.0195349 C75.7427481,21.6418605 75.7972519,21.372093 75.4157252,21.372093 L75.161374,21.372093 L74.7435115,23.2604651 L74.0712977,23.2604651 L74.6163359,20.7246512 L75.1432061,20.7246512 L75.2158779,20.8865116 C75.2158779,20.8865116 75.5792366,20.7066667 75.8517557,20.7066667 C76.069771,20.7066667 76.2332824,20.8145736 76.2877863,20.9224806 C76.4149618,20.8505426 76.7601527,20.7066667 77.0326718,20.7066667 C77.8320611,20.7066667 77.8138931,21.3541085 77.6685496,22.0015504 L77.3960305,23.2604651 L76.8328244,23.2604651 Z M79.4853435,21.336124 C78.9948092,21.336124 78.8494656,21.6058915 78.758626,22.0015504 C78.6859542,22.3972093 78.7222901,22.6849612 79.1946565,22.6849612 C79.7033588,22.6849612 79.8487023,22.4151938 79.939542,22.0015504 C80.0122137,21.623876 79.9940458,21.336124 79.4853435,21.336124 Z M79.0674809,23.2964341 C78.0319084,23.2964341 77.9592366,22.6669767 78.0864122,22.0015504 C78.2317557,21.336124 78.5951145,20.7066667 79.630687,20.7066667 C80.6480916,20.7066667 80.7570992,21.336124 80.6117557,22.0015504 C80.4482443,22.6669767 80.0848855,23.2964341 79.0674809,23.2964341 Z M82.3377099,21.8396899 C82.4285496,21.444031 82.3922137,21.372093 82.1923664,21.372093 L81.8835115,21.372093 L81.6836641,22.3072868 L81.3748092,23.2784496 L80.7934351,23.2784496 L81.2658015,21.0843411 L81.3384733,20.7606202 L81.8653435,20.7606202 L81.9380153,20.9044961 C81.9380153,20.9044961 82.2468702,20.7246512 82.5375573,20.7246512 C83.1734351,20.7246512 83.1189313,21.1922481 82.9917557,21.8576744 L82.3377099,21.8396899 Z M84.5723664,21.300155 C84.2271756,21.300155 84.0636641,21.48 83.9909924,21.7857364 L84.9538931,21.7137984 C85.0083969,21.4979845 84.9538931,21.300155 84.5723664,21.300155 Z M83.9001527,22.2353488 C83.8638168,22.5410853 83.9728244,22.6489922 84.3725191,22.6489922 L85.3717557,22.6489922 L85.280916,23.1165891 C85.280916,23.1165891 84.681374,23.2784496 84.2271756,23.2784496 C83.1007634,23.2784496 83.1007634,22.6489922 83.2461069,21.9835659 C83.3914504,21.336124 83.6458015,20.6706977 84.7358779,20.6706977 C85.7714504,20.6706977 85.8259542,21.300155 85.5716031,22.2173643 L83.9001527,22.2353488 Z M86.1166412,23.2964341 C85.8622901,23.2964341 85.6987786,23.2244961 85.7532824,22.9187597 C85.8077863,22.6130233 86.0076336,22.5410853 86.2801527,22.5410853 C86.5163359,22.5410853 86.6980153,22.6130233 86.6253435,22.9187597 C86.5526718,23.2244961 86.3528244,23.2964341 86.1166412,23.2964341 Z" id="background"></path>
            </g>
            <g id="botstrap-hover" transform="translate(540.000000, 0.000000)" fill="url(#linearGradient-2)" sketch:type="MSShapeGroup">
                <path d="M50.9333333,0.203921569 C53.5,0.203921569 55.9257516,1.21045752 57.7576471,3.04235294 C59.5895425,4.87424837 60.5960784,7.3 60.5960784,9.86666667 L60.5960784,50.9333333 C60.5960784,53.5 59.5895425,55.9257516 57.7576471,57.7576471 C55.9257516,59.5895425 53.5,60.5960784 50.9333333,60.5960784 L9.86666667,60.5960784 C7.3,60.5960784 4.87424837,59.5895425 3.04235294,57.7576471 C1.21045752,55.9257516 0.203921569,53.5 0.203921569,50.9333333 L0.203921569,9.86666667 C0.203921569,7.3 1.21045752,4.87424837 3.04235294,3.04235294 C4.87424837,1.21045752 7.3,0.203921569 9.86666667,0.203921569 L50.9333333,0.203921569 L50.9333333,0.203921569 Z M16.3386928,12.9869281 L33.8020915,12.9869281 C37.0230065,12.9869281 39.6098039,13.7216993 41.5524183,15.2013072 C43.4950327,16.680915 44.4713725,18.9053595 44.4713725,21.8947712 C44.4713725,23.7065359 44.0284967,25.2566013 43.1427451,26.5449673 C42.2569935,27.8333333 40.9887582,28.8398693 39.3380392,29.5444444 L39.3380392,29.645098 C41.5524183,30.1181699 43.2333333,31.1649673 44.370719,32.7854902 C45.5081046,34.4160784 46.0818301,36.449281 46.0818301,38.9052288 C46.0818301,40.3143791 45.8301961,41.6329412 45.3269281,42.8508497 C44.8236601,44.0788235 44.0385621,45.1356863 42.9615686,46.0214379 C41.8845752,46.9071895 40.5156863,47.6117647 38.8347712,48.1351634 C37.1538562,48.6585621 35.160915,48.9202614 32.8458824,48.9202614 L16.3386928,48.9202614 L16.3386928,12.9869281 Z M22.6295425,28.0346405 L32.8962092,28.0346405 C34.4060131,28.0346405 35.664183,27.6118954 36.670719,26.7462745 C37.6772549,25.8806536 38.1805229,24.6526797 38.1805229,23.0422222 C38.1805229,21.2304575 37.7275817,19.9521569 36.8216993,19.2173856 C35.915817,18.4826144 34.6073203,18.1101961 32.8962092,18.1101961 L22.6295425,18.1101961 L22.6295425,28.0346405 L22.6295425,28.0346405 L22.6295425,28.0346405 Z M22.6295425,43.7869281 L33.7517647,43.7869281 C35.664183,43.7869281 37.1538562,43.2937255 38.2006536,42.2972549 C39.2575163,41.3108497 39.7909804,39.9016993 39.7909804,38.0899346 C39.7909804,36.308366 39.2675817,34.9495425 38.2006536,33.983268 C37.1337255,33.0169935 35.664183,32.5539869 33.7517647,32.5539869 L22.6295425,32.5539869 L22.6295425,43.7869281 L22.6295425,43.7869281 Z" id="Rectangle-5"></path>
            </g>
            <g id="sass-hover" transform="translate(423.000000, 0.000000)" fill="url(#linearGradient-2)" sketch:type="MSShapeGroup">
                <path d="M64.788975,37.6176624 C64.0084623,36.07297 63.2279496,34.7233966 63.0978641,33.7152815 C62.951518,32.5445673 62.7726505,31.8291308 62.951518,30.4307776 C63.1303855,29.0324244 63.9434195,27.0487141 63.9434195,26.8861149 C63.9271589,26.7397756 63.7645521,26.0243391 62.0897019,26.0080792 C60.4148517,25.9918193 58.9676511,26.3332776 58.8050443,26.7722955 C58.6424375,27.2113133 58.3172239,28.2194284 58.105835,29.2600633 C57.8131427,30.7884958 54.7561347,36.2030494 53.0162418,39.0485354 C52.447118,37.9428609 51.9592975,36.9672656 51.8617334,36.1867894 C51.7153873,35.0160752 51.5365198,34.3006387 51.7153873,32.9022855 C51.8942548,31.5039323 52.7072889,29.520222 52.7072889,29.3576228 C52.6910282,29.2112836 52.5284214,28.4958471 50.8535712,28.4795871 C49.178721,28.4633272 47.7315204,28.8047855 47.5689136,29.2438034 C47.4063068,29.6828213 47.2274393,30.7234562 46.8697043,31.7315712 C46.52823,32.7396863 42.4630597,41.7802021 41.4061154,44.1378906 C40.869513,45.3411247 40.3979532,46.30046 40.0564789,46.9508568 C39.7150046,47.6175135 39.5523978,47.926452 39.5523978,47.926452 C39.3247483,48.34921 39.080838,48.7394481 38.9670133,48.7394481 C38.8857099,48.7394481 38.723103,47.6500334 38.9995346,46.1541207 C39.6011798,43.015956 41.0646411,38.12172 41.0483805,37.9428609 C41.0483805,37.8615613 41.324812,36.9997855 40.1052609,36.5607676 C38.9182312,36.1217498 38.4954535,36.8534462 38.3978894,36.8534462 C38.3003253,36.8534462 38.2190219,37.1136049 38.2190219,37.1136049 C38.2190219,37.1136049 39.5361371,31.6014919 35.6986163,31.6014919 C33.2920355,31.6014919 29.9748566,34.2193391 28.3325278,36.6095474 C27.2918442,37.1786446 25.0803915,38.3818787 22.7388535,39.6664124 C21.844516,40.15421 20.9176572,40.6745275 20.0395804,41.1460652 L19.8607129,40.9509461 C15.2101581,35.9916704 6.60825773,32.4795276 6.96599271,25.8129602 C7.09607816,23.390232 7.94163359,17.0000833 23.4868448,9.26036114 C36.2189581,2.91899215 46.4144052,4.65880364 48.1868195,8.52866471 C50.7072251,14.0570377 42.7394913,24.3333074 29.5032968,25.8129602 C24.4624857,26.3820574 21.8119946,24.4308669 21.1453067,23.6991705 C20.4460974,22.9349543 20.3485333,22.9024344 20.0883624,23.0487737 C19.6655847,23.2764126 19.9257556,23.9593292 20.0883624,24.3658273 C20.4786188,25.3902022 22.1046869,27.2113133 24.8690027,28.1218689 C27.2918442,28.918605 33.2107321,29.3576228 40.3654318,26.5934364 C48.3819477,23.4877916 54.6423099,14.8700337 52.8048529,7.66688893 C50.9348746,0.333664795 38.7718851,-2.07280344 27.2755835,2.0084366 C20.4298367,4.44742468 13.0149661,8.25224607 7.68146269,13.2440417 C1.33979703,19.1626527 0.331634796,24.3333074 0.754412506,26.4796169 C2.23413449,34.1380395 12.7873166,39.1298351 17.0150937,42.820837 C16.8037048,42.9346564 16.6085767,43.0484759 16.4297092,43.1460354 C14.3158206,44.1866703 6.26678342,48.3979897 4.25045896,52.8532079 C1.97396359,57.8937833 4.60819394,61.5197455 6.36434751,62.0075432 C11.795415,63.5197158 17.356568,60.804309 20.364794,56.3328309 C23.3567593,51.8613528 22.9990244,46.0565612 21.6168665,43.4061941 L23.2266739,42.3330394 C24.2998788,41.6989025 25.3568231,41.1135453 26.2836819,40.6094878 C25.7633402,42.0241009 25.3893445,43.6988727 25.1942163,46.1378608 C24.9665668,48.9996068 26.1373358,52.7068686 27.6821005,54.1702615 C28.3650491,54.8043984 29.1780832,54.8206583 29.6821643,54.8206583 C31.4708392,54.8206583 32.2838733,53.3410055 33.1782108,51.5686742 C34.2839371,49.4061048 35.259578,46.902077 35.259578,46.902077 C35.259578,46.902077 34.0400269,53.6824639 37.3734665,53.6824639 C38.5930176,53.6824639 39.8125687,52.1052516 40.3654318,51.2922556 C40.5930814,50.9507972 40.6581241,50.8369778 40.6581241,50.8369778 C41.1459445,49.9589421 42.2354102,48.0240116 43.8614783,44.8208072 C45.9591062,40.6907874 47.9754306,35.5201327 47.9754306,35.5201327 C47.9754306,35.5201327 48.1705588,36.7884065 48.772204,38.8696763 C49.129939,40.1054303 49.9104517,41.4550037 50.5120969,42.7720572 C50.0242765,43.4549739 49.7315842,43.845212 49.7315842,43.845212 C49.3575885,44.3817894 48.9185501,44.9346267 48.4632511,45.487464 C46.8046616,47.4711743 44.8208585,49.7313032 44.5606876,50.3817 C44.2517346,51.1459163 44.3167774,51.7150135 44.9184226,52.1702913 C45.357461,52.4954897 46.1379737,52.5605294 46.9672684,52.4954897 C48.4632511,52.3979302 49.5039347,52.023952 50.0242765,51.7963131 C50.8373105,51.5036345 51.7641693,51.0646167 52.6585068,50.4142199 C54.2845749,49.2109857 55.2764765,47.5036941 55.1789124,45.2273052 C55.1301304,43.9752914 54.7236133,42.7395374 54.2195322,41.5688231 C54.3658783,41.3574442 54.5122245,41.1460652 54.6585706,40.9184263 C57.2277582,37.1623847 59.2115613,33.0323649 59.2115613,33.0323649 C59.2115613,33.0323649 59.4066895,34.3006387 60.0083347,36.3819085 C60.3172876,37.4388033 60.9351935,38.5932577 61.4880567,39.7314521 C59.0814759,41.6989025 57.5692325,43.9752914 57.0488907,45.471204 C56.0895105,48.2353905 56.8375019,49.4874044 58.2521811,49.780083 C58.8863477,49.9101623 59.7969458,49.6174838 60.4798945,49.3248052 C61.3254499,49.0483865 62.3498728,48.5768488 63.2929923,47.8776723 C64.9190604,46.6744382 66.4800858,44.9996663 66.3987824,42.7395374 C66.3500004,41.6989025 66.0735688,40.6745275 65.6995731,39.6989323 C67.7484189,38.8534164 70.39891,38.3656188 73.764871,38.7721168 C81.0008741,39.6176327 82.431814,44.1378906 82.1553825,46.0240413 C81.8789509,47.9101921 80.3667075,48.950827 79.8626264,49.2760254 C79.3585453,49.5849639 79.1959385,49.6987834 79.2447205,49.9264222 C79.3097633,50.2678806 79.5374128,50.2516207 79.9764512,50.186581 C80.5780964,50.0890215 83.7814506,48.6418885 83.911536,45.1622655 C84.1066642,40.6907874 79.8626264,35.8128113 72.333931,35.861591 C69.4232691,35.877851 66.9028635,36.5770275 64.788975,37.6176624 Z M16.5272732,54.674319 C14.1369531,57.2921662 10.7709921,58.2840214 9.34005217,57.4385055 C7.79528745,56.5442099 8.39693266,52.6906087 11.340116,49.9101623 C13.1287909,48.2191306 15.4540683,46.6581782 16.9825723,45.6988429 C17.3240466,45.487464 17.8443884,45.1785255 18.4622943,44.8045473 C18.5598584,44.7395076 18.6249011,44.7069878 18.6249011,44.7069878 C18.7387259,44.6419481 18.8688113,44.5606485 18.9988968,44.4793489 C20.0883624,48.4467695 19.0476788,51.9263925 16.5272732,54.674319 L16.5272732,54.674319 Z M34.0075055,42.7883172 C33.1782108,44.8208072 31.4220572,50.0402417 30.3651129,49.7475631 C29.4545148,49.5036643 28.9016516,45.5525036 30.1862454,41.6501227 C30.8366727,39.6826723 32.2188306,37.3412438 33.0318646,36.4306883 C34.3489798,34.9672954 35.7799198,34.4794978 36.1376547,35.0811149 C36.5604325,35.861591 34.5278473,41.5200434 34.0075055,42.7883172 L34.0075055,42.7883172 Z M48.4307297,49.6825234 C48.0729947,49.8613826 47.7477811,49.9914619 47.601435,49.8939024 C47.4876102,49.8288627 47.7477811,49.5849639 47.7477811,49.5849639 C47.7477811,49.5849639 49.5527167,47.6500334 50.2681867,46.7557378 C50.6747037,46.2354203 51.1625241,45.6338032 51.6828659,44.9508866 L51.6828659,45.1460056 C51.6828659,47.4874342 49.4388919,49.0483865 48.4307297,49.6825234 L48.4307297,49.6825234 Z M59.5530356,47.1459758 C59.2928647,46.9508568 59.3253861,46.3492397 60.2034629,44.463089 C60.5449372,43.7151326 61.3254499,42.4631187 62.6750864,41.2761446 C62.8376932,41.7639422 62.9352573,42.2354799 62.9189966,42.6744977 C62.902736,45.6012834 60.8213688,46.6906981 59.5530356,47.1459758 L59.5530356,47.1459758 Z" id="background"></path>
            </g>
            <g id="node.js-hover" transform="translate(318.000000, 5.000000)" fill="url(#linearGradient-3)" sketch:type="MSShapeGroup">
                <path d="M52.6932731,35.1213284 C52.6932731,35.8900369 52.0548984,36.5306273 51.2888488,36.5306273 C50.5227991,36.5306273 49.8844244,35.9083395 49.8844244,35.1213284 C49.8844244,34.3160148 50.5410384,33.7120295 51.2888488,33.7120295 C52.0548984,33.7120295 52.6932731,34.3343173 52.6932731,35.1213284 Z M50.1032957,35.1213284 C50.1032957,35.7802214 50.6322348,36.3109963 51.2706095,36.3109963 C51.9272235,36.3109963 52.4561625,35.7619188 52.4561625,35.1213284 C52.4561625,34.4624354 51.9272235,33.9499631 51.2706095,33.9499631 C50.650474,33.9499631 50.1032957,34.4624354 50.1032957,35.1213284 L50.1032957,35.1213284 Z M50.7599097,34.3343173 L51.307088,34.3343173 C51.4894808,34.3343173 51.8542664,34.3343173 51.8542664,34.7552768 C51.8542664,35.0481181 51.6718736,35.1030258 51.5624379,35.139631 C51.7813093,35.1579336 51.7995485,35.3043542 51.8177878,35.5056827 C51.8360271,35.6338007 51.8542664,35.8534317 51.8907449,35.9266421 L51.5624379,35.9266421 C51.5624379,35.8534317 51.5077201,35.4507749 51.5077201,35.4324723 C51.4894808,35.3409594 51.4530023,35.3043542 51.3435666,35.3043542 L51.0699774,35.3043542 L51.0699774,35.9449446 L50.7599097,35.9449446 L50.7599097,34.3343173 L50.7599097,34.3343173 Z M51.0517381,35.0298155 L51.2888488,35.0298155 C51.4894808,35.0298155 51.5259594,34.8833948 51.5259594,34.8101845 C51.5259594,34.5905535 51.3800451,34.5905535 51.2888488,34.5905535 L51.0334989,34.5905535 L51.0334989,35.0298155 L51.0517381,35.0298155 Z M39.9440181,49.7816974 C39.6704289,49.7816974 39.415079,49.7084871 39.1779684,49.580369 L36.7521445,48.1344649 C36.3873589,47.9331365 36.5697517,47.8599262 36.6791874,47.823321 C37.1716479,47.6585978 37.2628442,47.6219926 37.773544,47.3291513 C37.8282619,47.2925461 37.901219,47.3108487 37.9559368,47.3474539 L39.8163431,48.4639114 C39.8893002,48.5005166 39.9804966,48.5005166 40.0352144,48.4639114 L47.3126862,44.2360148 C47.3856433,44.1994096 47.4221219,44.1261993 47.4221219,44.0346863 L47.4221219,35.5971956 C47.4221219,35.5056827 47.3856433,35.4324723 47.3126862,35.3958672 L40.0352144,31.1862731 C39.9622573,31.1496679 39.8710609,31.1496679 39.8163431,31.1862731 L32.5388713,35.3958672 C32.4659142,35.4324723 32.4294357,35.5239852 32.4294357,35.5971956 L32.4294357,44.0346863 C32.4294357,44.1078967 32.4659142,44.1994096 32.5388713,44.2360148 L34.5269526,45.3890775 C35.60307,45.938155 36.2779233,45.2975646 36.2779233,44.6569742 L36.2779233,36.3292989 C36.2779233,36.2194834 36.3691196,36.1096679 36.4967946,36.1096679 L37.4269977,36.1096679 C37.5364334,36.1096679 37.6458691,36.2011808 37.6458691,36.3292989 L37.6458691,44.6569742 C37.6458691,46.1028782 36.8615801,46.944797 35.4936343,46.944797 C35.0741309,46.944797 34.7458239,46.944797 33.8156208,46.4872325 L31.9004966,45.3890775 C31.4262754,45.1145387 31.134447,44.6020664 31.134447,44.0529889 L31.134447,35.6154982 C31.134447,35.0664207 31.4262754,34.5539483 31.9004966,34.2794096 L39.1779684,30.0515129 C39.6339503,29.7952768 40.2540858,29.7952768 40.7100677,30.0515129 L47.9875395,34.2794096 C48.4617607,34.5539483 48.7535892,35.0664207 48.7535892,35.6154982 L48.7535892,44.0529889 C48.7535892,44.6020664 48.4617607,45.1145387 47.9875395,45.3890775 L40.7100677,49.6169742 C40.4729571,49.7267897 40.1993679,49.7816974 39.9440181,49.7816974 Z M42.1874492,43.9797786 C38.9955756,43.9797786 38.3389616,42.515572 38.3389616,41.2709963 C38.3389616,41.1611808 38.430158,41.0513653 38.557833,41.0513653 L39.5062754,41.0513653 C39.6157111,41.0513653 39.7069074,41.1245756 39.7069074,41.2343911 C39.8528217,42.204428 40.2723251,42.6802952 42.2056885,42.6802952 C43.7377878,42.6802952 44.3944018,42.3325461 44.3944018,41.5089299 C44.3944018,41.0330627 44.212009,40.6853137 41.8226637,40.4473801 C39.8345824,40.2460517 38.5943115,39.8067897 38.5943115,38.2144649 C38.5943115,36.7319557 39.8345824,35.8534317 41.91386,35.8534317 C44.2484876,35.8534317 45.3975621,36.6587454 45.5434763,38.4157934 C45.5434763,38.4707011 45.525237,38.5256089 45.4887585,38.5805166 C45.4522799,38.6171218 45.3975621,38.6537269 45.3428442,38.6537269 L44.3944018,38.6537269 C44.3032054,38.6537269 44.212009,38.5805166 44.1937698,38.4890037 C43.9748984,37.4823616 43.4094808,37.1529151 41.91386,37.1529151 C40.2358465,37.1529151 40.0352144,37.7385978 40.0352144,38.1778598 C40.0352144,38.7086347 40.2723251,38.8733579 42.5339955,39.1661993 C44.7774266,39.4590406 45.8353047,39.88 45.8353047,41.4540221 C45.8170655,43.0646494 44.5038375,43.9797786 42.1874492,43.9797786 Z M17.3637923,16.7821402 C17.3637923,16.4526937 17.1813995,16.1415498 16.8895711,15.9768266 L9.15611738,11.5109963 C9.02844244,11.437786 8.88252822,11.4011808 8.736614,11.3828782 L8.66365688,11.3828782 C8.51774266,11.3828782 8.37182844,11.437786 8.2441535,11.5109963 L0.510699774,15.9768266 C0.218871332,16.1415498 0.0364785553,16.4526937 0.0364785553,16.7821402 L0.054717833,28.7886347 C0.054717833,28.9533579 0.145914221,29.1180812 0.291828442,29.1912915 C0.437742664,29.2828044 0.62013544,29.2828044 0.747810384,29.1912915 L5.34410835,26.5557196 C5.63593679,26.3909963 5.81832957,26.0798524 5.81832957,25.7504059 L5.81832957,20.1315129 C5.81832957,19.8020664 6.00072235,19.4909225 6.29255079,19.3261993 L8.2441535,18.1914391 C8.39006772,18.0999262 8.55422122,18.063321 8.71837472,18.063321 C8.88252822,18.063321 9.04668172,18.0999262 9.17435666,18.1914391 L11.1259594,19.3261993 C11.4177878,19.4909225 11.6001806,19.8020664 11.6001806,20.1315129 L11.6001806,25.7504059 C11.6001806,26.0798524 11.7825734,26.3909963 12.0744018,26.5557196 L16.6706998,29.1912915 C16.816614,29.2828044 16.9990068,29.2828044 17.144921,29.1912915 C17.2908352,29.1180812 17.3820316,28.9533579 17.3820316,28.7886347 L17.3637923,16.7821402 Z M54.5354402,0.254907749 C54.389526,0.181697417 54.2071332,0.181697417 54.0794582,0.254907749 C53.933544,0.346420664 53.8423476,0.492841328 53.8423476,0.657564576 L53.8423476,12.5542435 C53.8423476,12.664059 53.7876298,12.7738745 53.6781941,12.8470849 C53.5687585,12.9019926 53.4593228,12.9019926 53.3498871,12.8470849 L51.4165237,11.7306273 C51.1246953,11.5659041 50.778149,11.5659041 50.4863205,11.7306273 L42.7528668,16.2147601 C42.4610384,16.3794834 42.2786456,16.6906273 42.2786456,17.0200738 L42.2786456,25.9700369 C42.2786456,26.2994834 42.4610384,26.6106273 42.7528668,26.7753506 L50.4863205,31.2594834 C50.778149,31.4242066 51.1246953,31.4242066 51.4165237,31.2594834 L59.1499774,26.7753506 C59.4418059,26.6106273 59.6241986,26.2994834 59.6241986,25.9700369 L59.6241986,3.65918819 C59.6241986,3.31143911 59.4418059,3.0002952 59.1499774,2.83557196 L54.5354402,0.254907749 Z M21.3826273,26.416971 L21.3764334,26.4276015 C21.2305192,26.2628782 21.1575621,26.0615498 21.1575621,25.8419188 L21.1575621,16.9651661 C21.1575621,16.6357196 21.3399549,16.3245756 21.6317833,16.1598524 L29.3105192,11.7123247 C29.5266014,11.5858392 29.7604611,11.5485493 29.9945473,11.6180665 L30.0036117,11.6025092 C30.0765688,11.6208118 30.1677652,11.657417 30.2407223,11.6940221 L37.8647404,16.1415498 C37.9741761,16.1964576 38.0471332,16.2696679 38.101851,16.3428782 L38.0884526,16.3674866 C38.2131291,16.531486 38.2842438,16.748326 38.2842438,16.9651661 L38.2842438,25.8419188 C38.2842438,26.1713653 38.1565688,26.4825092 37.8647404,26.6472325 L30.2224831,31.0947601 C30.1677652,31.1313653 30.0948081,31.1496679 30.0400903,31.1679705 L34.4346966,23.0782288 L30.0400903,31.1496679 C29.8029797,31.2411808 29.5476298,31.2045756 29.3105192,31.0764576 L21.6317833,26.6289299 C21.5431498,26.5755652 21.4545164,26.5049123 21.3826273,26.416971 Z M29.7847405,31.2182578 C29.7847405,31.2182578 29.7847404,31.2182578 29.7847404,31.2182578 C29.7847404,31.2182578 29.7847405,31.2182578 29.7847405,31.2182578 Z M53.8241084,23.023321 C53.8241084,23.1148339 53.7876298,23.1880443 53.7146727,23.2246494 L51.0699774,24.7620664 C50.9970203,24.7986716 50.9058239,24.7986716 50.8328668,24.7620664 L48.1881716,23.2246494 C48.1152144,23.1880443 48.0787359,23.0965314 48.0787359,23.023321 L48.0787359,19.9484871 C48.0787359,19.8569742 48.1152144,19.7837638 48.1881716,19.7471587 L50.8328668,18.2097417 C50.9058239,18.1731365 50.9970203,18.1731365 51.0699774,18.2097417 L53.7146727,19.7471587 C53.7876298,19.7837638 53.8241084,19.8752768 53.8241084,19.9484871 L53.8241084,23.023321 Z M80.2710609,19.8752768 C80.5628894,19.7105535 80.7270429,19.3994096 80.7270429,19.0699631 L80.7270429,16.8919557 C80.7270429,16.5625092 80.5446501,16.2513653 80.2710609,16.0866421 L72.5923251,11.6208118 C72.3004966,11.4560886 71.9539503,11.4560886 71.6621219,11.6208118 L63.9286682,16.1049446 C63.6368397,16.2696679 63.454447,16.5808118 63.454447,16.9102583 L63.454447,25.8602214 C63.454447,26.1896679 63.6368397,26.5008118 63.9286682,26.6655351 L71.6074041,31.058155 C71.8992325,31.2228782 72.2457788,31.2228782 72.5193679,31.058155 L77.1703837,28.4591882 C77.316298,28.3859779 77.4074944,28.2212546 77.4074944,28.0565314 C77.4074944,27.8918081 77.316298,27.7270849 77.1703837,27.6538745 L69.4004515,23.1697417 C69.2545372,23.0782288 69.1633409,22.9318081 69.1633409,22.7670849 L69.1633409,19.9667897 C69.1633409,19.8020664 69.2545372,19.6373432 69.4004515,19.5641328 L71.8262754,18.1731365 C71.9721896,18.0816236 72.1545824,18.0816236 72.3004966,18.1731365 L74.7263205,19.5641328 C74.8722348,19.6556458 74.9634312,19.8020664 74.9634312,19.9667897 L74.9634312,22.1630996 C74.9634312,22.3278229 75.0546275,22.4925461 75.2005418,22.5657565 C75.346456,22.6572694 75.5288488,22.6572694 75.674763,22.5657565 L80.2710609,19.8752768 Z M72.0086682,19.4543173 C72.063386,19.4177122 72.1363431,19.4177122 72.1910609,19.4543173 L73.6684424,20.3145387 C73.7231603,20.3511439 73.7596388,20.4060517 73.7596388,20.479262 L73.7596388,22.1997048 C73.7596388,22.2729151 73.7231603,22.3278229 73.6684424,22.364428 L72.1910609,23.2246494 C72.1363431,23.2612546 72.063386,23.2612546 72.0086682,23.2246494 L70.5312867,22.364428 C70.4765688,22.3278229 70.4400903,22.2729151 70.4400903,22.1997048 L70.4400903,20.479262 C70.4400903,20.4060517 70.4765688,20.3511439 70.5312867,20.3145387 L72.0086682,19.4543173 Z" id="background"></path>
            </g>
            <g id="python-hover" transform="translate(210.000000, 19.000000)" fill="url(#linearGradient-2)" sketch:type="MSShapeGroup">
                <path d="M33.0021034,11.4800419 C33.0021034,8.79145353 32.2484159,7.41116691 30.7410408,7.33558368 C30.1412742,7.30679086 29.5556637,7.40396824 28.9859736,7.6289178 C28.5312846,7.79447975 28.2252108,7.95824341 28.0642109,8.12380536 L28.0642109,14.5411461 C29.0284349,15.1566072 29.8847388,15.4427408 30.6313491,15.3977524 C32.2112621,15.2915762 33.0021034,13.9868728 33.0021034,11.4800419 Z M34.861553,11.5916167 C34.861553,12.9575059 34.5466323,14.0912489 33.9132513,14.9928435 C33.2073324,16.0132116 32.2289541,16.5386921 30.9781162,16.5674868 C30.0351219,16.5980797 29.0638208,16.2975469 28.0642109,15.6676904 L28.0642109,21.5001643 L26.4471441,20.9134979 L26.4471441,7.96724036 C26.7125265,7.63611647 27.0539862,7.35178114 27.4679837,7.11063597 C28.4304398,6.54016518 29.5998928,6.24683106 30.9763465,6.23243557 L30.9993459,6.25582985 C32.257261,6.23963239 33.2267942,6.76511474 33.9079439,7.83047124 C34.5430928,8.80764914 34.861553,10.0601654 34.861553,11.5916167 Z M44.7444134,15.4193465 C44.7444134,17.2513305 44.5639535,18.5200419 44.2030339,19.2254817 C43.8403427,19.9309215 43.1503479,20.4941936 42.1312762,20.9134979 C41.3050508,21.2446218 40.411595,21.4245811 39.4526784,21.455174 L39.1855263,20.4186104 C40.1603652,20.2836414 40.8468241,20.1486705 41.2448975,20.0137015 C42.0286617,19.7437635 42.5665053,19.3298577 42.8619643,18.7755826 C43.0990397,18.3238857 43.2158086,17.4618828 43.2158086,16.1859722 L43.2158086,15.7576709 C42.1100465,16.2687541 40.9512065,16.5224965 39.7392922,16.5224965 C38.9431435,16.5224965 38.2407623,16.2687541 37.63569,15.7576709 C36.9563083,15.2015956 36.6166184,14.4961558 36.6166184,13.6413516 L36.6166184,6.79570769 L38.2336851,6.23243557 L38.2336851,13.1230679 C38.2336851,13.8591006 38.4672229,14.425973 38.9342965,14.8236832 C39.4013702,15.2213915 40.0064443,15.4121479 40.7477472,15.3977524 C41.4890502,15.3815549 42.2834292,15.0900209 43.1273466,14.519552 L43.1273466,6.48077941 L44.7444134,6.48077941 L44.7444134,15.4193465 Z M51.0569898,16.4775062 C50.8641453,16.4937018 50.6872232,16.5009005 50.5244554,16.5009005 C49.609768,16.5009005 48.896772,16.2795512 48.387237,15.8350524 C47.8794701,15.3905537 47.6247044,14.7768928 47.6247044,13.9940715 L47.6247044,7.51554296 L46.5171726,7.51554296 L46.5171726,6.48077941 L47.6247044,6.48077941 L47.6247044,3.73280338 L49.2400014,3.14793526 L49.2400014,6.48077941 L51.0569898,6.48077941 L51.0569898,7.51554296 L49.2400014,7.51554296 L49.2400014,13.9490812 C49.2400014,14.5663405 49.4027692,15.0036406 49.7283066,15.2591831 C50.0078433,15.4697353 50.4519175,15.5903089 51.0569898,15.6209018 L51.0569898,16.4775062 Z M60.8478505,16.3425372 L59.2307837,16.3425372 L59.2307837,9.993581 C59.2307837,9.34752698 59.0821685,8.79145353 58.7867113,8.32715892 C58.4452516,7.80167842 57.971099,7.53893724 57.362489,7.53893724 C56.6211843,7.53893724 55.6941123,7.93664741 54.5812766,8.73206776 L54.5812766,16.3425372 L52.9642081,16.3425372 L52.9642081,1.16658674 L54.5812766,0.648304899 L54.5812766,7.56053324 C55.6145008,6.79570769 56.7432606,6.41239485 57.9693292,6.41239485 C58.8256331,6.41239485 59.5191673,6.70572713 60.049932,7.29059525 C60.5824682,7.87546152 60.8478505,8.60429558 60.8478505,9.47529731 L60.8478505,16.3425372 Z M69.4427192,11.220901 C69.4427192,10.1879358 69.2498766,9.33492978 68.8659538,8.66008294 C68.4094968,7.8376699 67.7000403,7.40396824 66.7411219,7.35897796 C64.9683645,7.46335586 64.0837556,8.75546204 64.0837556,11.2316981 C64.0837556,12.3672411 64.2677531,13.3156244 64.6392876,14.0768515 C65.1134403,15.0468308 65.8246666,15.5255227 66.7729683,15.5093271 C68.5528028,15.4949298 69.4427192,14.0660544 69.4427192,11.220901 Z M71.2137105,11.2316981 C71.2137105,12.7019653 70.8439439,13.9256869 70.1061786,14.9028648 C69.2941076,15.997016 68.1724214,16.5458908 66.7411219,16.5458908 C65.3222088,16.5458908 64.2164467,15.997016 63.4185282,14.9028648 C62.6949173,13.9256869 62.3339958,12.7019653 62.3339958,11.2316981 C62.3339958,9.8496132 62.7249939,8.68707748 63.5069884,7.74049252 C64.3332156,6.73632008 65.4195159,6.23243557 66.7623516,6.23243557 C68.1051909,6.23243557 69.1985666,6.73632008 70.0407179,7.74049252 C70.8227105,8.68707748 71.2137105,9.8496132 71.2137105,11.2316981 Z M80.4844196,16.3425372 L78.8673528,16.3425372 L78.8673528,9.63366244 C78.8673528,8.89762971 78.6497392,8.32356051 78.2145119,7.90965288 C77.7792828,7.49754722 77.1989797,7.29779207 76.4753688,7.31398953 C75.7075287,7.32838686 74.9768389,7.58392752 74.2833064,8.07881508 L74.2833064,16.3425372 L72.6662397,16.3425372 L72.6662397,7.87546152 C73.5968493,7.1862192 74.4531514,6.73632008 75.235144,6.52576785 C75.9729111,6.32961295 76.6239841,6.23243557 77.1848272,6.23243557 C77.5687481,6.23243557 77.9296678,6.27022719 78.2693577,6.34580857 C78.9045084,6.4951749 79.4211187,6.77231156 79.819194,7.17902053 C80.2632664,7.6289178 80.4844196,8.16879564 80.4844196,8.80045048 L80.4844196,16.3425372 Z M10.475793,1.22736276 C9.64380223,1.23129503 8.84926964,1.30346991 8.15016277,1.42930022 C6.09068155,1.79938882 5.71675959,2.57401598 5.71675941,4.00256044 L5.71675941,5.88923328 L10.5835661,5.88923328 L10.5835661,6.51812423 L5.71675941,6.51812423 L3.89028882,6.51812423 C2.47585929,6.51812423 1.23734429,7.38287203 0.849952649,9.02791837 C0.403101288,10.9135233 0.383281001,12.0901715 0.849952649,14.0590459 C1.19590266,15.5245999 2.02207814,16.5688397 3.43650731,16.5688401 L5.10982664,16.5688401 L5.10982664,14.3071405 C5.10982664,12.6731961 6.49969479,11.2319219 8.15016277,11.2319215 L13.0112972,11.2319215 C14.3644648,11.2319215 15.4447011,10.0986413 15.4447006,8.71635772 L15.4447006,4.00256044 C15.4447006,2.66098692 14.3320319,1.65320341 13.0112972,1.42930022 C12.1752525,1.28774085 11.3077838,1.22343048 10.475793,1.22736276 Z M7.84386025,2.74477855 C8.34656794,2.74477855 8.75709554,3.16917419 8.75709554,3.69099979 C8.75709518,4.21097578 8.34656794,4.63145139 7.84386025,4.63145139 C7.33935032,4.6314512 6.93062495,4.21097559 6.93062495,3.69099979 C6.93062477,3.16917437 7.33935032,2.74477855 7.84386025,2.74477855 Z M16.0516334,6.51812423 L16.0516334,8.71635772 C16.0516334,10.4206185 14.6311348,11.8550426 13.0112972,11.8550428 L8.15016277,11.8550428 C6.81861661,11.8550428 5.71675959,13.0142299 5.71675941,14.3706066 L5.71675941,19.0844033 C5.71675941,20.425977 6.86366278,21.2150757 8.15016277,21.5999671 C9.69072033,22.0607279 11.1680344,22.1439991 13.0112972,21.5999671 C14.2365354,21.2391309 15.4447011,20.5129463 15.4447006,19.0844033 L15.4447006,17.197731 L10.5835661,17.197731 L10.5835661,16.5688401 L15.4447006,16.5688401 L17.8781047,16.5688401 C19.2925344,16.5688401 19.8196089,15.5653087 20.3115062,14.0590459 C20.8196199,12.5083719 20.7979999,11.0171476 20.3115062,9.02791837 C19.9619529,7.59567341 19.2943332,6.51812423 17.8781047,6.51812423 L16.0516334,6.51812423 Z M13.3175997,18.4555129 C13.82211,18.4555135 14.230835,18.8759891 14.230835,19.395964 C14.2308347,19.9177888 13.8221095,20.3421852 13.3175997,20.3421852 C12.8148915,20.3421852 12.4043645,19.9177888 12.4043645,19.395964 C12.4043648,18.8759891 12.814891,18.4555129 13.3175997,18.4555129 Z M83.6334037,5.01435435 L83.9169173,5.01435435 L83.9169173,3.20568891 L84.5885375,3.20568891 L84.5885375,2.99010556 L82.9617835,2.99010556 L82.9617835,3.20568891 L83.6334037,3.20568891 L83.6334037,5.01435435 Z M84.8399216,5.01435435 L85.0821447,5.01435435 L85.0821447,3.36247731 L85.6078797,5.01414683 L85.8775511,5.01414683 L86.4253852,3.36807709 L86.4253852,5.01435435 L86.6896294,5.01435435 L86.6896294,2.99010556 L86.3400561,2.99010556 L85.7413713,4.72429498 L85.2307818,2.99010556 L84.8399216,2.99010556 L84.8399216,5.01435435 Z M17.1607126,24.804402 C17.1607126,25.2639758 15.9176406,25.6886395 13.8997498,25.9184264 C11.881859,26.1482133 9.39571506,26.1482133 7.37782427,25.9184264 C5.35993348,25.6886395 4.11686151,25.2639758 4.11686155,24.804402 C4.1168615,24.3448282 5.35993347,23.9201645 7.37782426,23.6903776 C9.39571505,23.4605907 11.881859,23.4605907 13.8997498,23.6903776 C15.9176406,23.9201645 17.1607126,24.3448282 17.1607126,24.804402 Z" id="Rectangle"></path>
            </g>
            <g id="django-hover" transform="translate(0.000000, 18.000000)" fill="url(#linearGradient-4)" sketch:type="MSShapeGroup">
                <path d="M10.1017505,0.55567037 L14.4128919,0.55567037 L14.4128919,20.6086481 C12.201337,21.0305926 10.5776158,21.1993704 8.81411485,21.1993704 C3.55124277,21.1993704 0.807838416,18.8085333 0.807838416,14.2226778 C0.807838416,9.80614444 3.71937584,6.93674074 8.22628119,6.93674074 C8.92608317,6.93674074 9.45793267,6.99318148 10.1019311,7.1615963 L10.1019311,0.55567037 L10.1017505,0.55567037 Z M10.1017505,10.6496704 C9.59789307,10.4810741 9.17801188,10.4248148 8.64616238,10.4248148 C6.4625996,10.4248148 5.20277545,11.7752185 5.20277545,14.1379259 C5.20277545,16.4451 6.40661545,17.7109333 8.6181703,17.7109333 C9.09385505,17.7109333 9.48592475,17.6828037 10.1017505,17.5987778 L10.1017505,10.6496704 Z M21.2711319,7.2458037 L21.2711319,17.2891704 C21.2711319,20.7491148 21.0192032,22.408763 20.263417,23.843737 C19.5634345,25.2222704 18.6395152,26.0939259 16.7360539,27.0505148 L12.7328253,25.1375185 C14.6364673,24.2373704 15.5602059,23.4502852 16.1480396,22.2399852 C16.7640459,21.002463 16.9601711,19.5673074 16.9601711,15.7977556 L16.9601711,7.2458037 L21.2711319,7.2458037 Z M16.9601711,0.578718519 L21.2711319,0.578718519 L21.2711319,5.02374444 L16.9601711,5.02374444 L16.9601711,0.578718519 L16.9601711,0.578718519 Z M23.8751176,8.23052222 C25.7789402,7.33019259 27.5984253,6.93655926 29.5860436,6.93655926 C31.7975984,6.93655926 33.2531865,7.52728148 33.897185,8.68077778 C34.2609014,9.32757778 34.3728697,10.1714667 34.3728697,11.9723074 L34.3728697,20.7772444 C32.441055,21.0589037 30.0057442,21.2556296 28.2142511,21.2556296 C24.6030923,21.2556296 22.9791905,19.9894333 22.9791905,17.1766519 C22.9791905,14.1379259 25.1347612,12.7316259 30.4258059,12.2811889 L30.4258059,11.3246 C30.4258059,10.5371519 30.0339168,10.256037 28.9420451,10.256037 C27.3464966,10.256037 25.554823,10.7059296 23.874937,11.5781296 L23.874937,8.23052222 L23.8751176,8.23052222 Z M30.6217505,15.1228259 C27.7661972,15.4044852 26.8424586,15.8543778 26.8424586,16.979563 C26.8424586,17.8234519 27.3744887,18.2174481 28.550156,18.2174481 C29.1941545,18.2174481 29.7818075,18.1610074 30.6217505,18.0207222 L30.6217505,15.1228259 Z M36.4726368,7.92127778 C39.019916,7.2458037 41.1195026,6.93655926 43.2470812,6.93655926 C45.458636,6.93655926 47.0543651,7.44252963 48.006457,8.42761111 C48.9022036,9.35552593 49.1819438,10.3681926 49.1819438,12.5349 L49.1819438,21.0305926 L44.870983,21.0305926 L44.870983,12.7034963 C44.870983,11.0438481 44.3111414,10.4246333 42.771577,10.4246333 C42.1837434,10.4246333 41.6518939,10.4810741 40.7837782,10.7342407 L40.7837782,21.0304111 L36.4728174,21.0304111 L36.4728174,7.92127778 L36.4726368,7.92127778 Z M50.8578566,23.393663 C52.3697901,24.1811111 53.8813624,24.5467963 55.4769109,24.5467963 C58.3041109,24.5467963 59.5079509,23.393663 59.5079509,20.6365963 L59.5079509,20.5518444 C58.6681885,20.9739704 57.8282455,21.1429296 56.708743,21.1429296 C52.9294511,21.1429296 50.5215905,18.6390296 50.5215905,14.6727519 C50.5215905,9.74952222 54.0771263,6.96468889 60.3755248,6.96468889 C62.2233632,6.96468889 63.9310606,7.16141481 66.002655,7.5829963 L64.5264792,10.7084704 C63.3786234,10.4832519 64.4345568,10.678163 63.5671636,10.5937741 L63.5671636,11.0438481 L63.6229671,12.8720926 L63.6507786,15.2353444 C63.6787707,15.8257037 63.6787707,16.4167889 63.7069434,17.0073296 L63.7069434,18.189137 C63.7069434,21.9026111 63.3990305,23.6468296 62.4752919,25.0812593 C61.1314915,27.1913444 58.8079683,28.2321407 55.5047224,28.2321407 C53.825017,28.2321407 52.3696095,27.9787926 50.857676,27.3880704 L50.857676,23.393663 L50.8578566,23.393663 Z M59.4241552,10.4529444 L59.2843754,10.4529444 L58.976282,10.4529444 C58.1367002,10.4248148 57.1569774,10.6496704 56.4848063,11.0716148 C55.44928,11.6627 54.9170693,12.7314444 54.9170693,14.2508074 C54.9170693,16.4171519 55.9811295,17.6546741 57.8845909,17.6546741 C58.4724246,17.6546741 58.9484705,17.5421556 59.5081315,17.3733778 L59.5081315,17.0639519 L59.5081315,15.8825074 C59.5081315,15.3761741 59.48032,14.8132185 59.48032,14.2226778 L59.4525085,12.2252926 L59.4243358,10.7906815 L59.4243358,10.4529444 L59.4241552,10.4529444 Z M72.6952903,6.88048148 C77.0062511,6.88048148 79.6378677,9.60941852 79.6378677,14.0255889 C79.6378677,18.5548222 76.894644,21.3960963 72.5273378,21.3960963 C68.2160158,21.3960963 65.5565877,18.6673407 65.5565877,14.2791185 C65.5567683,9.72139259 68.3003533,6.88048148 72.6952903,6.88048148 Z M72.6109529,17.9078407 C74.2628467,17.9078407 75.2427501,16.5293074 75.2427501,14.1379259 C75.2427501,11.7752185 74.2908388,10.3683741 72.6394867,10.3683741 C70.9316087,10.3683741 69.9515248,11.7472704 69.9515248,14.1379259 C69.9517053,16.5294889 70.9316087,17.9078407 72.6109529,17.9078407 L72.6109529,17.9078407 Z" id="Rectangle-shape"></path>
            </g>
            <g id="javascript-copy" transform="translate(123.000000, 25.000000)" fill="url(#linearGradient-5)" sketch:type="MSShapeGroup">
                <path d="M0.24190475,37.2246095 L7.58849525,32.7785904 C9.00579046,35.2915048 10.2950857,37.4176764 13.3876573,37.4176764 C16.3520761,37.4176764 18.2210285,36.2580571 18.2210285,31.7475811 L18.2210285,1.07329513 L27.2425906,1.07329513 L27.2425906,31.8751239 C27.2425906,41.2191238 21.7654096,45.4722286 13.7744,45.4722286 C6.5574857,45.4722286 2.36822859,41.7344761 0.241752388,37.2238475 L0.24190475,37.2246095 Z M32.142857,36.2579049 L39.4885333,32.0048 C41.4222478,35.1627429 43.9354666,37.4824381 48.381638,37.4824381 C52.1196954,37.4824381 54.5033904,35.6134857 54.5033904,33.0358096 C54.5033904,29.9426285 52.054781,28.8470094 47.930438,27.0432762 L45.6756571,26.0759619 C39.1667049,23.3055237 34.8489905,19.8257525 34.8489905,12.4793142 C34.8489905,5.7129905 40.0041905,0.557485625 48.059657,0.557485625 C53.7949715,0.557485625 57.9191619,2.5553525 60.8831236,7.775162 L53.8589713,12.2857906 C52.3123048,9.51504762 50.6373335,8.41973337 48.0598096,8.41973337 C45.4176763,8.41973337 43.7420953,10.0951617 43.7420953,12.2857906 C43.7420953,14.9923809 45.4176763,16.0881522 49.2837335,17.7637332 L51.5389715,18.7302856 C59.207543,22.0169904 63.525257,25.367543 63.525257,32.9068951 C63.525257,41.0269715 57.1456764,45.4729906 48.575162,45.4729906 C40.1978668,45.4729906 34.7846859,41.4778666 32.1430096,36.2579049 L32.142857,36.2579049 Z" id="Shape"></path>
            </g>
        </g>
    </g>
</svg>